<?xml version="1.0" encoding="UTF-8"?>
<svg id="uuid-52272054-92c5-4b87-a73a-c9a5c5bb80b7" data-name="Pattern" xmlns="http://www.w3.org/2000/svg" width="165.24mm" height="187.62mm" viewBox="0 0 468.4 531.85">
  <path d="M468.15,147.56v236.75c0,5.98-1.85,11.7-5.14,16.45-2.39,3.46-5.55,6.42-9.32,8.59l-2.57,1.48-.09-.13-7.31-9.94-41.63-56.65c7.55-5.66,12.44-14.69,12.44-24.86,0-12.6-7.5-23.44-18.28-28.32l.17-80.17.25-120v-1.16l2.01,1.16,55.01,31.76c8.95,5.16,14.46,14.71,14.46,25.04Z" style="fill: none; stroke: #1d1d1b; stroke-miterlimit: 10; stroke-width: .5px;"/>
  <path d="M336.57,138.67l-.15,72.09h-32.22c-16.04-20.3-40.66-33.49-68.39-34.08-.76-.02-1.54-.03-2.31-.03-28.54,0-53.96,13.33-70.38,34.11h-35.62c-2.2-3.01-4.69-5.78-7.44-8.28l45.28-111.72h139.7c-2.35,3.45-4.01,7.4-4.8,11.66-.35,1.86-.53,3.78-.53,5.74,0,14.27,9.62,26.29,22.73,29.92,2.64.74,5.44,1.13,8.32,1.13,1.99,0,3.93-.19,5.81-.54Z" style="fill: none; stroke: #1d1d1b; stroke-miterlimit: 10; stroke-width: .5px;"/>
  <path d="M336.42,210.76l-.38,179.21h0s-4.74,10.79-4.74,10.79h-118.08c.01-.22.01-.45.01-.68,0-12.82-7.77-23.83-18.86-28.57-1.53-.64-3.12-1.18-4.76-1.58l5.89-22.39c11.54,5.41,24.42,8.43,38,8.43.77,0,1.55,0,2.31-.03,48.6-1.05,87.67-40.78,87.67-89.63,0-20.98-7.2-40.27-19.28-55.55h32.22Z" style="fill: none; stroke: #1d1d1b; stroke-miterlimit: 10; stroke-width: .5px;"/>
  <path d="M331.3,400.76l-46.58,106.15-26.79,15.47-9.27,5.35c-4.31,2.48-9.09,3.77-13.88,3.86-.05,0-.12,0-.18,0-.04,0-.08,0-.12,0h-.08c-5.06.04-10.12-1.26-14.66-3.87l-62.22-35.93,16.28-61.82c2.67.75,5.48,1.15,8.38,1.15,16.92,0,30.68-13.53,31.04-30.37h118.08Z" style="fill: none; stroke: #1d1d1b; stroke-miterlimit: 10; stroke-width: .5px;"/>
  <path d="M396.67,89.6v1.16l-.25,120h-60l.15-72.09c14.37-2.72,25.24-15.35,25.24-30.51s-10.8-27.71-25.11-30.48l.05-22.68,59.92,34.6Z" style="fill: none; stroke: #1d1d1b; stroke-miterlimit: 10; stroke-width: .5px;"/>
  <path d="M336.75,55l-.05,22.68c-1.92-.38-3.91-.57-5.94-.57-10.7,0-20.14,5.41-25.72,13.65h-139.7l29.21-72.08,25.19-14.54c4.54-2.61,9.6-3.92,14.66-3.88h.08s.08.01.12,0c.06.01.13.01.18.01,4.79.09,9.57,1.39,13.88,3.87l9.64,5.57,78.45,45.29Z" style="fill: none; stroke: #1d1d1b; stroke-miterlimit: 10; stroke-width: .5px;"/>
  <path d="M143.84,266.31c0,9.42,1.45,18.5,4.15,27.03l-91.8,25.03.06-27.7c7.97,4.53,17.18,7.11,27,7.11,30.24,0,54.76-24.51,54.76-54.76,0-12.06-3.9-23.21-10.51-32.26h35.62c-12.07,15.28-19.28,34.57-19.28,55.55Z" style="fill: none; stroke: #1d1d1b; stroke-miterlimit: 10; stroke-width: .5px;"/>
  <path d="M195.5,347.54l-5.89,22.39c-2.38-.59-4.87-.9-7.43-.9-7.24,0-13.9,2.48-19.18,6.63-4.69,3.68-8.29,8.69-10.24,14.46l-96.57-35.78v-35.97l91.8-25.03c7.58,24.01,24.99,43.65,47.51,54.2Z" style="fill: none; stroke: #1d1d1b; stroke-miterlimit: 10; stroke-width: .5px;"/>
  <path d="M173.8,429.98l-16.28,61.82-101.33-58.5v-78.96l96.57,35.78c-1.06,3.12-1.63,6.47-1.63,9.96,0,14.25,9.59,26.25,22.67,29.9Z" style="fill: none; stroke: #1d1d1b; stroke-miterlimit: 10; stroke-width: .5px;"/>
  <path d="M56.25,290.67l-.06,27.7v35.97L.25,333.62v-186.06c0-5.62,1.63-11.01,4.56-15.59l50.05,64.22c-15.81,9.6-26.37,26.99-26.37,46.83s11.18,38.24,27.76,47.65Z" style="fill: none; stroke: #1d1d1b; stroke-miterlimit: 10; stroke-width: .5px;"/>
  <path d="M194.55,18.68l-29.21,72.08-45.28,111.72c-9.73-8.84-22.64-14.22-36.81-14.22-10.4,0-20.11,2.9-28.39,7.93L4.81,131.97c2.28-3.57,5.36-6.64,9.07-8.95.22-.14.44-.27.67-.4l.16-.1,41.94-24.22,13.07-7.54L194.55,18.68Z" style="fill: none; stroke: #1d1d1b; stroke-miterlimit: 10; stroke-width: .5px;"/>
  <path d="M56.19,354.34v78.96l-.24-.14-41.24-23.81c-3.01-1.74-5.64-3.98-7.8-6.58-.54-.65-1.05-1.32-1.52-2.01-3.29-4.75-5.14-10.47-5.14-16.45v-50.69l55.94,20.72Z" style="fill: none; stroke: #1d1d1b; stroke-miterlimit: 10; stroke-width: .5px;"/>
  <path d="M396.42,210.76l-.17,80.17c-3.89-1.75-8.22-2.73-12.77-2.73-17.15,0-31.05,13.9-31.05,31.05,0,7.09,2.37,13.62,6.37,18.85l-22.76,51.87.38-179.21h60Z" style="fill: none; stroke: #1d1d1b; stroke-miterlimit: 10; stroke-width: .5px;"/>
  <path d="M451.12,410.83l-55.19,31.87-60.08,34.69-51.13,29.52.11-.25,46.47-105.9,4.74-10.78h0s22.76-51.88,22.76-51.88c5.68,7.42,14.62,12.2,24.68,12.2,6.98,0,13.43-2.31,18.61-6.19l41.63,56.65,7.31,9.94.09.13Z" style="fill: none; stroke: #1d1d1b; stroke-miterlimit: 10; stroke-width: .5px;"/>
  <path d="M361.81,108.16c0,15.16-10.87,27.79-25.24,30.51-1.88.35-3.82.54-5.81.54-2.88,0-5.68-.39-8.32-1.13-13.11-3.63-22.73-15.65-22.73-29.92,0-1.96.18-3.88.53-5.74.79-4.26,2.45-8.21,4.8-11.66,5.58-8.24,15.02-13.65,25.72-13.65,2.03,0,4.02.19,5.94.57,14.31,2.77,25.11,15.36,25.11,30.48Z" style="fill: none; stroke: #1d1d1b; stroke-miterlimit: 10; stroke-width: .5px;"/>
  <path d="M213.23,400.08c0,.23,0,.46-.01.68-.36,16.84-14.12,30.37-31.04,30.37-2.9,0-5.71-.4-8.38-1.15-13.08-3.65-22.67-15.65-22.67-29.9,0-3.49.57-6.84,1.63-9.96,1.95-5.77,5.55-10.78,10.24-14.46,5.28-4.15,11.94-6.63,19.18-6.63,2.56,0,5.05.31,7.43.9,1.64.4,3.23.94,4.76,1.58,11.09,4.74,18.86,15.75,18.86,28.57Z" style="fill: none; stroke: #1d1d1b; stroke-miterlimit: 10; stroke-width: .5px;"/>
  <path d="M138.01,243.02c0,30.25-24.52,54.76-54.76,54.76-9.82,0-19.03-2.58-27-7.11-16.58-9.41-27.76-27.22-27.76-47.65s10.56-37.23,26.37-46.83c8.28-5.03,17.99-7.93,28.39-7.93,14.17,0,27.08,5.38,36.81,14.22,2.75,2.5,5.24,5.27,7.44,8.28,6.61,9.05,10.51,20.2,10.51,32.26Z" style="fill: none; stroke: #1d1d1b; stroke-miterlimit: 10; stroke-width: .5px;"/>
  <path d="M414.53,319.25c0,10.17-4.89,19.2-12.44,24.86-5.18,3.88-11.63,6.19-18.61,6.19-10.06,0-19-4.78-24.68-12.2-4-5.23-6.37-11.76-6.37-18.85,0-17.15,13.9-31.05,31.05-31.05,4.55,0,8.88.98,12.77,2.73,10.78,4.88,18.28,15.72,18.28,28.32Z" style="fill: none; stroke: #1d1d1b; stroke-miterlimit: 10; stroke-width: .5px;"/>
  <path id="uuid-348c78a3-7722-45d9-a2ec-917e2ba7b30f" data-name="&amp;lt;Centre&amp;gt;" d="M323.48,266.31c0,48.85-39.07,88.58-87.67,89.63-.76.02-1.54.03-2.31.03-13.58,0-26.46-3.02-38-8.43-22.52-10.55-39.93-30.19-47.51-54.2-2.7-8.53-4.15-17.61-4.15-27.03,0-20.98,7.21-40.27,19.28-55.55,16.42-20.78,41.84-34.11,70.38-34.11.77,0,1.55,0,2.31.03,27.73.59,52.35,13.78,68.39,34.08,12.08,15.28,19.28,34.57,19.28,55.55Z" style="fill: none; stroke: #1d1d1b; stroke-miterlimit: 10; stroke-width: .5px;"/>
</svg>