<?xml version="1.0" encoding="UTF-8"?>
<svg id="uuid-72373beb-b5e4-4b26-9140-4d2ac12f32e7" data-name="Patterm" xmlns="http://www.w3.org/2000/svg" width="165.24mm" height="187.62mm" viewBox="0 0 468.4 531.85">
  <path d="M368.92,73.58l-22.69,34.99-18.76,28.94-40.02-23.1,3.23-5.84,18.65-33.78c4.35,2.4,9.35,3.76,14.67,3.76,11.41,0,21.36-6.27,26.58-15.56l18.34,10.59Z" style="fill: none; stroke: #1d1d1b; stroke-miterlimit: 10; stroke-width: .5px;"/>
  <path d="M392.93,222.57v41.9c-25.48,12.78-46.21,33.62-58.84,59.19l-22.32-13.03c7.45-13.07,11.71-28.2,11.71-44.32s-4-30.33-11.05-43.13c-.24-.45-.49-.89-.74-1.33-.14-.26-.29-.51-.44-.77-2.56-4.42-5.48-8.61-8.73-12.51h59.86c5.71,8.59,15.49,14.25,26.58,14.25,1.34,0,2.67-.08,3.97-.25Z" style="fill: none; stroke: #1d1d1b; stroke-miterlimit: 10; stroke-width: .5px;"/>
  <path d="M191.91,346.6l-20.72,31.97-15.87,24.48-41.27,63.66-99.34-57.36c-3.01-1.74-5.64-3.98-7.8-6.58-4.24-5.11-6.66-11.61-6.66-18.46v-7.88c22.1-6.37,42.38-17.02,59.9-30.99,6.59,6.1,14.02,11.3,22.1,15.41,13.33,6.8,28.43,10.63,44.42,10.63,25.06,0,47.92-9.4,65.24-24.88Z" style="fill: none; stroke: #1d1d1b; stroke-miterlimit: 10; stroke-width: .5px;"/>
  <path d="M217.53,92.15c-2.78-.34-5.6-.51-8.47-.51-17.56,0-33.62,6.39-46.01,16.97l-.02-.04H38.87l36.3-20.96,39.69-22.92,10.61-6.12,5.5-3.17,12.22-7.06c17.63,23.28,44.06,39.53,74.34,43.81Z" style="fill: none; stroke: #1d1d1b; stroke-miterlimit: 10; stroke-width: .5px;"/>
  <path d="M170.63,121.18l-7.58-12.57-.02-.04H38.87l-20.75,11.98-3.41,1.97-.16.1c-.23.13-.45.26-.67.4-8.46,5.26-13.63,14.53-13.63,24.54v61.01h164.4c10.82-12.99,25.24-22.87,41.73-28.11l-35.75-59.28ZM129.69,159.67c-.01.33-.03.66-.05.98-.02.33-.05.65-.09.98-.12,1.23-.31,2.43-.58,3.61-.08.37-.17.74-.26,1.1-.01.05-.02.1-.04.15-.08.31-.17.63-.26.94-.11.36-.22.72-.34,1.07-.09.28-.19.56-.29.84-.13.38-.27.74-.42,1.1-.02.05-.04.1-.07.15-.13.31-.26.62-.39.92-.02.03-.03.06-.05.1-.14.3-.28.6-.43.89-.63,1.3-1.36,2.54-2.16,3.72-.14.21-.28.42-.44.63-.06.1-.12.19-.2.27-.19.27-.39.53-.59.79-.23.31-.47.61-.72.9-.6.71-1.23,1.4-1.88,2.06-.86.88-1.79,1.71-2.76,2.48-.09.07-.18.14-.27.21-.23.19-.46.37-.7.53-.26.2-.53.39-.8.58-.27.18-.54.37-.82.55-.03.02-.06.04-.09.06-.27.16-.53.33-.8.49-.27.16-.53.31-.81.47-.29.16-.58.32-.87.47-.15.08-.3.15-.45.23-.37.18-.74.36-1.12.54-.38.17-.76.33-1.15.49-.31.13-.62.25-.94.36-.36.14-.72.26-1.08.38-.24.08-.48.16-.72.23-.36.11-.72.21-1.08.31-.33.08-.66.16-.99.24-1.32.31-2.68.53-4.06.67-.35.03-.69.06-1.04.08-.35.02-.7.04-1.05.05-.35,0-.71.02-1.06.02s-.71-.01-1.06-.02c-.36-.01-.71-.03-1.06-.05-.31-.02-.61-.04-.91-.07-1.49-.14-2.96-.39-4.39-.73-.28-.06-.56-.14-.84-.21-.33-.09-.66-.18-.98-.28-.32-.1-.65-.2-.97-.31-.4-.13-.8-.28-1.2-.43-.34-.13-.68-.27-1.02-.41-.48-.2-.95-.42-1.42-.64-.35-.17-.69-.34-1.03-.52-.24-.13-.47-.25-.71-.39-.65-.36-1.28-.74-1.9-1.15-.26-.17-.51-.34-.77-.52-.94-.65-1.83-1.36-2.7-2.11-.21-.18-.41-.37-.62-.56-.25-.23-.5-.47-.75-.71-.49-.48-.97-.98-1.44-1.5-.23-.25-.45-.51-.68-.78-.89-1.05-1.71-2.17-2.46-3.34-.19-.29-.37-.58-.54-.88-.13-.21-.25-.42-.37-.64-.13-.21-.25-.43-.36-.65-.21-.39-.41-.79-.61-1.2-.45-.93-.85-1.88-1.21-2.87-.1-.24-.18-.48-.26-.73-.13-.39-.26-.79-.38-1.2-.12-.4-.23-.81-.33-1.22-.37-1.46-.64-2.97-.8-4.51-.04-.37-.07-.73-.09-1.1-.02-.16-.03-.32-.03-.49-.01-.17-.02-.33-.02-.5-.01-.2-.02-.41-.02-.61-.01-.2-.01-.41-.01-.62,0-17.64,14.3-31.94,31.94-31.94s31.95,14.3,31.95,31.94c0,.44-.01.88-.03,1.31Z" style="fill: none; stroke: #1d1d1b; stroke-miterlimit: 10; stroke-width: .5px;"/>
  <path d="M352.83,467.59l-94.9,54.79-9.27,5.35c-4.31,2.48-9.09,3.77-13.88,3.86-.05,0-.12,0-.18.01-.04-.01-.08,0-.12,0h-.08c-5.06.04-10.12-1.26-14.66-3.87l-105.69-61.02,41.27-63.66,51.81,29.91c-2.32,4.42-3.63,9.45-3.63,14.79,0,17.64,14.3,31.94,31.94,31.94s31.95-14.3,31.95-31.94c0-5.53-1.4-10.73-3.88-15.26l58.23-33.62c3.45,26.12,14.59,49.81,31.09,68.72Z" style="fill: none; stroke: #1d1d1b; stroke-miterlimit: 10; stroke-width: .5px;"/>
  <path d="M320.61,381.58c0,5.86.38,11.63,1.13,17.29l-58.23,33.62c-5.41-9.94-15.95-16.69-28.07-16.69s-22.99,6.96-28.31,17.16l-51.81-29.91,15.87-24.48,20.72-31.97.49-.75c.08.04.15.08.23.12.21.11.42.21.63.31.56.3,1.13.58,1.7.85.95.46,1.9.9,2.87,1.31.63.29,1.27.56,1.91.82.81.33,1.62.66,2.44.96.82.31,1.65.61,2.48.9,2.45.85,4.95,1.59,7.49,2.22,1.35.33,2.71.63,4.08.91.7.14,1.39.27,2.09.39,1.59.27,3.19.51,4.81.7.59.07,1.19.14,1.79.19.2.02.39.04.59.06.27.03.55.05.82.07.72.06,1.44.11,2.17.15.81.05,1.62.09,2.43.12.96.02,1.92.04,2.89.04,33.39,0,62.53-18.26,77.95-45.34l22.32,13.03c-8.63,17.46-13.48,37.12-13.48,57.92Z" style="fill: none; stroke: #1d1d1b; stroke-miterlimit: 10; stroke-width: .5px;"/>
  <path d="M468.15,147.56v104.13c-5.44-.69-10.98-1.04-16.61-1.04s-11,.34-16.36,1.01c-15.02,1.87-29.25,6.29-42.25,12.81v-41.9c15.77-1.95,27.98-15.39,27.98-31.69,0-5.53-1.4-10.73-3.88-15.26-5.41-9.94-15.95-16.69-28.07-16.69-6.03,0-11.66,1.67-16.47,4.57l-45.02-25.99,18.76-28.94,22.69-34.99,60.61,34.99,18.06,10.43,6.1,3.52c8.95,5.16,14.46,14.71,14.46,25.04Z" style="fill: none; stroke: #1d1d1b; stroke-miterlimit: 10; stroke-width: .5px;"/>
  <path d="M302.61,69.78c-19.11,14.74-43.07,23.5-69.07,23.5-4.63,0-9.2-.28-13.68-.82-.04-.01-.08-.01-.12-.02-.73-.08-1.45-.18-2.17-.29h-.04c-30.28-4.28-56.71-20.53-74.34-43.81l35.14-20.29c13.42,15.4,33.18,25.14,55.21,25.14s42.22-9.95,55.64-25.65l8.61,4.97c-2.71,4.55-4.27,9.88-4.27,15.56,0,8.5,3.48,16.19,9.09,21.71Z" style="fill: none; stroke: #1d1d1b; stroke-miterlimit: 10; stroke-width: .5px;"/>
  <path d="M289.18,27.54c-13.42,15.7-33.37,25.65-55.64,25.65s-41.79-9.74-55.21-25.14l41.41-23.91c4.54-2.61,9.6-3.92,14.66-3.88h.08s.08.01.12,0c.06.01.13.01.18.01,4.79.09,9.57,1.39,13.88,3.87l9.64,5.57,30.88,17.83Z" style="fill: none; stroke: #1d1d1b; stroke-miterlimit: 10; stroke-width: .5px;"/>
  <path d="M360.65,176.09c-2.32,4.42-3.63,9.45-3.63,14.79,0,6.55,1.97,12.63,5.36,17.69h-59.86c-12.66-15.19-30.24-26.14-50.3-30.38l13.92-25.19,8.97-16.25,12.34-22.34,40.02,23.1,45.02,25.99c-5.01,3.02-9.12,7.38-11.84,12.59Z" style="fill: none; stroke: #1d1d1b; stroke-miterlimit: 10; stroke-width: .5px;"/>
  <path d="M192.4,345.85l-.49.75c-17.32,15.48-40.18,24.88-65.24,24.88-15.99,0-31.09-3.83-44.42-10.63-8.08-4.11-15.51-9.31-22.1-15.41,5.91-4.71,11.5-9.79,16.74-15.22,30.11-31.18,48.64-73.64,48.64-120.42,0-.41,0-.82-.01-1.23h39.13c-12.94,15.54-20.73,35.54-20.73,57.34,0,16.37,4.39,31.72,12.06,44.93.31.54.63,1.08.95,1.61,8.5,14.14,20.79,25.74,35.47,33.4Z" style="fill: none; stroke: #1d1d1b; stroke-miterlimit: 10; stroke-width: .5px;"/>
  <path d="M468.15,251.69v52.03c-5.36-1.14-10.91-1.74-16.61-1.74-22.3,0-42.45,9.17-56.9,23.95-14.04,14.35-22.69,33.99-22.69,55.65,0,.16,0,.32.01.48.13,23.49,10.44,44.56,26.74,59.04l-45.87,26.49c-16.5-18.91-27.64-42.6-31.09-68.72-.75-5.66-1.13-11.43-1.13-17.29,0-20.8,4.85-40.46,13.48-57.92,12.63-25.57,33.36-46.41,58.84-59.19,13-6.52,27.23-10.94,42.25-12.81,5.36-.67,10.82-1.01,16.36-1.01s11.17.35,16.61,1.04Z" style="fill: none; stroke: #1d1d1b; stroke-miterlimit: 10; stroke-width: .5px;"/>
  <path d="M468.15,303.72v80.59c0,5.43-1.52,10.64-4.26,15.11-2.48,4.04-5.96,7.48-10.2,9.93l-54.99,31.75c-16.3-14.48-26.61-35.55-26.74-59.04-.01-.16-.01-.32-.01-.48,0-21.66,8.65-41.3,22.69-55.65,14.45-14.78,34.6-23.95,56.9-23.95,5.7,0,11.25.6,16.61,1.74Z" style="fill: none; stroke: #1d1d1b; stroke-miterlimit: 10; stroke-width: .5px;"/>
  <path d="M309.33,74.79l-18.65,33.78-3.23,5.84-12.34,22.34-8.97,16.25-13.92,25.19c-6.01-1.27-12.24-1.94-18.63-1.94-9.49,0-18.63,1.47-27.21,4.21l-35.75-59.28-7.58-12.57c12.39-10.58,28.45-16.97,46.01-16.97,2.87,0,5.69.17,8.47.51h.04c.72.11,1.44.21,2.17.29.04.01.08.01.12.02,4.48.54,9.05.82,13.68.82,26,0,49.96-8.76,69.07-23.5,1.99,1.97,4.25,3.66,6.72,5.01Z" style="fill: none; stroke: #1d1d1b; stroke-miterlimit: 10; stroke-width: .5px;"/>
  <path d="M350.58,62.99c-5.22,9.29-15.17,15.56-26.58,15.56-5.32,0-10.32-1.36-14.67-3.76-2.47-1.35-4.73-3.04-6.72-5.01-5.61-5.52-9.09-13.21-9.09-21.71,0-5.68,1.56-11.01,4.27-15.56l26.45,15.27.05.03,18.64,10.76,7.65,4.42Z" style="fill: none; stroke: #1d1d1b; stroke-miterlimit: 10; stroke-width: .5px;"/>
  <path d="M63.59,209.21c0,43.92-25.94,81.79-63.34,99.1v-99.74h63.33c.01.21.01.43.01.64Z" style="fill: none; stroke: #1d1d1b; stroke-miterlimit: 10; stroke-width: .5px;"/>
  <path d="M125.53,209.8c0,46.78-18.53,89.24-48.64,120.42-5.24,5.43-10.83,10.51-16.74,15.22-17.52,13.97-37.8,24.62-59.9,30.99v-68.12c1.78-.83,3.54-1.7,5.27-2.62.42-.22.84-.44,1.26-.68.5-.27.99-.54,1.48-.82.48-.27.96-.55,1.43-.83.82-.48,1.63-.97,2.43-1.47,1.27-.79,2.52-1.61,3.76-2.45.55-.37,1.09-.75,1.63-1.13,1.9-1.35,3.75-2.75,5.55-4.21.58-.47,1.15-.95,1.72-1.43.41-.34.82-.69,1.22-1.04.36-.31.72-.63,1.08-.95.92-.81,1.81-1.64,2.69-2.48l.05-.05c.57-.54,1.13-1.09,1.69-1.65.15-.15.3-.29.43-.44.45-.44.88-.89,1.3-1.34,1.25-1.28,2.44-2.59,3.6-3.93.29-.33.57-.66.85-.99.92-1.08,1.82-2.17,2.68-3.29.28-.34.55-.69.81-1.04.41-.53.81-1.06,1.21-1.6.47-.65.94-1.3,1.4-1.96.05-.06.1-.13.14-.19.49-.7.97-1.4,1.44-2.12.37-.54.72-1.08,1.06-1.62.94-1.45,1.83-2.93,2.69-4.43.24-.41.48-.82.7-1.24.72-1.27,1.4-2.55,2.05-3.85.21-.4.41-.81.61-1.22.64-1.3,1.25-2.6,1.83-3.92.17-.38.34-.77.5-1.16.57-1.32,1.11-2.65,1.62-3.99.16-.4.31-.8.45-1.21.13-.35.26-.69.38-1.04.16-.45.32-.9.47-1.35.46-1.34.89-2.68,1.3-4.04.12-.39.23-.78.34-1.17.2-.69.39-1.38.57-2.07.24-.89.46-1.78.67-2.67.01-.03.02-.06.02-.09.17-.67.32-1.34.46-2.02.1-.41.18-.83.27-1.25.14-.65.26-1.31.38-1.96.06-.28.11-.55.15-.83.13-.68.24-1.36.34-2.05.02-.06.03-.13.03-.19.15-.9.28-1.8.4-2.7.01-.05.01-.1.02-.14.11-.85.21-1.71.3-2.56.01-.12.02-.23.03-.35.09-.81.16-1.62.22-2.44.01-.08.02-.17.02-.25.07-.81.13-1.63.17-2.45.02-.37.04-.75.05-1.13.03-.51.05-1.03.06-1.55.02-.29.02-.58.02-.87.03-.86.04-1.72.04-2.58,0-.21,0-.43-.01-.64h61.94c0,.41,0,.82,0,1.23Z" style="fill: none; stroke: #1d1d1b; stroke-miterlimit: 10; stroke-width: .5px;"/>
  <path d="M129.72,158.36c0,17.65-14.31,31.95-31.95,31.95s-31.94-14.3-31.94-31.95,14.3-31.94,31.94-31.94,31.95,14.3,31.95,31.94Z" style="fill: none; stroke: #1d1d1b; stroke-miterlimit: 10; stroke-width: .5px;"/>
  <path d="M267.39,447.75c0,17.64-14.31,31.94-31.95,31.94s-31.94-14.3-31.94-31.94c0-5.34,1.31-10.37,3.63-14.79,5.32-10.2,16-17.16,28.31-17.16s22.66,6.75,28.07,16.69c2.48,4.53,3.88,9.73,3.88,15.26Z" style="fill: none; stroke: #1d1d1b; stroke-miterlimit: 10; stroke-width: .5px;"/>
  <path d="M129.72,158.36c0,17.65-14.31,31.95-31.95,31.95s-31.94-14.3-31.94-31.95,14.3-31.94,31.94-31.94,31.95,14.3,31.95,31.94Z" style="fill: none; stroke: #1d1d1b; stroke-miterlimit: 10; stroke-width: .5px;"/>
  <path d="M420.91,190.88c0,16.3-12.21,29.74-27.98,31.69-1.3.17-2.63.25-3.97.25-11.09,0-20.87-5.66-26.58-14.25-3.39-5.06-5.36-11.14-5.36-17.69,0-5.34,1.31-10.37,3.63-14.79,2.72-5.21,6.83-9.57,11.84-12.59,4.81-2.9,10.44-4.57,16.47-4.57,12.12,0,22.66,6.75,28.07,16.69,2.48,4.53,3.88,9.73,3.88,15.26Z" style="fill: none; stroke: #1d1d1b; stroke-miterlimit: 10; stroke-width: .5px;"/>
  <path id="uuid-668af817-1a19-41e0-b387-f1ddc2c9bd21" data-name="&amp;lt;Centre&amp;gt;" d="M323.48,266.31c0,16.12-4.26,31.25-11.71,44.32-15.42,27.08-44.56,45.34-77.95,45.34-.97,0-1.93-.02-2.89-.04-.81-.03-1.62-.07-2.43-.12-.73-.04-1.45-.09-2.17-.15-.27-.02-.55-.04-.82-.07-.2-.02-.39-.04-.59-.06-.6-.05-1.2-.12-1.79-.19-1.62-.19-3.22-.43-4.81-.7-.7-.12-1.39-.25-2.09-.39-1.37-.28-2.73-.58-4.08-.91-2.54-.63-5.04-1.37-7.49-2.22-.83-.29-1.66-.59-2.48-.9-.82-.3-1.63-.63-2.44-.96-.64-.26-1.28-.53-1.91-.82-.97-.41-1.92-.85-2.87-1.31-.57-.27-1.14-.55-1.7-.85-.21-.1-.42-.2-.63-.31-.08-.04-.15-.08-.23-.12-14.68-7.66-26.97-19.26-35.47-33.4-.32-.53-.64-1.07-.95-1.61-7.67-13.21-12.06-28.56-12.06-44.93,0-21.8,7.79-41.8,20.73-57.34,10.82-12.99,25.24-22.87,41.73-28.11,8.58-2.74,17.72-4.21,27.21-4.21,6.39,0,12.62.67,18.63,1.94,20.06,4.24,37.64,15.19,50.3,30.38,3.25,3.9,6.17,8.09,8.73,12.51.15.26.3.51.44.77.25.44.5.88.74,1.33,7.05,12.8,11.05,27.5,11.05,43.13Z" style="fill: none; stroke: #1d1d1b; stroke-miterlimit: 10; stroke-width: .5px;"/>
</svg>