<?xml version="1.0" encoding="UTF-8"?>
<svg id="uuid-ee65f359-5401-409f-a8c7-56f804231cbf" data-name="Pattern" xmlns="http://www.w3.org/2000/svg" width="165.24mm" height="187.62mm" viewBox="0 0 468.4 531.85">
  <path d="M359.28,68.01v108.04l-143.44-82.81c10.17-18.3,15.97-39.37,15.97-61.79,0-10.53-1.28-20.76-3.69-30.54,2.07-.45,4.17-.67,6.28-.65h.08s.08.01.12,0c.06.01.13.01.18.01,4.79.09,9.57,1.39,13.88,3.87l9.64,5.57,100.98,58.3Z" style="fill: none; stroke: #1d1d1b; stroke-miterlimit: 10; stroke-width: .5px;"/>
  <path d="M117.35,158.09v38.82H.25v-49.35c0-10.01,5.17-19.28,13.63-24.54.22-.14.44-.27.67-.4l.16-.1.58-.33c11.95,11.76,26.22,21.18,42.06,27.5,14.59,5.83,30.52,9.04,47.19,9.04,4.33,0,8.6-.22,12.81-.64Z" style="fill: none; stroke: #1d1d1b; stroke-miterlimit: 10; stroke-width: .5px;"/>
  <path d="M28.28,286.24c0,15.97,12.94,28.92,28.91,28.92h.16v69.51H.26c-.01-.12-.01-.24-.01-.36v-187.4h57.1v60.41h-.16c-15.97,0-28.91,12.95-28.91,28.92Z" style="fill: none; stroke: #1d1d1b; stroke-miterlimit: 10; stroke-width: .5px;"/>
  <path d="M359.28,176.04v20.86h-68.27c-15.49-12.77-35.34-20.44-56.99-20.44s-41.5,7.67-56.99,20.44h-59.68v-38.82c42.43-4.24,78.72-29.32,98.49-64.85l143.44,82.81Z" style="fill: none; stroke: #1d1d1b; stroke-miterlimit: 10; stroke-width: .5px;"/>
  <path d="M117.35,196.91v158.86h-.06c-15.96,0-28.9,12.94-28.91,28.9h-31.03v-69.51c15.9-.09,28.76-13,28.76-28.92s-12.86-28.83-28.76-28.92v-60.41h60Z" style="fill: none; stroke: #1d1d1b; stroke-miterlimit: 10; stroke-width: .5px;"/>
  <path d="M359.28,196.9v153.8l-58.82,33.96h-154.25c-.01-15.91-12.87-28.81-28.76-28.9h-.1v-158.86h59.68c-.6.49-1.19.99-1.77,1.51-.59.51-1.17,1.03-1.75,1.55-.45.41-.9.83-1.35,1.26-.52.48-1.03.98-1.54,1.5-16.35,16.23-26.47,38.73-26.47,63.59,0,49.52,40.15,89.66,89.66,89.66,22.54,0,43.14-8.31,58.89-22.05,1.01-.88,2-1.78,2.97-2.71,17.25-16.33,28.01-39.45,28.01-65.09,0-27.87-12.72-52.78-32.67-69.22h68.27Z" style="fill: none; stroke: #1d1d1b; stroke-miterlimit: 10; stroke-width: .5px;"/>
  <path d="M468.15,287.84v96.46c0,.12,0,.24-.01.36-.12,10.19-5.6,19.58-14.45,24.68l-94.41,54.51v-113.15l108.87-62.86Z" style="fill: none; stroke: #1d1d1b; stroke-miterlimit: 10; stroke-width: .5px;"/>
  <path d="M359.28,196.9v153.8l108.87-62.86v-90.94h-108.87ZM413.35,285.15h-.16c-15.97,0-28.91-12.95-28.91-28.92s12.94-28.92,28.91-28.92h.16c15.9.09,28.76,13,28.76,28.92s-12.86,28.83-28.76,28.92Z" style="fill: none; stroke: #1d1d1b; stroke-miterlimit: 10; stroke-width: .5px;"/>
  <path d="M468.15,147.56v49.35h-108.87V68.01l94.41,54.51c8.95,5.16,14.46,14.71,14.46,25.04Z" style="fill: none; stroke: #1d1d1b; stroke-miterlimit: 10; stroke-width: .5px;"/>
  <path d="M117.35,413.61v55l-60-34.64-42.64-24.62c-3.01-1.74-5.64-3.98-7.8-6.58-4.17-5.02-6.57-11.38-6.65-18.1h88.12v.02c0,15.97,12.94,28.92,28.91,28.92h.06Z" style="fill: none; stroke: #1d1d1b; stroke-miterlimit: 10; stroke-width: .5px;"/>
  <path d="M300.46,384.67l-44.39,25.62h-.01c-6.9-1.21-14.01-1.84-21.26-1.84-47.04,0-87.89,26.48-108.46,65.35l-8.99-5.19v-55h.1c15.9-.09,28.76-13,28.76-28.92v-.02h154.25Z" style="fill: none; stroke: #1d1d1b; stroke-miterlimit: 10; stroke-width: .5px;"/>
  <path d="M359.28,350.71v113.15l-16.3,9.42c-17.46-32.61-49.23-56.4-86.91-62.99l44.39-25.62,58.82-33.96Z" style="fill: none; stroke: #1d1d1b; stroke-miterlimit: 10; stroke-width: .5px;"/>
  <path d="M342.98,473.28l-85.05,49.1-9.27,5.35c-4.31,2.48-9.09,3.77-13.88,3.86-.05,0-.12,0-.18.01-.04-.01-.08,0-.12,0h-.08c-5.06.04-10.12-1.26-14.66-3.87l-83.53-48.23-9.87-5.7c20.57-38.87,61.42-65.35,108.46-65.35,7.25,0,14.36.63,21.26,1.84h.01c37.68,6.59,69.45,30.38,86.91,62.99Z" style="fill: none; stroke: #1d1d1b; stroke-miterlimit: 10; stroke-width: .5px;"/>
  <path d="M231.81,31.45c0,22.42-5.8,43.49-15.97,61.79-19.77,35.53-56.06,60.61-98.49,64.85-4.21.42-8.48.64-12.81.64-16.67,0-32.6-3.21-47.19-9.04-15.84-6.32-30.11-15.74-42.06-27.5l42.06-24.29,60-34.64,23.28-13.44L219.74,4.14c2.65-1.52,5.47-2.6,8.38-3.23,2.41,9.78,3.69,20.01,3.69,30.54Z" style="fill: none; stroke: #1d1d1b; stroke-miterlimit: 10; stroke-width: .5px;"/>
  <path d="M442.11,256.23c0,15.92-12.86,28.83-28.76,28.92h-.16c-15.97,0-28.91-12.95-28.91-28.92s12.94-28.92,28.91-28.92h.16c15.9.09,28.76,13,28.76,28.92Z" style="fill: none; stroke: #1d1d1b; stroke-miterlimit: 10; stroke-width: .5px;"/>
  <path d="M146.21,384.67v.02c0,15.92-12.86,28.83-28.76,28.92h-.16c-15.97,0-28.91-12.95-28.91-28.92v-.02c.01-15.96,12.95-28.9,28.91-28.9h.16c15.89.09,28.75,12.99,28.76,28.9Z" style="fill: none; stroke: #1d1d1b; stroke-miterlimit: 10; stroke-width: .5px;"/>
  <path d="M443.86,376.79c0,15.92-12.86,28.83-28.76,28.92h-.16c-15.97,0-28.91-12.95-28.91-28.92s12.94-28.92,28.91-28.92h.16c15.9.09,28.76,13,28.76,28.92Z" style="fill: none; stroke: #1d1d1b; stroke-miterlimit: 10; stroke-width: .5px;"/>
  <path d="M442.11,256.23c0,15.92-12.86,28.83-28.76,28.92h-.16c-15.97,0-28.91-12.95-28.91-28.92s12.94-28.92,28.91-28.92h.16c15.9.09,28.76,13,28.76,28.92Z" style="fill: none; stroke: #1d1d1b; stroke-miterlimit: 10; stroke-width: .5px;"/>
  <path d="M442.11,154.24c0,15.92-12.86,28.83-28.76,28.92h-.16c-15.97,0-28.91-12.95-28.91-28.92s12.94-28.92,28.91-28.92h.16c15.9.09,28.76,13,28.76,28.92Z" style="fill: none; stroke: #1d1d1b; stroke-miterlimit: 10; stroke-width: .5px;"/>
  <path d="M86.04,286.17c0,15.93-12.83,28.84-28.7,28.93h-.16c-15.93,0-28.85-12.95-28.85-28.93s12.91-28.93,28.85-28.93h.16c15.86.09,28.7,13,28.7,28.93Z" style="fill: none; stroke: #1d1d1b; stroke-miterlimit: 10; stroke-width: .5px;"/>
  <path id="uuid-a1eeb1da-6f26-4918-bf9b-ba33cdc0b420" data-name="&amp;lt;Centre&amp;gt;" d="M323.68,266.12c0,25.64-10.76,48.76-28.01,65.09-.97.93-1.96,1.83-2.97,2.71-15.75,13.74-36.35,22.05-58.89,22.05-49.51,0-89.66-40.14-89.66-89.66,0-24.86,10.12-47.36,26.47-63.59.51-.51,1.02-1.01,1.54-1.5.45-.43.9-.85,1.35-1.26.58-.52,1.16-1.04,1.75-1.55.58-.52,1.17-1.02,1.77-1.51,15.49-12.77,35.34-20.44,56.99-20.44s41.5,7.67,56.99,20.44c19.95,16.44,32.67,41.35,32.67,69.22Z" style="fill: none; stroke: #1d1d1b; stroke-miterlimit: 10; stroke-width: .5px;"/>
</svg>