<?xml version="1.0" encoding="UTF-8"?>
<svg id="uuid-c3cc4888-3838-4d17-8741-750016fb28a3" data-name="Pattern" xmlns="http://www.w3.org/2000/svg" width="165.24mm" height="187.47mm" viewBox="0 0 468.4 531.41">
  <path d="M468.15,187.67v142.15l-58.04-100.53-31.95,55.33v-68.3c17.14-.46,30.89-14.49,30.89-31.74,0-6.48-1.94-12.51-5.28-17.53l14.45-8.46h0l49.92,29.08Z" style="fill: none; stroke: #1d1d1b; stroke-miterlimit: 10; stroke-width: .5px;"/>
  <path d="M378.16,216.32v101.52c-.29,0-.57,0-.86,0-11.69,0-21.92,6.33-27.42,15.75l-38.2-22.24c7.76-13.26,12.2-28.69,12.2-45.14s-4.47-31.98-12.26-45.26l37.41-21.87c5.28,10.25,15.96,17.26,28.27,17.26.29,0,.57,0,.86-.01Z" style="fill: none; stroke: #1d1d1b; stroke-miterlimit: 10; stroke-width: .5px;"/>
  <path d="M468.15,329.82v54.05c0,10.33-5.51,19.88-14.46,25.04l-50.97,29.43h-113.31l32.72-56.66,27.78-16.04c5.51,9.39,15.72,15.69,27.39,15.69,17.54,0,31.75-14.21,31.75-31.75s-13.75-31.28-30.89-31.74v-33.22l31.95-55.33,58.04,100.53Z" style="fill: none; stroke: #1d1d1b; stroke-miterlimit: 10; stroke-width: .5px;"/>
  <path d="M349.91,365.64l-27.78,16.04-87.88,50.73v-76.59c33.03,0,61.9-17.87,77.43-44.48l38.2,22.24c-2.76,4.7-4.33,10.16-4.33,16s1.58,11.35,4.36,16.06Z" style="fill: none; stroke: #1d1d1b; stroke-miterlimit: 10; stroke-width: .5px;"/>
  <path d="M402.72,438.34l-144.79,83.6-9.27,5.35c-4.31,2.48-9.09,3.77-13.88,3.86-.05,0-.12,0-.18,0-.04,0-.08,0-.12,0h-.23v-98.75l87.88-50.73-32.72,56.66h113.31Z" style="fill: none; stroke: #1d1d1b; stroke-miterlimit: 10; stroke-width: .5px;"/>
  <path d="M234.25,432.41v98.75c-5.01.01-10.01-1.29-14.51-3.87l-154.06-88.95h113.4l-32.71-56.66,87.88,50.73Z" style="fill: none; stroke: #1d1d1b; stroke-miterlimit: 10; stroke-width: .5px;"/>
  <path d="M234.25,355.82v76.59l-87.88-50.73-28.15-16.25c3.06-4.88,4.83-10.66,4.83-16.85,0-5.55-1.42-10.77-3.92-15.3l37.47-21.82c7.24,12.25,17.33,22.64,29.34,30.23.57.37,1.14.72,1.71,1.07.11.06.21.13.32.19.44.26.87.52,1.31.77,13.21,7.71,28.58,12.1,44.97,12.1Z" style="fill: none; stroke: #1d1d1b; stroke-miterlimit: 10; stroke-width: .5px;"/>
  <path d="M156.6,311.46l-37.47,21.82c-5.41-9.81-15.84-16.45-27.83-16.45-.32,0-.65,0-.97.02v-101.54c.32.02.65.02.97.02,12,0,22.44-6.65,27.83-16.46l37.26,21.79c-7.78,13.28-12.23,28.73-12.23,45.22s4.54,32.22,12.44,45.58Z" style="fill: none; stroke: #1d1d1b; stroke-miterlimit: 10; stroke-width: .5px;"/>
  <path d="M179.08,438.34h-113.4l-50.97-29.43c-3.01-1.74-5.64-3.98-7.8-6.58-4.24-5.11-6.66-11.61-6.66-18.46v-53.88l58.14-100.7,31.94,55.33v32.23c-17.08.51-30.78,14.52-30.78,31.73s14.22,31.75,31.75,31.75c11.35,0,21.31-5.95,26.92-14.9l28.15,16.25,32.71,56.66Z" style="fill: none; stroke: #1d1d1b; stroke-miterlimit: 10; stroke-width: .5px;"/>
  <path d="M90.33,215.31v69.31l-31.94-55.33L.25,329.99v-142.26l50.02-29.14h.01l14.06,8.23c-3.04,4.86-4.79,10.6-4.79,16.76,0,17.22,13.7,31.22,30.78,31.73Z" style="fill: none; stroke: #1d1d1b; stroke-miterlimit: 10; stroke-width: .5px;"/>
  <path d="M468.15,147.12v40.55l-49.92-29.08h0l-156.37-91.03c2.66-4.64,4.18-10.02,4.18-15.75s-1.65-11.58-4.54-16.36l20.78-12.16,171.76,99.17c2.79,1.62,5.25,3.66,7.31,6.02.09.11.19.22.28.33,4.16,5.09,6.53,11.53,6.53,18.31Z" style="fill: none; stroke: #1d1d1b; stroke-miterlimit: 10; stroke-width: .5px;"/>
  <path d="M418.22,158.59l-14.45,8.46c-5.68-8.57-15.41-14.22-26.47-14.22s-20.94,5.74-26.61,14.43l-116.44-67.23v-16.46h.03c11.81,0,22.11-6.45,27.57-16.01l156.37,91.03Z" style="fill: none; stroke: #1d1d1b; stroke-miterlimit: 10; stroke-width: .5px;"/>
  <path d="M345.55,184.58c0,5.22,1.26,10.14,3.48,14.49l-37.41,21.87c-4.34-7.4-9.71-14.12-15.91-19.95-.41-.38-.83-.77-1.25-1.16-.34-.31-.68-.62-1.03-.93-.08-.08-.17-.15-.25-.22-.46-.41-.92-.81-1.39-1.2-15.52-13.18-35.6-21.17-57.54-21.26v-76.19l116.44,67.23c-3.25,4.98-5.14,10.93-5.14,17.32Z" style="fill: none; stroke: #1d1d1b; stroke-miterlimit: 10; stroke-width: .5px;"/>
  <path d="M234.25,100.03v76.19c-.14,0-.29,0-.43,0-33.03,0-61.89,17.86-77.43,44.45l-37.26-21.79c2.5-4.54,3.92-9.75,3.92-15.29,0-6.1-1.72-11.8-4.71-16.63l115.91-66.92Z" style="fill: none; stroke: #1d1d1b; stroke-miterlimit: 10; stroke-width: .5px;"/>
  <path d="M282.27,23.29l-20.78,12.16c-5.55-9.22-15.66-15.39-27.21-15.39s-21.67,6.18-27.22,15.41l-20.83-12.18,23.54-13.58,9.64-5.57c4.3-2.48,9.08-3.78,13.87-3.87.05,0,.12,0,.18-.01.04.01.08,0,.12,0h.08c.2,0,.4,0,.59.01.19-.01.39-.01.59-.01h.08s.08.01.12,0c.06.01.13.01.18.01,4.79.09,9.57,1.39,13.87,3.87l9.64,5.57,23.54,13.58Z" style="fill: none; stroke: #1d1d1b; stroke-miterlimit: 10; stroke-width: .5px;"/>
  <path d="M234.25,83.57v16.46l-115.91,66.92c-5.58-9.07-15.6-15.12-27.04-15.12s-21.36,5.99-26.96,14.99l-14.06-8.23,156.41-91.06c5.46,9.57,15.76,16.03,27.56,16.04Z" style="fill: none; stroke: #1d1d1b; stroke-miterlimit: 10; stroke-width: .5px;"/>
  <path d="M202.53,51.81c0,5.72,1.51,11.08,4.16,15.72L50.28,158.59h-.01L.25,187.73v-40.61c0-5.23,1.41-10.25,3.96-14.61.12-.21.26-.42.39-.63,0-.02.03-.04.05-.07.15-.25.31-.49.48-.73.14-.21.28-.41.43-.61,2.34-3.21,5.36-5.95,8.91-8.01L186.23,23.29l20.83,12.18c-2.88,4.78-4.53,10.37-4.53,16.34Z" style="fill: none; stroke: #1d1d1b; stroke-miterlimit: 10; stroke-width: .5px;"/>
  <path d="M123.05,348.58c0,6.19-1.77,11.97-4.83,16.85-5.61,8.95-15.57,14.9-26.92,14.9-17.53,0-31.75-14.21-31.75-31.75s13.7-31.22,30.78-31.73c.32-.02.65-.02.97-.02,11.99,0,22.42,6.64,27.83,16.45,2.5,4.53,3.92,9.75,3.92,15.3Z" style="fill: none; stroke: #1d1d1b; stroke-miterlimit: 10; stroke-width: .5px;"/>
  <path d="M409.05,349.58c0,17.54-14.21,31.75-31.75,31.75-11.67,0-21.88-6.3-27.39-15.69-2.78-4.71-4.36-10.2-4.36-16.06s1.57-11.3,4.33-16c5.5-9.42,15.73-15.75,27.42-15.75.29,0,.57,0,.86,0,17.14.46,30.89,14.5,30.89,31.74Z" style="fill: none; stroke: #1d1d1b; stroke-miterlimit: 10; stroke-width: .5px;"/>
  <path d="M123.05,183.58c0,5.54-1.42,10.75-3.92,15.29-5.39,9.81-15.83,16.46-27.83,16.46-.32,0-.65,0-.97-.02-17.08-.51-30.78-14.51-30.78-31.73,0-6.16,1.75-11.9,4.79-16.76,5.6-9,15.58-14.99,26.96-14.99s21.46,6.05,27.04,15.12c2.99,4.83,4.71,10.53,4.71,16.63Z" style="fill: none; stroke: #1d1d1b; stroke-miterlimit: 10; stroke-width: .5px;"/>
  <path d="M409.05,184.58c0,17.25-13.75,31.28-30.89,31.74-.29.01-.57.01-.86.01-12.31,0-22.99-7.01-28.27-17.26-2.22-4.35-3.48-9.27-3.48-14.49,0-6.39,1.89-12.34,5.14-17.32,5.67-8.69,15.47-14.43,26.61-14.43s20.79,5.65,26.47,14.22c3.34,5.02,5.28,11.05,5.28,17.53Z" style="fill: none; stroke: #1d1d1b; stroke-miterlimit: 10; stroke-width: .5px;"/>
  <path d="M266.03,51.81c0,5.73-1.52,11.11-4.18,15.75-5.46,9.56-15.76,16.01-27.57,16.01h-.03c-11.8-.01-22.1-6.47-27.56-16.04-2.65-4.64-4.16-10-4.16-15.72s1.65-11.56,4.53-16.34c5.55-9.23,15.67-15.41,27.22-15.41s21.66,6.17,27.21,15.39c2.89,4.78,4.54,10.38,4.54,16.36Z" style="fill: none; stroke: #1d1d1b; stroke-miterlimit: 10; stroke-width: .5px;"/>
</svg>