<?xml version="1.0" encoding="utf-8"?>
<!-- Generator: Adobe Illustrator 28.1.0, SVG Export Plug-In . SVG Version: 6.00 Build 0)  -->
<svg version="1.1" xmlns="http://www.w3.org/2000/svg" xmlns:xlink="http://www.w3.org/1999/xlink" x="0px" y="0px"
	 viewBox="0 0 2834.6 2834.6" enable-background="new 0 0 2834.6 2834.6" xml:space="preserve">
<g id="pattern">
	<path fill="none" stroke="#000000" stroke-miterlimit="10" d="M1974.9,2419.8l-153,88.3l-72.6,41.9l-164.1,94.8
		c-66.3-245.6-290.7-426.3-557.3-426.3c-124,0-238.8,39.1-332.9,105.6l-26.7-15.4l-34.4-19.8l2.1-636.3l32.3,18.5l44.8,25.6
		l151.8,87l663.4,380.1l221,126.6L1974.9,2419.8z"/>
	<path fill="none" stroke="#000000" stroke-miterlimit="10" d="M636,1652.7l-2.1,636.3l-162.1-93.6l-132.5-76.5
		c-14.8-8.5-27.7-19.6-38.3-32.3c-20.8-25.1-32.7-57-32.7-90.7v-171.7c71.6-12.6,140-34.9,203.5-65.4
		C531,1730.2,586.2,1694.4,636,1652.7z"/>
	<path fill="none" stroke="#000000" stroke-miterlimit="10" d="M2567.2,1088.8c-145.6,43-274.7,124.3-375.8,232.2
		c-25.7,27.5-49.7,56.7-71.6,87.4c-51.4,72-91.7,152.5-118.5,238.9L1835,1552c13.9-42.8,21.4-88.5,21.4-135.9
		c0-110.1-40.4-210.7-107.1-288V886.8L2567.2,1088.8z"/>
	<path fill="none" stroke="#000000" stroke-miterlimit="10" d="M2567.2,1971.5v24.3c0,50.8-27.1,97.7-71,123l-304.7,175.9
		l-95.7,55.2l-120.9,69.8l-225.6-129.3l-221-126.6l221-128.4l214.6-124.7l157.1-91.2l-0.3-104.1l70.8,40.5L2567.2,1971.5z"/>
	<path fill="none" stroke="#000000" stroke-miterlimit="10" d="M1749.2,886.8v241.3c-80.8-93.4-200.2-152.6-333.4-152.6
		c-130.8,0-248.4,57-329.1,147.6l-169.2-96.9c-1.2-43.4-6-85.9-14-127.2c-0.8-4.1-1.6-8.2-2.5-12.2H1749.2z"/>
	<path fill="none" stroke="#000000" stroke-miterlimit="10" d="M2120.9,1819.7l-157.1,91.2l-214.6,124.7l-221,128.4l-663.4-380.1
		l-151.8-87l-44.8-25.6l-32.3-18.5c11.1-9.2,21.8-18.8,32.3-28.6c15.5-14.4,30.3-29.4,44.5-45.1c64.8-71,116.7-154,152.1-245.2
		c34.3-88.2,53.1-184.2,53.1-284.6c0-7.7-0.1-15.4-0.3-23l169.2,96.9c-69.3,77.9-111.4,180.5-111.4,292.9
		c0,243.3,197.2,440.6,440.5,440.6c133.2,0,252.6-59.2,333.4-152.6c38-44,67.4-95.6,85.7-152.1l166.4,95.3l119.2,68.3v0
		L2120.9,1819.7z"/>
	<path fill="none" stroke="#000000" stroke-miterlimit="10" d="M2567.2,1088.8v882.7l-375.8-215.3l-70.8-40.5v0l-119.2-68.3
		c26.8-86.4,67.1-166.9,118.5-238.9c21.9-30.7,45.8-59.9,71.6-87.4C2292.5,1213,2421.6,1131.8,2567.2,1088.8z"/>
	<path fill="none" stroke="#000000" stroke-miterlimit="10" d="M917.9,1049.2c0,100.4-18.8,196.4-53.1,284.6
		C829.5,1425,777.6,1508,712.8,1579c-14.2,15.6-29,30.7-44.5,45.1c-10.5,9.8-21.2,19.4-32.3,28.6c-49.9,41.8-105,77.5-164.3,106
		c-63.5,30.6-131.9,52.9-203.5,65.4V832.6c0-49.2,25.4-94.7,67-120.6c1.1-0.7,2.2-1.3,3.3-2l0.8-0.5l132.5-76.5l196.5-113.4l29-16.8
		c72,74.6,129.4,163.3,167.5,261.7c15.3,39.3,27.5,80.1,36.3,122.2c0.8,4.1,1.7,8.2,2.5,12.2c8,41.3,12.7,83.8,14,127.2
		C917.8,1033.9,917.9,1041.5,917.9,1049.2z"/>
	<path fill="none" stroke="#000000" stroke-miterlimit="10" d="M1031,310.2v576.6H901.1c-8.8-42.1-21-82.9-36.3-122.2
		c-38.2-98.4-95.6-187.1-167.5-261.7l100.9-58.3l66.6-38.5L1031,310.2z"/>
	<path fill="none" stroke="#000000" stroke-miterlimit="10" d="M1749.3,278.4v608.5H1031V310.2c80.9,102.9,206.6,169.1,347.7,169.1
		c71.8,0,139.5-17.1,199.4-47.5C1647.8,396.5,1706.9,343.4,1749.3,278.4z"/>
	<path fill="none" stroke="#000000" stroke-miterlimit="10" d="M2567.2,832.6v54.2h-818V278.4l288,166.3l154.2,89l304.7,175.9
		c6.3,3.6,12.2,7.7,17.8,12.1C2547.3,748.5,2567.2,789.1,2567.2,832.6z"/>
	<path fill="none" stroke="#000000" stroke-miterlimit="10" d="M967.7,2481.7"/>
	<path fill="none" stroke="#000000" stroke-miterlimit="10" d="M633.9,2289"/>
	<path fill="none" stroke="#000000" stroke-miterlimit="10" d="M1585.1,2644.9l-50.8,29.3l-45.5,26.3c-21.2,12.2-44.7,18.5-68.2,19
		c-0.2,0-0.6,0-0.9,0c-0.2,0-0.4,0-0.6,0h-0.4c-24.9,0.2-49.7-6.2-72-19l-333.1-192.3l-45.9-26.5l-102.9-59.4L695,2324.2
		c94.1-66.5,208.9-105.6,332.9-105.6C1294.5,2218.6,1518.8,2399.3,1585.1,2644.9z"/>
	<path fill="none" stroke="#000000" stroke-miterlimit="10" d="M1749.3,278.4c-42.4,65-101.4,118.2-171.1,153.4
		c-59.9,30.4-127.6,47.5-199.4,47.5c-141.1,0-266.8-66.1-347.7-169.1l132.5-76.5L1346.7,128c22.3-12.8,47.2-19.3,72-19.1h0.4
		c0.2,0,0.4,0,0.6,0c0.3,0,0.6,0,0.9,0c23.5,0.4,47,6.8,68.2,19l8.5,4.9l38.9,22.5L1749.3,278.4z"/>
	<path fill="none" stroke="#000000" stroke-miterlimit="10" d="M1031,886.8"/>
	<polygon fill="none" stroke="#000000" stroke-miterlimit="10" points="2567.2,886.8 2567.2,1088.8 1749.3,886.8 	"/>
	<circle fill="none" stroke="#000000" stroke-miterlimit="10" cx="562" cy="896.2" r="170.7"/>
	<circle fill="none" stroke="#000000" stroke-miterlimit="10" cx="843.4" cy="2029.1" r="170.7"/>
	<circle fill="none" stroke="#000000" stroke-miterlimit="10" cx="1976.8" cy="676.7" r="170.7"/>
</g>
<g id="Hexagone" display="none">
	<path display="inline" fill="none" stroke="#000000" stroke-width="0.5" stroke-miterlimit="10" d="M527.4,286.4L332,173.5
		l-9.6-5.6c-4.3-2.5-9.1-3.8-13.9-3.9c0,0-0.1,0-0.2,0c0,0-0.1,0-0.1,0h-0.1c-5.1,0-10.1,1.3-14.7,3.9l-205,118.4l-0.2,0.1
		c-0.2,0.1-0.5,0.3-0.7,0.4c-8.5,5.3-13.6,14.5-13.6,24.5v236.8c0,6.9,2.4,13.4,6.7,18.5c2.2,2.6,4.8,4.8,7.8,6.6l205,118.4
		c4.5,2.6,9.6,3.9,14.7,3.9h0.1c0,0,0.1,0,0.1,0c0.1,0,0.1,0,0.2,0c4.8-0.1,9.6-1.4,13.9-3.9l9.3-5.4l195.8-113
		c8.9-5.2,14.5-14.7,14.5-25V311.4C541.9,301.1,536.4,291.5,527.4,286.4z"/>
</g>
</svg>
