<?xml version="1.0" encoding="UTF-8"?>
<svg id="uuid-433efabb-c9b5-44a2-82e5-93695bbb687c" data-name="Calque 1" xmlns="http://www.w3.org/2000/svg" width="165.24mm" height="187.62mm" viewBox="0 0 468.4 531.85">
  <path d="M285.32,449.25v57.32l-27.39,15.81-9.27,5.35c-4.31,2.48-9.09,3.77-13.88,3.86-.05,0-.12,0-.18.01-.04-.01-.08,0-.12,0h-.08c-5.06.04-10.12-1.26-14.66-3.87l-83.91-48.45,51.24-29.06,48.28,27.88,49.97-28.85Z" style="fill: none; stroke: #1d1d1b; stroke-miterlimit: 10; stroke-width: .5px;"/>
  <path d="M468.15,290.79v93.52c0,10.33-5.51,19.88-14.46,25.04l-50.8,29.33-117.57,67.89v-57.32l18.31-10.57,117.22-67.67v-53.39l47.3-26.83Z" style="fill: none; stroke: #1d1d1b; stroke-miterlimit: 10; stroke-width: .5px;"/>
  <path d="M293.32,29.93l-.35,28.84h-.15c-1.69,0-3.35.13-4.96.38-7.34,1.17-13.84,4.85-18.58,10.15l-33.93-19.59-38.72,22.36-62.95,36.34c-5.78-6.35-14.11-10.34-23.38-10.34-1.69,0-3.35.13-4.96.38v-28.26l91.29-52.71,23.11-13.34c4.54-2.61,9.6-3.92,14.66-3.88h.08s.08.01.12,0c.06.01.13.01.18.01,4.79.09,9.57,1.39,13.88,3.87l9.64,5.57,35.02,20.22Z" style="fill: none; stroke: #1d1d1b; stroke-miterlimit: 10; stroke-width: .5px;"/>
  <path d="M468.15,147.56v143.23l-47.3,26.83v-57.11c14.25-3.07,24.92-15.74,24.92-30.9s-10.67-27.83-24.92-30.9v-41.9l-47.31-27.31,46.77-26.25,33.38,19.27c8.95,5.16,14.46,14.71,14.46,25.04Z" style="fill: none; stroke: #1d1d1b; stroke-miterlimit: 10; stroke-width: .5px;"/>
  <path d="M105.34,70.19v28.26c-15.1,2.39-26.65,15.47-26.65,31.23,0,3.35.52,6.59,1.49,9.62l-30.33,17.51v88.37L.25,273.31v-125.75c0-10.01,5.17-19.28,13.63-24.54.22-.14.44-.27.67-.4l.16-.1,90.63-52.33Z" style="fill: none; stroke: #1d1d1b; stroke-miterlimit: 10; stroke-width: .5px;"/>
  <path d="M187.07,450.22l-51.24,29.06-30.49-17.6-39.83-23-50.8-29.33c-3.01-1.74-5.64-3.98-7.8-6.58-4.24-5.11-6.66-11.61-6.66-18.46v-111l49.6-28.13v88.78c-9.53,9.14-15.47,22.01-15.47,36.27,0,27.75,22.49,50.24,50.24,50.24,11.96,0,22.95-4.18,31.58-11.16l50.87,29.37,20,11.54Z" style="fill: none; stroke: #1d1d1b; stroke-miterlimit: 10; stroke-width: .5px;"/>
  <path d="M196.63,72.07v89.85l-91.29,51.78v110.75c-6.32-2.87-13.33-4.46-20.72-4.46-13.49,0-25.74,5.31-34.77,13.97v-177.15l30.33-17.51c4.07,12.76,16.01,21.99,30.12,21.99,17.46,0,31.61-14.15,31.61-31.61,0-8.19-3.12-15.66-8.23-21.27l62.95-36.34Z" style="fill: none; stroke: #1d1d1b; stroke-miterlimit: 10; stroke-width: .5px;"/>
  <path d="M292.21,121.98l-.65,53.54-94.93-103.45,38.72-22.36,33.93,19.59c-5.02,5.59-8.07,12.98-8.07,21.08,0,3.35.52,6.59,1.49,9.62,4.01,12.58,15.67,21.72,29.51,21.98Z" style="fill: none; stroke: #1d1d1b; stroke-miterlimit: 10; stroke-width: .5px;"/>
  <path d="M163.35,210.84c8.82-11.15,20.2-20.16,33.28-26.13v-.03c-13.09,5.97-24.49,15-33.28,26.16ZM163.35,210.85c-.95,1.2-1.86,2.42-2.74,3.66.89-1.24,1.8-2.46,2.74-3.66ZM144.17,264.65c-.02.55-.02,1.09-.02,1.64,0,4.65.35,9.22,1.04,13.67-.68-4.45-1.03-9.01-1.03-13.65,0-.56.01-1.11.01-1.66Z" style="fill: none; stroke: #1d1d1b; stroke-miterlimit: 10; stroke-width: .5px;"/>
  <path d="M420.85,317.62v53.39l-117.22,67.67-18.31,10.57-49.97,28.85-48.28-27.88-81.73-236.52,91.29-51.78v22.76c-13.09,5.97-24.49,15-33.28,26.16t0,.01c-.95,1.2-1.86,2.42-2.74,3.66-.29.41-.58.83-.87,1.25h0c-.79,1.18-1.56,2.36-2.31,3.57h0c-.74,1.21-1.46,2.44-2.15,3.68-.69,1.24-1.35,2.51-1.97,3.79-.63,1.28-1.23,2.58-1.8,3.89-.28.65-.56,1.32-.83,1.98-1.6,3.96-2.93,8.06-3.96,12.27-.51,2.11-.95,4.25-1.32,6.41-.54,3.24-.91,6.55-1.1,9.9-.03.51-.05,1.03-.07,1.55-.02.07-.02.13-.01.2-.02.55-.03,1.1-.05,1.65s-.02,1.09-.02,1.64c0,4.65.35,9.22,1.04,13.67.23,1.49.49,2.96.79,4.42,1.07,5.24,2.6,10.31,4.55,15.17.45,1.15.93,2.28,1.44,3.4,1.52,3.4,3.25,6.69,5.17,9.86.75,1.22,1.52,2.43,2.32,3.61,3.22,4.77,6.89,9.21,10.95,13.27,1.26,1.27,2.57,2.5,3.91,3.69,1.34,1.19,2.72,2.34,4.13,3.45,1.14.89,2.3,1.76,3.47,2.6,1.16.83,2.35,1.63,3.56,2.39.61.39,1.22.78,1.83,1.15.85.52,1.7,1.02,2.57,1.5,1.3.74,2.62,1.44,3.95,2.1.45.22.9.44,1.35.66,2.19,1.05,4.44,2.01,6.72,2.88,9.92,3.79,20.67,5.86,31.92,5.86,19.17,0,36.93-6.02,51.5-16.26v54.78l135.53-76.87Z" style="fill: none; stroke: #1d1d1b; stroke-miterlimit: 10; stroke-width: .5px;"/>
  <path d="M420.31,103.25l-46.77,26.25-81.98,46.02.65-53.54c.2.01.41.01.61.01,17.46,0,31.61-14.15,31.61-31.61,0-8.19-3.12-15.66-8.23-21.27-5.75-6.32-14.02-10.3-23.23-10.34l.35-28.84,67.41,38.92,59.58,34.4Z" style="fill: none; stroke: #1d1d1b; stroke-miterlimit: 10; stroke-width: .5px;"/>
  <path d="M187.07,450.22l-20-11.54-50.87-29.37c11.38-9.21,18.66-23.3,18.66-39.08,0-20.36-12.11-37.89-29.52-45.78v-110.75l81.73,236.52Z" style="fill: none; stroke: #1d1d1b; stroke-miterlimit: 10; stroke-width: .5px;"/>
  <path d="M382.55,229.61c0,17.46,14.15,31.61,31.61,31.61,2.3,0,4.53-.24,6.69-.71v57.11l-135.53,76.87v-54.78c1.9-1.33,3.74-2.74,5.52-4.23.56-.43,1.11-.9,1.65-1.39,2.72-2.33,5.29-4.85,7.69-7.51,2.43-2.65,4.68-5.45,6.75-8.38.43-.59.84-1.18,1.23-1.78.82-1.19,1.59-2.4,2.33-3.63.76-1.23,1.48-2.48,2.16-3.76.3-.56.6-1.11.89-1.68.33-.63.65-1.27.96-1.91,1.25-2.57,2.38-5.2,3.38-7.9.75-2.02,1.43-4.08,2.04-6.17,1.08-3.72,1.92-7.53,2.52-11.42.17-1.12.32-2.24.45-3.36.39-3.37.59-6.8.59-10.28,0-2.32-.09-4.63-.27-6.92-.06-.76-.12-1.52-.2-2.27-.07-.75-.16-1.5-.26-2.25-.31-2.4-.71-4.78-1.2-7.12-.12-.58-.24-1.15-.38-1.71-.12-.52-.24-1.04-.37-1.55-.11-.46-.23-.92-.36-1.38-.08-.31-.16-.63-.25-.94-.1-.35-.2-.7-.3-1.04-.18-.63-.37-1.26-.57-1.88-.12-.37-.23-.72-.35-1.08-.14-.44-.29-.88-.45-1.31-1.33-3.85-2.92-7.57-4.75-11.16-.29-.59-.6-1.17-.91-1.75,0,0-.01-.02-.01-.02-.32-.59-.64-1.17-.97-1.75-.32-.58-.66-1.15-1-1.72-.34-.57-.68-1.14-1.04-1.7-.34-.56-.7-1.11-1.06-1.65,0-.02-.01-.03-.02-.04-.36-.55-.73-1.09-1.1-1.63-.75-1.09-1.52-2.17-2.33-3.22-.4-.53-.8-1.05-1.21-1.57-.41-.52-.83-1.03-1.25-1.54-.84-1.01-1.71-2.01-2.59-2.99-.45-.49-.9-.97-1.35-1.45s-.91-.96-1.38-1.43c-.33-.33-.66-.66-1-.99-.62-.61-1.25-1.21-1.88-1.79-.47-.44-.95-.87-1.43-1.3-.49-.44-.99-.87-1.5-1.3-.48-.4-.96-.81-1.45-1.2-.07-.06-.13-.11-.19-.15-.48-.39-.96-.77-1.44-1.14-.52-.41-1.05-.81-1.58-1.2-.53-.39-1.07-.78-1.61-1.16-1.08-.77-2.18-1.51-3.3-2.22-1.12-.73-2.25-1.42-3.4-2.08-.57-.33-1.15-.66-1.73-.98-1.16-.65-2.34-1.26-3.54-1.85-.6-.29-1.2-.58-1.81-.87-1.44-.67-2.9-1.31-4.38-1.9-.21-.08-.41-.17-.62-.24-10.18-4.03-21.27-6.24-32.88-6.24-13.26,0-25.86,2.88-37.18,8.05v-112.61l94.93,103.45,81.98-46.02,47.31,27.31v41.9c-2.16-.47-4.39-.71-6.69-.71-17.46,0-31.61,14.15-31.61,31.61Z" style="fill: none; stroke: #1d1d1b; stroke-miterlimit: 10; stroke-width: .5px;"/>
  <path d="M145.19,279.96c-.69-4.45-1.04-9.02-1.04-13.67,0-.55,0-1.09.02-1.64,0,.55-.01,1.1-.01,1.66,0,4.64.35,9.2,1.03,13.65Z" style="fill: none; stroke: #1d1d1b; stroke-miterlimit: 10; stroke-width: .5px;"/>
  <path d="M160.61,214.51c.88-1.24,1.79-2.46,2.74-3.66-.94,1.2-1.85,2.42-2.74,3.66Z" style="fill: none; stroke: #1d1d1b; stroke-miterlimit: 10; stroke-width: .5px;"/>
  <path d="M266.69,182.87c-10.18-4.01-21.27-6.22-32.87-6.22-13.27,0-25.86,2.88-37.19,8.06-13.08,5.97-24.46,14.98-33.28,26.13,8.79-11.16,20.19-20.19,33.28-26.16,11.32-5.17,23.92-8.05,37.18-8.05,11.61,0,22.7,2.21,32.88,6.24Z" style="fill: none; stroke: #1d1d1b; stroke-miterlimit: 10; stroke-width: .5px;"/>
  <path d="M445.77,229.61c0,15.16-10.67,27.83-24.92,30.9-2.16.47-4.39.71-6.69.71-17.46,0-31.61-14.15-31.61-31.61s14.15-31.61,31.61-31.61c2.3,0,4.53.24,6.69.71,14.25,3.07,24.92,15.74,24.92,30.9Z" style="fill: none; stroke: #1d1d1b; stroke-miterlimit: 10; stroke-width: .5px;"/>
  <path d="M134.86,370.23c0,15.78-7.28,29.87-18.66,39.08-8.63,6.98-19.62,11.16-31.58,11.16-27.75,0-50.24-22.49-50.24-50.24,0-14.26,5.94-27.13,15.47-36.27,9.03-8.66,21.28-13.97,34.77-13.97,7.39,0,14.4,1.59,20.72,4.46,17.41,7.89,29.52,25.42,29.52,45.78Z" style="fill: none; stroke: #1d1d1b; stroke-miterlimit: 10; stroke-width: .5px;"/>
  <path d="M141.91,129.68c0,17.46-14.15,31.61-31.61,31.61-14.11,0-26.05-9.23-30.12-21.99-.97-3.03-1.49-6.27-1.49-9.62,0-15.76,11.55-28.84,26.65-31.23,1.61-.25,3.27-.38,4.96-.38,9.27,0,17.6,3.99,23.38,10.34,5.11,5.61,8.23,13.08,8.23,21.27Z" style="fill: none; stroke: #1d1d1b; stroke-miterlimit: 10; stroke-width: .5px;"/>
  <path d="M324.43,90.38c0,17.46-14.15,31.61-31.61,31.61-.2,0-.41,0-.61-.01-13.84-.26-25.5-9.4-29.51-21.98-.97-3.03-1.49-6.27-1.49-9.62,0-8.1,3.05-15.49,8.07-21.08,4.74-5.3,11.24-8.98,18.58-10.15,1.61-.25,3.27-.38,4.96-.38h.15c9.21.04,17.48,4.02,23.23,10.34,5.11,5.61,8.23,13.08,8.23,21.27Z" style="fill: none; stroke: #1d1d1b; stroke-miterlimit: 10; stroke-width: .5px;"/>
  <path id="uuid-bd9c559b-ecc6-4384-a422-a5dd5333a8c6" data-name="&amp;lt;Centre&amp;gt;" d="M323.47,266.29c0,3.48-.2,6.92-.58,10.3-.13,1.12-.28,2.24-.45,3.36-.6,3.89-1.44,7.7-2.52,11.42-.61,2.09-1.29,4.15-2.04,6.17-1.01,2.7-2.14,5.33-3.38,7.9-.31.64-.63,1.28-.96,1.91-.29.57-.59,1.12-.89,1.68-.69,1.27-1.41,2.52-2.16,3.76-.75,1.23-1.53,2.44-2.33,3.63-.41.6-.82,1.19-1.23,1.78-2.09,2.93-4.34,5.72-6.75,8.38-2.42,2.65-4.99,5.16-7.69,7.51-.55.47-1.09.93-1.65,1.39-15.5,12.78-35.37,20.47-57.03,20.47-11.24,0-21.99-2.07-31.91-5.84-2.28-.87-4.53-1.83-6.72-2.88-.45-.22-.9-.44-1.35-.66-1.33-.67-2.65-1.37-3.95-2.1-.87-.48-1.72-.98-2.57-1.5-.61-.37-1.22-.76-1.83-1.15-1.2-.77-2.39-1.57-3.56-2.39-1.17-.84-2.33-1.71-3.47-2.6-1.41-1.11-2.79-2.26-4.13-3.45-1.34-1.19-2.65-2.43-3.91-3.69-4.06-4.06-7.73-8.5-10.95-13.27-.8-1.18-1.57-2.39-2.32-3.61-1.92-3.17-3.65-6.46-5.17-9.86-.51-1.12-.99-2.25-1.44-3.4-1.95-4.86-3.48-9.93-4.55-15.17-.3-1.46-.56-2.93-.79-4.42-.68-4.45-1.03-9.01-1.03-13.65,0-.56.01-1.11.01-1.66.02-.55.03-1.1.05-1.65-.01-.07-.01-.13.01-.2.02-.52.04-1.04.07-1.55.19-3.35.56-6.66,1.1-9.9.37-2.16.81-4.3,1.32-6.41,1.03-4.21,2.36-8.31,3.96-12.27.27-.66.55-1.33.83-1.98.57-1.31,1.17-2.61,1.8-3.89.62-1.28,1.28-2.55,1.97-3.79.69-1.24,1.41-2.47,2.15-3.67h0c.75-1.22,1.52-2.4,2.31-3.57h0c.29-.43.58-.85.87-1.26.89-1.24,1.8-2.46,2.74-3.66t0-.01c8.82-11.15,20.2-20.16,33.28-26.13,11.33-5.18,23.92-8.06,37.19-8.06,11.6,0,22.69,2.21,32.87,6.22.21.07.41.16.62.24,1.48.59,2.94,1.23,4.38,1.9.61.29,1.21.58,1.81.87,1.19.59,2.37,1.21,3.54,1.85.58.32,1.16.65,1.73.98,1.15.66,2.28,1.35,3.4,2.08,1.12.71,2.22,1.45,3.3,2.22.54.38,1.08.77,1.61,1.16.53.39,1.06.79,1.58,1.2.48.37.96.75,1.44,1.14.06.04.12.09.19.15.49.39.97.8,1.45,1.2.51.43,1.01.86,1.5,1.3.48.43.96.86,1.43,1.3.63.58,1.26,1.18,1.88,1.79.34.33.67.66,1,.99.47.47.93.95,1.38,1.43s.9.96,1.35,1.45c.88.98,1.75,1.98,2.59,2.99.42.51.84,1.02,1.25,1.54.41.52.81,1.04,1.21,1.57.8,1.06,1.58,2.13,2.33,3.22.37.54.74,1.08,1.1,1.63.01.01.02.02.02.04.36.54.72,1.09,1.06,1.65.36.56.7,1.13,1.04,1.7.34.57.68,1.14,1,1.72.33.58.65,1.16.97,1.75,0,0,.01.01.01.02.31.58.62,1.16.91,1.75,1.83,3.59,3.42,7.31,4.75,11.16.16.43.31.87.45,1.31.12.36.23.71.35,1.08.2.62.39,1.25.57,1.88.1.34.2.69.3,1.04.09.31.17.63.25.94.13.46.25.92.36,1.38.13.51.25,1.03.37,1.55.13.57.26,1.14.38,1.71.49,2.34.89,4.72,1.2,7.12.09.75.18,1.5.26,2.25.08.75.14,1.51.2,2.27.17,2.28.26,4.58.26,6.9Z" style="fill: none; stroke: #1d1d1b; stroke-miterlimit: 10; stroke-width: .5px;"/>
</svg>