<?xml version="1.0" encoding="UTF-8"?>
<svg id="uuid-b53b4df9-f4d8-4e1b-986f-a041aef4218e" data-name="uuid-b4c3b967-2635-44fe-b3bb-6c505be79341" xmlns="http://www.w3.org/2000/svg" width="165.24mm" height="187.61mm" viewBox="0 0 468.39 531.81">
  <path d="M414.55,330.46v101.46l-51.43,29.69c-3.76-6.96-8.06-13.57-12.86-19.79l64.29-111.36h0Z" style="fill: none; stroke: #1d1d1b; stroke-miterlimit: 10; stroke-width: .5px;"/>
  <path d="M468.14,237.64v146.65c0,10.33-5.51,19.88-14.46,25.04l-39.13,22.59v-101.46l53.59-92.82Z" style="fill: none; stroke: #1d1d1b; stroke-miterlimit: 10; stroke-width: .5px;"/>
  <path d="M118.77,441.94c-4.83,6.28-9.17,12.97-12.93,20l-31.28-18.06v-78.51l44.21,76.57Z" style="fill: none; stroke: #1d1d1b; stroke-miterlimit: 10; stroke-width: .5px;"/>
  <path d="M74.56,365.38v78.51l-59.85-34.56c-3.01-1.74-5.64-3.98-7.8-6.58-4.24-5.11-6.66-11.61-6.66-18.46v-147.62l74.31,128.71h0Z" style="fill: none; stroke: #1d1d1b; stroke-miterlimit: 10; stroke-width: .5px;"/>
  <path d="M188.78,188.24c-13.83,7.99-25.34,19.56-33.23,33.46h-20.99v-127.36l54.22,93.9Z" style="fill: none; stroke: #1d1d1b; stroke-miterlimit: 10; stroke-width: .5px;"/>
  <path d="M334.55,90.05v131.65h-22.95c-.94-1.64-1.94-3.25-2.99-4.82-.3-.47-.61-.94-.94-1.4-.32-.46-.64-.92-.96-1.38-.29-.4-.58-.81-.89-1.21-.46-.63-.94-1.26-1.42-1.87-7.19-9.28-16.17-17.11-26.43-22.97l56.58-98h0Z" style="fill: none; stroke: #1d1d1b; stroke-miterlimit: 10; stroke-width: .5px;"/>
  <path d="M336.14,54.65c-1.62,2.59-2.55,5.65-2.57,8.92h-198.73c-.02-3.28-.96-6.34-2.57-8.94l2.29-1.32,60-34.64,25.18-14.54c4.54-2.61,9.6-3.92,14.66-3.88h.08s.08,0,.12,0c.06,0,.13,0,.18,0,4.79.09,9.57,1.39,13.88,3.87l9.64,5.57,76.26,44.03,1.59.92h0Z" style="fill: none; stroke: #1d1d1b; stroke-miterlimit: 10; stroke-width: .5px;"/>
  <path d="M468.14,182.88v38.82h-133.59V90.05l6.91-11.97c2.67,1.72,5.84,2.71,9.24,2.71,6.53,0,12.2-3.65,15.09-9.03l6.94,4.01c-3.53,9.06-5.47,18.92-5.47,29.23,0,44.46,36.03,80.49,80.48,80.49,7.05,0,13.88-.91,20.4-2.61Z" style="fill: none; stroke: #1d1d1b; stroke-miterlimit: 10; stroke-width: .5px;"/>
  <path d="M134.56,94.34v127.36H.25v-38.12c5.63,1.25,11.49,1.91,17.5,1.91,44.45,0,80.49-36.03,80.49-80.49,0-9.79-1.75-19.18-4.95-27.86l9.33-5.39c2.88,5.38,8.56,9.04,15.09,9.04,2.85,0,5.54-.7,7.9-1.94l8.95,15.49h0Z" style="fill: none; stroke: #1d1d1b; stroke-miterlimit: 10; stroke-width: .5px;"/>
  <path d="M98.24,104.99c0,44.46-36.04,80.49-80.49,80.49-6.01,0-11.87-.66-17.5-1.91v-36.03c0-10.01,5.17-19.28,13.63-24.54.22-.14.44-.27.67-.4l.16-.1,59.85-34.56,18.73-10.81c3.2,8.68,4.95,18.07,4.95,27.86h0Z" style="fill: none; stroke: #1d1d1b; stroke-miterlimit: 10; stroke-width: .5px;"/>
  <path d="M468.14,147.55v35.33c-6.52,1.7-13.35,2.61-20.4,2.61-44.45,0-80.48-36.03-80.48-80.49,0-10.31,1.94-20.17,5.47-29.23l41.82,24.15,39.13,22.59c8.95,5.16,14.46,14.71,14.46,25.04Z" style="fill: none; stroke: #1d1d1b; stroke-miterlimit: 10; stroke-width: .5px;"/>
  <path d="M334.55,221.7v202.8c-26.12-24.57-61.29-39.61-99.99-39.61s-73.89,15.05-100.01,39.63v-202.82h20.99c-7.42,13.05-11.66,28.15-11.66,44.24,0,18.4,5.54,35.5,15.05,49.72.31.46.62.92.93,1.37.28.41.56.82.85,1.22.32.45.65.89.98,1.34,8.55,11.56,19.82,20.99,32.86,27.34,11.85,5.79,25.17,9.03,39.25,9.03,49.52,0,89.66-40.14,89.66-89.66,0-16.24-4.31-31.46-11.86-44.6h22.95,0Z" style="fill: none; stroke: #1d1d1b; stroke-miterlimit: 10; stroke-width: .5px;"/>
  <path d="M.25,221.69v14.98l74.31,128.71,44.21,76.57c4.79-6.23,10.07-12.06,15.79-17.43v-202.82H.25ZM97.15,284.4c-14.32,0-25.93-11.61-25.93-25.93s11.61-25.92,25.93-25.92,25.93,11.6,25.93,25.92-11.61,25.93-25.93,25.93Z" style="fill: none; stroke: #1d1d1b; stroke-miterlimit: 10; stroke-width: .5px;"/>
  <path d="M334.55,221.7v202.8c5.69,5.34,10.94,11.13,15.71,17.32l64.29-111.36,53.59-92.82v-15.95h-133.59ZM371.14,284.41c-14.32,0-25.93-11.61-25.93-25.93s11.61-25.92,25.93-25.92,25.93,11.6,25.93,25.92-11.61,25.93-25.93,25.93Z" style="fill: none; stroke: #1d1d1b; stroke-miterlimit: 10; stroke-width: .5px;"/>
  <path d="M363.12,461.6l-28.57,16.5-7.87,4.55-26.89,15.52c-11.99-23.87-36.7-40.24-65.23-40.24s-53.46,16.52-65.39,40.57l-26.63-15.37-7.99-4.61-28.72-16.58c3.76-7.03,8.1-13.72,12.93-20,4.79-6.23,10.07-12.06,15.79-17.43,26.12-24.58,61.31-39.63,100.01-39.63s73.87,15.04,99.99,39.61c5.69,5.34,10.94,11.13,15.71,17.32,4.8,6.22,9.1,12.83,12.86,19.79h0Z" style="fill: none; stroke: #1d1d1b; stroke-miterlimit: 10; stroke-width: .5px;"/>
  <path d="M299.79,498.17l-41.87,24.18-9.27,5.35c-4.31,2.48-9.09,3.77-13.88,3.86h-.38c-5.06.04-10.12-1.26-14.66-3.87l-25.18-14.54-25.38-14.66c11.93-24.05,36.73-40.57,65.39-40.57s53.24,16.37,65.23,40.24h0Z" style="fill: none; stroke: #1d1d1b; stroke-miterlimit: 10; stroke-width: .5px;"/>
  <path d="M333.57,63.66v-.09h-198.73v.09c0,6.61-3.74,12.35-9.23,15.19l8.95,15.49,54.22,93.9c13.17-7.61,28.46-11.96,44.77-11.96s31.34,4.28,44.43,11.77l56.58-98,6.91-11.97c-4.75-3.04-7.89-8.36-7.89-14.42ZM235.76,155.67c-14.32,0-25.92-11.61-25.92-25.93s11.6-25.93,25.92-25.93,25.93,11.61,25.93,25.93-11.61,25.93-25.93,25.93h0Z" style="fill: none; stroke: #1d1d1b; stroke-miterlimit: 10; stroke-width: .5px;"/>
  <path d="M261.69,129.73c0,14.32-11.61,25.93-25.93,25.93s-25.92-11.61-25.92-25.93,11.6-25.93,25.92-25.93,25.93,11.61,25.93,25.93h0Z" style="fill: none; stroke: #1d1d1b; stroke-miterlimit: 10; stroke-width: .5px;"/>
  <path d="M261.69,129.73c0,14.32-11.61,25.93-25.93,25.93s-25.92-11.61-25.92-25.93,11.6-25.93,25.92-25.93,25.93,11.61,25.93,25.93h0Z" style="fill: none; stroke: #1d1d1b; stroke-miterlimit: 10; stroke-width: .5px;"/>
  <path d="M397.07,258.47c0,14.32-11.61,25.93-25.93,25.93s-25.93-11.61-25.93-25.93,11.61-25.92,25.93-25.92,25.93,11.6,25.93,25.92Z" style="fill: none; stroke: #1d1d1b; stroke-miterlimit: 10; stroke-width: .5px;"/>
  <path d="M123.08,258.47c0,14.32-11.61,25.93-25.93,25.93s-25.93-11.61-25.93-25.93,11.61-25.92,25.93-25.92,25.93,11.6,25.93,25.92Z" style="fill: none; stroke: #1d1d1b; stroke-miterlimit: 10; stroke-width: .5px;"/>
  <path d="M134.84,63.57v.09c0,6.61-3.74,12.35-9.23,15.19-2.36,1.24-5.05,1.94-7.9,1.94-6.53,0-12.21-3.66-15.09-9.04l14.17-8.18,15.48-8.94c1.61,2.6,2.55,5.66,2.57,8.94Z" style="fill: none; stroke: #1d1d1b; stroke-miterlimit: 10; stroke-width: .5px;"/>
  <path d="M365.79,71.76c-2.89,5.38-8.56,9.03-15.09,9.03-3.4,0-6.57-.99-9.24-2.71-4.75-3.04-7.89-8.36-7.89-14.42v-.09c.02-3.27.95-6.33,2.57-8.92l14.14,8.16,15.51,8.95h0Z" style="fill: none; stroke: #1d1d1b; stroke-miterlimit: 10; stroke-width: .5px;"/>
  <path id="uuid-a0a3dc62-be6e-434a-b19f-525802056ff9" data-name="uuid-eed13ff4-ec7b-4173-b412-44dfa49e9427" d="M323.46,266.3c0,49.52-40.14,89.66-89.66,89.66-14.08,0-27.4-3.24-39.25-9.03-13.04-6.35-24.31-15.78-32.86-27.34-.33-.45-.66-.89-.98-1.34-.29-.4-.57-.81-.85-1.22-.31-.45-.62-.91-.93-1.37-9.51-14.22-15.05-31.32-15.05-49.72,0-16.09,4.24-31.19,11.66-44.24,7.89-13.9,19.4-25.47,33.23-33.46,13.17-7.61,28.46-11.96,44.77-11.96s31.34,4.28,44.43,11.77c10.26,5.86,19.24,13.69,26.43,22.97.48.61.96,1.24,1.42,1.87.31.4.6.81.89,1.21.32.46.64.92.96,1.38.32.47.63.93.94,1.4,1.05,1.57,2.05,3.18,2.99,4.82,7.55,13.14,11.86,28.36,11.86,44.6Z" style="fill: none; stroke: #1d1d1b; stroke-miterlimit: 10; stroke-width: .5px;"/>
</svg>