<?xml version="1.0" encoding="UTF-8"?>
<svg id="uuid-0744470a-d9f3-4d58-9fea-efa16d8589f1" data-name="Pattern" xmlns="http://www.w3.org/2000/svg" width="165.24mm" height="187.63mm" viewBox="0 0 468.4 531.85">
  <path d="M446.07,413.75l-39.55,22.84-46.36-26.77c11.57-9.98,21.94-21.33,30.84-33.79,15.36,16.18,34.09,29.13,55.07,37.72Z" style="fill: none; stroke: #1d1d1b; stroke-miterlimit: 10; stroke-width: .5px;"/>
  <path d="M19.2,269.49c-6.42.04-12.74.47-18.95,1.26v-29.7c5.81.9,11.72,1.49,17.73,1.73-1.28,3.71-1.97,7.68-1.97,11.82,0,5.31,1.14,10.35,3.19,14.89Z" style="fill: none; stroke: #1d1d1b; stroke-miterlimit: 10; stroke-width: .5px;"/>
  <path d="M447.67,119.04c-21.07,8.35-39.93,21.09-55.45,37.08-9.64-13.83-21.06-26.32-33.94-37.14l43.11-26.66,46.28,26.72Z" style="fill: none; stroke: #1d1d1b; stroke-miterlimit: 10; stroke-width: .5px;"/>
  <path d="M268.89,77.2c-10.83-1.91-21.98-2.91-33.36-2.91-18.04,0-35.49,2.5-52.02,7.17-.3-17.89-3.55-35.06-9.29-51.04l45.52-26.28c4.54-2.61,9.6-3.92,14.66-3.88h.08s.08,0,.12,0c.06,0,.13,0,.18,0,4.79.09,9.57,1.39,13.88,3.87l9.64,5.57,8.7,5.02,1.89,62.47Z" style="fill: none; stroke: #1d1d1b; stroke-miterlimit: 10; stroke-width: .5px;"/>
  <path d="M132.69,200.58c1.22-1.13,2.43-2.28,3.62-3.47-1.19,1.17-2.4,2.33-3.62,3.47ZM100.3,223.82c1.55-.83,3.08-1.7,4.6-2.59-1.52.88-3.05,1.75-4.6,2.59Z" style="fill: none; stroke: #1d1d1b; stroke-miterlimit: 10; stroke-width: .5px;"/>
  <path d="M106.62,220.2v74.72c-.8-.52-1.59-1.02-2.4-1.52-.22-.14-.45-.28-.68-.42-.71-.44-1.43-.88-2.16-1.31-.17-.11-.35-.21-.54-.32-.83-.49-1.67-.98-2.52-1.45-.07-.04-.15-.08-.22-.12-.17-.1-.34-.2-.52-.29-.08-.04-.15-.09-.23-.13-.72-.41-1.46-.81-2.19-1.2-.32-.17-.64-.34-.96-.51-.8-.42-1.59-.83-2.4-1.23-.1-.05-.2-.1-.3-.15-.06-.03-.12-.06-.18-.09-.02-.01-.04-.02-.06-.03-.86-.44-1.72-.86-2.59-1.27-.03-.02-.06-.03-.09-.04-1.05-.51-2.11-.99-3.17-1.47-1.05-.47-2.11-.93-3.17-1.38-.04-.02-.09-.04-.13-.06-.97-.41-1.95-.81-2.93-1.2-.24-.1-.48-.19-.72-.28-.05-.02-.1-.04-.15-.06-.12-.05-.23-.09-.35-.14,6.56-6.57,10.62-15.64,10.62-25.65,0-8.27-2.77-15.9-7.43-22,.5-.18,1.01-.38,1.51-.58.47-.18.93-.36,1.4-.55.98-.4,1.96-.81,2.94-1.22.74-.32,1.48-.64,2.21-.96,1.08-.48,2.15-.98,3.22-1.48.06-.03.11-.05.16-.08,1.2-.57,2.38-1.15,3.56-1.73h0c.6-.32,1.2-.62,1.79-.93.58-.31,1.16-.61,1.74-.92.21-.11.41-.22.61-.33,1.55-.83,3.08-1.7,4.6-2.59.58-.35,1.15-.69,1.72-1.03Z" style="fill: none; stroke: #1d1d1b; stroke-miterlimit: 10; stroke-width: .5px;"/>
  <path d="M276.4,422.84v28.88c-13.17,2.88-26.84,4.39-40.87,4.39-20.03,0-39.34-3.09-57.48-8.81.75-6.23,1.13-12.58,1.13-19.01,0-.99-.01-1.98-.03-2.96-.01-.44-.01-.87-.03-1.3-.02-.87-.05-1.75-.09-2.62,0-.35-.03-.69-.05-1.04-.03-.64-.06-1.26-.1-1.89v-.05c-.03-.4-.05-.81-.08-1.21-.04-.61-.09-1.22-.14-1.83-.02-.29-.04-.57-.07-.85h0s0-.08,0-.11c-.05-.56-.09-1.1-.15-1.66v-.03c-.01-.07-.01-.15-.02-.22-.08-.76-.16-1.51-.25-2.27-.09-.89-.2-1.77-.32-2.64-.08-.63-.16-1.25-.25-1.87l-.03-.24c-.01-.09-.03-.19-.04-.28-.12-.82-.25-1.63-.38-2.44-.15-.91-.3-1.81-.46-2.71-.01-.03-.01-.07-.02-.1-.08-.43-.16-.87-.24-1.31,0-.04-.01-.08-.02-.12-.03-.14-.05-.29-.08-.43-.01-.01-.01-.02-.01-.03-.19-.97-.38-1.94-.59-2.9-.15-.74-.31-1.46-.48-2.19-.28-1.23-.57-2.45-.88-3.66-.15-.61-.31-1.22-.47-1.82-.16-.61-.32-1.21-.49-1.81-.16-.6-.33-1.2-.51-1.8-.2-.7-.41-1.4-.62-2.09-.34-1.09-.68-2.18-1.04-3.26-.18-.56-.37-1.12-.56-1.68-.19-.55-.38-1.11-.58-1.66-.39-1.11-.79-2.21-1.21-3.3-.19-.5-.38-1.01-.58-1.51-.44-1.13-.9-2.26-1.37-3.38-.22-.54-.45-1.08-.69-1.61-.23-.54-.46-1.08-.7-1.61s-.47-1.06-.72-1.59c-.24-.53-.48-1.05-.74-1.58-.24-.53-.49-1.05-.75-1.58-.33-.68-.66-1.35-1-2.02-.24-.49-.49-.97-.74-1.46-.2-.39-.41-.79-.62-1.18-.26-.51-.54-1.03-.82-1.54-.38-.71-.77-1.42-1.17-2.13-.02-.04-.04-.07-.06-.11-.27-.49-.55-.98-.84-1.47-.32-.56-.65-1.12-.98-1.67-.33-.56-.66-1.11-1-1.67-.29-.47-.58-.95-.87-1.42-.74-1.17-1.48-2.33-2.24-3.48-.35-.54-.71-1.07-1.08-1.61-.35-.53-.72-1.06-1.09-1.59-.37-.53-.75-1.06-1.12-1.58-.15-.22-.31-.44-.46-.65-.15-.22-.31-.44-.47-.65-.48-.66-.96-1.31-1.45-1.96-.48-.65-.98-1.29-1.48-1.93-.49-.64-.99-1.28-1.51-1.91-.43-.55-.88-1.09-1.32-1.63-.12-.14-.23-.29-.35-.43-.08-.1-.17-.2-.25-.3-.08-.09-.15-.18-.23-.27-.31-.38-.62-.75-.95-1.12-.52-.61-1.05-1.22-1.59-1.83-.52-.61-1.06-1.22-1.62-1.82-.54-.6-1.1-1.21-1.66-1.8-.54-.59-1.09-1.17-1.66-1.74-.52-.55-1.05-1.1-1.59-1.63-.12-.12-.24-.24-.36-.36-.44-.45-.89-.89-1.34-1.33-.05-.05-.09-.09-.14-.14-.62-.61-1.24-1.21-1.87-1.79-.49-.48-.99-.94-1.5-1.4-.65-.6-1.31-1.2-1.97-1.79-.51-.46-1.02-.9-1.54-1.34-.04-.03-.08-.07-.12-.1-.43-.38-.86-.74-1.29-1.11-.69-.59-1.38-1.17-2.08-1.74-.08-.07-.17-.14-.25-.2-.07-.06-.14-.12-.21-.17-.7-.58-1.41-1.15-2.13-1.71-.23-.18-.47-.36-.7-.54-.62-.49-1.25-.97-1.88-1.44-.26-.2-.52-.39-.79-.59-.57-.43-1.15-.85-1.73-1.27-.18-.13-.37-.26-.55-.39-.27-.2-.54-.39-.81-.58-.73-.51-1.46-1.02-2.2-1.52-.95-.66-1.91-1.29-2.88-1.92-.05-.03-.1-.07-.15-.1v-74.72c.72-.43,1.44-.86,2.15-1.32.71-.44,1.41-.89,2.11-1.33,0,0,.01-.02.02-.02,1.41-.91,2.81-1.84,4.18-2.8.69-.47,1.38-.96,2.06-1.45s1.36-.98,2.03-1.48c.67-.49,1.34-1,2.01-1.52.66-.5,1.33-1.01,1.98-1.54.63-.49,1.26-.99,1.88-1.5.02-.03.05-.05.08-.07.49-.39.97-.79,1.45-1.2.48-.39.96-.8,1.44-1.22.48-.41.95-.81,1.42-1.23.47-.41.94-.82,1.4-1.25.32-.28.62-.56.93-.84.31-.28.62-.57.93-.85,1.22-1.13,2.43-2.28,3.62-3.47,1.2-1.17,2.37-2.36,3.52-3.58,1.16-1.21,2.29-2.44,3.4-3.69.56-.63,1.12-1.26,1.66-1.89.05-.06.11-.12.17-.19.48-.57.97-1.14,1.45-1.72.53-.63,1.06-1.28,1.59-1.92.47-.59.94-1.17,1.41-1.76.05-.07.1-.14.16-.21.52-.66,1.04-1.32,1.54-1.99.5-.65.99-1.31,1.48-1.98.01-.01.02-.02.02-.03.5-.67,1-1.35,1.48-2.04.49-.68.97-1.37,1.44-2.06.5-.73,1-1.46,1.48-2.19.45-.67.88-1.33,1.31-2,.54-.84,1.06-1.68,1.58-2.52.17-.27.34-.54.5-.81.42-.69.84-1.39,1.25-2.09.48-.82.95-1.64,1.42-2.46.1-.18.21-.37.3-.55.48-.84.94-1.69,1.4-2.54.38-.71.75-1.43,1.12-2.15.2-.38.39-.75.58-1.13.24-.47.48-.95.71-1.43.55-1.12,1.09-2.24,1.61-3.37.22-.47.44-.95.66-1.42.08-.19.17-.38.25-.57.33-.74.65-1.48.97-2.22.07-.16.13-.31.2-.47.34-.8.68-1.61,1-2.42.4-.97.78-1.95,1.15-2.92.16-.42.32-.84.48-1.26.21-.56.41-1.11.61-1.67.39-1.07.76-2.15,1.12-3.23.21-.62.41-1.23.61-1.85.21-.66.42-1.32.62-1.99.24-.75.46-1.51.68-2.26h0c.23-.8.46-1.6.67-2.39.18-.66.36-1.32.53-1.98,0-.02.01-.04.01-.06.13-.49.26-.99.38-1.48.12-.48.24-.96.35-1.44.19-.76.36-1.52.53-2.29.09-.4.18-.81.27-1.22.14-.64.27-1.28.4-1.93.35-1.71.67-3.43.95-5.15.08-.44.15-.87.22-1.3.01-.05.01-.1.02-.15.13-.78.24-1.57.35-2.35.04-.26.08-.51.11-.77.06-.41.11-.82.17-1.23.09-.69.17-1.39.25-2.08.1-.81.18-1.62.27-2.44,0-.03.01-.07.01-.1v-.03c.09-.87.17-1.74.24-2.62l.03-.33c.06-.78.12-1.55.17-2.33.06-.85.11-1.71.15-2.57.01-.05.01-.1.01-.15.04-.79.07-1.59.1-2.38.01-.19.02-.39.02-.59v-.16c.03-.63.04-1.25.05-1.88.02-1,.03-2,.03-3.01,0-.89,0-1.78-.02-2.66,16.53-4.67,33.98-7.17,52.02-7.17,11.38,0,22.53,1,33.36,2.91l.92,30.31c-14.43,4.79-24.84,18.4-24.84,34.43s11.41,30.93,26.91,35.06l.2,8.18c-11.61-5.49-24.58-8.56-38.27-8.56-49.52,0-89.66,40.14-89.66,89.66,0,3.11.16,6.18.47,9.21.31,3.1.79,6.16,1.42,9.16.27,1.35.58,2.68.92,4,.93,3.61,2.07,7.13,3.42,10.55.21.52.42,1.04.63,1.55.43,1.03.88,2.05,1.34,3.06,2.44,5.29,5.39,10.31,8.76,14.98.61.85,1.24,1.68,1.89,2.51h0c.64.83,1.29,1.64,1.97,2.44.68.81,1.37,1.6,2.06,2.39,1.04,1.16,2.11,2.3,3.23,3.41,16.23,16.33,38.72,26.44,63.56,26.44,15.25,0,29.61-3.81,42.19-10.53l.24,9.68c-13.54,5.26-23.14,18.43-23.14,33.83s9.67,28.66,23.29,33.88Z" style="fill: none; stroke: #1d1d1b; stroke-miterlimit: 10; stroke-width: .5px;"/>
  <path d="M347.39,266.71c0,42.36,16.59,80.85,43.61,109.32-8.9,12.46-19.27,23.81-30.84,33.79l-34.49-19.91h0c.01-.32.01-.64.01-.95,0-20.04-16.25-36.29-36.29-36.29-4.64,0-9.07.87-13.14,2.46l-.24-9.68c.8-.43,1.59-.86,2.37-1.32.09-.04.17-.09.25-.14.69-.4,1.38-.8,2.05-1.22.18-.11.35-.22.52-.32.72-.45,1.43-.9,2.13-1.37.02-.01.03-.02.04-.03.53-.35,1.05-.7,1.57-1.07.04-.02.08-.05.12-.09.35-.23.69-.48,1.04-.73.7-.5,1.38-1,2.06-1.53.53-.39,1.05-.8,1.56-1.21.05-.03.09-.07.13-.1.26-.22.52-.43.78-.64.51-.41,1.01-.83,1.51-1.26.26-.22.51-.44.76-.67.55-.48,1.1-.96,1.63-1.46.64-.58,1.27-1.18,1.89-1.78.52-.51,1.02-1.02,1.52-1.53.36-.36.71-.73,1.05-1.1.53-.54,1.03-1.09,1.53-1.65,0,0,0-.01.02-.02.62-.69,1.24-1.4,1.84-2.12.61-.71,1.2-1.44,1.77-2.17.08-.09.15-.18.22-.27.53-.66,1.04-1.34,1.54-2.02.57-.76,1.12-1.53,1.65-2.31.82-1.17,1.61-2.36,2.36-3.57.76-1.21,1.49-2.44,2.18-3.69.46-.83.92-1.67,1.36-2.52.21-.43.43-.85.65-1.28.72-1.45,1.4-2.91,2.04-4.4.21-.49.42-.99.63-1.49.27-.66.54-1.33.8-2.01,0-.04.03-.08.05-.12.32-.86.64-1.73.94-2.61.17-.46.32-.91.46-1.37.31-.92.6-1.85.86-2.78.15-.47.28-.94.4-1.41.26-.94.5-1.88.73-2.83.41-1.72.77-3.45,1.08-5.21.2-1.17.39-2.35.55-3.53.24-1.78.42-3.58.56-5.39.06-.69.1-1.38.13-2.07.01-.08.01-.17.02-.26.03-.72.06-1.44.08-2.16v-.12c.01-.36.02-.73.03-1.09,0-.36.01-.73.01-1.09,0-.78-.01-1.57-.04-2.35-.06-2.31-.2-4.6-.43-6.86-.07-.75-.16-1.5-.26-2.25-.01-.04-.01-.07-.01-.11-.09-.7-.19-1.39-.29-2.09-.01-.03-.02-.06-.02-.1-.11-.72-.23-1.44-.36-2.15-.12-.69-.26-1.38-.39-2.07-.01-.04-.02-.09-.03-.13-.15-.73-.31-1.46-.48-2.18-.16-.72-.34-1.44-.52-2.16-.31-1.19-.64-2.37-1-3.54-.12-.41-.25-.82-.38-1.23-.02-.09-.05-.18-.09-.27-.13-.44-.28-.88-.43-1.32-.37-1.09-.76-2.18-1.18-3.26-.15-.4-.31-.8-.47-1.2-.19-.49-.39-.98-.6-1.46-.2-.49-.41-.97-.62-1.45-.21-.48-.43-.96-.65-1.44-.22-.48-.44-.95-.67-1.42-.45-.95-.93-1.88-1.42-2.81-.24-.46-.49-.92-.75-1.38-.28-.51-.57-1.03-.87-1.54-.29-.51-.59-1.01-.89-1.52-.61-1-1.23-1.99-1.88-2.97-.64-.98-1.3-1.95-1.99-2.9-8.85-12.38-20.79-22.42-34.68-28.98l-.2-8.18c2.99.8,6.14,1.23,9.38,1.23,19.27,0,35.03-15.03,36.2-34.01l40.82-25.24c12.88,10.82,24.3,23.31,33.94,37.14-27.74,28.6-44.83,67.6-44.83,110.59Z" style="fill: none; stroke: #1d1d1b; stroke-miterlimit: 10; stroke-width: .5px;"/>
  <path d="M419.13,212.69c-9.76,15.68-15.39,34.2-15.39,54.02s5.41,37.58,14.79,53.06c11.46,18.9,28.86,33.8,49.62,42.1v22.44c0,10.33-5.51,19.88-14.46,25.04l-7.62,4.4c-20.98-8.59-39.71-21.54-55.07-37.72-27.02-28.47-43.61-66.96-43.61-109.32s17.09-81.99,44.83-110.59c15.52-15.99,34.38-28.73,55.45-37.08l6.02,3.48c8.95,5.16,14.46,14.71,14.46,25.04v24c-20.4,8.15-37.56,22.69-49.02,41.13Z" style="fill: none; stroke: #1d1d1b; stroke-miterlimit: 10; stroke-width: .5px;"/>
  <path d="M179.18,428.29c0,6.43-.38,12.78-1.13,19.01-20.21-6.37-38.97-16.01-55.65-28.31-.11-1.26-.25-2.52-.41-3.77-.07-.59-.15-1.18-.24-1.77-.08-.61-.18-1.22-.28-1.82-.1-.61-.2-1.21-.31-1.81l-.03-.18c-.19-1.02-.39-2.04-.61-3.05-.17-.77-.34-1.53-.52-2.29-.11-.43-.21-.85-.32-1.28-.18-.7-.36-1.4-.56-2.1-.16-.58-.33-1.17-.5-1.75-.02-.08-.05-.17-.08-.26-.27-.92-.56-1.83-.86-2.74-.16-.48-.32-.97-.49-1.45-.15-.44-.31-.88-.47-1.32-.22-.64-.46-1.27-.71-1.9-.46-1.22-.95-2.42-1.47-3.61-.83-1.95-1.73-3.87-2.69-5.76-.22-.45-.45-.9-.69-1.34-.46-.9-.94-1.78-1.44-2.66-.5-.9-1.02-1.8-1.56-2.68-.24-.41-.49-.81-.74-1.21-.26-.43-.53-.85-.8-1.27-.9-1.41-1.84-2.79-2.82-4.15-.33-.48-.68-.95-1.03-1.42-1.04-1.42-2.13-2.81-3.26-4.17-.37-.46-.75-.91-1.13-1.36-.53-.63-1.08-1.25-1.63-1.86-.44-.5-.89-.99-1.34-1.47-.45-.5-.92-.98-1.39-1.47s-.95-.97-1.43-1.45c-1.05-1.05-2.13-2.07-3.23-3.07-.4-.37-.81-.73-1.21-1.09-.48-.43-.96-.84-1.45-1.25-.56-.49-1.13-.96-1.7-1.42-.46-.37-.91-.74-1.38-1.1-.26-.21-.51-.4-.76-.59-.39-.3-.78-.6-1.17-.89-1.89-1.42-3.84-2.77-5.82-4.05-.45-.29-.89-.58-1.34-.85-.38-.24-.76-.47-1.14-.7-.41-.25-.82-.5-1.24-.74-2.92-1.72-5.93-3.29-9.03-4.71-.43-.2-.87-.4-1.31-.59-1.63-.73-3.29-1.41-4.97-2.05-11.33-4.32-23.62-6.69-36.47-6.69-6.89,0-13.62.68-20.12,1.98v-57.06c6.21-.79,12.53-1.22,18.95-1.26,5.68,12.62,18.37,21.4,33.1,21.4,10.02,0,19.09-4.07,25.66-10.64.12.05.23.09.35.14.05.02.1.04.15.06.24.09.48.18.72.28.98.39,1.96.79,2.93,1.2.04.02.09.04.13.06,1.06.45,2.12.91,3.17,1.38,1.06.48,2.12.97,3.17,1.47.03.01.06.02.09.04.87.41,1.73.83,2.59,1.27l.06.03c.06.03.12.06.18.09.1.05.2.1.3.15.81.4,1.6.81,2.4,1.23.32.17.64.34.96.51.73.39,1.46.79,2.19,1.2.08.04.15.09.23.13.18.09.35.19.52.29.07.04.15.08.22.12.85.47,1.69.96,2.52,1.45.19.11.37.21.54.32.73.43,1.45.87,2.16,1.31.23.14.46.28.68.42.81.5,1.61,1.01,2.4,1.52.05.03.1.07.15.1.97.63,1.93,1.27,2.88,1.92.74.5,1.47,1.01,2.2,1.52.27.19.54.38.81.58.18.13.37.26.55.39.58.42,1.16.84,1.73,1.27.27.2.53.39.79.59.63.47,1.26.95,1.88,1.44.23.18.47.36.7.54.72.56,1.43,1.13,2.13,1.71.07.05.14.11.21.17.08.06.17.13.25.2.7.57,1.39,1.15,2.08,1.74.43.37.86.73,1.29,1.11.04.03.08.07.12.1.52.44,1.03.88,1.54,1.34.66.59,1.32,1.19,1.97,1.79.51.46,1,.93,1.5,1.4.63.59,1.25,1.19,1.87,1.79.05.05.09.09.14.14.45.44.9.88,1.34,1.33.12.12.24.24.36.36.54.54,1.07,1.08,1.59,1.63.56.57,1.11,1.15,1.66,1.74.56.59,1.12,1.2,1.66,1.8.55.6,1.09,1.21,1.62,1.82.54.61,1.07,1.22,1.59,1.83.33.37.64.74.95,1.12.08.09.15.18.23.27.08.1.17.2.25.3.12.14.23.29.35.43.44.54.89,1.08,1.32,1.63.51.63,1.01,1.27,1.51,1.91.5.64.99,1.28,1.48,1.93.49.65.97,1.3,1.45,1.96.16.21.32.43.47.65.15.21.31.43.46.65.37.52.75,1.05,1.12,1.58.37.53.74,1.06,1.09,1.59.37.54.73,1.07,1.08,1.61.76,1.15,1.5,2.31,2.24,3.48.29.47.58.95.87,1.42.34.56.67,1.11,1,1.67.33.55.66,1.11.98,1.67.29.49.57.98.84,1.47.02.04.04.07.06.11.4.71.79,1.42,1.17,2.13.28.51.55,1.03.82,1.54.21.39.42.79.62,1.18.25.49.5.97.74,1.46.34.67.67,1.34,1,2.02.26.53.51,1.05.75,1.58.25.52.5,1.05.74,1.58.25.53.48,1.06.72,1.59.24.53.47,1.07.7,1.61.24.53.47,1.07.69,1.61.47,1.12.93,2.25,1.37,3.38.2.5.39,1.01.58,1.51.41,1.09.82,2.19,1.21,3.3.2.55.39,1.11.58,1.66.19.56.38,1.12.56,1.68.36,1.08.7,2.17,1.04,3.26.21.69.42,1.39.62,2.09.18.6.35,1.2.51,1.8.17.6.33,1.2.49,1.81.16.6.32,1.21.47,1.82.31,1.21.6,2.43.88,3.66.17.73.33,1.45.48,2.19.21.96.4,1.93.59,2.9,0,.01,0,.02.01.03.03.14.05.29.08.43.01.04.02.08.02.12.08.44.16.88.24,1.31.01.03.01.07.02.1.16.9.31,1.8.46,2.71.13.81.26,1.62.38,2.44.01.09.03.19.04.28l.03.24c.09.62.17,1.24.25,1.87.12.87.23,1.75.32,2.64.09.76.17,1.51.25,2.27.01.07.01.15.02.22v.03c.06.56.1,1.1.15,1.66,0,.03.01.07.01.1h0c.03.29.05.57.07.86.05.61.1,1.22.14,1.83.03.4.05.81.08,1.21v.05c.04.63.07,1.25.1,1.89.02.35.04.69.05,1.04.04.87.07,1.75.09,2.62.02.43.02.86.03,1.3.02.98.03,1.97.03,2.96Z" style="fill: none; stroke: #1d1d1b; stroke-miterlimit: 10; stroke-width: .5px;"/>
  <path d="M276.4,451.72v60l-18.47,10.66-9.27,5.35c-4.31,2.48-9.09,3.77-13.88,3.86-.05,0-.12,0-.18.01-.04-.01-.08,0-.12,0h-.08c-5.06.04-10.12-1.26-14.66-3.87l-55.52-32.06-49.1-28.34c4.97-12.03,7.71-25.22,7.71-39.04,0-3.13-.14-6.24-.43-9.3,16.68,12.3,35.44,21.94,55.65,28.31,18.14,5.72,37.45,8.81,57.48,8.81,14.03,0,27.7-1.51,40.87-4.39Z" style="fill: none; stroke: #1d1d1b; stroke-miterlimit: 10; stroke-width: .5px;"/>
  <path d="M122.83,428.29c0,13.82-2.74,27.01-7.71,39.04l-8.5-4.91-91.91-53.07c-3.01-1.74-5.64-3.98-7.8-6.58-4.24-5.11-6.66-11.61-6.66-18.46v-56.5c6.5-1.3,13.23-1.98,20.12-1.98,12.85,0,25.14,2.37,36.47,6.69,1.68.64,3.34,1.32,4.97,2.05.44.19.88.39,1.31.59,3.1,1.42,6.11,2.99,9.03,4.71.42.24.83.49,1.24.74.38.23.76.46,1.14.7.45.27.89.56,1.34.85,1.98,1.28,3.93,2.63,5.82,4.05.39.29.78.59,1.17.89.25.19.5.38.76.59.47.36.92.73,1.38,1.1.57.46,1.14.93,1.7,1.42.49.41.97.83,1.45,1.25.4.36.81.72,1.21,1.09,1.1,1,2.18,2.02,3.23,3.07.48.48.96.96,1.43,1.45.47.48.93.97,1.39,1.47.45.48.9.97,1.34,1.47.55.61,1.1,1.23,1.63,1.86.38.45.76.9,1.13,1.36,1.13,1.36,2.22,2.75,3.26,4.17.35.47.7.94,1.03,1.42.98,1.36,1.92,2.74,2.82,4.15.27.42.54.84.8,1.27.25.4.5.8.74,1.21.54.88,1.06,1.78,1.56,2.68.5.88.98,1.76,1.44,2.66.24.44.47.89.69,1.34.96,1.89,1.86,3.81,2.69,5.76.52,1.19,1.01,2.39,1.47,3.61.25.63.49,1.26.71,1.9.16.44.32.88.47,1.32.17.48.33.97.49,1.45.3.91.59,1.82.86,2.74.03.09.06.18.08.26.17.58.34,1.17.5,1.75.2.7.38,1.4.56,2.1.11.43.21.85.32,1.28.18.76.35,1.52.52,2.29.21,1.01.42,2.03.61,3.05l.03.18c.11.6.21,1.2.31,1.81.1.61.19,1.21.28,1.82.09.59.17,1.18.24,1.77.16,1.25.3,2.51.41,3.77.29,3.06.43,6.17.43,9.3Z" style="fill: none; stroke: #1d1d1b; stroke-miterlimit: 10; stroke-width: .5px;"/>
  <path d="M468.15,171.56v190.31c-20.76-8.3-38.16-23.2-49.62-42.1-9.38-15.48-14.79-33.64-14.79-53.06s5.63-38.34,15.39-54.02c11.46-18.44,28.62-32.98,49.02-41.13Z" style="fill: none; stroke: #1d1d1b; stroke-miterlimit: 10; stroke-width: .5px;"/>
  <path d="M183.53,84.12c0,1.01,0,2.01-.03,3.01-.01.63-.02,1.25-.05,1.88v.16c0,.2-.01.4-.02.59-.03.79-.06,1.59-.1,2.38,0,.05,0,.1-.01.15-.04.86-.09,1.72-.15,2.57-.05.78-.11,1.55-.17,2.33l-.03.33c-.07.88-.15,1.75-.24,2.62v.03s-.01.07-.01.1c-.09.82-.17,1.63-.27,2.44-.08.69-.16,1.39-.25,2.08-.06.41-.11.82-.17,1.23-.03.26-.07.51-.11.77-.11.78-.22,1.57-.35,2.35-.01.05-.01.1-.02.15-.07.43-.14.86-.22,1.3-.28,1.72-.6,3.44-.95,5.15-.13.65-.26,1.29-.4,1.93-.09.41-.18.82-.27,1.22-.17.77-.34,1.53-.53,2.29-.11.48-.23.96-.35,1.44-.12.49-.25.99-.38,1.48,0,.02-.01.04-.01.06-.17.66-.35,1.32-.53,1.98-.21.79-.44,1.59-.67,2.38h0c-.22.76-.44,1.52-.68,2.27-.2.67-.41,1.33-.62,1.99-.2.62-.4,1.23-.61,1.85-.36,1.08-.73,2.16-1.12,3.23-.2.56-.4,1.11-.61,1.67-.16.42-.32.84-.48,1.26-.37.97-.75,1.95-1.15,2.92-.32.81-.66,1.62-1,2.42-.07.16-.13.31-.2.47-.32.74-.64,1.48-.97,2.22-.08.19-.17.38-.25.57-.22.47-.44.95-.66,1.42-.52,1.13-1.06,2.25-1.61,3.37-.23.48-.47.96-.71,1.43-.19.38-.38.75-.58,1.13-.37.72-.74,1.44-1.12,2.15-.46.85-.92,1.7-1.4,2.54-.09.18-.2.37-.3.55-.47.82-.94,1.64-1.42,2.46-.41.7-.83,1.4-1.25,2.09-.16.27-.33.54-.5.81-.52.84-1.04,1.68-1.58,2.52-.43.67-.86,1.33-1.31,2-.48.73-.98,1.46-1.48,2.19-.47.69-.95,1.38-1.44,2.06s-.98,1.36-1.48,2.04c0,.01-.01.02-.02.03-.49.67-.98,1.33-1.48,1.98-.51.66-1.02,1.33-1.54,1.99-.06.07-.11.14-.16.21-.47.59-.94,1.17-1.41,1.76-.53.64-1.06,1.29-1.59,1.92-.48.58-.97,1.15-1.45,1.72-.06.07-.12.13-.17.19-.54.63-1.1,1.26-1.66,1.89-1.12,1.25-2.25,2.48-3.4,3.69-1.16,1.21-2.33,2.4-3.52,3.58-1.19,1.17-2.4,2.33-3.62,3.47-.31.28-.62.57-.93.85-.31.28-.61.56-.93.84-.46.43-.93.84-1.4,1.25-.47.42-.94.82-1.42,1.23-.48.41-.96.82-1.44,1.22-.48.41-.96.81-1.45,1.2-.03.02-.06.04-.08.07-.62.51-1.25,1.01-1.88,1.5-.66.52-1.32,1.03-1.98,1.54-.67.52-1.34,1.03-2.01,1.52-.67.5-1.35.99-2.03,1.48s-1.37.98-2.06,1.45c-1.38.95-2.77,1.89-4.18,2.8-.01,0-.02.02-.02.02-.7.44-1.4.89-2.11,1.33-.71.45-1.43.89-2.15,1.32-.57.34-1.14.68-1.72,1.03-1.52.88-3.05,1.75-4.6,2.59-.2.11-.4.22-.61.33-.58.31-1.16.61-1.74.92-.59.31-1.19.61-1.79.92h0c-1.18.59-2.36,1.17-3.56,1.74-.05.03-.1.05-.16.08-1.07.5-2.14,1-3.22,1.48-.73.32-1.47.64-2.21.96-.98.41-1.96.82-2.94,1.22-.47.19-.93.37-1.4.55-.5.2-1,.39-1.51.58-6.63-8.68-17.09-14.28-28.85-14.28-.63,0-1.26.02-1.89.05-15.07.77-27.72,10.74-32.43,24.41-6.01-.24-11.92-.83-17.73-1.73v-57.42c7.84,1.93,16.04,2.95,24.47,2.95,14.54,0,28.37-3.03,40.9-8.49.89-.39,1.77-.79,2.64-1.2.8-.37,1.59-.76,2.37-1.15.18-.09.36-.18.53-.27.66-.33,1.3-.67,1.94-1.01.14-.08.28-.15.41-.23.65-.35,1.29-.7,1.93-1.07.34-.19.67-.39,1.01-.58.48-.28.95-.57,1.43-.86.32-.19.64-.39.96-.59.49-.3.98-.62,1.47-.93.42-.27.84-.54,1.25-.83.47-.31.95-.63,1.42-.96.29-.19.57-.39.86-.61,1.06-.74,2.11-1.51,3.14-2.31.44-.32.87-.66,1.3-1.01.43-.34.86-.68,1.28-1.03.32-.25.63-.51.95-.79.52-.44,1.05-.88,1.57-1.34.29-.24.58-.5.87-.77.23-.21.47-.42.7-.64.29-.24.58-.51.87-.79.14-.13.28-.26.41-.39.41-.38.82-.78,1.23-1.18.64-.61,1.27-1.24,1.89-1.88.4-.39.78-.79,1.14-1.19.38-.4.75-.8,1.12-1.2.38-.4.75-.82,1.1-1.23,1.1-1.22,2.15-2.47,3.17-3.74.34-.44.69-.88,1.04-1.32.35-.43.68-.87,1-1.31.99-1.3,1.94-2.62,2.84-3.97.46-.67.91-1.35,1.36-2.04.45-.68.88-1.37,1.3-2.07.34-.54.67-1.08.98-1.63.18-.3.35-.6.53-.91.21-.35.41-.71.6-1.06.23-.4.45-.81.66-1.22.23-.4.45-.8.65-1.2.19-.36.38-.73.56-1.09.24-.46.47-.92.69-1.39,1.12-2.26,2.14-4.57,3.07-6.92.19-.44.36-.89.52-1.33.25-.63.49-1.27.72-1.92.03-.07.06-.14.08-.21.27-.74.52-1.48.76-2.23.23-.65.44-1.3.63-1.95.18-.56.35-1.13.52-1.7.23-.8.46-1.61.67-2.42,2.24-8.39,3.42-17.21,3.42-26.3,0-8.55-1.05-16.85-3.03-24.79l50.07-28.91c5.74,15.98,8.99,33.15,9.29,51.04.01.88.02,1.77.02,2.66Z" style="fill: none; stroke: #1d1d1b; stroke-miterlimit: 10; stroke-width: .5px;"/>
  <path d="M127.18,84.12c0,9.09-1.18,17.91-3.42,26.3-.21.81-.44,1.62-.67,2.42-.17.57-.34,1.14-.52,1.7-.19.65-.4,1.3-.63,1.95-.24.75-.49,1.49-.76,2.23-.02.07-.05.14-.08.21-.23.65-.47,1.29-.72,1.92-.16.44-.33.89-.52,1.33-.93,2.35-1.95,4.66-3.07,6.92-.22.47-.45.93-.69,1.39-.18.36-.37.73-.56,1.09-.21.4-.42.8-.65,1.2-.21.41-.43.82-.66,1.22-.19.35-.39.71-.6,1.06-.18.31-.35.61-.53.91-.32.55-.65,1.09-.98,1.63-.43.7-.86,1.39-1.3,2.07-.45.69-.9,1.37-1.36,2.04-.9,1.35-1.85,2.67-2.84,3.97-.33.44-.66.87-1,1.31-.35.44-.7.88-1.04,1.32-1.03,1.27-2.09,2.52-3.17,3.74-.36.41-.73.82-1.1,1.23-.37.4-.74.8-1.12,1.2-.38.4-.76.8-1.14,1.19-.62.64-1.25,1.27-1.89,1.88-.41.4-.82.8-1.23,1.18-.13.13-.27.26-.41.39-.29.27-.58.53-.87.79-.23.22-.47.43-.7.64-.29.26-.58.52-.87.77-.52.46-1.05.9-1.57,1.34-.31.27-.63.53-.95.79-.42.35-.85.69-1.28,1.03-.43.34-.86.68-1.3,1.01-1.03.8-2.08,1.57-3.14,2.31-.28.21-.57.41-.86.61-.47.33-.95.65-1.42.96-.41.29-.83.56-1.25.83-.49.31-.98.63-1.47.93-.32.2-.64.4-.96.59-.48.29-.95.58-1.43.86-.34.19-.67.39-1.01.58-.64.37-1.28.72-1.93,1.07-.13.08-.27.15-.41.23-.64.34-1.28.68-1.94,1.01-.17.09-.35.18-.53.27-.78.39-1.57.78-2.37,1.15-.87.41-1.75.81-2.64,1.2-12.53,5.46-26.36,8.49-40.9,8.49-8.43,0-16.63-1.02-24.47-2.95v-36.07c0-10.01,5.17-19.28,13.63-24.54.22-.14.44-.27.67-.4l.16-.1,91.91-53.07,17.53-10.12c1.98,7.94,3.03,16.24,3.03,24.79Z" style="fill: none; stroke: #1d1d1b; stroke-miterlimit: 10; stroke-width: .5px;"/>
  <path d="M401.39,92.32l-43.11,26.66-40.82,25.24c.06-.75.08-1.51.08-2.28,0-20.03-16.24-36.28-36.28-36.28-4,0-7.85.65-11.45,1.85l-.92-30.31-1.89-62.47,134.39,77.59Z" style="fill: none; stroke: #1d1d1b; stroke-miterlimit: 10; stroke-width: .5px;"/>
  <path d="M406.52,436.59l-130.12,75.13v-88.88c4.03,1.55,8.41,2.4,12.99,2.4,19.72,0,35.78-15.73,36.28-35.33l34.49,19.91,46.36,26.77Z" style="fill: none; stroke: #1d1d1b; stroke-miterlimit: 10; stroke-width: .5px;"/>
  <path d="M88.58,254.6c0,10.01-4.06,19.08-10.62,25.65-6.57,6.57-15.64,10.64-25.66,10.64-14.73,0-27.42-8.78-33.1-21.4-2.05-4.54-3.19-9.58-3.19-14.89,0-4.14.69-8.11,1.97-11.82,4.71-13.67,17.36-23.64,32.43-24.41.63-.03,1.26-.05,1.89-.05,11.76,0,22.22,5.6,28.85,14.28,4.66,6.1,7.43,13.73,7.43,22Z" style="fill: none; stroke: #1d1d1b; stroke-miterlimit: 10; stroke-width: .5px;"/>
  <path d="M325.68,388.96c0,.31,0,.63-.01.94h0c-.5,19.61-16.56,35.34-36.28,35.34-4.58,0-8.96-.85-12.99-2.4-13.62-5.22-23.29-18.42-23.29-33.88s9.6-28.57,23.14-33.83c4.07-1.59,8.5-2.46,13.14-2.46,20.04,0,36.29,16.25,36.29,36.29Z" style="fill: none; stroke: #1d1d1b; stroke-miterlimit: 10; stroke-width: .5px;"/>
  <path d="M317.54,141.94c0,.77-.02,1.53-.08,2.28-1.17,18.98-16.93,34.01-36.2,34.01-3.24,0-6.39-.43-9.38-1.23-15.5-4.13-26.91-18.26-26.91-35.06s10.41-29.64,24.84-34.43c3.6-1.2,7.45-1.85,11.45-1.85,20.04,0,36.28,16.25,36.28,36.28Z" style="fill: none; stroke: #1d1d1b; stroke-miterlimit: 10; stroke-width: .5px;"/>
  <path id="uuid-ef4acd10-32b7-4350-95af-660ed3aeff8f" data-name="&amp;lt;Centre&amp;gt;" d="M323.48,266.32c0,.36-.01.73-.01,1.09,0,.36-.02.73-.03,1.09v.12c-.02.72-.05,1.44-.08,2.16-.01.09-.01.18-.02.26-.03.69-.07,1.38-.13,2.07-.14,1.81-.32,3.61-.56,5.39-.16,1.18-.35,2.36-.55,3.53-.31,1.76-.67,3.49-1.08,5.21-.23.95-.47,1.89-.73,2.83-.13.47-.26.94-.4,1.41-.27.93-.56,1.86-.86,2.78-.15.46-.3.92-.46,1.37-.3.88-.62,1.75-.94,2.61-.02.04-.04.08-.05.12-.26.68-.53,1.35-.8,2.01-.21.5-.42,1-.63,1.49-.65,1.49-1.33,2.95-2.04,4.4-.22.43-.44.85-.65,1.28-.44.85-.9,1.69-1.36,2.52-.7,1.25-1.43,2.48-2.18,3.69-.76,1.21-1.54,2.4-2.36,3.57-.54.78-1.09,1.55-1.65,2.31-.51.68-1.02,1.36-1.54,2.02-.07.09-.14.18-.22.27-.58.73-1.17,1.46-1.77,2.17-.6.72-1.22,1.43-1.84,2.12-.01.01-.02.02-.02.02-.5.56-1.01,1.11-1.53,1.65-.34.37-.69.74-1.05,1.1-.5.51-1,1.02-1.52,1.53-.62.6-1.25,1.19-1.89,1.78-.53.5-1.08.98-1.63,1.46-.25.23-.5.45-.76.67-.5.43-1,.85-1.51,1.26-.26.21-.52.42-.78.64-.04.03-.08.07-.13.1-.51.41-1.03.82-1.56,1.21-.68.53-1.36,1.03-2.06,1.53-.35.25-.69.5-1.04.73-.04.04-.08.07-.12.09-.52.37-1.04.72-1.57,1.07-.01.01-.02.02-.04.03-.7.47-1.41.92-2.13,1.37-.17.1-.34.21-.52.32-.67.42-1.36.82-2.05,1.22-.08.05-.16.1-.25.14-.78.46-1.57.89-2.37,1.32-12.58,6.72-26.94,10.53-42.19,10.53-24.84,0-47.33-10.11-63.56-26.44-1.1-1.11-2.18-2.25-3.23-3.41-.69-.79-1.38-1.58-2.06-2.39-.66-.8-1.32-1.61-1.97-2.43h0c-.64-.84-1.27-1.67-1.89-2.52-3.37-4.67-6.32-9.69-8.76-14.98-.46-1.01-.91-2.03-1.34-3.06-.21-.51-.42-1.03-.63-1.55-1.35-3.42-2.49-6.94-3.42-10.55-.34-1.32-.65-2.65-.92-4-.63-3-1.11-6.06-1.42-9.16-.31-3.03-.47-6.1-.47-9.21,0-49.52,40.14-89.66,89.66-89.66,13.69,0,26.66,3.07,38.27,8.56,13.89,6.56,25.83,16.6,34.68,28.98.69.95,1.35,1.92,1.99,2.9s1.27,1.97,1.88,2.97c.3.51.6,1.01.89,1.52.3.51.59,1.03.87,1.54.26.46.51.92.75,1.38.49.93.96,1.86,1.42,2.81.23.47.45.94.67,1.42.22.48.44.96.65,1.44.21.48.42.96.62,1.45.21.48.41.97.6,1.46.16.4.32.8.47,1.2.42,1.08.81,2.17,1.18,3.26.15.44.3.88.43,1.32.04.09.07.18.09.27.13.41.26.82.38,1.23.36,1.17.69,2.35,1,3.54.18.72.36,1.44.52,2.16.17.72.33,1.45.48,2.18,0,.04.02.09.03.13.13.69.27,1.38.39,2.07.13.71.25,1.43.36,2.15,0,.04.01.07.02.1.1.7.2,1.39.29,2.09,0,.04,0,.07.01.11.09.75.18,1.5.26,2.25.23,2.26.37,4.55.43,6.86.03.78.04,1.57.04,2.35Z" style="fill: none; stroke: #1d1d1b; stroke-miterlimit: 10; stroke-width: .5px;"/>
</svg>