<?xml version="1.0" encoding="UTF-8"?>
<svg id="uuid-9713b2e7-50d0-4448-8921-556308294284" data-name="Pattern" xmlns="http://www.w3.org/2000/svg" width="165.26mm" height="187.68mm" viewBox="0 0 468.46 532.02">
  <path d="M138.62,113.63c0,23.51-9.5,44.81-24.88,60.26-.54.54-1.08,1.08-1.63,1.6-1.11,1.05-2.24,2.07-3.4,3.07-1.45,1.24-2.94,2.43-4.48,3.58-1.53,1.14-3.1,2.23-4.71,3.27-.96.62-1.94,1.23-2.92,1.81-.99.58-1.99,1.15-3,1.69-.51.27-1.02.54-1.53.8s-1.03.52-1.55.77c-.51.25-1.04.5-1.56.74-.52.25-1.05.48-1.58.71-.53.23-1.06.46-1.6.68-.53.22-1.07.44-1.61.65-1.35.52-2.72,1.02-4.1,1.48-1.38.46-2.78.88-4.2,1.27-.56.16-1.13.31-1.7.45-2.49.63-5.02,1.15-7.59,1.55-1.42.22-2.85.41-4.29.56-.3.03-.6.06-.9.09-.67.06-1.35.12-2.03.17-.51.04-1.02.07-1.53.1-1.54.08-3.08.12-4.64.12-3.09,0-6.15-.16-9.16-.48-.05,0-.1-.01-.15-.02-1.1-.12-2.2-.26-3.29-.42-1.29-.19-2.57-.41-3.84-.66-.85-.17-1.7-.35-2.54-.54-1.68-.38-3.34-.81-4.98-1.29-.67-.2-1.33-.4-1.99-.61-1.98-.63-3.93-1.34-5.84-2.1,0,0,0-.01,0-.01-.48-.19-.95-.39-1.43-.59-7.11-3.02-13.73-6.99-19.7-11.72v-33.12c0-10.01,5.17-19.28,13.63-24.54.22-.14.44-.27.67-.4l.16-.1,84.8-48.95,21.18-12.23h0c.31.41.62.81.93,1.21,1.52,2.05,2.96,4.16,4.31,6.33.54.87,1.06,1.74,1.56,2.63h0c.51.9,1,1.79,1.47,2.7,5.22,10.01,8.52,21.18,9.41,33.02.16,2.13.24,4.29.24,6.47Z" style="fill: none; stroke: #1d1d1b; stroke-miterlimit: 10; stroke-width: .5px;"/>
  <path d="M184.17,87.3c-6.39,1.79-12.67,3.92-18.76,6.36-9.41,3.77-18.45,8.3-27.03,13.5-.89-11.84-4.19-23.01-9.41-33.02-.47-.91-.96-1.8-1.47-2.69h0c-.5-.9-1.02-1.77-1.56-2.64-1.35-2.17-2.79-4.28-4.31-6.33-.31-.4-.61-.8-.92-1.2l7.8-4.51,25.36-14.65.03.06,30.27,45.12Z" style="fill: none; stroke: #1d1d1b; stroke-miterlimit: 10; stroke-width: .5px;"/>
  <path d="M61.39,198.66c-8.1,20.76-12.57,43.41-12.62,67.04H.25v-85.1h.01v.07c5.97,4.73,12.59,8.67,19.7,11.66.48.2.95.4,1.43.59,0,0,0,.01,0,.01,1.91.76,3.86,1.47,5.84,2.1.66.21,1.32.41,1.99.61,1.64.48,3.3.91,4.98,1.29.84.19,1.69.37,2.54.54,1.27.25,2.55.47,3.84.66,1.09.16,2.19.3,3.29.42.05.01.1.02.15.02,3.05.33,6.14.5,9.27.5,1.52,0,3.03-.05,4.53-.14.51-.03,1.02-.06,1.53-.1.68-.05,1.36-.11,2.03-.17Z" style="fill: none; stroke: #1d1d1b; stroke-miterlimit: 10; stroke-width: .5px;"/>
  <path d="M184.49,444.91l-.11.17-.06.09-29.84,44.53-54.81-31.26-84.96-49.05c-3.01-1.74-5.64-3.98-7.8-6.58-4.24-5.11-6.66-11.61-6.66-18.46v-118.65h48.52v.38c0,5.3.22,10.54.66,15.72.72,8.58,2.03,17.01,3.89,25.22-20.39,7.44-34.95,27.01-34.95,49.98,0,29.38,23.82,53.2,53.2,53.2,12.4,0,23.82-4.25,32.87-11.37,22.01,21.59,49.36,37.73,79.91,46.25l.12-.18s.01.01.02.01Z" style="fill: none; stroke: #1d1d1b; stroke-miterlimit: 10; stroke-width: .5px;"/>
  <path d="M184.59,444.94l-.06.09-29.91,44.63-.06.09-.08-.05,29.84-44.53.06-.09.11-.17s.07.02.1.03Z" style="fill: none; stroke: #1d1d1b; stroke-miterlimit: 10; stroke-width: .5px;"/>
  <path d="M467.99,147.2v33.18c-.91.72-1.83,1.43-2.77,2.11-.47.34-.94.68-1.42,1.01-10.49,7.3-22.69,12.31-35.88,14.3-.6.09-1.2.17-1.8.25-.9.11-1.8.22-2.7.31-.91.09-1.81.16-2.73.22h-.05c-.62.04-1.23.07-1.85.1-.62.03-1.24.05-1.86.06-.61.01-1.22.02-1.83.02-2.77,0-5.5-.13-8.2-.39-.12-.01-.25-.02-.37-.04-.62-.06-1.25-.13-1.87-.2-.12-.02-.25-.03-.37-.05-1.73-.22-3.44-.49-5.14-.81-.69-.13-1.37-.27-2.06-.42-10.24-2.21-19.82-6.27-28.34-11.77-23.53-15.22-39.1-41.69-39.1-71.79,0-.75.01-1.5.02-2.25.02-.45.04-.88.04-1.32v-.15s.01-.11.01-.16c.01-.07.01-.14.01-.21,0-.06.01-.13.01-.19,0-.07.01-.13.01-.2.03-.67.07-1.34.12-2,.08-1.06.18-2.11.3-3.16.07-.63.15-1.26.23-1.89.09-.63.18-1.26.28-1.88.2-1.25.42-2.49.67-3.72.14-.69.29-1.38.45-2.06.31-1.37.66-2.73,1.04-4.07.19-.67.38-1.34.59-2.01.31-1,.64-1.98.98-2.96.34-.98.7-1.96,1.09-2.92.25-.65.51-1.28.78-1.92.24-.57.48-1.13.73-1.69.5-1.12,1.02-2.22,1.57-3.31,2.52-5.05,5.53-9.82,8.97-14.24l21.18,12.23,84.8,48.95.16.1c.23.13.45.26.67.4,8.46,5.26,13.63,14.53,13.63,24.54Z" style="fill: none; stroke: #1d1d1b; stroke-miterlimit: 10; stroke-width: .5px;"/>
  <path d="M468.21,265.54v118.66c0,6.85-2.42,13.35-6.66,18.46-2.16,2.6-4.79,4.84-7.8,6.58l-84.96,49.05-55.01,31.78-.06-.09-30.71-44.84-.06-.09c30.71-8.57,59.11-25.09,81.22-46.86,8.97,6.9,20.21,11.01,32.4,11.01,29.38,0,53.2-23.82,53.2-53.2,0-22.87-14.43-42.37-34.68-49.88.1-.42.19-.85.28-1.28,1.65-7.59,2.85-15.25,3.51-23.19.28-3.3.45-6.62.53-9.97.02-.66.04-1.32.05-1.98,0-.14,0-.28.01-.42.02-1.17.03-2.36.03-3.54v-.25l48.71.05Z" style="fill: none; stroke: #1d1d1b; stroke-miterlimit: 10; stroke-width: .5px;"/>
  <path d="M347.55,60.98c-3.44,4.42-6.45,9.19-8.97,14.24-.55,1.09-1.08,2.19-1.57,3.31-.26.56-.5,1.12-.73,1.69-.27.64-.53,1.27-.78,1.92-.39.96-.75,1.94-1.09,2.92-.35.98-.68,1.96-.98,2.96-.21.67-.4,1.34-.59,2.01-.38,1.34-.73,2.7-1.04,4.07-.16.68-.31,1.37-.45,2.06-.26,1.23-.48,2.47-.67,3.72-.11.63-.2,1.25-.28,1.88-.09.63-.17,1.26-.23,1.89-.12,1.05-.22,2.1-.3,3.16-2.19-1.31-4.38-2.58-6.59-3.8-2.21-1.21-4.43-2.38-6.67-3.5-1.12-.56-2.24-1.11-3.38-1.65-1.06-.51-2.13-1-3.21-1.49-.1-.05-.21-.09-.31-.14-1.11-.5-2.22-.99-3.35-1.46-1.16-.5-2.32-.98-3.5-1.45-1.53-.61-3.06-1.19-4.62-1.75-.43-.16-.86-.31-1.29-.45-.11-.05-.22-.09-.33-.12-.35-.13-.71-.26-1.07-.37-.85-.3-1.71-.59-2.58-.87-1.41-.46-2.84-.91-4.28-1.35-1.63-.49-3.28-.98-4.95-1.46l30.67-44.79,25.28,14.39,7.86,4.43Z" style="fill: none; stroke: #1d1d1b; stroke-miterlimit: 10; stroke-width: .5px;"/>
  <path d="M468.21,265.54l-48.71-.05c0-.74-.01-1.48-.02-2.21-.01-1.04-.03-2.08-.07-3.11-.01-.57-.03-1.13-.06-1.69-.05-1.34-.11-2.67-.2-4-.04-.73-.09-1.46-.14-2.18-.09-1.26-.19-2.5-.31-3.75-.1-1.11-.21-2.21-.33-3.3-.01-.09-.01-.17-.03-.25-.1-.97-.22-1.92-.34-2.88-.02-.21-.05-.43-.08-.64-.13-1.02-.28-2.04-.43-3.06-.16-1.12-.33-2.23-.52-3.34-.15-.94-.32-1.88-.49-2.81-.08-.47-.17-.94-.26-1.42-.13-.7-.27-1.4-.41-2.1-.23-1.18-.48-2.36-.75-3.54-.02-.09-.04-.18-.06-.27-.18-.82-.37-1.63-.57-2.44-.14-.63-.3-1.25-.45-1.88-.7-2.81-1.46-5.59-2.3-8.35-.14-.49-.29-.97-.44-1.45-.04-.15-.09-.3-.14-.45-.09-.29-.18-.58-.27-.87-.24-.76-.48-1.51-.73-2.25-.25-.75-.5-1.5-.76-2.24-.19-.56-.39-1.12-.59-1.67-.19-.56-.39-1.11-.6-1.66-.4-1.11-.82-2.21-1.25-3.31,2.7.26,5.43.39,8.2.39.61,0,1.22-.01,1.83-.02.62-.01,1.24-.03,1.86-.06.62-.02,1.23-.06,1.85-.1h.05c.92-.06,1.82-.13,2.73-.22.91-.09,1.81-.19,2.7-.31.6-.07,1.2-.15,1.8-.25,13.21-1.96,25.38-6.95,35.88-14.3.48-.33.95-.67,1.42-1.01.94-.68,1.86-1.39,2.77-2.11l.22,85.16Z" style="fill: none; stroke: #1d1d1b; stroke-miterlimit: 10; stroke-width: .5px;"/>
  <path d="M343.37,356c0,17.19,8.15,32.47,20.8,42.19-22.11,21.77-50.51,38.29-81.22,46.86l-.12-.17-4.25-6.2-45.44-66.34-43.88,65.46-4.77,7.11s-.01,0-.02-.01l4.82-7.19v-93.37c13.07,7.44,28.19,11.68,44.31,11.68,28.02,0,53.05-12.83,69.52-32.94,12.71-15.49,20.33-35.31,20.33-56.91,0-.27,0-.54-.01-.81h45.31s0,45.28,0,45.28c-15.23,9.36-25.38,26.18-25.38,45.36Z" style="fill: none; stroke: #1d1d1b; stroke-miterlimit: 10; stroke-width: .5px;"/>
  <path d="M189.29,344.31v93.4l-4.82,7.19c-30.51-8.52-57.86-24.66-79.84-46.22,12.27-9.74,20.14-24.79,20.14-41.68,0-19.13-10.1-35.9-25.25-45.27v-46.04h44.23v.48c0,16.94,4.69,32.8,12.88,46.32.65,1.08,1.33,2.15,2.03,3.21.34.53.7,1.05,1.06,1.57.36.52.72,1.04,1.09,1.55.74,1.02,1.5,2.03,2.28,3.02.39.5.79.98,1.19,1.47.31.37.61.74.92,1.1.31.37.63.73.95,1.09.63.72,1.28,1.43,1.93,2.13.63.68,1.27,1.34,1.92,1.99.07.07.13.14.2.2.64.64,1.29,1.27,1.95,1.88.7.66,1.41,1.31,2.13,1.94.72.63,1.45,1.26,2.19,1.87.04.04.09.08.14.12.92.75,1.85,1.49,2.79,2.2.47.36.95.71,1.43,1.06,1.44,1.04,2.91,2.04,4.41,3,.5.33,1.01.65,1.52.94.5.31,1.01.61,1.53.91.33.19.66.38,1,.57Z" style="fill: none; stroke: #1d1d1b; stroke-miterlimit: 10; stroke-width: .5px;"/>
  <path d="M419.5,265.49v.46c-.01,1.11-.02,2.22-.03,3.33-.01.14-.01.28-.01.42,0,.66-.03,1.32-.05,1.98-.11,3.28-.3,6.54-.57,9.78-.67,7.94-1.84,15.75-3.47,23.38-.09.43-.18.86-.28,1.28-5.77-2.15-12.01-3.32-18.52-3.32-10.2,0-19.72,2.87-27.82,7.84v-45.29h-45.31c-.18-21.28-7.77-40.79-20.32-56.09-3.03-3.7-6.35-7.16-9.94-10.31-.29-.27-.58-.52-.87-.77-.3-.27-.6-.53-.91-.77-.76-.66-1.54-1.29-2.33-1.91-.18-.13-.35-.26-.52-.39-.6-.47-1.21-.93-1.82-1.38-.24-.18-.48-.36-.72-.52-.16-.12-.32-.24-.48-.35-.01,0-.02-.02-.03-.02-.31-.22-.63-.45-.94-.66-.34-.26-.69-.49-1.04-.72-.1-.07-.2-.14-.3-.2-.63-.42-1.26-.83-1.9-1.23-.47-.31-.95-.6-1.43-.89-.16-.1-.33-.2-.5-.29-.16-.1-.33-.19-.5-.29v-94.56l.24-.35,4.61-6.7c1.67.48,3.32.97,4.95,1.46,1.44.44,2.87.89,4.28,1.35.87.28,1.73.57,2.58.87.36.13.72.24,1.07.37.11.03.22.07.33.12.43.14.86.29,1.29.45,1.56.56,3.09,1.14,4.62,1.75,1.18.47,2.34.95,3.5,1.45,1.13.47,2.24.96,3.35,1.46.1.05.21.09.31.14,1.08.49,2.15.98,3.21,1.49,1.14.54,2.26,1.09,3.38,1.65,2.24,1.12,4.46,2.29,6.67,3.5,2.21,1.22,4.4,2.49,6.59,3.8-.05.66-.09,1.33-.12,2,0,.07-.01.13-.01.2,0,.06-.01.13-.01.19,0,.07,0,.14-.01.21,0,.05,0,.11-.01.16v.15c0,.44-.02.87-.04,1.32-.03.76-.04,1.52-.04,2.29,0,30.1,15.57,56.57,39.1,71.79,8.53,5.51,18.1,9.55,28.36,11.73.69.15,1.37.29,2.06.42,1.7.33,3.41.6,5.14.81.12.02.25.03.37.05.62.07,1.25.14,1.87.2.12.02.25.03.37.04.43,1.1.85,2.2,1.25,3.31.21.55.41,1.1.6,1.66.2.55.4,1.11.59,1.67.26.74.51,1.49.76,2.24.25.74.49,1.49.73,2.25.09.29.18.58.27.87.05.15.1.3.14.45.15.48.3.96.44,1.45.84,2.76,1.6,5.54,2.3,8.35.15.63.31,1.25.45,1.88.2.81.39,1.62.57,2.44.02.09.04.18.06.27.27,1.18.52,2.36.75,3.54.14.7.28,1.4.41,2.1.09.48.18.95.26,1.42.17.93.33,1.87.49,2.81.19,1.11.36,2.22.52,3.34.15,1.02.3,2.04.43,3.06.03.21.06.43.08.64.12.96.24,1.91.34,2.88.02.08.02.16.03.25.12,1.09.23,2.19.33,3.3.12,1.25.22,2.49.31,3.75.05.72.1,1.45.14,2.18.09,1.33.15,2.66.2,4,.03.56.05,1.12.06,1.69.04,1.03.06,2.07.07,3.11.01.73.02,1.47.02,2.21Z" style="fill: none; stroke: #1d1d1b; stroke-miterlimit: 10; stroke-width: .5px;"/>
  <path d="M278.89,94v94.56c-13.29-7.78-28.77-12.24-45.29-12.24-27.7,0-52.46,12.53-68.94,32.24-12.95,15.49-20.79,35.4-20.91,57.13h-44.23v46.04c-8.12-5.03-17.7-7.93-27.95-7.93-6.41,0-12.56,1.14-18.25,3.22-1.86-8.21-3.17-16.64-3.89-25.22-.44-5.18-.66-10.42-.66-15.72v-.38c.05-23.63,4.52-46.28,12.62-67.04.3-.03.6-.06.9-.09,1.44-.15,2.87-.34,4.29-.56,2.57-.4,5.1-.92,7.59-1.55.57-.14,1.14-.29,1.7-.45,1.42-.39,2.82-.81,4.2-1.27,1.38-.46,2.75-.96,4.1-1.48.54-.21,1.08-.43,1.61-.65.54-.22,1.07-.45,1.6-.68.53-.23,1.06-.46,1.58-.71.52-.24,1.05-.49,1.56-.74.52-.25,1.04-.51,1.55-.77s1.02-.53,1.53-.8c1.01-.54,2.01-1.11,3-1.69.98-.58,1.96-1.19,2.92-1.81,1.61-1.04,3.18-2.13,4.71-3.27,1.54-1.15,3.03-2.34,4.48-3.58,1.16-1,2.29-2.02,3.4-3.07.55-.52,1.09-1.06,1.63-1.6,15.38-15.45,24.88-36.75,24.88-60.26,0-2.18-.08-4.34-.24-6.47,8.58-5.2,17.62-9.73,27.03-13.5,6.09-2.44,12.37-4.57,18.76-6.36l5.21,7.77v.03l.02.03,43.88,65.46,45.44-66.34.17-.25Z" style="fill: none; stroke: #1d1d1b; stroke-miterlimit: 10; stroke-width: .5px;"/>
  <path d="M313.78,490.07l-56.08,32.48-9.27,5.35c-4.31,2.48-9.09,3.77-13.88,3.86-.05,0-.12,0-.18.01-.04-.01-.08,0-.12,0h-.08c-5.06.04-10.12-1.26-14.66-3.87l-30.19-17.43h0s-.06-.04-.06-.04l-34.91-20.53.06-.09.07-.11.08.05.06-.09,29.91-44.63.06-.09s-.07-.02-.1-.03l4.77-7.11,43.88-65.46,45.44,66.34,4.25,6.2.12.17.06.09,30.71,44.84.06.09Z" style="fill: none; stroke: #1d1d1b; stroke-miterlimit: 10; stroke-width: .5px;"/>
  <path d="M314.41,42.16l-30.61,44.67-4.67,6.82-.24.35-.17.25-45.44,66.34-43.88-65.46-.02-.03v-.03l-5.21-7.77-30.29-45.18L219.65,4.14c4.54-2.61,9.6-3.92,14.66-3.88h.08s.08.01.12,0c.06.01.13.01.18.01,4.79.09,9.57,1.39,13.88,3.87l9.64,5.57,20.51,11.84,35.69,20.61Z" style="fill: none; stroke: #1d1d1b; stroke-miterlimit: 10; stroke-width: .5px;"/>
  <path d="M124.77,357c0,16.89-7.87,31.94-20.14,41.68-.07.06-.13.11-.19.15-9.05,7.12-20.47,11.37-32.87,11.37-29.38,0-53.2-23.82-53.2-53.2,0-22.97,14.56-42.54,34.95-49.98,5.69-2.08,11.84-3.22,18.25-3.22,10.25,0,19.83,2.9,27.95,7.93,15.15,9.37,25.25,26.14,25.25,45.27Z" style="fill: none; stroke: #1d1d1b; stroke-miterlimit: 10; stroke-width: .5px;"/>
  <path d="M449.77,356c0,29.38-23.82,53.2-53.2,53.2-12.19,0-23.43-4.11-32.4-11.01-12.65-9.72-20.8-25-20.8-42.19,0-19.18,10.15-36,25.38-45.36,8.1-4.97,17.62-7.84,27.82-7.84,6.51,0,12.75,1.17,18.52,3.32,20.25,7.51,34.68,27.01,34.68,49.88Z" style="fill: none; stroke: #1d1d1b; stroke-miterlimit: 10; stroke-width: .5px;"/>
  <path id="uuid-88e5d164-d3c1-4d3e-9e39-aea72924b9b5" data-name="Centre" d="M323.45,266.17c0,21.6-7.62,41.42-20.33,56.91-16.47,20.11-41.5,32.94-69.52,32.94-16.12,0-31.24-4.24-44.31-11.68v-.03c-.34-.19-.67-.38-1-.57-.52-.3-1.03-.6-1.53-.91-.51-.29-1.02-.61-1.52-.94-1.5-.96-2.97-1.96-4.41-3-.48-.35-.96-.7-1.43-1.06-.94-.71-1.87-1.45-2.79-2.2-.05-.04-.1-.08-.14-.12-.74-.61-1.47-1.24-2.19-1.87-.72-.63-1.43-1.28-2.13-1.94-.66-.61-1.31-1.24-1.95-1.88-.07-.06-.13-.13-.2-.2-.65-.65-1.29-1.31-1.92-1.99-.65-.7-1.3-1.41-1.93-2.13-.32-.36-.64-.72-.95-1.09-.31-.36-.61-.73-.92-1.1-.4-.49-.8-.97-1.19-1.47-.78-.99-1.54-2-2.28-3.02-.37-.51-.73-1.03-1.09-1.55-.36-.52-.72-1.04-1.06-1.57-.7-1.06-1.38-2.13-2.03-3.21-8.19-13.52-12.88-29.38-12.88-46.32v-.48c.12-21.73,7.96-41.64,20.91-57.13,16.48-19.71,41.24-32.24,68.94-32.24,16.52,0,32,4.46,45.29,12.24.17.1.34.19.5.29.17.09.34.19.5.29.48.29.96.58,1.43.89.64.4,1.27.81,1.9,1.23.1.06.2.13.3.2.35.23.69.47,1.04.72.31.21.63.44.94.66.01,0,.02.01.03.02.02.01.03.02.04.04.15.1.29.2.44.31.24.16.48.34.72.52.61.45,1.22.91,1.82,1.38.17.13.34.26.52.39.53.42,1.05.85,1.57,1.29.25.2.51.41.76.62.26.21.51.43.76.66.05.03.1.07.15.11.04.04.09.09.14.14.24.2.49.42.73.63,3.59,3.15,6.91,6.61,9.94,10.31,12.55,15.3,20.14,34.81,20.32,56.1.01.27.01.54.01.81Z" style="fill: none; stroke: #1d1d1b; stroke-miterlimit: 10; stroke-width: .5px;"/>
</svg>