<?xml version="1.0" encoding="UTF-8"?>
<svg id="uuid-e0b62d12-2068-45af-b133-6f30da4e3a8d" data-name="Pattern" xmlns="http://www.w3.org/2000/svg" width="165.24mm" height="187.62mm" viewBox="0 0 468.4 531.85">
  <path d="M120.24,197.36v108.57l-42.44-25.64c2.69-8.08,4.14-16.72,4.14-25.7,0-11.52-2.39-22.49-6.71-32.43l45.01-24.8Z" style="fill: none; stroke: #1d1d1b; stroke-miterlimit: 10; stroke-width: .5px;"/>
  <path d="M153.07,305.33c.38.79.78,1.57,1.18,2.34l-16.01,8.83-.28.15-17.72-10.71v-108.57l.23-.11,17.77,10.74,19.07,11.52c-1.66,2.71-3.18,5.51-4.54,8.4-.23.47-.45.94-.66,1.41-.62,1.35-1.2,2.72-1.74,4.1-.25.63-.49,1.26-.72,1.89-.29.78-.56,1.56-.82,2.34-.23.66-.45,1.32-.65,1.99-.2.64-.39,1.29-.58,1.94-.17.61-.34,1.22-.5,1.83-.1.36-.19.73-.28,1.09-.01.04-.02.09-.03.13-.19.74-.36,1.48-.52,2.23-.11.44-.2.88-.29,1.33,0,.02,0,.05-.02.07-.14.72-.28,1.44-.41,2.17,0,.05-.02.1-.03.16-.11.63-.22,1.27-.32,1.9-.02.15-.04.29-.06.43-.08.52-.15,1.03-.21,1.55-.11.77-.2,1.55-.28,2.33-.05.4-.09.8-.12,1.21-.05.51-.09,1.02-.13,1.53-.05.65-.09,1.31-.12,1.97-.05.86-.08,1.72-.1,2.59-.02.73-.03,1.46-.03,2.2s.01,1.55.03,2.31c.01.62.04,1.24.07,1.86.01.22.02.44.03.66.03.69.08,1.38.13,2.07.06.81.14,1.62.22,2.43.06.56.12,1.13.19,1.69.2,1.67.45,3.32.75,4.95.1.58.21,1.16.33,1.74.05.23.09.46.14.69.08.39.16.77.25,1.15.14.65.29,1.3.45,1.94.02.07.04.14.06.21.2.82.41,1.63.64,2.44.01.03.01.06.03.1.24.85.49,1.69.75,2.53.26.85.54,1.69.83,2.52.28.81.57,1.61.87,2.41.02.06.04.11.07.17.29.79.61,1.58.93,2.36.34.81.68,1.62,1.04,2.41.36.8.73,1.6,1.11,2.38Z" style="fill: none; stroke: #1d1d1b; stroke-miterlimit: 10; stroke-width: .5px;"/>
  <path d="M344.24,156.66v46.31l-32.97,18.17c-.49-.83-.98-1.66-1.5-2.47-.4-.63-.8-1.26-1.23-1.89-.2-.29-.38-.59-.58-.88-.16-.25-.33-.5-.51-.74-.31-.46-.63-.91-.96-1.36-.21-.28-.41-.55-.62-.83-.1-.13-.19-.26-.29-.39-.02-.03-.04-.05-.06-.08-.34-.47-.7-.92-1.06-1.37-.29-.36-.57-.73-.86-1.09-.69-.87-1.41-1.73-2.16-2.58-.33-.39-.67-.77-1.02-1.15-.32-.35-.63-.71-.96-1.05-.49-.54-.99-1.06-1.51-1.58-.27-.29-.56-.58-.85-.86-.78-.79-1.58-1.56-2.4-2.31-.26-.24-.52-.47-.78-.7-.28-.26-.56-.52-.84-.77-.04-.04-.09-.08-.13-.11-.3-.26-.59-.51-.89-.76l-.04-.04c-.3-.26-.6-.52-.91-.77-.3-.25-.6-.5-.91-.74-.34-.29-.69-.57-1.05-.85-.26-.21-.52-.41-.78-.6-.74-.57-1.48-1.13-2.24-1.66-.68-.49-1.37-.97-2.06-1.44-.3-.21-.59-.41-.89-.6-.5-.34-1.01-.67-1.52-.98-.29-.19-.59-.38-.89-.56-.23-.14-.47-.28-.71-.42-.11-.08-.23-.15-.34-.22-.05-.03-.1-.07-.16-.09-.49-.29-1-.59-1.5-.88-.18-.1-.36-.21-.54-.3-.68-.38-1.36-.75-2.05-1.11-.74-.39-1.48-.76-2.22-1.13-.04-.03-.09-.05-.14-.07-.74-.36-1.48-.71-2.22-1.05-.18-.08-.36-.17-.54-.24-.53-.25-1.07-.48-1.62-.71-.06-.03-.11-.05-.17-.07-.51-.22-1.02-.43-1.54-.63-.27-.11-.55-.22-.82-.32-1.19-.47-2.39-.9-3.6-1.31-.41-.14-.81-.27-1.22-.4-.58-.19-1.16-.37-1.75-.55-.18-.06-.37-.12-.55-.17-.05-.01-.1-.02-.15-.04-.47-.14-.93-.27-1.4-.39-.95-.27-1.91-.51-2.88-.74-.55-.13-1.1-.26-1.66-.37-.5-.12-1.01-.22-1.51-.32-1.73-.35-3.48-.65-5.25-.89v-39.87l40.25-22.18c11.75,21.4,32.82,36.96,57.75,41.2Z" style="fill: none; stroke: #1d1d1b; stroke-miterlimit: 10; stroke-width: .5px;"/>
  <path d="M246.24,137.64v39.87c-1.59-.23-3.19-.4-4.81-.54-.37-.03-.73-.06-1.09-.08-.2-.02-.4-.03-.6-.04-.43-.04-.87-.06-1.31-.08-1.53-.08-3.07-.12-4.62-.12-.85,0-1.69.01-2.53.04-.7.01-1.39.04-2.08.08-.85.04-1.68.09-2.52.16-.66.05-1.31.11-1.97.17-.84.09-1.68.19-2.52.3-.68.08-1.36.18-2.03.28-.78.12-1.56.25-2.33.39-.67.12-1.34.25-2,.38-.03,0-.06.02-.09.02-.73.15-1.46.31-2.18.48-.73.17-1.46.34-2.19.53-.62.16-1.25.33-1.87.5-.79.23-1.57.46-2.35.7-.67.2-1.33.42-1.99.64-.15.06-.31.11-.46.16-.57.2-1.15.4-1.72.61-.68.25-1.37.51-2.05.78-1.36.53-2.7,1.1-4.02,1.7-.05.03-.1.05-.16.07-.61.27-1.21.55-1.81.85-.65.31-1.3.63-1.95.97-.02.01-.04.02-.07.03-.62.32-1.24.64-1.85.98-1.27.69-2.52,1.41-3.75,2.16-.62.37-1.23.75-1.83,1.15-.58.35-1.15.73-1.71,1.11-.16.11-.31.21-.46.32-.48.32-.95.65-1.41.98-.92.65-1.82,1.32-2.71,2.01-.38.28-.77.58-1.14.89-.3.23-.6.47-.9.73-.36.28-.72.58-1.08.89-1.43,1.2-2.81,2.44-4.16,3.73-.43.4-.85.81-1.26,1.23-1.12,1.1-2.2,2.23-3.25,3.39-.6.66-1.19,1.33-1.77,2.01-.08.09-.17.19-.25.29-.53.63-1.05,1.26-1.56,1.9-.03.03-.06.07-.09.11-.54.66-1.06,1.33-1.57,2.01-.07.1-.14.19-.21.28-.53.71-1.05,1.43-1.56,2.16-.48.67-.94,1.36-1.4,2.05-.1.15-.21.31-.31.47-.46.7-.91,1.41-1.34,2.12-.02.02-.03.04-.04.06l-19.07-11.52-17.77-10.74,86.55-41.03,39.22-18.59Z" style="fill: none; stroke: #1d1d1b; stroke-miterlimit: 10; stroke-width: .5px;"/>
  <path d="M246.24,2.89v134.75l-39.22,18.59c16.78-7.95,17.98-31.37,2.11-40.99-.02-.01-.03-.02-.05-.03l-88.84-53.62,18-10.39L219.74,4.14c4.54-2.61,9.6-3.92,14.66-3.88h.08s.08.01.12,0c.06.01.13.01.18.01,3.91.07,7.81.95,11.46,2.62Z" style="fill: none; stroke: #1d1d1b; stroke-miterlimit: 10; stroke-width: .5px;"/>
  <path d="M271.79,514.38l-13.86,8-9.27,5.35c-.79.46-1.6.87-2.42,1.25v-104.69l19.55,11.81c-4.67,10.27-7.27,21.68-7.27,33.69,0,16.46,4.88,31.78,13.27,44.59Z" style="fill: none; stroke: #1d1d1b; stroke-miterlimit: 10; stroke-width: .5px;"/>
  <path d="M468.15,147.55l-123.91,184.89v-175.79c4.48.76,9.08,1.16,13.78,1.16,5.67,0,11.2-.58,16.55-1.68,25.72-5.3,47.01-22.71,57.66-46.01l21.46,12.39c8.95,5.16,14.46,14.71,14.46,25.04Z" style="fill: none; stroke: #1d1d1b; stroke-miterlimit: 10; stroke-width: .5px;"/>
  <path d="M468.15,147.55v236.75c0,10.33-5.51,19.88-14.46,25.04l-40.85,23.59c-12.02-23.7-35.28-40.73-62.77-44.09-.76-.09-1.53-.18-2.3-.24-.09-.02-.17-.02-.26-.03-.48-.05-.96-.08-1.44-.11-.12-.02-.24-.03-.36-.03-.45-.03-.91-.06-1.36-.08-.04,0-.07,0-.11,0v-55.9l123.91-184.89Z" style="fill: none; stroke: #1d1d1b; stroke-miterlimit: 10; stroke-width: .5px;"/>
  <path d="M344.24,332.45v55.9c-.12-.01-.23-.02-.35-.01-.53-.03-1.06-.05-1.6-.06-.74-.03-1.48-.04-2.22-.04-33.03,0-61.46,19.63-74.28,47.86l-19.55-11.81v-69.17c.08-.01.16-.02.24-.04.32-.04.63-.08.94-.14.14-.02.27-.04.4-.06.1-.01.19-.02.29-.04.29-.05.57-.09.85-.15.34-.05.68-.11,1.02-.18.67-.12,1.33-.24,1.99-.38.63-.13,1.26-.27,1.88-.41.07-.01.14-.03.21-.05.66-.15,1.31-.31,1.97-.47.95-.25,1.89-.5,2.82-.77.48-.14.96-.29,1.44-.44.2-.06.4-.12.6-.18.56-.18,1.12-.36,1.68-.55.44-.15.88-.3,1.32-.47.52-.18,1.03-.37,1.55-.57.19-.06.37-.13.56-.2.23-.09.46-.18.69-.27.43-.17.87-.35,1.3-.53.98-.4,1.94-.82,2.9-1.25.6-.28,1.19-.55,1.78-.84,1.59-.76,3.14-1.57,4.67-2.42.25-.14.51-.28.76-.42.11-.07.23-.13.34-.2.62-.35,1.23-.71,1.83-1.09.18-.11.36-.22.54-.33.21-.12.42-.25.62-.38.23-.14.47-.29.7-.45.17-.1.34-.21.5-.33.36-.22.72-.46,1.08-.7.58-.39,1.16-.78,1.72-1.19.31-.21.62-.43.92-.66.14-.09.27-.18.4-.29.41-.29.82-.6,1.22-.91.92-.68,1.82-1.4,2.7-2.12.11-.09.21-.19.32-.28.06-.05.11-.09.17-.14.03-.02.06-.05.09-.07.33-.27.65-.54.97-.82.23-.19.46-.39.69-.6,1.53-1.34,3.02-2.73,4.46-4.18.39-.39.77-.78,1.15-1.18.09-.09.18-.17.26-.26.02-.02.04-.04.06-.06.27-.29.54-.58.81-.88.3-.32.6-.65.89-.98.11-.12.21-.23.31-.35.58-.65,1.15-1.31,1.71-1.98.59-.7,1.17-1.41,1.74-2.13.02-.02.03-.04.05-.06.03-.04.05-.08.08-.12.08-.11.17-.21.25-.32.73-.92,1.42-1.86,2.1-2.81.18-.25.35-.5.52-.75.01,0,.01-.01.01-.01.24-.33.47-.66.69-1,.34-.49.67-.98.99-1.48.03-.06.07-.12.11-.18,0-.01.02-.03.03-.04.07-.1.14-.2.2-.3t.02-.02c.05-.09.11-.19.16-.28.05-.07.1-.15.14-.22.16-.25.32-.5.48-.75.23-.38.46-.75.69-1.13l33.42,20.19Z" style="fill: none; stroke: #1d1d1b; stroke-miterlimit: 10; stroke-width: .5px;"/>
  <path d="M120.24,61.58v135.78l-45.01,24.8c-12.53-28.9-41.32-49.12-74.84-49.12h-.14v-25.49c0-10.01,5.17-19.28,13.63-24.54.22-.14.44-.27.67-.4l.16-.1,105.53-60.93Z" style="fill: none; stroke: #1d1d1b; stroke-miterlimit: 10; stroke-width: .5px;"/>
  <path d="M344.24,202.97v129.48l-33.42-20.19c.29-.49.58-.98.86-1.48.31-.54.62-1.08.91-1.63.04-.07.08-.14.12-.21.32-.6.64-1.2.95-1.81,0,0,0-.01,0-.01.31-.61.62-1.22.91-1.84.04-.07.07-.14.1-.22.31-.61.59-1.23.87-1.85.6-1.32,1.17-2.67,1.7-4.02.26-.66.51-1.32.76-1.99,1.77-4.83,3.14-9.85,4.06-15.02.11-.59.21-1.19.3-1.78.01-.07.02-.14.03-.2.07-.43.13-.86.19-1.29.18-1.29.34-2.59.46-3.9.06-.58.11-1.16.15-1.74.01-.03.01-.07.01-.1.06-.72.1-1.44.14-2.17v-.08c.04-.76.07-1.53.09-2.3s.03-1.54.03-2.31-.01-1.54-.03-2.31-.05-1.53-.09-2.3c-.03-.59-.06-1.18-.11-1.77-.01-.31-.04-.61-.07-.92-.11-1.44-.26-2.87-.44-4.29-.07-.53-.14-1.06-.22-1.59-.1-.68-.21-1.36-.33-2.03-.06-.37-.12-.74-.19-1.1-.11-.59-.22-1.18-.34-1.76s-.24-1.15-.37-1.72c-.09-.38-.17-.76-.27-1.14-.51-2.14-1.1-4.25-1.76-6.33-.13-.39-.25-.79-.39-1.18-.44-1.34-.92-2.66-1.43-3.97-.14-.36-.28-.72-.43-1.08-.36-.9-.73-1.79-1.13-2.68-.6-1.36-1.23-2.71-1.9-4.03-.2-.39-.4-.79-.61-1.18-.46-.9-.94-1.78-1.44-2.66-.21-.38-.43-.76-.65-1.13l32.97-18.17Z" style="fill: none; stroke: #1d1d1b; stroke-miterlimit: 10; stroke-width: .5px;"/>
  <path d="M79.42,402.17c0,23.34,17.96,42.49,40.82,44.36v23.75l-105.53-60.93c-3.01-1.74-5.64-3.98-7.8-6.58-4.24-5.11-6.66-11.61-6.66-18.46v-48.16h.14c36.06,0,66.65-23.4,77.41-55.85l42.44,25.64v51.88c-22.86,1.87-40.82,21.01-40.82,44.35Z" style="fill: none; stroke: #1d1d1b; stroke-miterlimit: 10; stroke-width: .5px;"/>
  <path d="M276.47,76.27c0,14.21,3.63,27.56,10.02,39.19l-40.25,22.18V2.89c.82.38,1.63.79,2.42,1.25l9.64,5.57,33.3,19.23c-9.52,13.34-15.13,29.68-15.13,47.33Z" style="fill: none; stroke: #1d1d1b; stroke-miterlimit: 10; stroke-width: .5px;"/>
  <path d="M207.02,156.23l-86.55,41.03h-.01s-.22.11-.22.11V61.59l88.84,53.62s.03.02.05.03c15.87,9.62,14.67,33.04-2.11,40.99Z" style="fill: none; stroke: #1d1d1b; stroke-miterlimit: 10; stroke-width: .5px;"/>
  <path d="M246.24,424.29v104.69c-3.65,1.66-7.55,2.54-11.46,2.61-.05,0-.12,0-.18.01-.04-.01-.08,0-.12,0h-.08c-5.06.04-10.12-1.26-14.66-3.87l-81.5-47.06-18-10.39v-23.75c1.21.1,2.44.15,3.68.15,5.01,0,9.83-.83,14.32-2.36,10.33-3.51,18.95-10.71,24.31-20.03h83.69Z" style="fill: none; stroke: #1d1d1b; stroke-miterlimit: 10; stroke-width: .5px;"/>
  <path d="M246.24,355.12v69.17h-83.69c3.73-6.51,5.87-14.07,5.87-22.12,0-19.57-12.63-36.18-30.18-42.14-4.49-1.53-9.31-2.36-14.32-2.36-1.24,0-2.47.05-3.68.15v-51.88l17.72,10.71.28-.15,16.01-8.83c.21.43.44.86.68,1.29.47.85.94,1.7,1.43,2.54.74,1.25,1.5,2.49,2.29,3.71.8,1.21,1.62,2.41,2.47,3.59.57.78,1.14,1.55,1.73,2.32.59.75,1.18,1.49,1.77,2.22.32.39.64.77.97,1.15.32.36.63.73.95,1.09.64.72,1.29,1.44,1.95,2.14.38.41.77.82,1.17,1.22.62.63,1.24,1.25,1.88,1.87.34.33.69.67,1.05.99.7.66,1.42,1.31,2.14,1.95.73.63,1.46,1.26,2.21,1.87.37.31.75.62,1.13.91.37.3.75.6,1.14.89.76.6,1.54,1.18,2.32,1.73.4.29.79.57,1.19.84.4.28.8.55,1.2.82,1.6,1.09,3.25,2.11,4.93,3.08l1.26.72c.85.48,1.71.94,2.57,1.38.43.23.87.45,1.3.66,1.25.62,2.51,1.21,3.78,1.77.71.32,1.43.62,2.15.91.71.3,1.42.58,2.14.84,1.38.53,2.77,1.01,4.18,1.47.47.15.94.3,1.41.44.95.29,1.9.57,2.86.82.48.13.96.26,1.44.38,1.04.27,2.09.51,3.15.73.41.08.83.17,1.24.25.49.1.98.2,1.48.28,1.98.36,3.98.65,6,.87.5.06,1.01.11,1.52.16,1.01.09,2.03.17,3.06.23.48.03.95.05,1.43.07.61.04,1.22.06,1.83.07.71.02,1.44.03,2.16.03.87,0,1.74-.01,2.6-.04.32,0,.63-.02.95-.03.3,0,.59-.03.89-.04h.13s.1-.01.15-.01c.52-.03,1.04-.06,1.56-.1.05,0,.1,0,.15-.01.12-.01.25-.02.38-.03.07,0,.15,0,.22-.02.18-.01.36-.02.54-.04,1.45-.12,2.89-.27,4.31-.46.18-.02.37-.04.55-.07Z" style="fill: none; stroke: #1d1d1b; stroke-miterlimit: 10; stroke-width: .5px;"/>
  <path d="M412.84,432.93l-64.39,37.17-4.21,2.43-9.27,5.36-63.18,36.48c-8.39-12.81-13.27-28.13-13.27-44.59,0-12.01,2.6-23.42,7.27-33.69,12.82-28.23,41.25-47.86,74.28-47.86.74,0,1.48.01,2.22.04.54.01,1.07.03,1.6.06.12-.01.23,0,.35.01.04,0,.07,0,.11,0,.45.02.91.05,1.36.08.12,0,.24.01.36.03.48.03.96.06,1.44.11.09.01.17.01.26.03.77.07,1.54.15,2.3.24,27.49,3.36,50.75,20.39,62.77,44.09Z" style="fill: none; stroke: #1d1d1b; stroke-miterlimit: 10; stroke-width: .5px;"/>
  <path d="M432.23,110.12c-10.65,23.3-31.94,40.71-57.66,46.01-5.35,1.1-10.88,1.68-16.55,1.68-4.7,0-9.3-.4-13.78-1.16-24.93-4.24-46-19.8-57.75-41.2-6.39-11.63-10.02-24.98-10.02-39.19,0-17.65,5.61-33.99,15.13-47.33l52.64,30.39,21.53,12.43,10.36,5.98,56.1,32.39Z" style="fill: none; stroke: #1d1d1b; stroke-miterlimit: 10; stroke-width: .5px;"/>
  <path d="M81.94,254.59c0,8.98-1.45,17.62-4.14,25.7-10.76,32.45-41.35,55.85-77.41,55.85h-.14v-163.1h.14c33.52,0,62.31,20.22,74.84,49.12,4.32,9.94,6.71,20.91,6.71,32.43Z" style="fill: none; stroke: #1d1d1b; stroke-miterlimit: 10; stroke-width: .5px;"/>
  <path d="M168.42,402.17c0,8.05-2.14,15.61-5.87,22.12-5.36,9.32-13.98,16.52-24.31,20.03-4.49,1.53-9.31,2.36-14.32,2.36-1.24,0-2.47-.05-3.68-.15-22.86-1.87-40.82-21.02-40.82-44.36s17.96-42.48,40.82-44.35c1.21-.1,2.44-.15,3.68-.15,5.01,0,9.83.83,14.32,2.36,17.55,5.96,30.18,22.57,30.18,42.14Z" style="fill: none; stroke: #1d1d1b; stroke-miterlimit: 10; stroke-width: .5px;"/>
  <path id="uuid-4bfbe72d-20da-4d1a-9444-823163e38f5b" data-name="&amp;lt;Centre&amp;gt;" d="M323.47,266.31c0,.77-.01,1.55-.03,2.31-.02.77-.05,1.54-.09,2.3v.08c-.04.73-.08,1.45-.14,2.17,0,.03,0,.07-.01.1-.04.58-.09,1.16-.15,1.74-.12,1.31-.28,2.61-.46,3.9-.06.43-.12.86-.19,1.29-.01.06-.02.13-.03.2-.09.59-.19,1.19-.3,1.78-.92,5.17-2.29,10.19-4.06,15.02-.25.67-.5,1.33-.76,1.99-.53,1.35-1.1,2.7-1.7,4.02-.28.62-.57,1.24-.87,1.85-.03.08-.06.15-.1.22-.3.62-.6,1.23-.91,1.84,0,0,0,.01,0,.01-.31.61-.63,1.21-.95,1.81-.04.07-.08.14-.12.21-.29.55-.6,1.09-.91,1.63-.28.5-.57.99-.86,1.48-.23.38-.46.75-.69,1.13-.16.25-.32.5-.48.75-.04.07-.09.15-.14.22-.05.09-.11.19-.16.28t-.02.02c-.06.1-.13.2-.2.3-.01.01-.02.03-.03.04-.04.06-.08.12-.11.18-.32.5-.65.99-.99,1.48-.22.34-.45.67-.69,1,0,0,0,.01-.01.01-.17.25-.34.5-.52.75-.68.95-1.37,1.89-2.1,2.81-.08.11-.17.21-.25.32-.03.04-.05.08-.08.12-.02.02-.03.04-.05.06-.57.72-1.15,1.43-1.74,2.13-.56.67-1.13,1.33-1.71,1.98-.1.12-.2.23-.31.35-.29.33-.59.66-.89.98-.37.4-.75.8-1.13,1.2s-.76.79-1.15,1.18c-1.44,1.45-2.93,2.84-4.46,4.18-.23.21-.46.41-.69.6-.32.28-.64.55-.97.82-.03.02-.06.05-.09.07-.06.05-.11.09-.17.14-.11.09-.21.19-.32.28-.88.72-1.78,1.44-2.7,2.12-.4.31-.81.62-1.22.91-.13.11-.26.2-.4.29-.3.23-.61.45-.92.66-.56.41-1.14.8-1.72,1.19-.36.24-.72.48-1.08.7-.16.12-.33.23-.5.33-.43.28-.87.56-1.32.83-.18.11-.36.22-.54.33-.6.38-1.21.74-1.83,1.09-.37.21-.73.42-1.1.62-1.53.85-3.08,1.66-4.67,2.42-.59.29-1.18.56-1.78.84-.96.43-1.92.85-2.9,1.25-.43.18-.87.36-1.3.53-.42.16-.83.32-1.25.47-.52.2-1.03.39-1.55.57-.44.17-.88.32-1.32.47-.56.19-1.12.37-1.68.55-.2.06-.4.12-.6.18-.48.15-.96.3-1.44.44-.93.27-1.87.52-2.82.77-.66.16-1.31.32-1.97.47-.07.02-.14.04-.21.05-.62.14-1.25.28-1.88.41-.66.14-1.32.26-1.99.38-.34.07-.68.13-1.02.18-.38.07-.76.13-1.14.19-.13.02-.26.04-.4.06-.31.05-.62.1-.94.14-.26.04-.52.07-.79.11-1.42.19-2.86.34-4.31.46-.18.02-.36.03-.54.04-.07.01-.15.02-.22.02-.13.01-.26.02-.38.03-.05.01-.1.01-.15.01-.61.04-1.22.08-1.84.11-.61.03-1.23.05-1.84.07-.86.03-1.73.04-2.6.04-.72,0-1.45-.01-2.16-.03-.61-.01-1.22-.03-1.83-.07-.48-.02-.95-.04-1.43-.07-1.03-.06-2.05-.14-3.06-.23-.51-.05-1.02-.1-1.52-.16-2.02-.22-4.02-.51-6-.87-.5-.08-.99-.18-1.48-.28-.41-.08-.83-.17-1.24-.25-1.06-.22-2.11-.46-3.15-.73-.48-.12-.96-.25-1.44-.38-.96-.25-1.91-.53-2.86-.82-.47-.14-.94-.29-1.41-.44-1.41-.46-2.8-.94-4.18-1.47-.72-.27-1.43-.55-2.14-.84-.72-.29-1.44-.59-2.15-.91-1.27-.56-2.53-1.15-3.78-1.77-.43-.21-.87-.43-1.3-.66-.86-.44-1.72-.9-2.57-1.38l-1.26-.72c-1.68-.97-3.33-1.99-4.93-3.08-.4-.27-.8-.54-1.2-.82-.4-.27-.79-.55-1.19-.84-.78-.55-1.56-1.13-2.32-1.73-.39-.29-.77-.59-1.14-.89-.38-.29-.76-.6-1.13-.91-.75-.61-1.48-1.24-2.21-1.87-.72-.64-1.44-1.29-2.14-1.95-.36-.32-.71-.66-1.05-.99-.64-.62-1.26-1.24-1.88-1.87-.4-.4-.79-.81-1.17-1.22-.66-.7-1.31-1.42-1.95-2.14-.32-.36-.63-.73-.95-1.09-.33-.38-.65-.76-.97-1.15-.59-.73-1.18-1.47-1.77-2.22-.59-.77-1.16-1.54-1.73-2.32-.85-1.18-1.67-2.38-2.47-3.59-.79-1.22-1.55-2.46-2.29-3.71-.49-.84-.96-1.69-1.43-2.54-.24-.43-.47-.86-.68-1.29-.4-.77-.8-1.55-1.18-2.34-.38-.78-.75-1.58-1.11-2.38-.36-.79-.7-1.6-1.04-2.41-.32-.78-.64-1.57-.93-2.36-.03-.06-.05-.11-.07-.17-.3-.8-.59-1.6-.87-2.41-.29-.83-.57-1.67-.83-2.52-.26-.84-.51-1.68-.75-2.53-.02-.04-.02-.07-.03-.1-.23-.81-.44-1.62-.64-2.44-.02-.07-.04-.14-.06-.21-.16-.64-.31-1.29-.45-1.94-.09-.38-.17-.76-.25-1.15-.05-.23-.09-.46-.14-.69-.12-.58-.23-1.16-.33-1.74-.3-1.63-.55-3.28-.75-4.95-.07-.56-.13-1.13-.19-1.69-.08-.81-.16-1.62-.22-2.43-.05-.69-.1-1.38-.13-2.07-.01-.22-.02-.44-.03-.66-.03-.62-.06-1.24-.07-1.86-.02-.76-.03-1.54-.03-2.31s.01-1.47.03-2.2c.02-.87.05-1.73.1-2.59.03-.66.07-1.32.12-1.97.04-.51.08-1.02.13-1.53.03-.41.07-.81.12-1.21.08-.78.17-1.56.28-2.33.06-.52.13-1.03.21-1.55.02-.14.04-.28.06-.43.1-.63.21-1.27.32-1.9.01-.06.02-.11.03-.16.13-.73.27-1.45.41-2.17.01-.02.01-.05.02-.07.09-.45.18-.89.29-1.33.16-.75.33-1.49.52-2.23,0-.04.02-.09.03-.13.09-.36.18-.73.28-1.09.16-.61.33-1.22.5-1.83.19-.65.38-1.3.58-1.94.21-.67.42-1.33.65-1.99.26-.78.53-1.56.82-2.34.23-.63.47-1.26.72-1.89.54-1.38,1.12-2.75,1.74-4.1.21-.47.43-.94.66-1.41,1.36-2.89,2.88-5.69,4.54-8.4.01-.02.02-.04.04-.06.43-.71.88-1.42,1.34-2.12.1-.16.21-.32.31-.47.46-.69.92-1.38,1.4-2.05.51-.73,1.03-1.45,1.56-2.16.07-.09.14-.18.21-.28.51-.68,1.03-1.35,1.57-2.01.03-.04.06-.08.09-.11.51-.64,1.03-1.27,1.56-1.9.08-.1.17-.2.25-.29.58-.68,1.17-1.35,1.77-2.01,1.05-1.16,2.13-2.29,3.25-3.39.41-.42.83-.83,1.26-1.23,1.35-1.29,2.73-2.53,4.16-3.73.36-.31.72-.61,1.08-.89.3-.25.6-.49.9-.73.37-.31.76-.61,1.14-.89.89-.69,1.79-1.36,2.71-2.01.46-.33.93-.66,1.41-.98.15-.11.3-.21.46-.32.56-.37,1.13-.75,1.71-1.11.6-.39,1.21-.77,1.83-1.15,1.23-.75,2.48-1.47,3.75-2.16.62-.33,1.23-.65,1.85-.98.03-.01.05-.02.07-.03.65-.33,1.3-.65,1.95-.97.6-.29,1.2-.57,1.81-.85.06-.02.11-.04.16-.07,1.33-.6,2.67-1.16,4.02-1.7.68-.27,1.37-.53,2.05-.78.57-.21,1.15-.41,1.72-.61.15-.05.31-.1.46-.16.66-.22,1.32-.43,1.99-.64.78-.24,1.56-.47,2.35-.7.62-.17,1.25-.34,1.87-.5.73-.19,1.46-.36,2.19-.53.72-.17,1.45-.33,2.18-.48.03,0,.06-.01.09-.02.66-.13,1.33-.26,2-.38.77-.14,1.55-.27,2.33-.39.67-.1,1.35-.2,2.03-.28.84-.11,1.68-.21,2.52-.3.66-.06,1.31-.12,1.97-.17.84-.07,1.67-.12,2.52-.16.69-.04,1.38-.07,2.08-.08.84-.03,1.68-.04,2.53-.04,1.55,0,3.09.04,4.62.12.44.02.88.04,1.31.08.2.01.4.02.6.04.36.02.72.05,1.09.08,1.62.14,3.22.31,4.81.54,1.77.24,3.52.54,5.25.89.5.1,1.01.2,1.51.32.56.11,1.11.24,1.66.37.6.14,1.2.29,1.79.45.37.09.73.19,1.09.29.47.12.93.25,1.4.39.23.07.47.14.7.21.59.18,1.17.36,1.75.55.41.13.81.26,1.22.4,1.21.41,2.41.84,3.6,1.31.27.1.55.21.82.32.51.2,1.03.41,1.54.63.06.02.11.04.17.07.54.23,1.08.47,1.62.71.18.07.36.16.54.24.74.34,1.48.69,2.22,1.05.05.02.1.04.14.07.74.37,1.48.74,2.22,1.13.69.36,1.37.73,2.05,1.11.18.09.36.2.54.3.5.29,1.01.59,1.5.88.06.02.11.06.16.09.11.07.23.14.34.22.24.14.48.28.71.42.3.18.6.37.89.56.51.31,1.02.64,1.52.98.3.19.59.39.89.6.69.47,1.38.95,2.06,1.44.76.53,1.5,1.09,2.24,1.66l.78.6c.36.28.71.56,1.05.85.31.24.61.49.91.74.31.25.61.51.91.77l.04.04c.3.25.59.5.89.76.04.03.09.07.13.11.28.25.56.51.84.77.26.23.52.46.78.7.82.75,1.62,1.52,2.4,2.31.29.28.58.57.85.86.52.52,1.02,1.04,1.51,1.58.33.34.64.7.96,1.05.35.38.69.76,1.02,1.15.47.55.94,1.1,1.4,1.66.25.31.51.61.76.92.25.3.49.61.73.92.41.51.81,1.03,1.2,1.56.11.15.22.3.33.45.21.28.41.55.62.83.2.27.39.55.59.83.12.18.25.35.37.53.18.24.35.49.51.74.16.24.33.49.49.74.46.67.89,1.35,1.32,2.03.52.81,1.01,1.64,1.5,2.47.22.37.44.75.65,1.13.5.88.98,1.76,1.44,2.66.21.39.41.79.61,1.18.67,1.32,1.3,2.67,1.9,4.03.4.89.77,1.78,1.13,2.68.15.36.29.72.43,1.08.51,1.31.99,2.63,1.43,3.97.14.39.27.79.39,1.18.66,2.08,1.25,4.19,1.76,6.33.1.38.18.76.27,1.14.13.57.25,1.14.37,1.72s.23,1.17.34,1.76c.07.36.13.73.19,1.1.12.67.23,1.35.33,2.03.08.53.15,1.06.22,1.59.18,1.42.33,2.85.44,4.29.03.31.06.61.07.92.05.59.08,1.18.11,1.77.04.76.07,1.53.09,2.3s.03,1.54.03,2.31Z" style="fill: none; stroke: #1d1d1b; stroke-miterlimit: 10; stroke-width: .5px;"/>
</svg>