<?xml version="1.0" encoding="UTF-8"?>
<svg id="uuid-1b6e3719-246e-4b56-bfcb-76e6eeefb07a" data-name="Pattern" xmlns="http://www.w3.org/2000/svg" width="165.24mm" height="187.63mm" viewBox="0 0 468.4 531.85">
  <path d="M90.42,157.8c-10.03,13.31-18.27,28.05-24.34,43.87h0c-3.51,9.17-6.31,18.68-8.29,28.49-.6,2.93-1.13,5.88-1.58,8.86-1.03,6.79-1.68,13.7-1.93,20.71-.08,2.19-.12,4.38-.12,6.58,0,19.51,3.09,38.29,8.82,55.89.38,1.17.78,2.34,1.19,3.5l-11.96,6.95L.25,362.81v-174.51c1.62.08,3.24.12,4.88.12,12.93,0,25.29-2.49,36.6-7.03,15.51-6.2,29.06-16.23,39.51-28.92l9.18,5.33Z" style="fill: none; stroke: #1d1d1b; stroke-miterlimit: 10; stroke-width: .5px;"/>
  <path d="M52.21,332.65v98.35l-37.5-21.65c-8.95-5.16-14.46-14.71-14.46-25.04v-21.5l51.96-30.16Z" style="fill: none; stroke: #1d1d1b; stroke-miterlimit: 10; stroke-width: .5px;"/>
  <path d="M235.05,45.99c-.25-3.37-.38-6.78-.38-10.22,0-12.12,1.58-23.88,4.54-35.07-1.72-.31-3.47-.45-5.21-.44h-.08s-.08,0-.12,0c-.06,0-.13,0-.18,0-4.79.09-9.57,1.39-13.88,3.87l-9.64,5.57-18.82,10.87,43.77,25.41Z" style="fill: none; stroke: #1d1d1b; stroke-miterlimit: 10; stroke-width: .5px;"/>
  <path d="M430.33,159.36l37.82,21.95v-33.75c0-4.19-.91-8.25-2.59-11.95-.05-.1-.1-.21-.15-.31-10.31,9.74-22.13,17.89-35.08,24.06Z" style="fill: none; stroke: #1d1d1b; stroke-miterlimit: 10; stroke-width: .5px;"/>
  <path d="M468.15,181.31v105.64l-37.82,21.95v-19.82c13.91-7.83,23.3-22.73,23.3-39.82s-9.39-32-23.3-39.82v-50.08l37.82,21.95Z" style="fill: none; stroke: #1d1d1b; stroke-miterlimit: 10; stroke-width: .5px;"/>
  <path d="M372.21,172.61v48.22c8.37-10.51,21.27-17.24,35.75-17.24,8.13,0,15.76,2.12,22.37,5.85v-50.08c-17.62,8.4-37.32,13.14-58.12,13.25Z" style="fill: none; stroke: #1d1d1b; stroke-miterlimit: 10; stroke-width: .5px;"/>
  <path d="M430.33,289.08v19.82l-24.42,14.18-33.7,19.57v-64.97c8.37,10.51,21.27,17.25,35.75,17.25,8.13,0,15.76-2.12,22.37-5.85Z" style="fill: none; stroke: #1d1d1b; stroke-miterlimit: 10; stroke-width: .5px;"/>
  <path d="M198.97,443.22l-62.59,36.34h-.07l-84.1-48.56v-98.35l11.96-6.95c20.75,59.57,71.86,104.92,134.8,117.52Z" style="fill: none; stroke: #1d1d1b; stroke-miterlimit: 10; stroke-width: .5px;"/>
  <path d="M333.06,479l-.97.56-83.43,48.17c-4.54,2.61-9.6,3.91-14.66,3.87h-.08s-.08-.01-.12,0c-.06-.01-.13-.01-.18-.01-4.79-.09-9.57-1.38-13.88-3.86l-9.27-5.35-74.13-42.8.04-.02,62.59-36.34c11.51,2.31,23.43,3.52,35.62,3.52s24.73-1.27,36.52-3.7l61.95,35.96Z" style="fill: none; stroke: #1d1d1b; stroke-miterlimit: 10; stroke-width: .5px;"/>
  <path d="M284.65,393.48l-49.45,28.71-36.23,21.03c-62.94-12.6-114.05-57.95-134.8-117.52-.41-1.16-.81-2.33-1.19-3.5-5.73-17.6-8.82-36.38-8.82-55.89,0-2.2.04-4.39.12-6.58.25-7.01.9-13.92,1.93-20.71.45-2.98.98-5.93,1.58-8.86,1.98-9.81,4.78-19.32,8.29-28.48h0c6.07-15.83,14.31-30.57,24.34-43.88l25.62,14.87,27.22,15.81,26.43,15.34c-15.73,16.15-25.4,38.2-25.4,62.52,0,43.9,31.54,80.42,73.2,88.15l67.16,38.99Z" style="fill: none; stroke: #1d1d1b; stroke-miterlimit: 10; stroke-width: .5px;"/>
  <path d="M372.21,220.83c-6.21,7.8-9.92,17.68-9.92,28.43s3.71,20.63,9.92,28.42v64.97l-60.33,35.02-27.23,15.81-67.16-38.99c5.33.99,10.84,1.51,16.46,1.51,1.4,0,2.8-.03,4.19-.1.16,0,.32-.01.47-.02,9.32-.41,18.27-2.25,26.63-5.29,34.43-12.52,59.01-45.53,59.01-84.28,0-36.4-21.68-67.73-52.84-81.78v-55.45c24.98,26.78,60.58,43.53,100.1,43.53h.7v48.22Z" style="fill: none; stroke: #1d1d1b; stroke-miterlimit: 10; stroke-width: .5px;"/>
  <path d="M430.33,308.9l-24.42,14.18-33.7,19.57-60.33,35.02-27.23,15.81-49.45,28.71-36.23,21.03c11.51,2.31,23.43,3.52,35.62,3.52s24.73-1.27,36.52-3.7l61.95,35.96,39.15-22.61,10.44-6.02,27.3-15.76,43.74-25.26c3.01-1.74,5.64-3.98,7.8-6.58,4.24-5.11,6.66-11.61,6.66-18.46v-97.36l-37.82,21.95ZM323.85,444.66c-3.98,2.24-8.58,3.52-13.48,3.52-8.73,0-16.5-4.06-21.55-10.4-3.74-4.69-5.98-10.65-5.98-17.13s2.24-12.43,5.98-17.13c5.05-6.34,12.82-10.4,21.55-10.4,4.9,0,9.5,1.28,13.48,3.53,8.39,4.71,14.05,13.7,14.05,24s-5.66,19.29-14.05,24.01Z" style="fill: none; stroke: #1d1d1b; stroke-miterlimit: 10; stroke-width: .5px;"/>
  <path d="M271.41,129.08v55.45c-11.23-5.06-23.7-7.88-36.82-7.88-1.71,0-3.41.05-5.09.14-.06,0-.11,0-.16,0-23.36,1.18-44.36,11.3-59.65,27.02l-26.43-15.34-27.22-15.81-25.62-14.87-9.18-5.33c4.38-5.32,8.21-11.1,11.4-17.26l178.77-6.13Z" style="fill: none; stroke: #1d1d1b; stroke-miterlimit: 10; stroke-width: .5px;"/>
  <line x1="80.98" y1="84.19" x2="80.98" y2="84.26" style="fill: none; stroke: #1d1d1b; stroke-miterlimit: 10; stroke-width: .5px;"/>
  <path d="M92.64,135.21l178.77-6.13c-20.62-22.11-34-51.07-36.36-83.09l-43.77-25.41-89.22,51.51c1.06,5.77,1.61,11.71,1.61,17.79,0,16.35-3.98,31.76-11.03,45.33Z" style="fill: none; stroke: #1d1d1b; stroke-miterlimit: 10; stroke-width: .5px;"/>
  <path d="M103.67,89.88c0,16.35-3.98,31.76-11.03,45.33-3.19,6.16-7.02,11.94-11.4,17.26-10.45,12.69-24,22.72-39.51,28.92-11.31,4.54-23.67,7.03-36.6,7.03-1.64,0-3.26-.04-4.88-.12v-40.74c0-4.19.91-8.26,2.59-11.95,2.45-5.41,6.55-10.02,11.87-13.09l7.49-4.33,30.01-17.32,28.77-16.61,21.08-12.17c1.06,5.77,1.61,11.71,1.61,17.79Z" style="fill: none; stroke: #1d1d1b; stroke-miterlimit: 10; stroke-width: .5px;"/>
  <path d="M234.67,35.77c0,3.44.13,6.85.38,10.22,2.36,32.02,15.74,60.98,36.36,83.09,24.98,26.78,60.58,43.53,100.1,43.53h.7c20.8-.11,40.5-4.85,58.12-13.25,12.95-6.17,24.77-14.32,35.08-24.06-2.33-5-6.08-9.28-10.89-12.28-.22-.14-.44-.27-.67-.4l-.16-.1-81.48-47.04-17.2-9.93-27.3-15.77-49.58-28.63-29.47-17.01c-2.97-1.71-6.17-2.86-9.45-3.44-2.96,11.19-4.54,22.95-4.54,35.07Z" style="fill: none; stroke: #1d1d1b; stroke-miterlimit: 10; stroke-width: .5px;"/>
  <path d="M362.29,249.26c0,10.75,3.71,20.63,9.92,28.42,8.37,10.51,21.27,17.25,35.75,17.25,8.13,0,15.76-2.12,22.37-5.85,13.91-7.83,23.3-22.73,23.3-39.82s-9.39-32-23.3-39.82c-6.61-3.73-14.24-5.85-22.37-5.85-14.48,0-27.38,6.73-35.75,17.24-6.21,7.8-9.92,17.68-9.92,28.43Z" style="fill: none; stroke: #1d1d1b; stroke-miterlimit: 10; stroke-width: .5px;"/>
  <path d="M337.9,420.65c0,10.3-5.66,19.29-14.05,24.01-3.98,2.24-8.58,3.52-13.48,3.52-8.73,0-16.5-4.06-21.55-10.4-3.74-4.69-5.98-10.65-5.98-17.13s2.24-12.43,5.98-17.13c5.05-6.34,12.82-10.4,21.55-10.4,4.9,0,9.5,1.28,13.48,3.53,8.39,4.71,14.05,13.7,14.05,24Z" style="fill: none; stroke: #1d1d1b; stroke-miterlimit: 10; stroke-width: .5px;"/>
  <path d="M161.72,392.12c0,6.48,2.24,12.44,5.98,17.13,5.05,6.34,12.82,10.4,21.55,10.4,4.9,0,9.5-1.28,13.48-3.53,8.38-4.72,14.04-13.7,14.04-24,0-10.31-5.66-19.29-14.04-24-3.98-2.25-8.58-3.53-13.48-3.53-8.73,0-16.5,4.06-21.55,10.39-3.74,4.7-5.98,10.66-5.98,17.14Z" style="fill: none; stroke: #1d1d1b; stroke-miterlimit: 10; stroke-width: .5px;"/>
  <path d="M337.9,420.65c0,10.3-5.66,19.29-14.05,24.01-3.98,2.24-8.58,3.52-13.48,3.52-8.73,0-16.5-4.06-21.55-10.4-3.74-4.69-5.98-10.65-5.98-17.13s2.24-12.43,5.98-17.13c5.05-6.34,12.82-10.4,21.55-10.4,4.9,0,9.5,1.28,13.48,3.53,8.39,4.71,14.05,13.7,14.05,24Z" style="fill: none; stroke: #1d1d1b; stroke-miterlimit: 10; stroke-width: .5px;"/>
  <path id="uuid-dafd68e4-1306-47f7-a0cc-e75dcdbaa5be" data-name="&amp;lt;Centre&amp;gt;" d="M324.25,266.31c0,38.75-24.58,71.76-59.01,84.28-8.36,3.04-17.31,4.88-26.63,5.29-.15.01-.31.02-.47.02-1.39.07-2.79.1-4.19.1-5.62,0-11.13-.52-16.46-1.51-41.66-7.73-73.2-44.25-73.2-88.15,0-24.32,9.67-46.37,25.4-62.52,15.29-15.72,36.29-25.84,59.65-27.02.05,0,.1,0,.16,0,1.68-.09,3.38-.14,5.09-.14,13.12,0,25.59,2.82,36.82,7.88,31.16,14.05,52.84,45.38,52.84,81.78Z" style="fill: none; stroke: #1d1d1b; stroke-miterlimit: 10; stroke-width: .5px;"/>
</svg>