<?xml version="1.0" encoding="UTF-8"?>
<svg id="uuid-1a3a14c6-cbd6-46d8-b064-50edbef088d7" data-name="Calque 1" xmlns="http://www.w3.org/2000/svg" width="165.24mm" height="187.62mm" viewBox="0 0 468.4 531.83">
  <path d="M352.39,467.83l-48.67,28.1-55.06,31.79c-4.31,2.48-9.09,3.77-13.88,3.86l-1.17-132.86h0l50.95,29.65c-1.35,2.73-2.1,5.81-2.1,9.06,0,11.35,9.21,20.56,20.56,20.56,7.06,0,13.29-3.56,17-8.99l32.36,18.83Z" style="fill: none; stroke: #1d1d1b; stroke-miterlimit: 10; stroke-width: .5px;"/>
  <path d="M234.78.26v125.83l-65.67-38.2c13.27-8.24,22.1-22.94,22.1-39.7,0-8.7-2.38-16.85-6.53-23.82l31.83-18.38,3.23-1.86c4.65-2.68,9.85-3.98,15.04-3.87Z" style="fill: none; stroke: #1d1d1b; stroke-miterlimit: 10; stroke-width: .5px;"/>
  <path d="M346.74,60.76l-43.02-24.84-45.42-26.22-9.64-5.57c-4.31-2.48-9.09-3.78-13.88-3.87v125.83l4.32,2.52,64.62,37.59v-23.98c35.77-3.03,64.1-32.14,65.91-68.24l-22.89-13.22ZM300.37,106.14c-11.36,0-20.57-9.2-20.57-20.56s9.21-20.56,20.57-20.56,20.56,9.21,20.56,20.56-9.21,20.56-20.56,20.56Z" style="fill: none; stroke: #1d1d1b; stroke-miterlimit: 10; stroke-width: .5px;"/>
  <path d="M165.26,208.31c-13.05,15.6-20.91,35.69-20.91,57.61s7.86,42.01,20.91,57.61v35.42l-91.62-53.3c7.42-12.67,11.66-27.41,11.66-43.15s-4.12-30.04-11.32-42.58l91.28-53.26v41.65Z" style="fill: none; stroke: #1d1d1b; stroke-miterlimit: 10; stroke-width: .5px;"/>
  <path d="M453.69,122.51l-54.91-31.7-29.15-16.83c-1.81,36.1-30.14,65.21-65.91,68.24v23.98l89.92,52.32c14.83-25.49,42.44-42.63,74.05-42.63.15,0,.31,0,.46.01v-28.35c0-10.33-5.51-19.88-14.46-25.04ZM405.9,179.1c-11.36,0-20.56-9.2-20.56-20.56s9.2-20.56,20.56-20.56,20.56,9.21,20.56,20.56-9.21,20.56-20.56,20.56Z" style="fill: none; stroke: #1d1d1b; stroke-miterlimit: 10; stroke-width: .5px;"/>
  <path d="M468.15,347.1v37.2c0,10.33-5.51,19.88-14.46,25.04l-54.91,31.7-46.39,26.79-32.36-18.83c2.24-3.3,3.56-7.28,3.56-11.57,0-11.13-8.83-20.18-19.87-20.54v-59.08l90.3-52.69c14.91,25.14,42.32,41.99,73.67,41.99.15,0,.31,0,.46-.01Z" style="fill: none; stroke: #1d1d1b; stroke-miterlimit: 10; stroke-width: .5px;"/>
  <path d="M394.02,305.12l-90.3,52.69v-34.98c12.71-15.49,20.33-35.31,20.33-56.91s-7.62-41.42-20.33-56.91v-42.81l89.92,52.32c-7.35,12.63-11.56,27.31-11.56,42.98s4.35,30.84,11.94,43.62Z" style="fill: none; stroke: #1d1d1b; stroke-miterlimit: 10; stroke-width: .5px;"/>
  <path d="M165.26,166.65h0s-91.28,53.27-91.28,53.27c-14.69-25.56-42.19-42.83-73.73-43.02v-29.35c0-10.33,5.51-19.88,14.46-25.04l55.11-31.82,8.95-5.17c3.5,44.97,40.78,80.46,86.49,81.13Z" style="fill: none; stroke: #1d1d1b; stroke-miterlimit: 10; stroke-width: .5px;"/>
  <path d="M233.61,398.72l-68.35,39.89h-.01c-19.31-32.65-54.8-54.61-95.43-54.83-.22-.01-.43-.01-.65-.01-23.06,0-44.48,7-62.26,18.99-4.24-5.11-6.66-11.61-6.66-18.46v-36.2c31.31-.19,58.63-17.2,73.39-42.45l91.62,53.3,68.35,39.77Z" style="fill: none; stroke: #1d1d1b; stroke-miterlimit: 10; stroke-width: .5px;"/>
  <path d="M165.26,90.04v76.61c-45.71-.67-82.99-36.16-86.49-81.13l25-14.43c8.01,14.21,23.24,23.81,40.72,23.81,7.46,0,14.52-1.75,20.77-4.86Z" style="fill: none; stroke: #1d1d1b; stroke-miterlimit: 10; stroke-width: .5px;"/>
  <path d="M165.25,438.61l-49.66,28.98-45.77-26.43-55.11-31.82c-3.01-1.74-5.64-3.98-7.8-6.58,17.78-11.99,39.2-18.99,62.26-18.99.22,0,.43,0,.65.01,40.63.22,76.12,22.18,95.43,54.83Z" style="fill: none; stroke: #1d1d1b; stroke-miterlimit: 10; stroke-width: .5px;"/>
  <path d="M303.72,357.81v59.08c-.23-.02-.46-.02-.69-.02-8.1,0-15.11,4.68-18.45,11.49l-50.96-29.64,1.16-.68,68.94-40.23Z" style="fill: none; stroke: #1d1d1b; stroke-miterlimit: 10; stroke-width: .5px;"/>
  <path d="M234.78,531.58c-5.19.11-10.39-1.18-15.04-3.86l-39.43-22.77-15.05-8.69-49.67-28.67,49.66-28.98h.01l68.35-39.89,1.17,132.86Z" style="fill: none; stroke: #1d1d1b; stroke-miterlimit: 10; stroke-width: .5px;"/>
  <path d="M303.72,166.2v42.81c-16.47-20.11-41.5-32.94-69.52-32.94-.94,0-1.88.01-2.81.05-.78.02-1.57.05-2.35.1-25.6,1.44-48.33,13.61-63.78,32.09v-41.65h.01s-.01-.01-.01-.01v-76.61c1.32-.66,2.61-1.37,3.85-2.15l65.67,38.2,4.32,2.52,64.62,37.59Z" style="fill: none; stroke: #1d1d1b; stroke-miterlimit: 10; stroke-width: .5px;"/>
  <path d="M303.72,322.83v34.98l-68.94,40.23-1.16.68h0l-68.35-39.77v-35.42c16.48,19.71,41.24,32.24,68.94,32.24.27,0,.55,0,.82-.01.61.01,1.21-.01,1.81-.03.78-.02,1.56-.05,2.34-.1.98-.06,1.96-.13,2.94-.22,24.8-2.14,46.71-14.39,61.61-32.58Z" style="fill: none; stroke: #1d1d1b; stroke-miterlimit: 10; stroke-width: .5px;"/>
  <path d="M320.93,85.58c0,11.36-9.21,20.56-20.56,20.56s-20.57-9.2-20.57-20.56,9.21-20.56,20.57-20.56,20.56,9.21,20.56,20.56Z" style="fill: none; stroke: #1d1d1b; stroke-miterlimit: 10; stroke-width: .5px;"/>
  <circle cx="405.9" cy="158.54" r="20.56" style="fill: none; stroke: #1d1d1b; stroke-miterlimit: 10; stroke-width: .5px;"/>
  <path d="M323.59,437.43c0,4.29-1.32,8.27-3.56,11.57-3.71,5.43-9.94,8.99-17,8.99-11.35,0-20.56-9.21-20.56-20.56,0-3.25.75-6.33,2.1-9.06h.01c3.34-6.82,10.35-11.5,18.45-11.5.23,0,.46,0,.69.02,11.04.36,19.87,9.41,19.87,20.54Z" style="fill: none; stroke: #1d1d1b; stroke-miterlimit: 10; stroke-width: .5px;"/>
  <path d="M191.21,48.19c0,16.76-8.83,31.46-22.1,39.7-1.24.78-2.53,1.49-3.85,2.15-6.25,3.11-13.31,4.86-20.77,4.86-17.48,0-32.71-9.6-40.72-23.81l18.3-10.57,43.19-24.93,19.42-11.22c4.15,6.97,6.53,15.12,6.53,23.82Z" style="fill: none; stroke: #1d1d1b; stroke-miterlimit: 10; stroke-width: .5px;"/>
  <path d="M468.15,175.9v171.2c-.15.01-.31.01-.46.01-31.35,0-58.76-16.85-73.67-41.99-7.59-12.78-11.94-27.69-11.94-43.62s4.21-30.35,11.56-42.98c14.83-25.49,42.44-42.63,74.05-42.63.15,0,.31,0,.46.01Z" style="fill: none; stroke: #1d1d1b; stroke-miterlimit: 10; stroke-width: .5px;"/>
  <path d="M85.3,262.5c0,15.74-4.24,30.48-11.66,43.15-14.76,25.25-42.08,42.26-73.39,42.45v-171.2c31.54.19,59.04,17.46,73.73,43.02,7.2,12.54,11.32,27.08,11.32,42.58Z" style="fill: none; stroke: #1d1d1b; stroke-miterlimit: 10; stroke-width: .5px;"/>
  <path id="uuid-04677a47-2146-4c0b-83b4-682ac9647aca" data-name="&amp;lt;Centre&amp;gt;" d="M323.8,265.93c0,21.6-7.62,41.42-20.33,56.91-14.85,18.14-36.67,30.35-61.36,32.57-.98.09-1.96.16-2.94.22-.78.05-1.56.08-2.34.1-.6.02-1.2.04-1.81.03-.27.01-.55.01-.82.01-27.7,0-52.46-12.53-68.94-32.24-13.05-15.6-20.91-35.69-20.91-57.61s7.86-42.01,20.91-57.61c15.45-18.48,38.18-30.65,63.78-32.09.78-.05,1.57-.08,2.35-.1.85-.03,1.7-.04,2.56-.04,28.02,0,53.05,12.83,69.52,32.94,12.71,15.49,20.33,35.31,20.33,56.91Z" style="fill: none; stroke: #1d1d1b; stroke-miterlimit: 10; stroke-width: .5px;"/>
</svg>