<?xml version="1.0" encoding="UTF-8"?>
<svg id="uuid-b2fcd475-b89d-4d9c-b494-d9c218405dfe" data-name="Pattern" xmlns="http://www.w3.org/2000/svg" width="165.24mm" height="187.62mm" viewBox="0 0 468.41 531.85">
  <path d="M241.32,530.71c-2.14.54-4.34.83-6.53.88-.05,0-.12,0-.18.01-.04-.01-.08,0-.12,0h-.08c-5.06.04-10.12-1.26-14.66-3.87l-43.94-25.37-130-75.06-26.16-15.11,26.16-45.31,33.97-58.83c4.82,2.92,10.48,4.61,16.53,4.61s11.66-1.67,16.47-4.58l63.03,109.17,65.51,113.46Z" style="fill: none; stroke: #1d1d1b; stroke-miterlimit: 10; stroke-width: .5px;"/>
  <path d="M426.89,424.83l-21.08,12.17-50,28.87-97.87,56.51-9.27,5.35c-2.34,1.34-4.81,2.34-7.35,2.98l32.01-76.06c2.9.86,5.97,1.33,9.15,1.33,17.37,0,31.51-13.87,31.93-31.15h112.48Z" style="fill: none; stroke: #1d1d1b; stroke-miterlimit: 10; stroke-width: .5px;"/>
  <path d="M468.16,147.56v51.82h-56.61l-5.74,9.95-50,86.6v-62.99c16.96-.78,30.46-14.77,30.46-31.91s-13.5-31.12-30.46-31.9v-17.41c28.48-7.12,53.64-22.62,72.72-43.73l25.17,14.53c.56.32,1.11.66,1.64,1.02,7.98,5.34,12.82,14.34,12.82,24.02Z" style="fill: none; stroke: #1d1d1b; stroke-miterlimit: 10; stroke-width: .5px;"/>
  <path d="M355.81,232.94v62.99l-57.84,100.18c-4.58-2.55-9.87-4-15.49-4-10.19,0-19.27,4.78-25.11,12.21l-81.56-69.65c1.56,1.33,3.18,2.61,4.83,3.82.37.29.76.56,1.14.83.61.44,1.22.87,1.85,1.29.32.22.64.43.96.64,3.17,2.09,6.49,3.99,9.93,5.66.47.23.95.46,1.43.69.1.04.19.08.27.12.48.23.96.45,1.45.65.53.24,1.06.47,1.6.69.58.25,1.16.48,1.75.71,2.4.95,4.86,1.8,7.36,2.53.83.24,1.67.48,2.52.7,1.28.34,2.58.65,3.88.93.65.15,1.31.28,1.97.4,4.48.88,9.08,1.41,13.78,1.57.54.02,1.09.04,1.64.05.55.01,1.1.02,1.65.02h.22c.7,0,1.4-.01,2.09-.03,48.56-1.11,87.57-40.81,87.57-89.63,0-26.6-11.59-50.51-30-66.93h28.74c-.03.55-.04,1.1-.04,1.65,0,1.1.06,2.19.16,3.27.04.4.09.8.15,1.2.11.8.25,1.58.42,2.36.08.38.17.77.27,1.15.14.51.28,1.02.43,1.52.24.75.5,1.49.78,2.21.38.97.81,1.92,1.28,2.83.12.23.24.46.36.69.14.26.28.51.43.76.43.75.89,1.48,1.39,2.19.16.23.32.46.48.68.16.23.33.45.5.67.05.06.1.12.15.19.32.4.64.8.98,1.19.34.38.68.76,1.03,1.13.18.19.36.37.54.55.36.36.72.71,1.1,1.06h.01c.37.34.76.67,1.15,1h.01c.39.33.79.64,1.2.95.41.3.82.6,1.25.89h0c.42.28.85.56,1.28.83h.01c.44.26.88.52,1.33.77h.01c.45.24.9.48,1.37.7h.01c.46.22.93.44,1.4.64.48.2.96.39,1.45.57,3.43,1.26,7.13,1.94,10.99,1.94.5,0,.99-.01,1.48-.03Z" style="fill: none; stroke: #1d1d1b; stroke-miterlimit: 10; stroke-width: .5px;"/>
  <path d="M45.8,104.57v94.81H.25v-51.82c0-10.01,5.17-19.28,13.63-24.54.22-.14.44-.27.67-.4l.16-.1,31.09-17.95Z" style="fill: none; stroke: #1d1d1b; stroke-miterlimit: 10; stroke-width: .5px;"/>
  <path d="M175.74,29.54L45.8,104.57v54.81h130V29.51l-.06.03ZM118.76,142.65c-17.64,0-31.94-14.3-31.94-31.94s14.3-31.93,31.94-31.93,31.93,14.3,31.93,31.93-14.29,31.94-31.93,31.94Z" style="fill: none; stroke: #1d1d1b; stroke-miterlimit: 10; stroke-width: .5px;"/>
  <path d="M45.8,199.38v167.5l-26.16,45.31-4.93-2.84c-3.01-1.74-5.64-3.98-7.8-6.58-4.24-5.11-6.66-11.61-6.66-18.46v-184.93h45.55Z" style="fill: none; stroke: #1d1d1b; stroke-miterlimit: 10; stroke-width: .5px;"/>
  <path d="M79.77,308.04l-33.97,58.84v-167.5l34.01,53.99c-9.26,5.6-15.44,15.76-15.44,27.35s6.17,21.73,15.4,27.32Z" style="fill: none; stroke: #1d1d1b; stroke-miterlimit: 10; stroke-width: .5px;"/>
  <path d="M175.81,334.67v82.58l-63.03-109.17c9.27-5.58,15.46-15.75,15.46-27.36,0-17.63-14.29-31.93-31.93-31.93-6.03,0-11.68,1.67-16.49,4.58l-34.01-53.99v-40h129.99v38.57c-.56.48-1.1.94-1.64,1.43-18.41,16.42-30,40.33-30,66.93s12.28,51.92,31.65,68.36Z" style="fill: none; stroke: #1d1d1b; stroke-miterlimit: 10; stroke-width: .5px;"/>
  <polygon points="175.81 159.38 175.81 197.94 175.8 197.95 175.8 159.38 175.81 159.38" style="fill: none; stroke: #1d1d1b; stroke-miterlimit: 10; stroke-width: .5px;"/>
  <path d="M355.8,151.72v17.41c-.49-.02-.98-.03-1.48-.03-17.08,0-31.03,13.41-31.89,30.28h-28.73c-13.97-12.46-31.85-20.61-51.58-22.36-.64-.05-1.28-.1-1.92-.15-.7-.05-1.41-.09-2.12-.12-1.34-.06-2.68-.1-4.04-.1h-.23c-.55,0-1.1.01-1.65.02-.55.01-1.09.03-1.64.05-.04,0-.09,0-.13.01-.63.01-1.26.04-1.88.09-.58.04-1.16.08-1.74.12h-.06c-.89.06-1.78.15-2.66.25-.45.04-.9.09-1.34.16-.45.05-.9.11-1.34.17-.75.1-1.5.21-2.24.34-1.03.17-2.05.36-3.06.56-.58.12-1.16.24-1.74.37s-1.16.26-1.73.4c-1.14.28-2.28.58-3.42.9-.56.15-1.12.32-1.68.5-.56.16-1.12.34-1.68.53-1.6.51-3.18,1.08-4.74,1.71-.61.24-1.21.48-1.81.73-1.08.44-2.14.91-3.19,1.4-.52.25-1.04.5-1.56.75-.52.24-1.04.5-1.55.77-.52.27-1.03.54-1.54.81-.5.26-1.01.54-1.51.83-1.01.57-2,1.15-2.98,1.75-.98.6-1.95,1.22-2.9,1.86-.48.32-.95.64-1.42.97-.44.3-.87.61-1.3.93-.34.23-.67.48-1.01.74-.38.27-.76.56-1.13.86-1.15.87-2.27,1.78-3.37,2.71h-.01s0-167.96,0-167.96c9.63,71.21,70.65,126.1,144.49,126.1,12.25,0,24.14-1.51,35.51-4.36Z" style="fill: none; stroke: #1d1d1b; stroke-miterlimit: 10; stroke-width: .5px;"/>
  <path d="M468.16,199.38v184.93c0,10.33-5.51,19.88-14.46,25.04l-26.81,15.48h-112.48c0-.26,0-.52,0-.79,0-12.01-6.64-22.47-16.45-27.93l57.84-100.18,50-86.6,5.74-9.95h56.61Z" style="fill: none; stroke: #1d1d1b; stroke-miterlimit: 10; stroke-width: .5px;"/>
  <path d="M428.52,107.99c-19.08,21.11-44.24,36.61-72.72,43.73-11.37,2.85-23.26,4.36-35.51,4.36-73.84,0-134.86-54.89-144.49-126.1v-.47l43.94-25.37c4.54-2.61,9.6-3.92,14.66-3.88h.08s.08.01.12,0c.06.01.13.01.18.01,4.79.09,9.57,1.39,13.88,3.87l9.64,5.57,97.5,56.29,50,28.87,22.72,13.12Z" style="fill: none; stroke: #1d1d1b; stroke-miterlimit: 10; stroke-width: .5px;"/>
  <path d="M273.33,454.65l-32.01,76.06-65.51-113.46v-82.58l81.56,69.65c-4.28,5.43-6.82,12.27-6.82,19.72,0,14.46,9.6,26.67,22.78,30.61Z" style="fill: none; stroke: #1d1d1b; stroke-miterlimit: 10; stroke-width: .5px;"/>
  <path d="M150.69,110.71c0,17.64-14.29,31.94-31.93,31.94s-31.94-14.3-31.94-31.94,14.3-31.93,31.94-31.93,31.93,14.3,31.93,31.93Z" style="fill: none; stroke: #1d1d1b; stroke-miterlimit: 10; stroke-width: .5px;"/>
  <path d="M128.24,280.72c0,11.61-6.19,21.78-15.46,27.36-4.81,2.91-10.44,4.58-16.47,4.58s-11.71-1.69-16.53-4.61c0,0-.01,0-.01-.01-9.23-5.59-15.4-15.74-15.4-27.32s6.18-21.75,15.44-27.35h.01c4.81-2.91,10.46-4.58,16.49-4.58,17.64,0,31.93,14.3,31.93,31.93Z" style="fill: none; stroke: #1d1d1b; stroke-miterlimit: 10; stroke-width: .5px;"/>
  <path d="M386.26,201.03c0,17.14-13.5,31.13-30.46,31.91-.49.02-.98.03-1.48.03-17.63,0-31.93-14.3-31.93-31.94,0-.55.01-1.1.04-1.65.86-16.87,14.81-30.28,31.89-30.28.5,0,.99.01,1.48.03,16.96.78,30.46,14.77,30.46,31.9Z" style="fill: none; stroke: #1d1d1b; stroke-miterlimit: 10; stroke-width: .5px;"/>
  <path d="M314.42,424.04c0,.27,0,.53,0,.79-.42,17.28-14.56,31.15-31.93,31.15-3.18,0-6.25-.47-9.15-1.33-13.18-3.94-22.78-16.15-22.78-30.61,0-7.45,2.54-14.29,6.82-19.72,5.84-7.43,14.92-12.21,25.11-12.21,5.62,0,10.91,1.45,15.49,4,9.81,5.46,16.45,15.92,16.45,27.93Z" style="fill: none; stroke: #1d1d1b; stroke-miterlimit: 10; stroke-width: .5px;"/>
  <path id="uuid-a0d89a73-0d90-4276-ab48-38d60c971c8f" data-name="&amp;lt;Centre&amp;gt;" d="M323.7,266.31c0,48.82-39.01,88.52-87.57,89.63-.69.02-1.39.03-2.09.03h-.22c-.55,0-1.1-.01-1.65-.02-.55-.01-1.1-.03-1.64-.05-.69-.03-1.38-.07-2.06-.11-.56-.03-1.12-.07-1.68-.11-.42-.03-.84-.06-1.26-.1-.43-.04-.86-.08-1.28-.13-1.69-.18-3.36-.41-5.02-.68-.83-.14-1.66-.28-2.48-.44-.66-.13-1.32-.26-1.97-.4-1.3-.28-2.6-.59-3.88-.93-.85-.22-1.69-.46-2.52-.7-.63-.18-1.25-.38-1.87-.57-1.24-.4-2.46-.82-3.68-1.27-.61-.22-1.21-.45-1.81-.69-.59-.23-1.17-.46-1.75-.71-.54-.22-1.07-.45-1.6-.69-.48-.21-.97-.43-1.45-.65-.08-.04-.17-.08-.27-.12-.48-.23-.96-.46-1.43-.69-3.44-1.67-6.76-3.57-9.93-5.66-.32-.21-.64-.42-.96-.64-.63-.42-1.24-.85-1.85-1.29-.38-.27-.77-.54-1.14-.83-1.65-1.21-3.27-2.49-4.83-3.82-19.37-16.44-31.65-40.96-31.65-68.36s11.59-50.51,30-66.93c.54-.49,1.08-.95,1.64-1.43h.01c1.1-.94,2.22-1.85,3.37-2.72.37-.3.75-.59,1.13-.86.34-.26.67-.51,1.01-.74.43-.32.86-.63,1.3-.93.47-.33.94-.65,1.42-.97.95-.64,1.92-1.26,2.9-1.86.98-.6,1.97-1.18,2.98-1.75.5-.28,1-.56,1.51-.83s1.02-.54,1.54-.81c.51-.26,1.03-.52,1.55-.77.52-.25,1.04-.5,1.56-.75,1.06-.48,2.12-.95,3.19-1.4.6-.25,1.2-.49,1.81-.73,1.56-.61,3.14-1.18,4.74-1.71.56-.18,1.12-.36,1.68-.53s1.12-.34,1.68-.5c1.14-.32,2.28-.62,3.42-.9.57-.14,1.15-.27,1.73-.4s1.16-.25,1.74-.37c1.01-.2,2.03-.39,3.06-.56.74-.12,1.49-.23,2.24-.34.44-.06.89-.12,1.34-.17.45-.06.9-.11,1.34-.16.89-.09,1.77-.18,2.66-.25h.06c.58-.04,1.16-.08,1.74-.12.63-.04,1.25-.07,1.88-.09.04-.01.09-.01.13-.01.55-.02,1.09-.04,1.64-.05.55-.01,1.1-.02,1.65-.02h.23c1.36,0,2.7.04,4.04.1.71.03,1.42.07,2.12.12.64.05,1.28.1,1.92.15,19.73,1.75,37.61,9.9,51.58,22.36,18.41,16.42,30,40.33,30,66.93Z" style="fill: none; stroke: #1d1d1b; stroke-miterlimit: 10; stroke-width: .5px;"/>
</svg>