<?xml version="1.0" encoding="UTF-8"?>
<svg id="uuid-5bdaccb0-cbeb-49a2-9a26-45542f32bb1d" data-name="Pattern" xmlns="http://www.w3.org/2000/svg" width="165.24mm" height="187.62mm" viewBox="0 0 468.4 531.85">
  <path d="M358.83,463.88v.24l.42-.24h-.42ZM107.43,68.98L19.86,119.54c9.26,7.28,20.94,11.62,33.64,11.62,30.09,0,54.48-24.39,54.48-54.48,0-2.61-.18-5.18-.55-7.7ZM.25,179.65v.96l1.08-.62c-.36-.12-.72-.23-1.08-.34Z" style="fill: none; stroke: #1d1d1b; stroke-miterlimit: 10; stroke-width: .5px;"/>
  <path d="M153.22,363.93c-.53,1.08-1.05,2.16-1.57,3.25-.36.78-.72,1.55-1.08,2.33-.11.25-.23.5-.34.75-.42.91-.83,1.83-1.23,2.75-.43.98-.85,1.96-1.27,2.94-.01.04-.03.09-.05.13-.42.99-.83,1.97-1.22,2.96-.14.33-.27.67-.41,1-.35.9-.7,1.79-1.05,2.69-.43,1.12-.85,2.24-1.26,3.37-.02.05-.04.1-.06.15-.35.95-.69,1.91-1.02,2.87-.16.44-.31.88-.46,1.32-.15.42-.29.85-.43,1.27-.14.4-.27.79-.4,1.19-.34,1.03-.68,2.06-1,3.1-.02.05-.03.1-.05.15-.07.21-.13.43-.2.64-.29.93-.57,1.87-.85,2.81-.14.49-.29.98-.43,1.47-.17.57-.33,1.14-.49,1.72-.11.39-.22.78-.32,1.17-.27.94-.52,1.88-.76,2.83-.08.3-.16.61-.24.91-.14.55-.28,1.11-.42,1.67-.08.32-.15.63-.23.95-.25,1.01-.49,2.02-.72,3.04-.02.07-.03.14-.05.21-.05.2-.09.41-.14.61-.21.93-.41,1.87-.61,2.8-.46,2.18-.89,4.37-1.29,6.57-.1.54-.2,1.09-.29,1.64-.21,1.17-.4,2.34-.58,3.52-.09.53-.17,1.07-.25,1.61-.08.53-.16,1.07-.24,1.61-1.49,10.44-2.28,21.11-2.31,31.95v.61c0,3.87.1,7.72.29,11.54l-2.97-1.72-18.07-10.43-55.27-31.91c1.33-1.17,2.64-2.36,3.93-3.58,1.18-1.11,2.34-2.25,3.48-3.4.6-.6,1.19-1.21,1.78-1.82.6-.63,1.19-1.26,1.79-1.89,1.51-1.63,2.98-3.3,4.41-4.99.96-1.14,1.9-2.28,2.82-3.44.93-1.16,1.83-2.34,2.72-3.53.44-.59.88-1.19,1.32-1.79,1.01-1.38,1.99-2.77,2.93-4.19,1.43-2.11,2.8-4.27,4.12-6.47.89-1.46,1.75-2.94,2.57-4.44,1.24-2.24,2.43-4.53,3.57-6.84.75-1.54,1.48-3.09,2.17-4.66h.01c.95-2.14,1.85-4.3,2.69-6.49,1.35-3.44,2.57-6.95,3.65-10.51h55.38Z" style="fill: none; stroke: #1d1d1b; stroke-miterlimit: 10; stroke-width: .5px;"/>
  <path d="M164.98,323.78c-13-15.56-20.83-35.6-20.83-57.46s7.83-41.9,20.83-57.46v-72.29l-12.8,7.31-24.96,14.25-80.32,45.85c34.87,27.03,57.31,69.33,57.31,116.87,0,14.99-2.23,29.45-6.37,43.08h55.38c3.55-7.23,7.48-14.25,11.76-21.02,2.4-3.8,4.9-7.53,7.52-11.17-2.66-2.5-5.18-5.16-7.52-7.96ZM116.56,230.14c-10.63,0-19.25-8.62-19.25-19.25s8.62-19.26,19.25-19.26,19.26,8.62,19.26,19.26-8.62,19.25-19.26,19.25Z" style="fill: none; stroke: #1d1d1b; stroke-miterlimit: 10; stroke-width: .5px;"/>
  <path d="M358.83,207.42v29.03c-.29-.01-.59-.01-.88-.01-1.77,0-3.53.02-5.29.06-1.5.04-3,.08-4.5.15-1.69.07-3.38.16-5.07.27-.74.05-1.47.1-2.2.15-.8.06-1.61.12-2.41.19s-1.6.14-2.4.22c-.88.08-1.75.17-2.62.26-.72.08-1.45.16-2.17.25-2.25.26-4.5.55-6.74.89-.78.11-1.55.22-2.33.35-.77.12-1.55.24-2.32.38-11.31-36.56-45.38-63.12-85.66-63.12-11.39,0-22.29,2.13-32.32,6.01-.47.18-.93.36-1.39.55-.02.01-.05.02-.07.03-.38.14-.75.29-1.12.46-13.42,5.58-25.18,14.34-34.36,25.32v-72.29l71.89-41.04c4.43,17.54,11.93,33.86,21.9,48.35,22.84,33.2,58.62,56.81,100.06,63.54Z" style="fill: none; stroke: #1d1d1b; stroke-miterlimit: 10; stroke-width: .5px;"/>
  <path d="M164.98,35.76v50.81l-37.76,21.56-62.63,35.75L1.34,179.99h-.01c-.36-.12-.72-.23-1.08-.34v-32.09c0-1.24.08-2.47.24-3.68,1.09-8.57,5.98-16.25,13.39-20.86.22-.14.44-.27.67-.4l.16-.1,5.15-2.98c9.26,7.28,20.94,11.62,33.64,11.62,30.09,0,54.48-24.39,54.48-54.48,0-2.61-.18-5.18-.55-7.7l19.79-11.42,37.76-21.8Z" style="fill: none; stroke: #1d1d1b; stroke-miterlimit: 10; stroke-width: .5px;"/>
  <path d="M164.98,86.57v50l-12.8,7.31-24.96,14.25-80.32,45.85c-13.51-10.49-28.89-18.68-45.56-23.99l63.25-36.11,62.63-35.75,37.76-21.56Z" style="fill: none; stroke: #1d1d1b; stroke-miterlimit: 10; stroke-width: .5px;"/>
  <path d="M232.63,47.95c1.11-16.24,4.79-31.79,10.64-46.22-2.76-.92-5.62-1.41-8.49-1.46-.05,0-.12,0-.18-.01-.04.01-.08,0-.12,0h-.08c-5.06-.04-10.12,1.27-14.66,3.88l-54.76,31.62v100.81l71.89-41.04c-3-11.87-4.6-24.31-4.6-37.12,0-3.51.12-7,.36-10.46ZM200.68,85.93c-10.64,0-19.26-8.62-19.26-19.25s8.62-19.26,19.26-19.26,19.25,8.62,19.25,19.26-8.62,19.25-19.25,19.25Z" style="fill: none; stroke: #1d1d1b; stroke-miterlimit: 10; stroke-width: .5px;"/>
  <path d="M408.83,207.23v34.91c-1.28-.29-2.57-.58-3.86-.84-.18-.04-.36-.08-.54-.12-.48-.1-.96-.2-1.44-.29-.48-.1-.96-.19-1.44-.28-.57-.12-1.15-.23-1.72-.33-2.09-.39-4.2-.75-6.31-1.08-.74-.12-1.49-.23-2.23-.34-.71-.1-1.41-.2-2.12-.3-.47-.06-.94-.13-1.41-.19-1.24-.16-2.48-.31-3.73-.45-.19-.02-.37-.04-.56-.06-.57-.07-1.15-.13-1.72-.19-.41-.04-.82-.08-1.23-.12-.13-.01-.27-.03-.4-.04-.5-.05-.99-.1-1.49-.14-.09-.01-.17-.01-.26-.02-.93-.09-1.86-.17-2.8-.24-.07-.01-.15-.01-.22-.02-.19,0-.37-.03-.56-.04-.53-.03-1.06-.07-1.59-.1-.11-.01-.23-.01-.34-.02-.04,0-.09-.01-.13-.01-.37-.03-.73-.05-1.1-.07-.57-.04-1.15-.07-1.72-.09-.74-.05-1.49-.08-2.23-.11-.38-.02-.77-.03-1.15-.04-.7-.03-1.42-.06-2.13-.07-.19-.01-.37-.02-.56-.02-.38-.01-.77-.02-1.16-.02-.41-.01-.82-.02-1.23-.03-.87-.01-1.75-.02-2.62-.02v-29.03c7.95,1.3,16.11,1.97,24.42,1.97,8.72,0,17.27-.74,25.58-2.16Z" style="fill: none; stroke: #1d1d1b; stroke-miterlimit: 10; stroke-width: .5px;"/>
  <path d="M468.15,183.27v81.51c-18.37-10.16-38.29-17.85-59.32-22.64v-34.91c21.7-3.7,41.83-12.04,59.32-23.96Z" style="fill: none; stroke: #1d1d1b; stroke-miterlimit: 10; stroke-width: .5px;"/>
  <path d="M104.21,320.85c0,14.99-2.23,29.45-6.37,43.08-1.08,3.56-2.3,7.07-3.65,10.51-.84,2.19-1.74,4.35-2.69,6.48h-.01c-.7,1.58-1.42,3.13-2.17,4.67-1.14,2.31-2.33,4.6-3.57,6.84-.83,1.5-1.69,2.98-2.57,4.44-1.32,2.2-2.69,4.36-4.12,6.47-.95,1.42-1.93,2.81-2.93,4.19-.44.6-.88,1.2-1.32,1.79-.89,1.19-1.8,2.37-2.72,3.53-.92,1.16-1.86,2.3-2.82,3.44-1.43,1.69-2.9,3.36-4.41,4.99-.6.63-1.19,1.26-1.79,1.89-.59.61-1.18,1.22-1.78,1.82-1.14,1.15-2.3,2.29-3.48,3.4-1.29,1.22-2.6,2.41-3.93,3.58l-.07-.04-39.1-22.58c-2.66-1.54-5.02-3.46-7.02-5.68.87-.54,1.72-1.09,2.57-1.65.85-.56,1.68-1.14,2.51-1.73.65-.46,1.29-.93,1.93-1.42.32-.22.65-.47.96-.72.66-.5,1.31-1.02,1.96-1.54.29-.23.59-.47.88-.72.29-.24.58-.49.87-.73.58-.49,1.16-.99,1.73-1.5.91-.8,1.81-1.63,2.69-2.48.4-.38.8-.77,1.19-1.16,2.16-2.13,4.21-4.37,6.16-6.7.55-.65,1.08-1.31,1.61-1.98.53-.66,1.05-1.34,1.56-2.02.55-.72,1.08-1.45,1.6-2.19.46-.65.91-1.31,1.36-1.97.16-.23.31-.46.46-.69.16-.23.3-.46.45-.69.34-.53.68-1.06,1.02-1.59.22-.36.44-.72.65-1.08.18-.28.35-.56.51-.85.27-.44.53-.89.78-1.34.31-.55.62-1.1.92-1.66.02-.04.05-.08.07-.13.35-.63.69-1.28,1.02-1.93.22-.42.43-.84.64-1.27.07-.14.13-.28.2-.41.31-.63.61-1.26.9-1.9.05-.11.11-.22.15-.33.3-.65.59-1.31.88-1.97.05-.12.11-.24.15-.37.35-.82.69-1.65,1.02-2.48.17-.42.33-.84.48-1.26.16-.42.32-.84.47-1.26.32-.88.62-1.76.91-2.65.43-1.31.84-2.63,1.21-3.96.19-.66.37-1.33.54-2,.17-.67.34-1.34.5-2.02.1-.43.2-.86.29-1.29.12-.47.22-.95.31-1.43.08-.37.16-.75.23-1.13.37-1.89.68-3.8.93-5.72.04-.27.07-.53.1-.8.04-.3.08-.61.11-.91.06-.49.11-.98.16-1.47.05-.54.1-1.07.15-1.61.08-.97.14-1.95.19-2.93.03-.51.05-1.02.07-1.53.05-1.21.07-2.43.07-3.65,0-38.03-21.78-70.97-53.56-87.01v-53.23l1.08-.62h.01c16.67,5.31,32.05,13.5,45.56,23.99,34.87,27.03,57.31,69.33,57.31,116.87Z" style="fill: none; stroke: #1d1d1b; stroke-miterlimit: 10; stroke-width: .5px;"/>
  <path d="M468.15,147.56v35.71c-17.49,11.92-37.62,20.26-59.32,23.96-8.31,1.42-16.86,2.16-25.58,2.16s-16.47-.67-24.42-1.97c-41.44-6.73-77.22-30.34-100.06-63.54-9.97-14.49-17.47-30.81-21.9-48.35-3-11.87-4.6-24.31-4.6-37.12,0-3.51.12-7,.36-10.46,1.11-16.24,4.79-31.79,10.64-46.22,1.85.61,3.66,1.41,5.39,2.41l9.64,5.57,20.54,11.86,17.28,9.97c-2.62,8.5-4.03,17.52-4.03,26.87,0,1.85.05,3.68.17,5.5,2.18,36.78,26.17,67.69,59.22,79.97,2.4.9,4.85,1.69,7.35,2.38,7.77,2.16,15.96,3.31,24.42,3.31,8.88,0,17.47-1.27,25.58-3.65,2.1-.6,4.16-1.28,6.18-2.04,13.48-5.01,25.45-13.12,35.05-23.46l3.63,2.1c7.88,4.54,13.09,12.48,14.23,21.36.15,1.21.23,2.44.23,3.68Z" style="fill: none; stroke: #1d1d1b; stroke-miterlimit: 10; stroke-width: .5px;"/>
  <path d="M450.06,120.42c-9.6,10.34-21.57,18.45-35.05,23.46-2.02.76-4.08,1.44-6.18,2.04-8.11,2.38-16.7,3.65-25.58,3.65s-16.65-1.15-24.42-3.31c-2.5-.69-4.95-1.48-7.35-2.38-33.05-12.28-57.04-43.19-59.22-79.97-.12-1.82-.17-3.65-.17-5.5,0-9.35,1.41-18.37,4.03-26.87l26.27,15.17,36.44,21.04,50,28.87,41.23,23.8Z" style="fill: none; stroke: #1d1d1b; stroke-miterlimit: 10; stroke-width: .5px;"/>
  <path d="M168.96,464.41c0,12.29,1.17,24.32,3.4,35.96l-7.38-4.26-4.26-2.46-30.53-17.62c-.19-3.82-.29-7.67-.29-11.54v-.61c.03-10.84.82-21.51,2.31-31.95.08-.54.16-1.08.24-1.61.08-.54.16-1.08.25-1.61.18-1.18.37-2.35.58-3.52.09-.55.19-1.1.29-1.64.4-2.2.83-4.39,1.29-6.57.2-.93.4-1.87.61-2.8.05-.2.09-.41.14-.61.02-.07.03-.14.05-.21.23-1.02.47-2.03.72-3.04.08-.32.15-.63.23-.95.14-.56.28-1.12.42-1.67.08-.3.16-.61.24-.91.24-.95.49-1.89.76-2.83.1-.39.21-.78.32-1.17.16-.58.32-1.15.49-1.72.14-.49.29-.98.43-1.47.28-.94.56-1.88.85-2.81.07-.21.13-.43.2-.64.02-.05.03-.1.05-.15.32-1.04.66-2.07,1-3.1.13-.4.26-.79.4-1.19.14-.42.28-.85.43-1.27.15-.44.3-.88.46-1.32.33-.96.67-1.92,1.02-2.87.02-.05.04-.1.06-.15.41-1.13.83-2.25,1.26-3.37.35-.9.7-1.79,1.05-2.69.14-.33.27-.67.41-1,.4-.99.81-1.98,1.22-2.96.02-.04.04-.09.05-.13.42-.98.84-1.96,1.27-2.94.4-.92.81-1.84,1.23-2.75.11-.25.23-.5.34-.75.36-.78.72-1.55,1.08-2.33.52-1.09,1.04-2.17,1.57-3.25l28.72,31.4c-4.57,11.68-8.02,23.93-10.2,36.6-1.83,10.55-2.78,21.41-2.78,32.48Z" style="fill: none; stroke: #1d1d1b; stroke-miterlimit: 10; stroke-width: .5px;"/>
  <path d="M468.15,264.78v44.91c-26.48-18.79-57.99-30.96-92.13-34.07l-17.19-39.17c.87,0,1.75.01,2.62.02.41,0,.82.02,1.23.03.39,0,.78.01,1.16.02.19,0,.37.01.56.02.71,0,1.43.04,2.13.07.38.01.77.02,1.15.04.74.03,1.49.06,2.23.11.57.02,1.15.05,1.72.09.37.02.73.04,1.1.07.04,0,.09.01.13.01.11.01.23.01.34.02.53.03,1.06.07,1.59.1.19.01.37.03.56.04.07.01.15.01.22.02.94.07,1.87.15,2.8.24.09,0,.17,0,.26.02.5.04.99.09,1.49.14.13.01.27.03.4.04.41.04.82.08,1.23.12.57.06,1.15.12,1.72.19.19.02.37.04.56.06,1.25.14,2.49.29,3.73.45.47.06.94.13,1.41.19.71.1,1.41.2,2.12.3.74.11,1.49.22,2.23.34,2.11.33,4.22.69,6.31,1.08.57.1,1.15.21,1.72.33.48.09.96.18,1.44.28.48.09.96.19,1.44.29.18.04.36.08.54.12,1.29.27,2.58.55,3.86.84,21.03,4.79,40.95,12.48,59.32,22.64Z" style="fill: none; stroke: #1d1d1b; stroke-miterlimit: 10; stroke-width: .5px;"/>
  <path d="M262.09,519.98l-4.16,2.4-9.27,5.35c-4.31,2.48-9.09,3.77-13.88,3.86-.05,0-.12,0-.18.01-.04-.01-.08,0-.12,0h-.08c-5.06.04-10.12-1.26-14.66-3.87l-47.38-27.36c-2.23-11.64-3.4-23.67-3.4-35.96,0-11.07.95-21.93,2.78-32.48,2.14-12.41,5.34-24.18,10.2-36.6l69.95,39.31c-2.96,9.81-4.55,20.22-4.55,30.99,0,19.83,5.37,38.41,14.75,54.35Z" style="fill: none; stroke: #1d1d1b; stroke-miterlimit: 10; stroke-width: .5px;"/>
  <path d="M468.15,309.69v74.62c0,10.33-5.51,19.88-14.46,25.04l-5.47,3.16c-14.96-26.28-40.7-45.63-71.21-52.04l-.99-84.85c34.14,3.11,65.65,15.28,92.13,34.07Z" style="fill: none; stroke: #1d1d1b; stroke-miterlimit: 10; stroke-width: .5px;"/>
  <path d="M206.14,351.63c-2.95,3.98-5.75,8.08-8.39,12.3-6.19,9.89-11.51,20.4-15.81,31.4l-28.72-31.4c3.55-7.23,7.48-14.25,11.76-21.02,2.4-3.8,4.9-7.53,7.52-11.17.5.47,1.01.94,1.52,1.39.47.42.94.84,1.42,1.25.06.05.13.11.19.16.38.32.75.64,1.14.95.34.3.7.58,1.05.85.14.12.27.22.4.33.41.33.82.65,1.24.96.86.66,1.73,1.3,2.62,1.93,1.24.87,2.5,1.72,3.78,2.53.16.1.33.21.49.31.09.06.18.11.27.17.5.31,1,.61,1.51.91.7.42,1.41.83,2.13,1.22.54.3,1.08.59,1.62.88.55.29,1.09.58,1.64.85.55.28,1.11.55,1.67.82.55.27,1.12.53,1.68.79.66.3,1.33.59,2.01.88.18.08.36.15.54.22.58.25,1.17.48,1.75.71.17.07.34.13.51.2.01,0,.02.01.03.01.39.15.78.29,1.17.44.08.03.16.06.24.09.07.03.15.05.22.08.43.15.86.3,1.29.45.5.18,1,.34,1.51.51Z" style="fill: none; stroke: #1d1d1b; stroke-miterlimit: 10; stroke-width: .5px;"/>
  <path d="M376.02,275.62c-5.75-.53-11.58-.8-17.47-.8-12.12,0-23.97,1.13-35.45,3.31.53-3.92.8-7.92.8-11.98,0-9.24-1.4-18.16-4-26.54.77-.13,1.55-.26,2.32-.38.78-.12,1.55-.24,2.33-.35,2.24-.34,4.49-.63,6.74-.89.72-.09,1.45-.17,2.17-.25.87-.09,1.74-.18,2.62-.26.8-.08,1.6-.15,2.4-.22s1.61-.13,2.41-.19c.73-.05,1.46-.1,2.2-.15,1.69-.11,3.38-.2,5.07-.27,1.5-.07,3-.11,4.5-.15,1.76-.04,3.52-.06,5.29-.06.29,0,.59,0,.88.01l17.19,39.17Z" style="fill: none; stroke: #1d1d1b; stroke-miterlimit: 10; stroke-width: .5px;"/>
  <path d="M377.01,360.47c-7.17-1.51-14.6-2.3-22.21-2.3-48.57,0-89.62,32.23-102.91,76.47l-69.95-39.31c4.3-11,9.62-21.51,15.81-31.4,2.64-4.22,5.44-8.32,8.39-12.3.54.18,1.09.35,1.64.51.37.11.75.23,1.13.34.09.03.18.05.27.08.16.04.31.08.46.13.06.02.13.03.19.05.39.1.77.21,1.16.31.1.03.19.05.29.08.48.12.96.24,1.44.36.55.13,1.1.26,1.66.38.44.1.87.19,1.31.27.43.1.86.18,1.29.26.02,0,.03.01.05.01.45.09.9.17,1.35.24.27.05.53.09.8.13.46.08.92.16,1.38.22.1.02.2.04.31.05.5.07,1.01.14,1.52.21.28.03.56.07.84.1.55.07,1.09.12,1.64.18.25.02.49.05.75.07.07.01.15.01.22.02.4.04.8.07,1.21.1.14.01.28.02.43.03.52.03,1.05.07,1.57.09.08,0,.15,0,.23,0,.06.01.12.01.18.01s.12.01.18.01c.51.03,1.02.05,1.53.05.09.01.17.01.26.01.22.01.45.02.67.02.57.01,1.14.02,1.71.02.77,0,1.54,0,2.31-.03.75-.02,1.5-.05,2.24-.09.12,0,.24,0,.35-.02.05,0,.1,0,.15-.01.53-.02,1.06-.05,1.58-.09.37-.03.73-.06,1.09-.09.33-.03.65-.05.97-.09.47-.04.94-.09,1.41-.15.25-.02.5-.05.75-.08.36-.04.71-.09,1.07-.14.42-.05.84-.11,1.25-.17.04,0,.07-.01.11-.02.26-.03.52-.08.77-.12.49-.07.98-.15,1.47-.24.2-.03.4-.07.6-.11.46-.08.92-.17,1.38-.26.27-.05.53-.1.79-.16.66-.13,1.31-.28,1.96-.43.45-.1.9-.21,1.34-.32.05,0,.1-.02.15-.04.51-.12,1.02-.26,1.53-.39.32-.08.63-.17.94-.26.44-.12.88-.25,1.32-.38.25-.07.49-.14.74-.22.59-.18,1.18-.37,1.76-.56.11-.03.21-.07.31-.1.48-.16.95-.32,1.42-.49.23-.08.46-.16.69-.24.44-.16.88-.32,1.31-.49.48-.18.95-.36,1.41-.55.58-.22,1.16-.46,1.73-.71.57-.24,1.14-.49,1.71-.74.07-.03.13-.06.2-.09.22-.09.44-.19.65-.29.65-.3,1.3-.6,1.94-.91.65-.31,1.29-.63,1.92-.96.63-.32,1.27-.65,1.89-.99,1.25-.68,2.48-1.39,3.69-2.13.81-.49,1.61-.99,2.4-1.51.59-.38,1.19-.78,1.77-1.18.59-.4,1.17-.81,1.74-1.22.73-.52,1.46-1.06,2.17-1.61.04-.04.08-.07.13-.1.74-.58,1.46-1.15,2.18-1.74.36-.3.72-.6,1.08-.91.36-.29.72-.6,1.07-.92.91-.79,1.79-1.59,2.66-2.42.5-.47,1-.94,1.48-1.42.03-.04.06-.07.09-.09.64-.63,1.27-1.28,1.88-1.93,2.59-2.74,5.01-5.64,7.24-8.67.56-.76,1.1-1.53,1.63-2.31.54-.78,1.06-1.57,1.57-2.37.25-.4.51-.8.75-1.2.26-.4.5-.8.74-1.21s.48-.82.72-1.23c.24-.41.48-.82.7-1.24.27-.49.55-.99.81-1.5.18-.33.36-.66.52-.99,1.09-2.13,2.11-4.31,3.03-6.54.16-.4.33-.79.48-1.19.2-.48.38-.96.56-1.44.18-.44.34-.89.5-1.35.82-2.26,1.54-4.56,2.17-6.9.13-.47.25-.94.37-1.41.33-1.26.62-2.54.88-3.82.07-.33.13-.66.2-.99.34-1.74.63-3.5.87-5.28,11.48-2.18,23.33-3.31,35.45-3.31,5.89,0,11.72.27,17.47.8l.99,84.85Z" style="fill: none; stroke: #1d1d1b; stroke-miterlimit: 10; stroke-width: .5px;"/>
  <path d="M377.01,360.47c-7.17-1.51-14.6-2.3-22.21-2.3-48.57,0-89.62,32.23-102.91,76.47-2.96,9.81-4.55,20.22-4.55,30.99,0,19.83,5.37,38.41,14.75,54.35l69.87-40.34,26.87-15.52v-.24h.42l18.83-10.87,30.75-17.76,5.75-3.32,33.64-19.42c-14.96-26.28-40.7-45.63-71.21-52.04ZM370.93,412.28c-10.64,0-19.26-8.62-19.26-19.25s8.62-19.26,19.26-19.26,19.25,8.63,19.25,19.26-8.62,19.25-19.25,19.25Z" style="fill: none; stroke: #1d1d1b; stroke-miterlimit: 10; stroke-width: .5px;"/>
  <path d="M53.81,320.85c0,1.22-.02,2.44-.07,3.65-.02.51-.04,1.02-.07,1.53-.05.98-.11,1.96-.19,2.93-.05.54-.1,1.07-.15,1.61-.05.49-.1.98-.16,1.47-.03.3-.07.61-.11.91-.03.27-.06.53-.1.8-.25,1.92-.56,3.83-.93,5.72-.07.38-.15.76-.23,1.13-.09.48-.19.96-.31,1.43-.09.43-.19.86-.29,1.29-.16.68-.33,1.35-.5,2.02-.17.67-.35,1.34-.54,2-.38,1.34-.78,2.66-1.21,3.96-.29.89-.59,1.77-.91,2.65-.15.42-.31.84-.47,1.26-.15.42-.31.84-.48,1.26-.33.83-.67,1.66-1.02,2.48-.04.13-.1.25-.15.37-.29.66-.58,1.32-.88,1.97-.04.11-.1.22-.15.33-.29.64-.59,1.27-.9,1.9-.07.13-.13.27-.2.41-.21.43-.42.85-.64,1.27-.33.65-.67,1.3-1.02,1.93-.02.05-.05.09-.07.13-.3.56-.61,1.11-.92,1.66-.25.45-.51.9-.78,1.34-.16.29-.33.57-.51.85-.21.36-.43.72-.65,1.08-.34.53-.68,1.06-1.02,1.59-.15.23-.29.46-.45.69-.15.23-.3.46-.46.69-.45.66-.9,1.32-1.36,1.97-.52.74-1.05,1.47-1.6,2.19-.51.68-1.03,1.36-1.56,2.02-.53.67-1.06,1.33-1.61,1.98-1.95,2.33-4,4.57-6.16,6.7-.39.39-.79.78-1.19,1.16-.88.85-1.78,1.68-2.69,2.48-.57.51-1.15,1.01-1.73,1.5-.29.24-.58.49-.87.73-.29.25-.59.49-.88.72-.65.52-1.3,1.04-1.96,1.54-.31.25-.64.5-.96.72-.64.49-1.28.96-1.93,1.42-.83.59-1.66,1.17-2.51,1.73-.85.56-1.7,1.11-2.57,1.65-.27-.3-.53-.6-.78-.9-4.24-5.11-6.66-11.61-6.66-18.46v-150.47c31.78,16.04,53.56,48.98,53.56,87.01Z" style="fill: none; stroke: #1d1d1b; stroke-miterlimit: 10; stroke-width: .5px;"/>
  <path d="M219.93,66.68c0,10.63-8.62,19.25-19.25,19.25s-19.26-8.62-19.26-19.25,8.62-19.26,19.26-19.26,19.25,8.62,19.25,19.26Z" style="fill: none; stroke: #1d1d1b; stroke-miterlimit: 10; stroke-width: .5px;"/>
  <path d="M135.82,210.89c0,10.63-8.62,19.25-19.26,19.25s-19.25-8.62-19.25-19.25,8.62-19.26,19.25-19.26,19.26,8.62,19.26,19.26Z" style="fill: none; stroke: #1d1d1b; stroke-miterlimit: 10; stroke-width: .5px;"/>
  <path d="M390.18,393.03c0,10.63-8.62,19.25-19.25,19.25s-19.26-8.62-19.26-19.25,8.62-19.26,19.26-19.26,19.25,8.63,19.25,19.26Z" style="fill: none; stroke: #1d1d1b; stroke-miterlimit: 10; stroke-width: .5px;"/>
  <path id="uuid-a58075d9-d33f-4a32-8028-be527768ce8f" data-name="&amp;lt;Centre&amp;gt;" d="M323.9,266.15c0,4.06-.27,8.06-.8,11.98-.24,1.78-.53,3.54-.87,5.28-.07.33-.13.66-.2.99-.26,1.28-.55,2.56-.88,3.82-.12.47-.24.94-.37,1.41-.63,2.34-1.35,4.64-2.17,6.9-.16.45-.33.9-.5,1.35-.18.48-.36.96-.56,1.44-.15.4-.32.79-.48,1.19-.92,2.23-1.94,4.41-3.03,6.54-.17.33-.35.66-.52.99-.26.51-.54,1.01-.81,1.5-.23.42-.46.83-.7,1.24-.24.41-.48.82-.72,1.23-.24.4-.49.81-.74,1.21-.24.4-.5.8-.75,1.2-.51.8-1.03,1.59-1.57,2.37-.53.77-1.08,1.54-1.63,2.31-2.23,3.03-4.65,5.93-7.24,8.67-.62.65-1.25,1.29-1.88,1.93-.03.02-.06.05-.09.09-.48.48-.98.95-1.48,1.42-.87.83-1.75,1.63-2.66,2.42-.35.31-.71.62-1.07.92-.36.31-.72.61-1.08.91-.72.59-1.44,1.16-2.18,1.74-.05.03-.09.06-.13.1-.72.54-1.44,1.08-2.17,1.61-.57.41-1.15.82-1.74,1.22-.58.4-1.18.8-1.77,1.18-.79.52-1.59,1.02-2.4,1.51-1.21.74-2.44,1.45-3.69,2.13-.62.34-1.26.67-1.89.99-.63.33-1.27.65-1.92.96-.64.31-1.29.61-1.94.91-.09.04-.19.08-.29.12-.12.06-.24.12-.36.17-.07.03-.13.06-.2.09-.57.25-1.14.5-1.71.74-.57.25-1.15.49-1.73.71-.46.19-.93.37-1.41.55-.43.17-.87.33-1.31.49-.23.08-.46.16-.69.24-.47.17-.94.33-1.42.49-.1.03-.2.07-.31.1-.58.19-1.17.38-1.76.56-.25.08-.49.15-.74.22-.44.13-.88.26-1.32.38-.31.09-.62.18-.94.26-.51.13-1.02.27-1.53.39-.05.02-.1.03-.15.04-.44.11-.89.22-1.34.32-.65.15-1.3.3-1.96.43-.26.06-.52.11-.79.16-.46.09-.92.18-1.38.26-.2.04-.4.08-.6.11-.49.09-.98.17-1.47.24-.25.04-.51.09-.77.12-.04.01-.07.02-.11.02-.41.06-.83.12-1.25.17-.36.05-.71.1-1.07.14-.25.03-.5.06-.75.08-.47.06-.94.11-1.41.15-.32.04-.64.06-.97.09-.36.03-.72.06-1.09.09-.52.04-1.05.07-1.58.09-.05.01-.1.01-.15.01-.11.01-.23.02-.35.02-.74.04-1.49.07-2.24.09-.77.02-1.54.03-2.31.03-.57,0-1.14,0-1.71-.02-.22,0-.45-.01-.67-.02-.09,0-.17,0-.26-.01-.51,0-1.02-.02-1.53-.05-.06,0-.12-.01-.18-.01s-.12,0-.18-.01c-.08,0-.15,0-.23,0-.52-.02-1.05-.06-1.57-.09-.15-.01-.29-.02-.43-.03-.41-.03-.81-.06-1.21-.1-.07-.01-.15-.01-.22-.02-.26-.02-.5-.05-.75-.07-.55-.06-1.09-.11-1.64-.18-.28-.03-.56-.07-.84-.1-.51-.07-1.02-.14-1.52-.21-.11,0-.21-.03-.31-.05-.46-.06-.92-.14-1.38-.22-.27-.04-.53-.08-.8-.13-.45-.07-.9-.15-1.35-.24-.02,0-.03-.01-.05-.01-.43-.08-.86-.16-1.29-.26-.44-.08-.87-.17-1.31-.27-.56-.12-1.11-.25-1.66-.38-.48-.12-.96-.24-1.44-.36-.1-.03-.19-.05-.29-.08-.39-.1-.77-.21-1.16-.31-.06-.02-.13-.03-.19-.05-.15-.05-.3-.09-.46-.13-.09-.03-.18-.05-.27-.08-.38-.11-.76-.23-1.13-.34-.55-.16-1.1-.33-1.64-.51-.51-.17-1.01-.33-1.51-.51-.43-.15-.86-.3-1.29-.45-.07-.03-.15-.05-.22-.08-.08-.03-.16-.06-.24-.09-.39-.15-.78-.29-1.17-.44-.01,0-.02-.01-.03-.01-.17-.07-.34-.13-.51-.2-.58-.23-1.17-.46-1.75-.71-.18-.07-.36-.14-.54-.22-.68-.29-1.35-.58-2.01-.88-.56-.26-1.13-.52-1.68-.79-.56-.27-1.12-.54-1.67-.82-.55-.27-1.09-.56-1.64-.85-.54-.29-1.08-.58-1.62-.88-.72-.39-1.43-.8-2.13-1.22-.51-.3-1.01-.6-1.51-.91-.09-.06-.18-.11-.27-.17-.16-.1-.33-.21-.49-.31-1.28-.81-2.54-1.66-3.78-2.53-.89-.63-1.76-1.27-2.62-1.93-.42-.31-.83-.63-1.24-.96-.13-.11-.26-.21-.4-.33-.35-.27-.71-.55-1.05-.85-.39-.31-.76-.63-1.14-.95-.06-.05-.13-.11-.19-.16-.48-.41-.95-.83-1.42-1.25-.51-.45-1.02-.92-1.52-1.39-2.66-2.5-5.18-5.16-7.52-7.96-13-15.56-20.83-35.6-20.83-57.46s7.83-41.9,20.83-57.46c9.18-10.98,20.94-19.74,34.36-25.32.37-.16.74-.31,1.12-.46.02-.01.05-.02.07-.03.46-.19.92-.37,1.39-.55,10.03-3.88,20.93-6.01,32.32-6.01,40.28,0,74.35,26.56,85.66,63.12,2.6,8.38,4,17.3,4,26.54Z" style="fill: none; stroke: #1d1d1b; stroke-miterlimit: 10; stroke-width: .5px;"/>
</svg>