<?xml version="1.0" encoding="UTF-8"?>
<svg id="uuid-724119bc-c268-46f0-a9ca-e21f15ec3d48" data-name="Pattern" xmlns="http://www.w3.org/2000/svg" width="165.47mm" height="187.62mm" viewBox="0 0 469.06 531.85">
  <path d="M258.96,9.71l59.01,34.07c-6.34,12.38-15.33,23.18-26.22,31.65l-57.35-33.11-58.15,33.57c-10.86-8.3-19.87-18.91-26.29-31.09L220.4,4.14c4.54-2.61,9.6-3.92,14.66-3.88h.08s.08.01.12,0c.06.01.13.01.18.01,4.79.09,9.57,1.39,13.88,3.87l9.64,5.57Z" style="fill: none; stroke: #1d1d1b; stroke-miterlimit: 10; stroke-width: .5px;"/>
  <path d="M468.81,147.56v124.89l-39.54-23.08v-94.54l-89.48-51.66c3.4-3.51,6.62-7.19,9.65-11.02,5.41-6.84,10.22-14.17,14.37-21.91l37.94,21.91,52.6,30.37c8.95,5.16,14.46,14.71,14.46,25.04Z" style="fill: none; stroke: #1d1d1b; stroke-miterlimit: 10; stroke-width: .5px;"/>
  <path d="M164.08,322.14H.91v-136.04l38.62,22.54,52.35,30.57,52.66,30.74c.81,19.71,7.99,37.77,19.54,52.19Z" style="fill: none; stroke: #1d1d1b; stroke-miterlimit: 10; stroke-width: .5px;"/>
  <path d="M98.28,322.15v90H20.22l-4.85-2.8c-3.01-1.74-5.64-3.98-7.8-6.58-4.24-5.11-6.66-11.61-6.66-18.46v-62.16h97.37Z" style="fill: none; stroke: #1d1d1b; stroke-miterlimit: 10; stroke-width: .5px;"/>
  <path d="M164.33,322.45v63.22h-.2c-14.57,0-26.38,11.81-26.38,26.38v.09h-39.47v-90h65.8c.08.1.16.21.25.31Z" style="fill: none; stroke: #1d1d1b; stroke-miterlimit: 10; stroke-width: .5px;"/>
  <path d="M376.91,322.14v13.4c-52.44.61-97.52,31.82-118.22,76.6h-68.17v-.09c0-14.5-11.71-26.27-26.19-26.38v-63.22c8.2,10.16,18.58,18.49,30.43,24.27.01,0,.01.01.01.01.79.39,1.59.77,2.39,1.13.45.21.91.41,1.36.6.23.11.46.2.69.3,10.82,4.65,22.75,7.21,35.27,7.21,1.58,0,3.14-.04,4.7-.13h0c26.49-1.36,49.94-14.23,65.44-33.7h72.28Z" style="fill: none; stroke: #1d1d1b; stroke-miterlimit: 10; stroke-width: .5px;"/>
  <path d="M164.33,438.44v56.92L20.22,412.15h117.53c.05,14.53,11.84,26.29,26.38,26.29h.2Z" style="fill: none; stroke: #1d1d1b; stroke-miterlimit: 10; stroke-width: .5px;"/>
  <path d="M246.56,467.47c0,19.61,4.28,38.22,11.96,54.95l-9.2,5.31c-4.31,2.48-9.09,3.77-13.88,3.86-.05,0-.12,0-.18.01-.04-.01-.08,0-.12,0h-.08c-5.06.04-10.12-1.26-14.66-3.87l-56.07-32.37v-56.92c14.45-.11,26.14-11.83,26.19-26.29h68.17c-7.79,16.82-12.13,35.56-12.13,55.32Z" style="fill: none; stroke: #1d1d1b; stroke-miterlimit: 10; stroke-width: .5px;"/>
  <path d="M234.4,42.32l57.35,33.11c-16.03,12.47-36.18,19.9-58.06,19.9s-41.52-7.24-57.44-19.44l58.15-33.57Z" style="fill: none; stroke: #1d1d1b; stroke-miterlimit: 10; stroke-width: .5px;"/>
  <path d="M429.27,154.82v94.54l-26.44-15.44c6.99-7.49,11.27-17.55,11.27-28.61,0-23.19-18.8-41.99-41.99-41.99-8.08,0-15.62,2.28-22.02,6.24l-12.84-7.42-45.04-26.01c18.01-7.78,34.15-19.06,47.58-32.97l89.48,51.66Z" style="fill: none; stroke: #1d1d1b; stroke-miterlimit: 10; stroke-width: .5px;"/>
  <path d="M376.91,247.01v75.13h-72.28c10.02-12.56,16.73-27.87,18.81-44.62.46-3.67.7-7.41.7-11.21,0-34.63-19.63-64.67-48.37-79.6-.46-.23-.92-.47-1.38-.7-.47-.23-.94-.46-1.41-.69-.56-.27-1.12-.53-1.69-.79-11.33-5.17-23.92-8.05-37.18-8.05-49.52,0-89.66,40.15-89.66,89.67,0,1.27.03,2.54.09,3.8l-52.66-30.74v-29.59c13.55-1.09,24.21-12.44,24.21-26.28,0-3.89-.84-7.59-2.36-10.91l17.82-10.29,44.43-25.66c17.72,7.55,37.23,11.72,57.71,11.72s40.58-4.3,58.52-12.07l45.04,26.01,12.84,7.42c-11.98,7.39-19.96,20.64-19.96,35.75,0,23.18,18.79,41.98,41.98,41.98,1.62,0,3.23-.09,4.8-.28Z" style="fill: none; stroke: #1d1d1b; stroke-miterlimit: 10; stroke-width: .5px;"/>
  <path d="M468.81,272.44v98.86c-23.6-22.18-55.37-35.77-90.32-35.77-.53,0-1.05,0-1.58.01v-88.53c10.2-1.15,19.28-5.96,25.92-13.09l26.44,15.44,39.54,23.08Z" style="fill: none; stroke: #1d1d1b; stroke-miterlimit: 10; stroke-width: .5px;"/>
  <path d="M175.98,136.48l-44.43,25.66-17.82,10.29c-4.15-9.13-13.34-15.48-24.02-15.48-14.57,0-26.38,11.82-26.38,26.39,0,.68.03,1.36.09,2.03l-62.51.73v-38.55c0-10.01,5.17-19.28,13.63-24.54.22-.14.44-.27.67-.4l.16-.1,52.6-30.37,36.16-20.89c6.5,11.9,14.58,22.81,23.97,32.43,13.53,13.88,29.78,25.1,47.88,32.8Z" style="fill: none; stroke: #1d1d1b; stroke-miterlimit: 10; stroke-width: .5px;"/>
  <path d="M91.88,209.62v29.59l-52.35-30.57L.91,186.1l62.51-.73c1.02,13.62,12.4,24.35,26.29,24.35.73,0,1.46-.03,2.17-.1Z" style="fill: none; stroke: #1d1d1b; stroke-miterlimit: 10; stroke-width: .5px;"/>
  <path d="M363.81,70.23c-4.15,7.74-8.96,15.07-14.37,21.91-3.03,3.83-6.25,7.51-9.65,11.02-13.43,13.91-29.57,25.19-47.58,32.97-17.94,7.77-37.73,12.07-58.52,12.07s-39.99-4.17-57.71-11.72c-18.1-7.7-34.35-18.92-47.88-32.8-9.39-9.62-17.47-20.53-23.97-32.43l10.09-5.82,35.74-20.64c6.42,12.18,15.43,22.79,26.29,31.09,15.92,12.2,35.84,19.44,57.44,19.44s42.03-7.43,58.06-19.9c10.89-8.47,19.88-19.27,26.22-31.65l45.84,26.46Z" style="fill: none; stroke: #1d1d1b; stroke-miterlimit: 10; stroke-width: .5px;"/>
  <path d="M468.81,371.31v13c0,10.33-5.51,19.88-14.46,25.04l-4.85,2.8-57.26,33.06-133.65,77.17-.07.04c-7.68-16.73-11.96-35.34-11.96-54.95s4.34-38.5,12.13-55.32c20.7-44.78,65.78-75.99,118.22-76.6.53,0,1.05,0,1.58,0,34.95,0,66.72,13.59,90.32,35.77Z" style="fill: none; stroke: #1d1d1b; stroke-miterlimit: 10; stroke-width: .5px;"/>
  <path d="M116.09,183.34c0,13.84-10.66,25.19-24.21,26.28-.71.07-1.44.1-2.17.1-13.89,0-25.27-10.73-26.29-24.35-.06-.67-.09-1.35-.09-2.03,0-14.57,11.81-26.39,26.38-26.39,10.68,0,19.87,6.35,24.02,15.48,1.52,3.32,2.36,7.02,2.36,10.91Z" style="fill: none; stroke: #1d1d1b; stroke-miterlimit: 10; stroke-width: .5px;"/>
  <path d="M190.52,412.06v.09c-.05,14.46-11.74,26.18-26.19,26.29h-.2c-14.54,0-26.33-11.76-26.38-26.29v-.09c0-14.57,11.81-26.38,26.38-26.38h.2c14.48.11,26.19,11.88,26.19,26.38Z" style="fill: none; stroke: #1d1d1b; stroke-miterlimit: 10; stroke-width: .5px;"/>
  <path d="M414.1,205.31c0,11.06-4.28,21.12-11.27,28.61-6.64,7.13-15.72,11.94-25.92,13.09-1.57.19-3.18.28-4.8.28-23.19,0-41.98-18.8-41.98-41.98,0-15.11,7.98-28.36,19.96-35.75,6.4-3.96,13.94-6.24,22.02-6.24,23.19,0,41.99,18.8,41.99,41.99Z" style="fill: none; stroke: #1d1d1b; stroke-miterlimit: 10; stroke-width: .5px;"/>
  <path id="uuid-8e525912-93f2-4c08-a9f3-bc5e1d92acef" data-name="&amp;lt;Centre&amp;gt;" d="M324.14,266.31c0,3.8-.24,7.54-.7,11.21-2.08,16.75-8.79,32.06-18.81,44.62-15.5,19.47-38.95,32.34-65.44,33.7h0c-1.56.09-3.12.13-4.7.13-12.52,0-24.45-2.56-35.27-7.21-.23-.1-.46-.19-.69-.3-.45-.19-.91-.39-1.36-.6-.8-.36-1.6-.74-2.39-1.13,0,0,0-.01-.01-.01-11.85-5.78-22.23-14.11-30.43-24.27-.09-.1-.17-.21-.25-.31-11.55-14.42-18.73-32.48-19.54-52.19-.06-1.26-.09-2.53-.09-3.8,0-49.52,40.14-89.67,89.66-89.67,13.26,0,25.85,2.88,37.18,8.05.57.26,1.13.52,1.69.79.47.23.94.46,1.41.69.46.23.92.47,1.38.7,28.74,14.93,48.37,44.97,48.37,79.6Z" style="fill: none; stroke: #1d1d1b; stroke-miterlimit: 10; stroke-width: .5px;"/>
</svg>