<?xml version="1.0" encoding="utf-8"?>
<!-- Generator: Adobe Illustrator 28.1.0, SVG Export Plug-In . SVG Version: 6.00 Build 0)  -->
<svg version="1.1" id="Pattern" xmlns="http://www.w3.org/2000/svg" xmlns:xlink="http://www.w3.org/1999/xlink" x="0px" y="0px"
	 viewBox="0 0 595.3 841.9" enable-background="new 0 0 595.3 841.9" xml:space="preserve">
<g>
	<path fill="none" stroke="#000000" stroke-width="0.5" stroke-miterlimit="10" d="M426.3,230.5v108l-143.4-82.8
		c10.2-18.3,16-39.4,16-61.8c0-10.5-1.3-20.8-3.7-30.5c2.1-0.5,4.2-0.7,6.3-0.7h0.1c0,0,0.1,0,0.1,0c0.1,0,0.1,0,0.2,0
		c4.8,0.1,9.6,1.4,13.9,3.9l9.6,5.6L426.3,230.5z"/>
	<path fill="none" stroke="#000000" stroke-width="0.5" stroke-miterlimit="10" d="M535.2,450.3v96.5c0,0.1,0,0.2,0,0.4
		c-0.1,10.2-5.6,19.6-14.4,24.7l-94.4,54.5V513.2L535.2,450.3z"/>
	<path fill="none" stroke="#000000" stroke-width="0.5" stroke-miterlimit="10" d="M95.3,448.7c0,16,12.9,28.9,28.9,28.9h0.2v69.5
		H67.3c0-0.1,0-0.2,0-0.4V359.4h57.1v60.4h-0.2C108.2,419.8,95.3,432.7,95.3,448.7z"/>
	<polygon fill="none" stroke="#000000" stroke-width="0.5" stroke-miterlimit="10" points="535.2,359.4 535.2,450.3 426.3,513.2 
		426.3,359.4 	"/>
	<path fill="none" stroke="#000000" stroke-width="0.5" stroke-miterlimit="10" d="M535.2,310v49.4H426.3V230.5l94.4,54.5
		C529.7,290.2,535.2,299.7,535.2,310z"/>
	<path fill="none" stroke="#000000" stroke-miterlimit="10" d="M426.3,338.5v20.9h-68.7c-15.5-12.7-35.2-20.2-56.8-20.2
		c-21.5,0-41.3,7.6-56.8,20.2h-59.7v-38.8c42.4-4.2,78.7-29.3,98.5-64.9L426.3,338.5z"/>
	<path fill="none" stroke="#000000" stroke-width="0.5" stroke-miterlimit="10" d="M184.4,320.6v38.8H67.3V310
		c0-10,5.2-19.3,13.6-24.5c0.2-0.1,0.4-0.3,0.7-0.4l0.2-0.1l0.6-0.3c11.9,11.8,26.2,21.2,42.1,27.5c14.6,5.8,30.5,9,47.2,9
		C175.9,321.2,180.2,321,184.4,320.6z"/>
	<path fill="none" stroke="#000000" stroke-width="0.5" stroke-miterlimit="10" d="M298.8,193.9c0,22.4-5.8,43.5-16,61.8
		c-19.8,35.5-56.1,60.6-98.5,64.9c-4.2,0.4-8.5,0.6-12.8,0.6c-16.7,0-32.6-3.2-47.2-9c-15.8-6.3-30.1-15.7-42.1-27.5l42.1-24.3
		l60-34.6l23.3-13.4l79.1-45.7c2.6-1.5,5.5-2.6,8.4-3.2C297.6,173.2,298.8,183.4,298.8,193.9z"/>
	<path fill="none" stroke="#000000" stroke-width="0.5" stroke-miterlimit="10" d="M184.4,576.1v55l-60-34.6l-42.6-24.6
		c-3-1.7-5.6-4-7.8-6.6c-4.2-5-6.6-11.4-6.6-18.1h88.1c0,0,0,0,0,0C155.4,563.1,168.3,576.1,184.4,576.1L184.4,576.1z"/>
	<path fill="none" stroke="#000000" stroke-width="0.5" stroke-miterlimit="10" d="M367.5,547.1l-44.4,25.6h0
		c-6.9-1.2-14-1.8-21.3-1.8c-47,0-87.9,26.5-108.5,65.3l-9-5.2v-55h0.1c15.9-0.1,28.8-13,28.8-28.9c0,0,0,0,0,0H367.5z"/>
	<path fill="none" stroke="#000000" stroke-width="0.5" stroke-miterlimit="10" d="M410,635.8L325,684.9l-9.3,5.4
		c-4.3,2.5-9.1,3.8-13.9,3.9c-0.1,0-0.1,0-0.2,0c0,0-0.1,0-0.1,0h-0.1c-5.1,0-10.1-1.3-14.7-3.9L203.2,642l-9.9-5.7
		c20.6-38.9,61.4-65.3,108.5-65.3c7.2,0,14.4,0.6,21.3,1.8h0C360.8,579.4,392.5,603.1,410,635.8z"/>
	<path fill="none" stroke="#000000" stroke-width="0.5" stroke-miterlimit="10" d="M184.4,359.4v158.9h-0.1
		c-16,0-28.9,12.9-28.9,28.9h-31v-69.5c15.9-0.1,28.8-13,28.8-28.9c0-15.9-12.9-28.8-28.8-28.9v-60.4H184.4z"/>
	<path fill="none" stroke="#000000" stroke-width="0.5" stroke-miterlimit="10" d="M426.3,359.4v153.8l-58.8,34H213.2
		c0-15.9-12.9-28.8-28.8-28.9h-0.1V359.4h59.7c-20.1,16.5-32.9,41.4-32.9,69.4c0,49.5,40.2,89.7,89.7,89.7
		c49.5,0,89.7-40.1,89.7-89.7c0-28-12.8-53-32.9-69.4H426.3z"/>
	<path fill="none" stroke="#000000" stroke-width="0.5" stroke-miterlimit="10" d="M426.3,513.2v113.2l-16.3,9.4
		c-17.5-32.6-49.2-56.4-86.9-63l44.4-25.6L426.3,513.2z"/>
	<circle fill="none" stroke="#000000" stroke-width="0.5" stroke-miterlimit="10" cx="482.4" cy="314.2" r="28.9"/>
	<circle fill="none" stroke="#000000" stroke-width="0.5" stroke-miterlimit="10" cx="482.4" cy="421.2" r="28.9"/>
	<circle fill="none" stroke="#000000" stroke-width="0.5" stroke-miterlimit="10" cx="482.4" cy="539.2" r="28.9"/>
	<path fill="none" stroke="#000000" stroke-width="0.5" stroke-miterlimit="10" d="M153.1,448.7c0,15.9-12.9,28.8-28.8,28.9h-0.2
		c-16,0-28.9-13-28.9-28.9c0-16,12.9-28.9,28.9-28.9h0.2C140.3,419.9,153.1,432.8,153.1,448.7z"/>
	<path fill="none" stroke="#000000" stroke-width="0.5" stroke-miterlimit="10" d="M213.2,547.1
		C213.2,547.2,213.2,547.2,213.2,547.1c0,15.9-12.9,28.8-28.8,28.9h-0.2c-16,0-28.9-13-28.9-28.9c0,0,0,0,0,0
		c0-16,13-28.9,28.9-28.9h0.2C200.4,518.3,213.2,531.2,213.2,547.1z"/>
	<circle fill="none" stroke="#000000" stroke-miterlimit="10" cx="300.1" cy="428.7" r="89.8"/>
</g>
</svg>
