<?xml version="1.0" encoding="UTF-8"?>
<svg id="uuid-25d9b5e1-276e-466f-9c4e-05e7bff4ec8f" data-name="Pattern" xmlns="http://www.w3.org/2000/svg" width="165.4mm" height="187.62mm" viewBox="0 0 468.84 531.85">
  <path d="M198,348.53l-19.96,25.43-6.85,8.72h-89.97v-34.85c19.43-13.58,33.01-34.96,36.21-59.61l30.65,4.38c7.68,25.12,26.11,45.55,49.92,55.93Z" style="fill: none; stroke: #1d1d1b; stroke-miterlimit: 10; stroke-width: .5px;"/>
  <path d="M81.22,84.12v122.05c-14.01-9.8-31.05-15.55-49.45-15.55-11.12,0-21.75,2.1-31.52,5.93v-48.99c0-10.01,5.17-19.28,13.63-24.54.22-.14.44-.27.67-.4l.16-.1,66.51-38.4Z" style="fill: none; stroke: #1d1d1b; stroke-miterlimit: 10; stroke-width: .5px;"/>
  <path d="M414.39,99.83l-49.57,44.97c-.6-.65-1.25-1.26-1.94-1.83-2.57-2.1-5.67-3.6-9.04-4.27-1.31-.26-2.65-.4-4.02-.4-7.65,0-14.32,4.17-17.86,10.37l-55.04-31.69-46.45-26.75-6.22-28.72-11.54-53.31,7.03-4.06c4.54-2.61,9.6-3.92,14.66-3.88h.08s.08.01.12,0c.06.01.13.01.18.01,4.79.09,9.57,1.39,13.88,3.87l9.64,5.57,156.09,90.12Z" style="fill: none; stroke: #1d1d1b; stroke-miterlimit: 10; stroke-width: .5px;"/>
  <path d="M468.15,282.95c-6.69-1.05-13.54-1.59-20.52-1.59-23.92,0-46.37,6.34-65.74,17.43-31.19,17.86-54.42,48.03-63.07,83.89h-77.48l-10.72-26.71c1.19.06,2.39.08,3.6.08,49.52,0,89.66-40.14,89.66-89.66,0-24.02-9.45-45.82-24.82-61.92l18.61-16.9,4.81-4.35,11.88-10.78c3.77,4.29,9.3,7,15.46,7,1.37,0,2.71-.14,4.02-.4,3.85-.76,7.31-2.59,10.06-5.17l104.25,109.08Z" style="fill: none; stroke: #1d1d1b; stroke-miterlimit: 10; stroke-width: .5px;"/>
  <path d="M468.15,147.56v79.55l-100.54-57.9c1.77-3.03,2.78-6.56,2.78-10.34,0-5.44-2.12-10.39-5.57-14.07l49.57-44.97,39.3,22.69c8.95,5.16,14.46,14.71,14.46,25.04Z" style="fill: none; stroke: #1d1d1b; stroke-miterlimit: 10; stroke-width: .5px;"/>
  <path d="M334.36,172.44l-11.88,10.78-4.81,4.35-18.61,16.9c-12.59-13.18-29.16-22.53-47.78-26.11-.47-.1-.95-.19-1.43-.27-.12-.03-.25-.05-.37-.07l-4.08-18.83-5.04-23.26-9.89-45.7,46.45,26.75,55.04,31.69h0c-1.73,3.02-2.72,6.49-2.72,10.2,0,1.23.11,2.42.31,3.58.67,3.79,2.37,7.22,4.81,9.99Z" style="fill: none; stroke: #1d1d1b; stroke-miterlimit: 10; stroke-width: .5px;"/>
  <path d="M332.43,479.36l-42.45,24.52-34.16-85.13h-.01l-14.47-36.07h77.48c-2.41,10-3.69,20.44-3.69,31.17,0,15.13,2.54,29.67,7.21,43.21,2.68,7.79,6.07,15.25,10.09,22.3Z" style="fill: none; stroke: #1d1d1b; stroke-miterlimit: 10; stroke-width: .5px;"/>
  <path d="M171.19,382.68l-63.21,80.52-26.76-15.45-66.51-38.4c-3.01-1.74-5.64-3.98-7.8-6.58-4.24-5.11-6.66-11.61-6.66-18.46v-26.86c9.77,3.83,20.4,5.93,31.52,5.93,18.4,0,35.44-5.75,49.45-15.55v34.85h89.97Z" style="fill: none; stroke: #1d1d1b; stroke-miterlimit: 10; stroke-width: .5px;"/>
  <path d="M241.34,382.68l-9.24,55.53s0,.03-.01.04c-2.11,12.46-18.57,15.58-25.1,4.79-.02-.03-.05-.07-.07-.11l-35.73-60.25,6.85-8.72,19.96-25.43c6.28,2.74,12.92,4.79,19.85,6.03.07.01.15.03.23.04.51.09,1.03.18,1.54.26.07.02.15.03.23.04.44.07.88.13,1.32.2,3.1.46,6.26.75,9.45.87l10.72,26.71Z" style="fill: none; stroke: #1d1d1b; stroke-miterlimit: 10; stroke-width: .5px;"/>
  <path d="M468.15,227.11v55.84l-104.25-109.08c1.45-1.37,2.7-2.93,3.71-4.66l100.54,57.9Z" style="fill: none; stroke: #1d1d1b; stroke-miterlimit: 10; stroke-width: .5px;"/>
  <path d="M249.48,178.02c-.51-.09-1.03-.18-1.54-.25-.03,0-.05,0-.07-.01-4.58-.72-9.27-1.1-14.05-1.1-17.93,0-34.62,5.26-48.63,14.32-24.69,15.97-41.03,43.75-41.03,75.34,0,9.14,1.37,17.97,3.92,26.28l-30.65-4.38c.47-3.67.72-7.42.72-11.22,0-29.32-14.6-55.22-36.93-70.83v-46.98h164.18l4.08,18.83Z" style="fill: none; stroke: #1d1d1b; stroke-miterlimit: 10; stroke-width: .5px;"/>
  <path d="M255.82,418.75h-.01l-14.47-36.07-9.24,55.53s0,.03-.01.04c-2.11,12.46-18.57,15.58-25.1,4.79-.02-.03-.05-.07-.07-.11l-35.73-60.25-63.21,80.52,111.76,64.53c4.54,2.61,9.6,3.91,14.66,3.87h.08s.08-.01.12,0c.06-.01.13-.01.18-.01,4.79-.09,9.57-1.38,13.88-3.86l9.27-5.35,32.05-18.5-34.16-85.13ZM176.27,468.64c-1.3.26-2.65.4-4.02.4-10.14,0-18.57-7.33-20.26-16.99-.21-1.16-.32-2.35-.32-3.58,0-11.36,9.22-20.57,20.58-20.57,1.37,0,2.72.14,4.02.4,3.38.66,6.47,2.17,9.04,4.27,4.58,3.78,7.51,9.5,7.51,15.9,0,9.99-7.12,18.31-16.55,20.17Z" style="fill: none; stroke: #1d1d1b; stroke-miterlimit: 10; stroke-width: .5px;"/>
  <path d="M240.36,135.93l-9.89-45.7-6.22-28.72-11.54-53.31-62.26,35.95-19.64,11.34-15.05,8.69-34.54,19.94v75.07h164.18l-5.04-23.26ZM198.77,139.44c-1.3.26-2.65.4-4.02.4-10.13,0-18.57-7.33-20.26-16.99-.21-1.16-.31-2.35-.31-3.58,0-11.36,9.21-20.57,20.57-20.57,1.37,0,2.72.14,4.02.4,3.38.66,6.47,2.17,9.04,4.27,4.58,3.78,7.51,9.5,7.51,15.9,0,9.99-7.12,18.31-16.55,20.17Z" style="fill: none; stroke: #1d1d1b; stroke-miterlimit: 10; stroke-width: .5px;"/>
  <path d="M118.15,277c0,3.8-.25,7.55-.72,11.22-3.2,24.65-16.78,46.03-36.21,59.61-14.01,9.8-31.05,15.55-49.45,15.55-11.12,0-21.75-2.1-31.52-5.93v-160.9c9.77-3.83,20.4-5.93,31.52-5.93,18.4,0,35.44,5.75,49.45,15.55,22.33,15.61,36.93,41.51,36.93,70.83Z" style="fill: none; stroke: #1d1d1b; stroke-miterlimit: 10; stroke-width: .5px;"/>
  <path d="M468.15,282.95v101.36c0,10.33-5.51,19.88-14.46,25.04l-106.96,61.76-14.3,8.25c-4.02-7.05-7.41-14.51-10.09-22.3-4.67-13.54-7.21-28.08-7.21-43.21,0-10.73,1.28-21.17,3.69-31.17,8.65-35.86,31.88-66.03,63.07-83.89,19.37-11.09,41.82-17.43,65.74-17.43,6.98,0,13.83.54,20.52,1.59Z" style="fill: none; stroke: #1d1d1b; stroke-miterlimit: 10; stroke-width: .5px;"/>
  <path d="M215.32,119.27c0,9.99-7.12,18.31-16.55,20.17-1.3.26-2.65.4-4.02.4-10.13,0-18.57-7.33-20.26-16.99-.21-1.16-.31-2.35-.31-3.58,0-11.36,9.21-20.57,20.57-20.57,1.37,0,2.72.14,4.02.4,3.38.66,6.47,2.17,9.04,4.27,4.58,3.78,7.51,9.5,7.51,15.9Z" style="fill: none; stroke: #1d1d1b; stroke-miterlimit: 10; stroke-width: .5px;"/>
  <path d="M215.32,119.27c0,9.99-7.12,18.31-16.55,20.17-1.3.26-2.65.4-4.02.4-10.13,0-18.57-7.33-20.26-16.99-.21-1.16-.31-2.35-.31-3.58,0-11.36,9.21-20.57,20.57-20.57,1.37,0,2.72.14,4.02.4,3.38.66,6.47,2.17,9.04,4.27,4.58,3.78,7.51,9.5,7.51,15.9Z" style="fill: none; stroke: #1d1d1b; stroke-miterlimit: 10; stroke-width: .5px;"/>
  <path d="M192.82,448.47c0,9.99-7.12,18.31-16.55,20.17-1.3.26-2.65.4-4.02.4-10.14,0-18.57-7.33-20.26-16.99-.21-1.16-.32-2.35-.32-3.58,0-11.36,9.22-20.57,20.58-20.57,1.37,0,2.72.14,4.02.4,3.38.66,6.47,2.17,9.04,4.27,4.58,3.78,7.51,9.5,7.51,15.9Z" style="fill: none; stroke: #1d1d1b; stroke-miterlimit: 10; stroke-width: .5px;"/>
  <path d="M370.39,158.87c0,3.78-1.01,7.31-2.78,10.34-1.01,1.73-2.26,3.29-3.71,4.66-2.75,2.58-6.21,4.41-10.06,5.17-1.31.26-2.65.4-4.02.4-6.16,0-11.69-2.71-15.46-7-2.44-2.77-4.14-6.2-4.81-9.99-.2-1.16-.31-2.35-.31-3.58,0-3.71.99-7.18,2.72-10.19h0c3.54-6.21,10.21-10.38,17.86-10.38,1.37,0,2.71.14,4.02.4,3.37.67,6.47,2.17,9.04,4.27.69.57,1.34,1.18,1.94,1.83,3.45,3.68,5.57,8.63,5.57,14.07Z" style="fill: none; stroke: #1d1d1b; stroke-miterlimit: 10; stroke-width: .5px;"/>
  <path id="uuid-1aa824c0-b792-4c2b-87e1-7bb3c4f9c921" data-name="&amp;lt;Centre&amp;gt;" d="M323.88,266.39c0,49.52-40.14,89.66-89.66,89.66-1.21,0-2.41-.02-3.6-.08-3.19-.12-6.35-.41-9.45-.87-.44-.07-.88-.13-1.32-.2-.08-.01-.16-.02-.23-.04-.51-.08-1.03-.17-1.54-.26-.08-.01-.16-.03-.23-.04-6.93-1.24-13.57-3.29-19.85-6.03-23.81-10.38-42.24-30.81-49.92-55.93-2.55-8.31-3.92-17.14-3.92-26.28,0-31.59,16.34-59.37,41.03-75.34,14.01-9.06,30.7-14.32,48.63-14.32,4.78,0,9.47.38,14.05,1.1.02.01.04.01.07.01.64.1,1.28.21,1.91.32.48.08.96.17,1.43.27,18.62,3.58,35.19,12.93,47.78,26.11,15.37,16.1,24.82,37.9,24.82,61.92Z" style="fill: none; stroke: #1d1d1b; stroke-miterlimit: 10; stroke-width: .5px;"/>
</svg>