<?xml version="1.0" encoding="UTF-8"?>
<svg id="uuid-7c4bd0de-85ef-414f-ab51-8ea4b7820861" data-name="Pattern" xmlns="http://www.w3.org/2000/svg" width="165.24mm" height="187.62mm" viewBox="0 0 468.4 531.85">
  <path d="M310.1,150.08c-.39-.06-.77-.12-1.15-.19-.92-.15-1.84-.32-2.76-.5-.62-.12-1.23-.24-1.84-.37-2.14-.45-4.26-.95-6.36-1.5-.73-.19-1.47-.39-2.2-.6-.09-.03-.19-.05-.29-.09-.88-.25-1.75-.51-2.62-.78-.03,0-.07-.01-.12-.03-.79-.24-1.58-.5-2.37-.76-.67-.22-1.34-.45-2.01-.69-.51-.18-1.02-.36-1.52-.54-.59-.21-1.18-.43-1.77-.66-.33-.13-.65-.25-.97-.38-.64-.25-1.27-.5-1.91-.77-1.01-.4-2.02-.83-3.02-1.28-.65-.28-1.29-.57-1.92-.87-1.05-.47-2.1-.97-3.14-1.49-.61-.3-1.22-.61-1.83-.92-1.91-.98-3.8-2.01-5.65-3.09-.74-.43-1.47-.87-2.2-1.31-.64-.39-1.28-.78-1.91-1.18-3.97-2.5-7.79-5.22-11.45-8.14-.37-.3-.74-.6-1.1-.9-.82-.66-1.62-1.34-2.42-2.02-.22-.18-.44-.37-.66-.57-.38-.33-.75-.65-1.12-.99-.93-.82-1.85-1.66-2.76-2.53-.41-.38-.81-.76-1.21-1.16-.98-.94-1.95-1.9-2.9-2.89-.35-.36-.7-.73-1.04-1.09-.88-.92-1.73-1.85-2.57-2.8-.38-.42-.76-.85-1.13-1.29-.41-.46-.81-.93-1.21-1.4-.38-.46-.77-.92-1.15-1.39-.78-.95-1.55-1.92-2.3-2.9-.27-.34-.53-.68-.78-1.02-.86-1.12-1.69-2.27-2.5-3.42-.36-.5-.71-1.01-1.05-1.52-.9-1.31-1.78-2.64-2.63-3.99-.31-.49-.61-.98-.91-1.48-.48-.77-.94-1.55-1.39-2.33-.27-.45-.53-.9-.78-1.36-.36-.61-.7-1.23-1.04-1.86h-98.13c8.06,16.72,12.58,35.47,12.58,55.29,0,36.85-15.62,70.05-40.61,93.34v42.01l54.51-30.98c.15-.61.31-1.22.47-1.82.17-.61.34-1.21.51-1.81.18-.6.36-1.2.55-1.8.37-1.19.77-2.37,1.2-3.54.2-.54.4-1.09.61-1.63.01-.05.03-.1.06-.15.22-.56.44-1.13.67-1.69.24-.57.48-1.14.72-1.7.25-.57.5-1.13.76-1.69s.52-1.12.79-1.68c.53-1.11,1.09-2.2,1.68-3.28.29-.54.59-1.08.89-1.61.24-.43.48-.85.73-1.27,2.62-4.48,5.62-8.71,8.96-12.64.29-.34.58-.69.88-1.03,1.21-1.39,2.47-2.74,3.78-4.05.25-.27.5-.52.76-.76.37-.38.75-.75,1.13-1.11.01-.02.03-.03.04-.04.36-.34.72-.68,1.08-1.01.3-.28.6-.55.9-.82,2.1-1.88,4.28-3.67,6.55-5.34.37-.28.74-.56,1.12-.82.44-.32.88-.63,1.34-.94.36-.26.73-.5,1.09-.75,1.53-1.02,3.1-2,4.7-2.93.52-.31,1.05-.61,1.59-.9.5-.28,1-.55,1.51-.82,2.21-1.18,4.47-2.26,6.78-3.24.36-.16.72-.31,1.08-.46.36-.15.73-.29,1.09-.44.48-.19.96-.38,1.45-.55.51-.2,1.03-.39,1.56-.57.02-.02.04-.02.06-.02.49-.18.99-.36,1.49-.52,1.87-.63,3.77-1.19,5.69-1.69.5-.14,1-.26,1.51-.38.12-.04.23-.06.35-.09.51-.12,1.02-.24,1.53-.35.15-.04.31-.07.47-.1.51-.11,1.02-.22,1.53-.31,2.84-.57,5.74-.99,8.67-1.27.5-.05,1-.1,1.5-.13.24-.02.47-.04.71-.06.62-.04,1.25-.08,1.88-.11.74-.04,1.49-.07,2.24-.09h.09c.76-.02,1.52-.03,2.28-.03.88,0,1.75,0,2.62.04.67.02,1.33.04,1.99.08.59.03,1.18.06,1.76.11.34.02.69.04,1.03.07.54.04,1.07.09,1.61.15.11.01.23.02.35.03.65.07,1.3.14,1.95.23.93.11,1.86.25,2.79.4.52.08,1.04.16,1.55.25,1.43.25,2.85.54,4.25.86.31.06.62.14.93.21.78.19,1.56.39,2.34.6.9.23,1.79.48,2.67.76.04,0,.08.01.12.03l52.79-30.01c-.83-.12-1.65-.24-2.47-.38ZM166.89,143.84c-13.83,0-25.05-11.21-25.05-25.05s11.22-25.05,25.05-25.05,25.06,11.21,25.06,25.05-11.22,25.05-25.06,25.05Z" style="fill: none; stroke: #1d1d1b; stroke-miterlimit: 10; stroke-width: .5px;"/>
  <path d="M468.15,324.75v59.56c0,1.79-.17,3.56-.49,5.29-1.53,8.22-6.57,15.49-13.97,19.75l-36.57,21.11c-7.83-11.36-17.46-21.39-28.47-29.67-8.26-6.22-17.3-11.46-26.95-15.54l26.95-15.32,15.96-9.07,58.71-33.36,4.83-2.75Z" style="fill: none; stroke: #1d1d1b; stroke-miterlimit: 10; stroke-width: .5px;"/>
  <path d="M404.61,360.86l-15.96,9.07-26.95,15.32c-6.46-2.74-13.2-4.96-20.16-6.6v-227.39c16.85-1.42,32.76-6.13,47.11-13.47v44.45c-18.23,22.07-29.19,50.37-29.19,81.23s10.96,59.16,29.19,81.24c4.84,5.84,10.18,11.25,15.96,16.15Z" style="fill: none; stroke: #1d1d1b; stroke-miterlimit: 10; stroke-width: .5px;"/>
  <path d="M341.54,151.26v227.39c-9.48-2.25-19.36-3.44-29.53-3.44-42.82,0-80.71,21.09-103.85,53.45l-115.88-152.99,54.51-30.98c-.2.8-.39,1.6-.56,2.41-.04.14-.07.29-.1.44-.08.36-.15.72-.22,1.08-.71,3.53-1.21,7.13-1.49,10.79-.05.69-.09,1.38-.13,2.07-.01.22-.02.44-.03.66-.03.62-.05,1.24-.07,1.86-.02.77-.03,1.54-.03,2.31,0,.9.01,1.8.04,2.69.02.64.04,1.28.08,1.92.07,1.48.18,2.94.33,4.39.04.47.09.93.15,1.39.04.35.08.69.12,1.03.09.67.18,1.33.28,1.99.08.55.17,1.1.26,1.64.15.91.32,1.81.5,2.7.26,1.3.55,2.58.86,3.86.39,1.59.83,3.16,1.31,4.71.2.65.4,1.3.62,1.94.19.58.38,1.15.59,1.72.18.53.38,1.06.58,1.59.13.36.27.72.41,1.07.22.57.44,1.13.68,1.69.27.65.55,1.31.84,1.95.27.62.55,1.23.84,1.84.02.06.05.12.08.17.21.45.43.9.65,1.35.41.84.84,1.67,1.28,2.49.25.47.5.93.75,1.38.13.24.26.47.39.7.25.44.5.87.76,1.3.06.12.13.24.21.35.34.57.68,1.14,1.04,1.7.3.49.6.97.92,1.44.14.23.29.45.44.67.26.39.52.78.78,1.16.12.18.24.35.37.52.23.34.47.68.72,1.01.21.3.42.59.64.88.35.49.72.98,1.1,1.46.38.5.77.99,1.17,1.48.44.55.89,1.1,1.34,1.63.46.54.92,1.07,1.38,1.6.42.47.83.93,1.25,1.38.57.62,1.15,1.24,1.75,1.84.47.49.94.97,1.43,1.43.44.44.89.87,1.35,1.3.14.14.28.27.43.4.46.44.94.87,1.42,1.29.46.41.93.82,1.4,1.22,1.02.88,2.07,1.73,3.14,2.56.33.26.67.52,1.01.77.53.4,1.06.8,1.6,1.18.37.27.74.54,1.12.79.2.15.41.29.62.43.33.24.67.47,1.02.69.31.21.63.42.95.63.87.57,1.76,1.12,2.66,1.65.35.22.72.43,1.08.64.52.3,1.04.6,1.57.89.46.26.93.51,1.4.75.53.3,1.07.58,1.62.84.39.21.79.41,1.19.6,1.27.62,2.56,1.21,3.87,1.77.48.21.97.41,1.46.6.52.22,1.05.43,1.58.63.4.16.81.31,1.22.46.98.36,1.96.71,2.95,1.03.45.15.9.3,1.36.44,2,.62,4.04,1.18,6.1,1.66.73.18,1.47.34,2.21.49.53.11,1.07.22,1.61.32,3.44.65,6.95,1.11,10.52,1.35.55.04,1.1.08,1.65.1,1.52.08,3.06.12,4.61.12,49.52,0,89.66-40.14,89.66-89.66,0-.92-.01-1.84-.05-2.76-.01-.52-.03-1.03-.06-1.54-.02-.6-.05-1.19-.1-1.78-.02-.4-.05-.79-.08-1.19-.06-.7-.12-1.4-.19-2.1-.07-.68-.15-1.37-.24-2.05-.08-.63-.17-1.26-.26-1.88-.07-.44-.13-.89-.21-1.33-.02-.13-.04-.26-.07-.38-.08-.53-.18-1.06-.28-1.59-.47-2.55-1.05-5.05-1.74-7.52-.1-.35-.2-.7-.31-1.05-.06-.24-.13-.48-.21-.71-.12-.42-.25-.83-.38-1.25-.37-1.18-.77-2.34-1.19-3.49-.2-.57-.41-1.13-.63-1.68-.21-.56-.43-1.11-.66-1.66-.21-.52-.42-1.03-.64-1.54-.06-.14-.12-.28-.19-.42-.19-.44-.39-.88-.59-1.32-.75-1.65-1.55-3.26-2.4-4.85-.25-.47-.5-.95-.77-1.42-.58-1.06-1.19-2.1-1.82-3.12-.61-1.01-1.25-2-1.9-2.98-.28-.43-.57-.85-.86-1.27-1.38-2.01-2.84-3.95-4.38-5.82-.37-.46-.74-.91-1.12-1.35-.38-.45-.77-.89-1.16-1.33-.39-.44-.78-.88-1.18-1.31-.79-.86-1.6-1.71-2.43-2.54-.26-.27-.52-.53-.79-.78-.6-.6-1.22-1.19-1.84-1.76-.39-.37-.79-.73-1.2-1.09-.43-.39-.87-.78-1.32-1.16-.86-.74-1.73-1.46-2.61-2.16-.55-.44-1.1-.87-1.66-1.28-.36-.28-.72-.55-1.09-.82-.64-.48-1.28-.94-1.94-1.39-.85-.6-1.71-1.17-2.58-1.73-.53-.34-1.06-.68-1.6-1-.47-.29-.93-.58-1.41-.85-.49-.29-.98-.58-1.48-.86-.04-.03-.08-.06-.13-.08-1-.57-2.02-1.11-3.04-1.63-.53-.28-1.05-.54-1.59-.79-.53-.26-1.07-.52-1.61-.77-.54-.25-1.08-.49-1.62-.73-.53-.24-1.07-.46-1.6-.69-1.11-.47-2.24-.91-3.37-1.32-.48-.18-.96-.35-1.43-.52-.12-.04-.25-.09-.37-.13-.52-.18-1.05-.35-1.57-.52-.02-.01-.04-.02-.06-.02-.54-.18-1.08-.35-1.63-.51-.02-.01-.04-.02-.06-.02l52.79-30.01h.01c5.89.84,11.9,1.27,18.02,1.27,3.68,0,7.33-.16,10.94-.47Z" style="fill: none; stroke: #1d1d1b; stroke-miterlimit: 10; stroke-width: .5px;"/>
  <path d="M388.65,84.97v52.82c-14.35,7.34-30.26,12.05-47.11,13.47-3.61.31-7.26.47-10.94.47-6.12,0-12.13-.43-18.02-1.27h0c-.83-.12-1.65-.24-2.47-.38-.39-.06-.77-.12-1.15-.19-.92-.15-1.84-.32-2.76-.5-.62-.12-1.23-.24-1.84-.37-2.14-.45-4.26-.95-6.36-1.5-.73-.19-1.47-.39-2.2-.6-.09-.03-.19-.05-.29-.09-.88-.25-1.75-.51-2.62-.78-.03,0-.07-.01-.12-.03-.79-.24-1.58-.5-2.37-.76-.67-.22-1.34-.45-2.01-.69-.51-.18-1.02-.36-1.52-.54-.59-.21-1.18-.43-1.77-.66-.33-.13-.65-.25-.97-.38-.64-.25-1.27-.5-1.91-.77-1.01-.4-2.02-.83-3.02-1.28-.65-.28-1.29-.57-1.92-.87-1.05-.47-2.1-.97-3.14-1.49-.61-.3-1.22-.61-1.83-.92-1.91-.98-3.8-2.01-5.65-3.09-.74-.43-1.47-.87-2.2-1.31-.64-.39-1.28-.78-1.91-1.18-3.97-2.5-7.79-5.22-11.45-8.14-.37-.3-.74-.6-1.1-.9-.82-.66-1.62-1.34-2.42-2.02-.22-.18-.44-.37-.66-.57-.38-.33-.75-.65-1.12-.99-.93-.82-1.85-1.66-2.76-2.53-.41-.38-.81-.76-1.21-1.16-.98-.94-1.95-1.9-2.9-2.89-.35-.36-.7-.73-1.04-1.09-.88-.92-1.73-1.85-2.57-2.8-.38-.42-.76-.85-1.13-1.29-.41-.46-.81-.93-1.21-1.4-.38-.46-.77-.92-1.15-1.39-.78-.95-1.55-1.92-2.3-2.9-.27-.34-.53-.68-.78-1.02-.86-1.12-1.69-2.27-2.5-3.42-.36-.5-.71-1.01-1.05-1.52-.9-1.31-1.78-2.64-2.63-3.99-.31-.49-.61-.98-.91-1.48-.48-.77-.94-1.55-1.39-2.33-.27-.45-.53-.9-.78-1.36-.36-.61-.7-1.23-1.04-1.86h81.26c9.28,4.72,19.78,7.38,30.9,7.38,3.72,0,7.38-.3,10.94-.88,7.07-1.13,13.78-3.36,19.94-6.5,4.57-2.31,8.84-5.14,12.75-8.39l14.42,8.33Z" style="fill: none; stroke: #1d1d1b; stroke-miterlimit: 10; stroke-width: .5px;"/>
  <path d="M466.36,137.55c-31.12,5.08-58.46,21.41-77.71,44.69v-97.27l.1.06,19.33,11.16,19.27,11.13,26.34,15.2c5.94,3.43,10.37,8.79,12.67,15.03Z" style="fill: none; stroke: #1d1d1b; stroke-miterlimit: 10; stroke-width: .5px;"/>
  <path d="M299.7,85.03H120.31c-2.95-6.14-6.38-12.01-10.25-17.56L203.44,13.55l16.3-9.41c4.54-2.61,9.6-3.92,14.66-3.88h.08s.08.01.12,0c.06.01.13.01.18.01,4.79.09,9.57,1.39,13.88,3.87l9.64,5.57,5.01,2.89c-.65,3.75-.98,7.61-.98,11.54,0,26.58,15.2,49.61,37.37,60.89Z" style="fill: none; stroke: #1d1d1b; stroke-miterlimit: 10; stroke-width: .5px;"/>
  <path d="M374.23,76.64c-3.91,3.25-8.18,6.08-12.75,8.39-6.16,3.14-12.87,5.37-19.94,6.5-3.56.58-7.22.88-10.94.88-11.12,0-21.62-2.66-30.9-7.38-22.17-11.28-37.37-34.31-37.37-60.89,0-3.93.33-7.79.98-11.54l78.23,45.17,32.69,18.87Z" style="fill: none; stroke: #1d1d1b; stroke-miterlimit: 10; stroke-width: .5px;"/>
  <path d="M208.16,428.66l-115.88-152.99v178.47l73.52,42.44,3.75,2.17,14.94,8.63c-.05-1.52-.08-3.05-.08-4.58,0-5.93.4-11.76,1.19-17.47,2.87-20.94,10.81-40.25,22.56-56.67ZM147.35,464.02c-13.83,0-25.05-11.22-25.05-25.06s11.22-25.05,25.05-25.05,25.05,11.22,25.05,25.05-11.21,25.06-25.05,25.06Z" style="fill: none; stroke: #1d1d1b; stroke-miterlimit: 10; stroke-width: .5px;"/>
  <path d="M417.12,430.46l-28.47,16.44-23.22,13.41c-6.38-8.02-14.54-14.58-23.89-19.07-8.93-4.29-18.95-6.7-29.53-6.7-.97,0-1.94.02-2.9.07-.33,0-.66.02-.98.04-.47.02-.93.06-1.39.09-.32.03-.64.05-.96.08-.23.02-.46.04-.69.07-.35.03-.7.07-1.05.12-.37.04-.73.08-1.1.13-1.58.21-3.14.47-4.69.79-.48.1-.97.2-1.45.31-2.72.62-5.38,1.4-7.96,2.34-.43.15-.85.3-1.27.47-.24.09-.47.18-.7.27-2.87,1.13-5.64,2.46-8.3,3.96-.31.17-.61.34-.91.52-.54.31-1.07.64-1.6.96-.11.07-.21.13-.32.2-.44.28-.88.56-1.31.85-.43.28-.84.56-1.26.85-2.48,1.71-4.84,3.59-7.06,5.61-.4.37-.8.74-1.2,1.12-1.8,1.71-3.5,3.52-5.09,5.41-.34.4-.67.8-1,1.21-.27.33-.54.67-.81,1.02-.48.62-.95,1.24-1.4,1.88-.46.63-.91,1.27-1.34,1.92-.44.65-.86,1.31-1.27,1.97-.42.67-.82,1.34-1.21,2.02-1.42,2.46-2.68,5.01-3.79,7.65-.39.93-.76,1.87-1.11,2.82-.14.42-.29.83-.44,1.25h0c-.36,1.04-.69,2.09-.99,3.14-.16.52-.3,1.05-.44,1.58-.13.46-.25.93-.35,1.4-.11.39-.2.79-.28,1.18-.08.34-.15.68-.22,1.02-.2.94-.38,1.89-.52,2.84-.07.36-.13.71-.17,1.07-.15.93-.26,1.87-.36,2.82-.03.28-.06.57-.08.85-.13,1.3-.21,2.61-.25,3.93-.02.32-.03.65-.03.97-.01.48-.02.97-.02,1.46,0,8.84,1.68,17.28,4.74,25.03-4.26,2.42-8.98,3.67-13.7,3.76-.05,0-.12,0-.18,0-.04,0-.08,0-.12,0h-.08c-5.06.04-10.12-1.26-14.66-3.87l-35.25-20.35c-.05-1.52-.08-3.05-.08-4.58,0-5.93.4-11.76,1.19-17.47,2.87-20.94,10.81-40.25,22.56-56.67,23.14-32.36,61.03-53.45,103.85-53.45,10.17,0,20.05,1.19,29.53,3.44,6.96,1.64,13.7,3.86,20.16,6.6,9.65,4.08,18.69,9.32,26.95,15.54,11.01,8.28,20.64,18.31,28.47,29.67Z" style="fill: none; stroke: #1d1d1b; stroke-miterlimit: 10; stroke-width: .5px;"/>
  <path d="M365.43,460.31l-23.89,13.79-68.85,39.76-14.76,8.52-9.27,5.35c-.06.03-.12.07-.18.1-3.06-7.75-4.74-16.19-4.74-25.03,0-.49.01-.98.02-1.46,0-.32.01-.65.03-.97.04-1.32.12-2.63.25-3.93.02-.28.05-.57.08-.85.1-.95.21-1.89.36-2.82.05-.36.11-.72.17-1.07.14-.95.32-1.9.52-2.84.07-.34.14-.68.22-1.02.08-.39.17-.79.28-1.18.11-.47.23-.94.35-1.4.14-.53.29-1.06.44-1.58.3-1.05.63-2.1.99-3.13h0c.15-.43.3-.84.44-1.26.36-.95.73-1.89,1.11-2.82,1.11-2.64,2.37-5.19,3.79-7.65.39-.68.79-1.35,1.21-2.02.41-.66.83-1.32,1.27-1.97.43-.65.88-1.29,1.34-1.92.45-.64.92-1.26,1.4-1.88.27-.35.54-.69.81-1.02.33-.41.66-.81,1-1.21,1.59-1.89,3.29-3.7,5.09-5.41.4-.38.8-.75,1.2-1.12,2.22-2.02,4.58-3.9,7.06-5.61.42-.29.83-.57,1.26-.85.43-.29.87-.57,1.31-.85.11-.07.21-.13.32-.2.53-.32,1.06-.65,1.6-.96.3-.18.6-.35.91-.52,2.66-1.5,5.43-2.83,8.3-3.96.23-.09.46-.18.7-.27.42-.17.84-.32,1.27-.47,2.58-.94,5.24-1.72,7.96-2.34.48-.11.97-.21,1.45-.31,1.55-.32,3.11-.58,4.69-.79.37-.05.73-.09,1.1-.13.35-.05.7-.09,1.05-.12.23-.03.46-.05.69-.07.32-.03.64-.05.96-.08.46-.03.92-.07,1.39-.09.32-.02.65-.03.98-.04.96-.05,1.93-.07,2.9-.07,10.58,0,20.6,2.41,29.53,6.7,9.35,4.49,17.51,11.05,23.89,19.07Z" style="fill: none; stroke: #1d1d1b; stroke-miterlimit: 10; stroke-width: .5px;"/>
  <path d="M.25,327.97v56.34c0,6.85,2.42,13.35,6.66,18.46,2.16,2.6,4.79,4.84,7.8,6.58l77.57,44.79v-178.47L.25,327.97ZM54.66,365.31c-13.84,0-25.06-11.22-25.06-25.05s11.22-25.06,25.06-25.06,25.05,11.22,25.05,25.06-11.22,25.05-25.05,25.05Z" style="fill: none; stroke: #1d1d1b; stroke-miterlimit: 10; stroke-width: .5px;"/>
  <path d="M92.28,233.66v42.01L.25,327.97v-60.16c1.67.07,3.35.1,5.04.1,33.61,0,64.19-13,86.99-34.25Z" style="fill: none; stroke: #1d1d1b; stroke-miterlimit: 10; stroke-width: .5px;"/>
  <path d="M132.89,140.32c0,36.85-15.62,70.05-40.61,93.34-22.8,21.25-53.38,34.25-86.99,34.25-1.69,0-3.37-.03-5.04-.1v-59.41c1.66.13,3.34.19,5.04.19,37.71,0,68.27-30.57,68.27-68.27,0-16.29-5.71-31.25-15.24-42.98l21.32-12.31,12.64-7.3,17.78-10.26c3.87,5.55,7.3,11.42,10.25,17.56,8.06,16.72,12.58,35.47,12.58,55.29Z" style="fill: none; stroke: #1d1d1b; stroke-miterlimit: 10; stroke-width: .5px;"/>
  <path d="M73.56,140.32c0,37.7-30.56,68.27-68.27,68.27-1.7,0-3.38-.06-5.04-.19v-60.84c0-10.01,5.17-19.28,13.63-24.54.22-.14.44-.27.67-.4l.16-.1,43.61-25.18c9.53,11.73,15.24,26.69,15.24,42.98Z" style="fill: none; stroke: #1d1d1b; stroke-miterlimit: 10; stroke-width: .5px;"/>
  <path d="M418.79,263.47c0,29.35,18.53,54.38,44.53,64.03l-58.71,33.36c-5.78-4.9-11.12-10.31-15.96-16.15-18.23-22.08-29.19-50.38-29.19-81.24s10.96-59.16,29.19-81.23c19.25-23.28,46.59-39.61,77.71-44.69,1.17,3.16,1.79,6.54,1.79,10.01v50.31c-28.5,8.19-49.36,34.46-49.36,65.6Z" style="fill: none; stroke: #1d1d1b; stroke-miterlimit: 10; stroke-width: .5px;"/>
  <path d="M468.15,197.87v126.88l-4.83,2.75c-26-9.65-44.53-34.68-44.53-64.03,0-31.14,20.86-57.41,49.36-65.6Z" style="fill: none; stroke: #1d1d1b; stroke-miterlimit: 10; stroke-width: .5px;"/>
  <path d="M172.4,438.96c0,13.84-11.21,25.06-25.05,25.06s-25.05-11.22-25.05-25.06,11.22-25.05,25.05-25.05,25.05,11.22,25.05,25.05Z" style="fill: none; stroke: #1d1d1b; stroke-miterlimit: 10; stroke-width: .5px;"/>
  <path d="M79.71,340.26c0,13.83-11.22,25.05-25.05,25.05s-25.06-11.22-25.06-25.05,11.22-25.06,25.06-25.06,25.05,11.22,25.05,25.06Z" style="fill: none; stroke: #1d1d1b; stroke-miterlimit: 10; stroke-width: .5px;"/>
  <path d="M191.95,118.79c0,13.84-11.22,25.05-25.06,25.05s-25.05-11.21-25.05-25.05,11.22-25.05,25.05-25.05,25.06,11.21,25.06,25.05Z" style="fill: none; stroke: #1d1d1b; stroke-miterlimit: 10; stroke-width: .5px;"/>
  <path d="M252.47,44.56c0,13.84-11.22,25.05-25.06,25.05s-25.05-11.21-25.05-25.05,11.22-25.05,25.05-25.05,25.06,11.21,25.06,25.05Z" style="fill: none; stroke: #1d1d1b; stroke-miterlimit: 10; stroke-width: .5px;"/>
  <path id="uuid-1ba11918-19c3-4766-be17-884f8f7cc71f" data-name="&amp;lt;Centre&amp;gt;" d="M323.48,266.31c0,49.52-40.14,89.66-89.66,89.66-1.55,0-3.09-.04-4.61-.12-.55-.02-1.1-.06-1.65-.1-3.57-.24-7.08-.7-10.52-1.35-.54-.1-1.08-.21-1.61-.32-.74-.15-1.48-.31-2.21-.49-2.06-.48-4.1-1.04-6.1-1.66-.46-.14-.91-.29-1.36-.44-.99-.32-1.97-.67-2.95-1.03-.41-.15-.81-.3-1.22-.46-.53-.2-1.06-.41-1.58-.63-.49-.19-.98-.39-1.46-.6-1.31-.56-2.6-1.15-3.87-1.77-.4-.19-.8-.39-1.19-.6-.55-.26-1.09-.54-1.62-.84-.47-.24-.94-.49-1.4-.75-.53-.29-1.05-.59-1.57-.89-.36-.21-.72-.42-1.08-.64-.9-.53-1.79-1.08-2.66-1.65-.32-.21-.64-.41-.95-.63-.35-.22-.69-.45-1.02-.69-.21-.14-.42-.28-.62-.43-.38-.25-.75-.52-1.12-.79-.54-.38-1.07-.78-1.6-1.18-.34-.25-.68-.51-1.01-.77-1.07-.83-2.12-1.68-3.14-2.56-.47-.4-.94-.81-1.4-1.22-.48-.42-.96-.85-1.42-1.29-.15-.13-.29-.26-.43-.4-.46-.43-.91-.86-1.35-1.3-.49-.47-.96-.95-1.43-1.43-.6-.6-1.18-1.22-1.75-1.84-.42-.45-.83-.91-1.25-1.38-.46-.53-.92-1.06-1.38-1.6-.45-.53-.9-1.08-1.34-1.63-.4-.49-.79-.98-1.17-1.48-.38-.48-.75-.97-1.1-1.46-.23-.29-.44-.59-.64-.88-.25-.33-.49-.67-.72-1.01-.13-.17-.25-.34-.37-.52-.26-.38-.52-.77-.78-1.16-.15-.22-.3-.44-.44-.67-.32-.47-.62-.95-.92-1.44-.36-.56-.7-1.13-1.04-1.7-.08-.11-.15-.23-.21-.35-.26-.43-.51-.86-.76-1.3-.13-.23-.26-.46-.39-.7-.25-.45-.5-.91-.75-1.38-.44-.82-.87-1.65-1.28-2.49-.22-.45-.44-.9-.65-1.35-.03-.05-.06-.11-.08-.17-.29-.61-.57-1.22-.84-1.84-.29-.64-.57-1.3-.84-1.95-.24-.56-.46-1.12-.68-1.69-.15-.36-.28-.71-.41-1.07-.2-.53-.4-1.06-.58-1.59-.21-.57-.4-1.14-.59-1.72-.22-.64-.42-1.29-.62-1.94-.48-1.55-.92-3.12-1.31-4.71-.31-1.28-.6-2.56-.86-3.86-.18-.89-.35-1.79-.5-2.7-.09-.54-.18-1.09-.26-1.64-.1-.66-.19-1.32-.28-1.99-.04-.34-.09-.69-.12-1.03-.06-.46-.11-.92-.15-1.39-.15-1.45-.26-2.91-.33-4.39-.04-.64-.06-1.28-.08-1.92-.03-.89-.04-1.79-.04-2.69,0-.77.01-1.55.03-2.31.01-.62.04-1.24.07-1.86.01-.22.02-.44.03-.66.03-.69.08-1.38.13-2.07.28-3.66.78-7.26,1.49-10.79.07-.36.14-.72.22-1.08.03-.15.06-.3.1-.44.17-.81.36-1.61.56-2.41.15-.61.31-1.22.47-1.82.17-.61.34-1.21.51-1.81.18-.6.36-1.2.55-1.8.37-1.19.77-2.37,1.2-3.54.2-.54.4-1.09.61-1.63.01-.05.03-.1.06-.15.22-.56.44-1.13.67-1.69.24-.57.48-1.14.72-1.7.25-.57.5-1.13.76-1.69s.52-1.12.79-1.68c.53-1.11,1.09-2.2,1.68-3.28.29-.54.59-1.08.89-1.61.24-.43.48-.85.73-1.27,2.62-4.48,5.62-8.71,8.96-12.64.29-.34.58-.69.88-1.03,1.21-1.39,2.47-2.74,3.78-4.05.25-.27.5-.52.76-.76.37-.38.75-.75,1.13-1.11.01-.02.03-.03.04-.04.36-.34.72-.68,1.08-1.01.3-.28.6-.55.9-.82,2.1-1.88,4.28-3.67,6.55-5.34.37-.28.74-.55,1.12-.82.44-.32.88-.63,1.34-.94.36-.26.73-.5,1.09-.75,1.53-1.02,3.1-2,4.7-2.93.52-.31,1.05-.61,1.59-.9.5-.28,1-.55,1.51-.82,2.21-1.18,4.47-2.26,6.78-3.24.36-.16.72-.31,1.08-.46.36-.15.73-.3,1.09-.44.48-.19.96-.38,1.45-.55.51-.2,1.03-.39,1.56-.57.02-.02.04-.02.06-.02.49-.18.99-.36,1.49-.52,1.87-.63,3.77-1.19,5.69-1.69.5-.14,1-.26,1.51-.38.12-.04.23-.06.35-.09.51-.12,1.02-.24,1.53-.35.15-.04.31-.07.47-.1.51-.11,1.02-.22,1.53-.31,2.84-.57,5.74-.99,8.67-1.27.5-.05,1-.1,1.5-.13.24-.02.47-.04.71-.06.62-.04,1.25-.08,1.88-.11.74-.04,1.49-.07,2.24-.09h.09c.75-.02,1.52-.03,2.28-.03.88,0,1.75,0,2.62.04.67.02,1.33.04,1.99.08.59.03,1.18.06,1.76.11.34.02.69.04,1.03.07.54.04,1.07.09,1.61.15.11.01.23.02.35.03.65.07,1.3.14,1.95.23.93.11,1.86.25,2.79.4.52.07,1.04.16,1.55.25,1.43.25,2.85.54,4.25.86.31.06.62.14.93.21.78.19,1.56.39,2.34.6.89.23,1.79.49,2.67.76.04,0,.08.01.12.03.02,0,.04.01.06.02.55.16,1.09.33,1.63.51.02,0,.04.01.06.02.52.17,1.05.34,1.57.52.12.04.25.09.37.13.47.17.95.34,1.43.52,1.13.41,2.26.85,3.37,1.32.53.23,1.07.45,1.6.69.54.24,1.08.48,1.62.73.54.25,1.08.51,1.61.77.54.25,1.06.51,1.59.79,1.02.53,2.04,1.07,3.04,1.63.05.02.09.05.13.08.5.28.99.57,1.48.86.48.27.94.56,1.41.85.54.32,1.07.66,1.6,1,.87.57,1.73,1.14,2.58,1.73.66.45,1.3.91,1.94,1.39.37.27.73.54,1.09.82.56.41,1.11.84,1.66,1.28.88.7,1.75,1.42,2.61,2.16.45.38.89.77,1.32,1.16.41.36.81.72,1.2,1.09.62.57,1.24,1.16,1.84,1.76.27.26.53.52.79.78.83.83,1.64,1.68,2.43,2.54.4.43.79.87,1.18,1.31.39.44.78.88,1.16,1.33.38.44.75.89,1.12,1.35,1.54,1.87,3,3.81,4.38,5.82.29.42.58.84.86,1.27.65.98,1.29,1.97,1.9,2.98.63,1.02,1.24,2.06,1.82,3.12.27.47.52.95.77,1.42.85,1.59,1.65,3.2,2.4,4.85.2.44.4.88.59,1.32.07.14.13.28.19.42.22.51.43,1.02.64,1.54.23.55.45,1.1.66,1.66.22.55.43,1.11.63,1.68.42,1.15.82,2.31,1.19,3.49.13.42.26.83.38,1.25.08.23.15.47.21.71.11.35.21.7.31,1.05.69,2.47,1.27,4.97,1.74,7.52.1.53.2,1.06.28,1.59.03.12.05.25.07.38.08.44.14.89.21,1.33.09.62.18,1.25.26,1.88.09.68.17,1.37.24,2.05.07.7.13,1.4.19,2.1.03.4.06.79.08,1.19.05.59.08,1.18.1,1.78.03.51.05,1.02.06,1.54.04.92.05,1.84.05,2.76Z" style="fill: none; stroke: #1d1d1b; stroke-miterlimit: 10; stroke-width: .5px;"/>
</svg>