<?xml version="1.0" encoding="UTF-8"?>
<svg id="uuid-69189076-6022-4dcb-8bc0-e5044c2b6d36" data-name="Pattern" xmlns="http://www.w3.org/2000/svg" width="165.29mm" height="187.62mm" viewBox="0 0 468.54 531.85">
  <path d="M468.15,279.3v76.98h-.01l-90.63-.03c.35-1.01.72-2.02,1.09-3.01.18-.5.38-1,.58-1.5.19-.49.39-.99.6-1.48,0-.02,0-.03,0-.04.23-.56.46-1.11.7-1.66.61-1.42,1.25-2.82,1.91-4.21.11-.25.23-.49.35-.73.25-.53.52-1.06.79-1.58.33-.67.67-1.33,1.02-1.98.49-.93,1-1.86,1.52-2.77.52-.93,1.05-1.85,1.61-2.76.29-.48.59-.97.88-1.44.89-1.45,1.81-2.87,2.78-4.26.63-.93,1.28-1.85,1.94-2.76.33-.45.66-.91,1-1.36.33-.45.67-.9,1.02-1.34.69-.89,1.39-1.77,2.1-2.65.71-.87,1.44-1.73,2.17-2.58.73-.85,1.47-1.68,2.24-2.51h0c.77-.83,1.54-1.67,2.32-2.47,16.89-17.39,39.1-29.54,64.01-33.86Z" style="fill: none; stroke: #1d1d1b; stroke-miterlimit: 10; stroke-width: .5px;"/>
  <path d="M468.15,279.3c-24.91,4.32-47.12,16.47-64.01,33.86l-.27-95.03-.04-4.7,64.27-36.99v.02l.05,102.84Z" style="fill: none; stroke: #1d1d1b; stroke-miterlimit: 10; stroke-width: .5px;"/>
  <path d="M354.14,242.13v114.12s-22.6.66-22.6.66l-90.34,109.85v-111.11c46.08-3.74,82.3-42.32,82.3-89.36,0-2.17-.08-4.31-.23-6.44l30.43-17.48.44-.24Z" style="fill: none; stroke: #1d1d1b; stroke-miterlimit: 10; stroke-width: .5px;"/>
  <path d="M184.2,341.02v125.75h-48v-63.9c10.78-7.1,17.9-19.31,17.9-33.18,0-21.92-17.77-39.69-39.69-39.69h-.2v-87.91l30.12,17.39c-.16,2.25-.25,4.51-.25,6.8,0,.16,0,.33.01.49.16,31.01,16.06,58.27,40.11,74.25Z" style="fill: none; stroke: #1d1d1b; stroke-miterlimit: 10; stroke-width: .5px;"/>
  <path d="M184.21,341.03v125.74h-.01v-125.75s.01,0,.01.01Z" style="fill: none; stroke: #1d1d1b; stroke-miterlimit: 10; stroke-width: .5px;"/>
  <path d="M114.21,242.09v87.91c-11.47.06-21.78,4.98-29,12.8-5.44-10.97-12.55-20.97-21-29.66v-99.92l47.73,27.56,2.27,1.31Z" style="fill: none; stroke: #1d1d1b; stroke-miterlimit: 10; stroke-width: .5px;"/>
  <path d="M64.21,213.22v99.92c-2.36-2.42-4.81-4.75-7.37-6.96-.88-.76-1.77-1.51-2.67-2.25-3.53-2.88-7.22-5.55-11.07-8.01-1.27-.81-2.56-1.6-3.87-2.37-2.64-1.54-5.35-2.99-8.11-4.32-1.23-.6-2.48-1.18-3.74-1.73-6.45-2.85-13.21-5.13-20.2-6.79-.51-.12-1.03-.24-1.54-.35-1.78-.4-3.58-.75-5.39-1.07v-103l63.96,36.93Z" style="fill: none; stroke: #1d1d1b; stroke-miterlimit: 10; stroke-width: .5px;"/>
  <path d="M112.01,195.6l-47.8,17.62L.25,176.29v-28.73c0-5.1,1.34-10.02,3.78-14.3l23.4,13.51,36.78,21.23,47.8,27.6Z" style="fill: none; stroke: #1d1d1b; stroke-miterlimit: 10; stroke-width: .5px;"/>
  <path d="M184.21,98.4h0l-72.11,41.49-.09,55.71-47.8-27.6-36.78-21.23-23.4-13.51c2.35-4.12,5.7-7.66,9.85-10.24.22-.14.44-.27.67-.4l.16-.1,121.81-70.33c10.71,19.91,27.41,36.12,47.69,46.21Z" style="fill: none; stroke: #1d1d1b; stroke-miterlimit: 10; stroke-width: .5px;"/>
  <path d="M184.21,341.03v125.74h-.01v-125.75s.01,0,.01.01Z" style="fill: none; stroke: #1d1d1b; stroke-miterlimit: 10; stroke-width: .5px;"/>
  <path d="M184.21,98.4v93.14c-11.44,7.58-21.03,17.73-27.95,29.61l-42.05-24.28-2.2-1.27.09-55.71,72.11-41.49Z" style="fill: none; stroke: #1d1d1b; stroke-miterlimit: 10; stroke-width: .5px;"/>
  <path d="M346.76,201.09l-35.25,20.31c-1.16-1.99-2.39-3.93-3.72-5.82-.27-.4-.55-.8-.83-1.19-.24-.33-.47-.66-.73-.99-.3-.42-.61-.83-.93-1.25-6.06-8.01-13.45-14.96-21.83-20.54v-94.16l57.77,33.8c-11.02,7.05-18.32,19.4-18.32,33.45,0,16.28,9.81,30.28,23.84,36.39Z" style="fill: none; stroke: #1d1d1b; stroke-miterlimit: 10; stroke-width: .5px;"/>
  <path d="M283.47,97.45v94.16c-6.02-4.02-12.57-7.32-19.51-9.77-.02,0-.03-.01-.04-.01-.47-.17-.95-.34-1.42-.5-.11-.05-.22-.09-.34-.11-.15-.05-.29-.1-.43-.14-.42-.14-.84-.28-1.26-.41-.02-.02-.05-.02-.08-.02-.58-.18-1.15-.36-1.73-.52,0,0-.01,0-.02,0-.35-.09-.69-.19-1.02-.28-.27-.08-.54-.16-.82-.22-.07-.02-.14-.04-.21-.06-.47-.12-.94-.24-1.41-.35-.16-.05-.33-.09-.5-.12-.2-.05-.4-.1-.6-.14-.28-.07-.56-.14-.85-.2-.03,0-.06,0-.09-.02-.37-.08-.73-.16-1.1-.23-.38-.08-.77-.15-1.15-.23-.7-.13-1.39-.26-2.09-.37-.13-.03-.25-.05-.38-.07-.02,0-.04-.01-.06-.01-.06,0-.13-.02-.19-.03-.8-.13-1.6-.24-2.41-.35-.11-.02-.21-.03-.32-.05-.2-.02-.39-.05-.59-.07-.49-.06-.98-.11-1.48-.17-1.74-.19-3.5-.33-5.28-.41-.49-.03-.97-.05-1.46-.06-.44-.02-.89-.03-1.34-.03-.11-.01-.23-.01-.35-.01-.4-.02-.8-.02-1.2-.02-.34,0-.67,0-1,0-.29.01-.57.02-.85.02-.16.01-.32.01-.48.01-1.64.03-3.26.12-4.87.25-2.67.21-5.31.54-7.91.98-.54.1-1.07.2-1.6.29-2.6.48-5.15,1.08-7.66,1.8-.51.13-1.01.28-1.51.44-.5.14-1,.3-1.49.46-.99.31-1.98.65-2.95,1-.46.17-.93.34-1.39.52-.56.21-1.11.42-1.66.64-.43.17-.86.35-1.28.53-.48.2-.95.4-1.42.61-.46.2-.92.4-1.37.61-.48.22-.96.45-1.43.68-.47.22-.93.45-1.39.68-.46.23-.92.47-1.38.71-.45.24-.89.47-1.34.72-.36.2-.73.4-1.1.61-.26.15-.51.29-.77.44-.27.15-.53.31-.79.47-.86.51-1.71,1.03-2.55,1.57-.45.28-.9.57-1.34.87v-93.14c.32.16.64.32.96.47.29.15.58.29.88.42.61.3,1.23.59,1.85.86.62.28,1.23.56,1.85.82.02.01.03.02.04.02.89.38,1.77.75,2.67,1.1,1.98.79,3.98,1.53,6.02,2.2.98.32,1.97.64,2.97.94,1,.29,2,.58,3.01.85,1.01.27,2.02.53,3.04.77.51.12,1.02.24,1.53.35.51.12,1.03.23,1.54.33,1.16.25,2.33.47,3.5.67.91.16,1.83.31,2.74.44,1.47.22,2.93.41,4.41.56.28.03.55.06.82.08.38.04.76.08,1.13.11.54.05,1.07.09,1.61.13.67.05,1.35.09,2.02.13.68.04,1.35.07,2.03.09.68.03,1.36.05,2.04.06s1.36.02,2.04.02c.84,0,1.67,0,2.51-.03.12,0,.24,0,.36-.01.48-.01.96-.03,1.44-.05.25-.01.51-.02.77-.03.58-.03,1.17-.06,1.76-.1.95-.06,1.91-.13,2.86-.22.69-.06,1.38-.13,2.07-.2.55-.06,1.11-.12,1.66-.19.7-.09,1.4-.18,2.1-.29,1.5-.21,2.98-.46,4.46-.74.73-.13,1.46-.28,2.18-.43.63-.13,1.25-.27,1.88-.41.09-.02.18-.04.28-.06.53-.12,1.05-.24,1.58-.37.62-.15,1.24-.31,1.85-.47.61-.16,1.22-.33,1.83-.5.53-.14,1.05-.29,1.57-.45,1.05-.31,2.08-.63,3.11-.97.52-.17,1.03-.34,1.54-.52.51-.18,1.02-.36,1.53-.54,1.07-.39,2.13-.79,3.17-1.2.45-.18.9-.36,1.35-.55.44-.18.89-.37,1.33-.56.42-.18.84-.36,1.25-.54.86-.38,1.71-.77,2.55-1.17.51-.24,1.02-.48,1.52-.74.69-.33,1.37-.68,2.05-1.03Z" style="fill: none; stroke: #1d1d1b; stroke-miterlimit: 10; stroke-width: .5px;"/>
  <path d="M156.26,221.15c-6.67,11.41-10.88,24.43-11.93,38.33l-30.12-17.39-2.27-1.31-47.73-27.56,47.8-17.62,2.2,1.27,42.05,24.28Z" style="fill: none; stroke: #1d1d1b; stroke-miterlimit: 10; stroke-width: .5px;"/>
  <path d="M404.14,313.16c-.79.81-1.56,1.63-2.32,2.46h0c-.77.84-1.51,1.67-2.24,2.52-.73.85-1.46,1.71-2.17,2.58-.71.88-1.41,1.76-2.1,2.65-.35.44-.69.89-1.02,1.34-.34.45-.67.91-1,1.36-.66.91-1.31,1.83-1.94,2.76-.97,1.39-1.89,2.81-2.78,4.26-.29.47-.59.96-.88,1.44-.56.91-1.09,1.83-1.61,2.76-.52.91-1.03,1.84-1.52,2.77-.35.65-.69,1.31-1.02,1.98-.27.52-.54,1.05-.79,1.58-.12.24-.24.48-.35.73-.67,1.39-1.31,2.79-1.91,4.21-.24.55-.47,1.1-.7,1.66,0,.01,0,.02,0,.04-.21.49-.41.99-.6,1.48-.2.5-.4,1-.58,1.5-.05.11-.09.23-.14.34-.14.39-.28.77-.42,1.16-.19.5-.36,1-.54,1.51h-23.36v-114.12l2.52-1.46,10.5-6.06,2.04-1.17,34.63-20.01.04,4.7.27,95.03Z" style="fill: none; stroke: #1d1d1b; stroke-miterlimit: 10; stroke-width: .5px;"/>
  <path d="M403.83,213.43l-34.63,20.01-2.04,1.17-10.5,6.06-2.96,1.7-30.43,17.48c-.57-8.06-2.21-15.83-4.78-23.16-.18-.52-.37-1.05-.56-1.57-.02-.06-.04-.11-.06-.17-.17-.46-.35-.92-.52-1.37-1.62-4.24-3.57-8.31-5.84-12.18l35.25-20.31c4.85,2.13,10.21,3.3,15.85,3.3,4.4,0,8.64-.72,12.6-2.05l28.62,11.09Z" style="fill: none; stroke: #1d1d1b; stroke-miterlimit: 10; stroke-width: .5px;"/>
  <path d="M468.29,138.09l-.19,38.34-64.27,36.99-28.62-11.09c14.37-4.8,25.07-17.6,26.83-33.11.17-1.49.26-3,.26-4.53,0-21.92-17.77-39.69-39.69-39.69-7.87,0-15.2,2.29-21.37,6.24l-57.77-33.8c2.67-1.39,5.27-2.89,7.79-4.49.91-.57,1.81-1.16,2.7-1.76.77-.52,1.53-1.04,2.28-1.58.14-.1.27-.19.41-.3.75-.53,1.48-1.07,2.21-1.63.8-.6,1.6-1.21,2.38-1.85h0c.53-.41,1.05-.84,1.56-1.28.18-.15.36-.3.54-.45.2-.17.39-.33.58-.5.14-.12.28-.24.42-.36.04-.04.09-.07.13-.12,6.35-5.52,12.08-11.76,17.04-18.58.07-.08.12-.16.18-.24.15-.2.29-.4.42-.6.15-.21.3-.42.44-.63.35-.5.69-.99,1.03-1.49.07-.09.13-.18.19-.27.22-.32.43-.65.64-.98.28-.42.55-.84.82-1.26h0c.55-.85,1.08-1.71,1.59-2.57.37-.6.72-1.2,1.06-1.8.66-1.15,1.3-2.3,1.91-3.47.04-.06.05-.11.1-.19l23.81,13.98,50.16,28.91,49.73,28.66.16.1c.23.13.45.26.68.4,2.41,1.5,5.9,3.32,8.87,5.39,3.14,2.19,5.01,5.78,4.99,9.61Z" style="fill: none; stroke: #1d1d1b; stroke-miterlimit: 10; stroke-width: .5px;"/>
  <path d="M241.19,400.59h-.03s.03.04.03.04v66.14h-56.98v-125.74c8.22,5.46,17.4,9.6,27.22,12.1.72.19,1.44.37,2.16.53,2.89.66,5.84,1.19,8.83,1.57.45.06.9.11,1.35.16.29.03.57.06.86.09.2.02.41.04.62.06,1.83.18,3.69.3,5.55.35.47.01.95.03,1.42.04.04,0,.08,0,.12,0,.25,0,.5,0,.75,0,.25.01.5.01.75.01.44,0,.88,0,1.31-.02.75,0,1.5-.02,2.24-.06,1.27-.04,2.54-.11,3.8-.22v44.94Z" style="fill: none; stroke: #1d1d1b; stroke-miterlimit: 10; stroke-width: .5px;"/>
  <path d="M354.14,356.25h-.01l-.49.03-22.1.63-90.34,109.85h-.01s-105,.01-105,.01v12.72h.01s83.53,48.24,83.53,48.24c.21.12.41.23.62.34.15.09.31.17.47.25.18.1.36.19.54.27.29.14.57.28.86.41.35.16.7.31,1.06.45.21.09.43.17.64.26.04.01.08.03.12.04.01,0,.01.01.02.01.27.1.54.19.82.28.3.1.6.2.9.29.3.09.6.18.9.26.61.17,1.22.31,1.83.43.33.06.65.12.98.18.34.05.67.1,1.01.15.06.01.12.02.19.02.32.05.65.08.97.11.34.04.68.06,1.02.08h.03c.45.03.91.04,1.36.04h.52c.06-.01.13-.01.18-.01.25-.01.5-.01.75-.03.18,0,.36-.01.54-.03.17-.01.33-.02.5-.03.3-.03.6-.06.9-.09.25-.02.51-.06.76-.09.06,0,.12-.02.18-.03.8-.12,1.59-.27,2.38-.45.14-.03.28-.07.42-.1,2.58-.65,5.08-1.65,7.45-3.01l9.27-5.35,195.76-113.03c8.95-5.16,14.46-14.71,14.46-25.04v-28.03l-114-.03ZM377.07,441.24c-6.25,4.12-13.74,6.52-21.79,6.52-21.92,0-39.69-17.78-39.69-39.7,0-4.71.82-9.23,2.33-13.43,1.81-5.03,4.61-9.6,8.16-13.46,7.22-7.82,17.53-12.74,29-12.8h.2c21.92,0,39.69,17.77,39.69,39.69,0,13.87-7.12,26.08-17.9,33.18Z" style="fill: none; stroke: #1d1d1b; stroke-miterlimit: 10; stroke-width: .5px;"/>
  <path d="M136.2,402.87v63.9h-.01v12.72l-21.98-12.69v-.03h-.05l-99.45-57.42c-.75-.44-1.48-.9-2.18-1.4-.27-.19-.53-.38-.79-.57-.77-.58-1.51-1.2-2.21-1.84-.01-.01-.02-.02-.03-.02-.23-.22-.46-.44-.68-.66-.67-.67-1.31-1.37-1.91-2.09-4.24-5.11-6.66-11.61-6.66-18.46v-28.05h76.8c-1.51,4.2-2.33,8.72-2.33,13.43,0,21.92,17.77,39.7,39.69,39.7,8.05,0,15.54-2.4,21.79-6.52Z" style="fill: none; stroke: #1d1d1b; stroke-miterlimit: 10; stroke-width: .5px;"/>
  <path d="M85.21,342.8c-3.55,3.86-6.35,8.43-8.16,13.46H.25v-76.97c1.81.32,3.61.67,5.39,1.07.51.11,1.03.23,1.54.35,6.99,1.66,13.75,3.94,20.2,6.79,1.26.55,2.51,1.13,3.74,1.73,2.76,1.33,5.47,2.78,8.11,4.32,1.31.77,2.6,1.56,3.87,2.37,3.85,2.46,7.54,5.13,11.07,8.01.9.74,1.79,1.49,2.67,2.25,2.56,2.21,5.01,4.54,7.37,6.96,8.45,8.69,15.56,18.69,21,29.66Z" style="fill: none; stroke: #1d1d1b; stroke-miterlimit: 10; stroke-width: .5px;"/>
  <path d="M394.97,408.06c0,13.87-7.12,26.08-17.9,33.18-6.25,4.12-13.74,6.52-21.79,6.52-21.92,0-39.69-17.78-39.69-39.7,0-4.71.82-9.23,2.33-13.43,1.81-5.03,4.61-9.6,8.16-13.46,7.22-7.82,17.53-12.74,29-12.8h.2c21.92,0,39.69,17.77,39.69,39.69Z" style="fill: none; stroke: #1d1d1b; stroke-miterlimit: 10; stroke-width: .5px;"/>
  <path d="M402.3,164.7c0,1.53-.09,3.04-.26,4.53-1.76,15.51-12.46,28.31-26.83,33.11-3.96,1.33-8.2,2.05-12.6,2.05-5.64,0-11-1.17-15.85-3.3-14.03-6.11-23.84-20.11-23.84-36.39,0-14.05,7.3-26.4,18.32-33.45,6.17-3.95,13.5-6.24,21.37-6.24,21.92,0,39.69,17.77,39.69,39.69Z" style="fill: none; stroke: #1d1d1b; stroke-miterlimit: 10; stroke-width: .5px;"/>
  <path d="M114.41,330h-.2c-11.47.06-21.78,4.98-29,12.8-3.55,3.86-6.35,8.43-8.16,13.46-1.51,4.2-2.33,8.72-2.33,13.43,0,21.92,17.77,39.7,39.69,39.7,8.05,0,15.54-2.4,21.79-6.52,10.78-7.1,17.9-19.31,17.9-33.18,0-21.92-17.77-39.69-39.69-39.69Z" style="fill: none; stroke: #1d1d1b; stroke-miterlimit: 10; stroke-width: .5px;"/>
  <path d="M355.28,368.37h-.2c-11.47.06-21.78,4.98-29,12.8-3.55,3.86-6.35,8.43-8.16,13.46-1.51,4.2-2.33,8.72-2.33,13.43,0,21.92,17.77,39.7,39.69,39.7,8.05,0,15.54-2.4,21.79-6.52,10.78-7.1,17.9-19.31,17.9-33.18,0-21.92-17.77-39.69-39.69-39.69Z" style="fill: none; stroke: #1d1d1b; stroke-miterlimit: 10; stroke-width: .5px;"/>
  <path d="M329.89,51.05c-.05.08-.06.13-.1.19-.61,1.17-1.25,2.32-1.91,3.47-.35.6-.7,1.2-1.06,1.8-.51.86-1.04,1.72-1.59,2.56h0c-.27.43-.54.85-.82,1.27-.21.33-.42.66-.64.98-.06.09-.12.18-.19.27-.34.5-.68.99-1.03,1.49-.14.21-.29.42-.44.63-.13.2-.27.4-.42.6-.06.08-.11.16-.18.24-4.96,6.82-10.69,13.06-17.04,18.58-.04.05-.09.08-.13.12-.14.12-.28.24-.42.36-.19.17-.38.33-.58.5-.18.15-.36.3-.54.45-.51.44-1.03.87-1.56,1.28h0c-.78.64-1.58,1.25-2.38,1.85-.73.56-1.46,1.1-2.21,1.63-.14.11-.27.2-.41.3-.75.53-1.51,1.06-2.28,1.58-.89.6-1.79,1.19-2.7,1.76-2.52,1.6-5.12,3.1-7.79,4.49-.68.35-1.36.7-2.05,1.03-.5.25-1.01.49-1.52.74-.84.4-1.69.79-2.55,1.17-.41.18-.83.36-1.25.54-.44.19-.89.38-1.33.56-.45.19-.9.37-1.35.55-1.04.41-2.1.81-3.17,1.2-.47.17-.95.34-1.43.51-.03.01-.06.02-.1.03h0c-.51.18-1.03.35-1.54.52-1.94.64-3.91,1.23-5.9,1.76-.47.13-.95.26-1.42.37-.34.09-.69.18-1.03.26-.52.13-1.06.25-1.59.37-.71.17-1.43.32-2.16.47-.73.15-1.45.29-2.18.43-.64.12-1.28.24-1.92.35-.42.07-.84.13-1.26.2-.42.07-.85.13-1.28.19-.7.1-1.4.2-2.1.29-.55.07-1.11.13-1.66.19-.69.07-1.38.14-2.07.2-.95.09-1.91.16-2.86.22-.59.04-1.18.07-1.76.1-.26.01-.52.02-.77.03-.48.02-.96.04-1.44.05-.12.01-.24.01-.36.01-.84.02-1.67.03-2.51.03-.68,0-1.36,0-2.04-.02s-1.36-.03-2.04-.06c-.68-.02-1.35-.05-2.03-.09-.67-.04-1.35-.08-2.02-.13-.54-.04-1.07-.08-1.61-.13-.37-.03-.75-.07-1.13-.11-.27-.02-.54-.05-.82-.08-1.48-.15-2.94-.34-4.41-.56-.91-.13-1.83-.28-2.74-.44-1.17-.2-2.34-.42-3.5-.67-.51-.1-1.03-.21-1.54-.33-.51-.11-1.02-.23-1.53-.35l-3.04-.77c-1.01-.27-2.01-.56-3.01-.85l-2.97-.94-6.02-2.2-2.67-1.1s-.02-.01-.04-.02c-.62-.27-1.24-.54-1.85-.82l-1.85-.86c-.3-.13-.59-.27-.88-.42-.32-.15-.64-.31-.96-.47-.9-.45-1.8-.91-2.69-1.39-.09-.05-.19-.1-.28-.15-.89-.47-1.77-.96-2.64-1.46-1.22-.7-2.43-1.42-3.63-2.17-.89-.56-1.78-1.13-2.66-1.72-.87-.58-1.74-1.18-2.6-1.79-1.15-.81-2.28-1.65-3.39-2.5-1.95-1.5-3.84-3.06-5.68-4.68-.46-.41-.92-.82-1.37-1.23-.46-.41-.91-.83-1.35-1.25-.45-.42-.89-.84-1.33-1.27s-.88-.86-1.31-1.3c-1.85-1.86-3.63-3.79-5.35-5.79-.3-.35-.61-.71-.91-1.07-.29-.34-.58-.69-.87-1.05-.35-.43-.7-.86-1.03-1.29-.31-.38-.62-.78-.92-1.18-.38-.49-.76-.99-1.14-1.5-.9-1.21-1.78-2.44-2.63-3.69-.28-.4-.55-.82-.82-1.23-.37-.55-.73-1.1-1.08-1.66-1.42-2.23-2.75-4.51-4.01-6.84l47.69-27.54,35.53-20.51c4.54-2.61,9.6-3.92,14.66-3.88h.08s.08.01.12,0c.06.01.13.01.18.01,4.79.09,9.57,1.39,13.88,3.87l9.64,5.57,71.59,41.34Z" style="fill: none; stroke: #1d1d1b; stroke-miterlimit: 10; stroke-width: .5px;"/>
  <path id="uuid-ae71a3c8-ca0e-4573-a376-b0a95bd6070f" data-name="&amp;lt;Centre&amp;gt;" d="M323.5,266.29c0,47.04-36.22,85.62-82.3,89.36h-.01c-1.26.11-2.53.18-3.8.22-.74.04-1.49.06-2.24.06-.43.02-.87.02-1.31.02-.25,0-.5,0-.75-.01-.25,0-.5,0-.75,0-.04,0-.08,0-.12,0-.47-.01-.95-.03-1.42-.04-1.86-.05-3.72-.17-5.55-.35-.21-.02-.42-.04-.62-.06-.29-.03-.57-.06-.86-.09-.45-.05-.9-.1-1.35-.16-2.99-.38-5.94-.91-8.83-1.57-.72-.17-1.44-.35-2.16-.53-9.82-2.5-19-6.64-27.22-12.1,0-.01-.01-.01-.01-.01-24.05-15.98-39.95-43.24-40.11-74.25-.01-.16-.01-.33-.01-.49,0-2.29.09-4.55.25-6.8,1.05-13.9,5.26-26.92,11.93-38.33,6.92-11.88,16.51-22.03,27.95-29.61.44-.3.89-.59,1.34-.87.84-.54,1.69-1.06,2.55-1.57.26-.16.52-.32.79-.47.26-.15.51-.29.77-.44.37-.21.74-.41,1.1-.61.45-.25.89-.48,1.34-.72.46-.24.92-.48,1.38-.71.46-.23.92-.46,1.39-.68.47-.23.95-.46,1.43-.68.45-.21.91-.41,1.37-.61.47-.21.94-.41,1.42-.61.42-.18.85-.36,1.28-.53.55-.22,1.1-.43,1.66-.64.46-.18.93-.35,1.39-.52.98-.35,1.96-.68,2.95-1,.5-.16.99-.31,1.49-.46.5-.15,1-.3,1.51-.44,2.51-.71,5.07-1.31,7.66-1.8.53-.09,1.06-.19,1.6-.29,2.6-.43,5.24-.76,7.91-.98,1.61-.12,3.24-.21,4.87-.25.16,0,.32,0,.48-.01.28,0,.56-.01.85-.02.33,0,.66,0,1,0,.4,0,.8,0,1.2.02.12,0,.24,0,.35.01.45,0,.9.01,1.34.03.49,0,.97.03,1.46.06,1.78.08,3.54.22,5.28.41.5.06.99.11,1.48.17.2.02.39.05.59.07.11.02.21.03.32.05.81.11,1.61.22,2.41.35.06.01.13.02.19.03.02,0,.04.01.06.01.13.02.25.04.38.07.7.11,1.39.24,2.09.37.38.08.77.15,1.15.23.37.07.73.15,1.1.23.03.01.06.02.09.02.29.06.57.13.85.2.2.04.4.09.6.14.17.03.34.07.5.12.54.13,1.08.27,1.62.41,1.2.32,2.4.66,3.59,1.03.03,0,.06,0,.08.02.42.13.84.27,1.26.41.14.04.28.09.43.14.59.2,1.18.4,1.76.61.01,0,.02.01.04.01,6.94,2.45,13.49,5.75,19.51,9.77,8.38,5.58,15.77,12.53,21.83,20.54.32.42.63.83.93,1.25.26.33.49.66.73.99.28.39.56.79.83,1.19,1.33,1.89,2.56,3.83,3.72,5.82,2.27,3.87,4.22,7.94,5.84,12.18.17.45.35.91.52,1.37.02.06.04.11.06.17.19.52.38,1.05.56,1.57,2.57,7.33,4.21,15.1,4.78,23.16.15,2.13.23,4.27.23,6.44Z" style="fill: none; stroke: #1d1d1b; stroke-miterlimit: 10; stroke-width: .5px;"/>
</svg>