<?xml version="1.0" encoding="UTF-8"?>
<svg id="uuid-1f5fddaf-f36a-426e-b6b9-a54cf9292428" data-name="pattern" xmlns="http://www.w3.org/2000/svg" width="165.24mm" height="187.62mm" viewBox="0 0 468.4 531.85">
  <path d="M75.1,314.46l-.43,129.5-33-19.05-26.96-15.57c-3.01-1.74-5.64-3.98-7.8-6.58-4.24-5.11-6.66-11.61-6.66-18.46v-34.94c14.58-2.56,28.49-7.1,41.42-13.32,12.06-5.81,23.28-13.08,33.43-21.58Z" style="fill: none; stroke: #1d1d1b; stroke-miterlimit: 10; stroke-width: .5px;"/>
  <path d="M155.49,41.22v117.36h-26.43c-1.8-8.57-4.28-16.88-7.39-24.88-7.77-20.02-19.45-38.08-34.1-53.26l20.54-11.86,13.56-7.83,33.82-19.53Z" style="fill: none; stroke: #1d1d1b; stroke-miterlimit: 10; stroke-width: .5px;"/>
  <path d="M301.67,34.75v123.84h-146.18V41.23c16.47,20.95,42.05,34.41,70.77,34.41,14.61,0,28.4-3.48,40.59-9.66,14.18-7.18,26.19-18,34.82-31.23Z" style="fill: none; stroke: #1d1d1b; stroke-miterlimit: 10; stroke-width: .5px;"/>
  <path d="M268.27,516.4l-10.34,5.97-9.27,5.35c-4.31,2.48-9.09,3.77-13.88,3.86-.05,0-.12,0-.18.01-.04-.01-.08,0-.12,0h-.08c-5.06.04-10.12-1.26-14.66-3.87l-67.79-39.14-9.34-5.39-20.94-12.09-34.57-19.97c19.15-13.54,42.52-21.49,67.75-21.49,54.26,0,99.92,36.77,113.42,86.76Z" style="fill: none; stroke: #1d1d1b; stroke-miterlimit: 10; stroke-width: .5px;"/>
  <path d="M468.15,158.58v220.77l-76.48-43.82-14.41-8.25h0s-24.27-13.92-24.27-13.92c5.45-17.59,13.65-33.97,24.11-48.63,4.46-6.25,9.33-12.2,14.57-17.79.21-.22.41-.44.62-.66,22.37-23.64,11.11-62.58-20.49-70.38l-70.13-17.32h166.48Z" style="fill: none; stroke: #1d1d1b; stroke-miterlimit: 10; stroke-width: .5px;"/>
  <path d="M301.67,444.29l-44.98-25.77-135.02-77.37-30.89-17.7-9.11-5.22-6.57-3.77-.43,129.5,7,4.04,5.43,3.13c19.15-13.54,42.52-21.49,67.75-21.49,54.26,0,99.92,36.77,113.42,86.76l33.4-19.29,14.78-8.53,31.14-17.98-45.92-26.31ZM117.3,425.82c-19.19,0-34.75-15.56-34.75-34.75s15.56-34.75,34.75-34.75,34.75,15.56,34.75,34.75-15.56,34.75-34.75,34.75Z" style="fill: none; stroke: #1d1d1b; stroke-miterlimit: 10; stroke-width: .5px;"/>
  <path d="M457.31,124.98c-1.13-.91-2.34-1.73-3.62-2.47l-62.02-35.81-31.39-18.12-58.61-33.84v123.84h166.48v-11.03c0-8.85-4.05-17.13-10.84-22.57ZM347.98,150.57c-19.2,0-34.75-15.56-34.75-34.75s15.55-34.75,34.75-34.75,34.75,15.56,34.75,34.75-15.56,34.75-34.75,34.75Z" style="fill: none; stroke: #1d1d1b; stroke-miterlimit: 10; stroke-width: .5px;"/>
  <path d="M301.67,158.58v49.11c-1.11-1.29-2.26-2.54-3.45-3.76-.38-.41-.79-.81-1.19-1.21-1.21-1.21-2.45-2.37-3.72-3.49-.85-.76-1.71-1.49-2.58-2.2-3.44-2.83-7.09-5.4-10.93-7.68-.44-.26-.88-.52-1.33-.78-.41-.24-.82-.48-1.24-.71-.46-.25-.92-.5-1.38-.75-.45-.24-.9-.48-1.35-.71-.54-.29-1.08-.56-1.63-.81-.17-.09-.34-.17-.51-.25-.43-.21-.86-.41-1.29-.6-.45-.22-.92-.42-1.38-.62-.07-.03-.13-.06-.2-.09-.61-.27-1.23-.53-1.85-.78-.18-.08-.37-.15-.55-.23-.56-.22-1.13-.44-1.7-.66-.12-.05-.24-.09-.36-.13-.72-.27-1.44-.53-2.17-.78-.76-.26-1.52-.51-2.29-.75-8.49-2.67-17.52-4.11-26.89-4.11-26.63,0-50.55,11.61-66.96,30.04l-34.32-19.67c-.25-8.83-1.22-17.48-2.84-25.89-.16-.83-.33-1.66-.5-2.49h172.61Z" style="fill: none; stroke: #1d1d1b; stroke-miterlimit: 10; stroke-width: .5px;"/>
  <path d="M392.29,246.28c-.21.22-.41.44-.62.66-5.24,5.59-10.11,11.54-14.57,17.79-10.46,14.66-18.66,31.04-24.11,48.63l-33.87-19.4c2.82-8.71,4.35-18.01,4.35-27.66,0-22.4-8.22-42.89-21.8-58.61v-49.11l70.13,17.32c31.6,7.8,42.86,46.74,20.49,70.38Z" style="fill: none; stroke: #1d1d1b; stroke-miterlimit: 10; stroke-width: .5px;"/>
  <path d="M468.15,379.35v4.95c0,10.33-5.51,19.88-14.46,25.04l-62.02,35.81-19.47,11.24-24.61,14.21-45.92-26.31-44.98-25.77,44.98-26.13,43.68-25.37,31.97-18.56-.06-21.18,14.41,8.25,76.48,43.82Z" style="fill: none; stroke: #1d1d1b; stroke-miterlimit: 10; stroke-width: .5px;"/>
  <path d="M377.32,348.46l-31.97,18.56-43.68,25.37-44.98,26.13-135.02-77.37-30.89-17.7-9.11-5.22-6.57-3.77c2.25-1.88,4.44-3.82,6.57-5.82,3.15-2.93,6.17-5.99,9.05-9.17,13.19-14.46,23.75-31.34,30.95-49.9,6.98-17.96,10.8-37.5,10.8-57.93,0-1.57-.02-3.13-.07-4.68l34.32,19.67c-14.12,15.85-22.7,36.73-22.7,59.62,0,31.6,16.34,59.38,41.05,75.34t.01,0c.85.55,1.71,1.08,2.57,1.61h.01c1.3.78,2.62,1.53,3.97,2.25.45.24.91.48,1.36.71,2.54,1.3,5.14,2.48,7.81,3.53,1.27.5,2.56.98,3.86,1.42.65.23,1.31.45,1.96.65t.02.01c8.57,2.73,17.7,4.2,27.17,4.2,27.11,0,51.42-12.04,67.86-31.05,7.73-8.95,13.72-19.45,17.45-30.96l33.87,19.4,24.27,13.91h0s.06,21.19.06,21.19Z" style="fill: none; stroke: #1d1d1b; stroke-miterlimit: 10; stroke-width: .5px;"/>
  <path d="M132.4,186.96c-.25-8.83-1.22-17.48-2.84-25.89-.16-.83-.33-1.66-.5-2.49-1.8-8.57-4.28-16.88-7.39-24.88-7.77-20.02-19.45-38.08-34.1-53.26l-5.9,3.41-40,23.09-26.96,15.57-.16.1c-.23.13-.45.26-.67.4-8.46,5.26-13.63,14.53-13.63,24.54v201.81c14.58-2.56,28.49-7.1,41.42-13.32,12.06-5.81,23.28-13.08,33.43-21.58,2.25-1.88,4.44-3.82,6.57-5.82,3.15-2.93,6.17-5.99,9.05-9.17,13.19-14.46,23.75-31.34,30.95-49.9,6.98-17.96,10.8-37.5,10.8-57.93,0-1.57-.02-3.13-.07-4.68ZM60.04,195.25c-19.2,0-34.75-15.56-34.75-34.75s15.55-34.75,34.75-34.75,34.75,15.56,34.75,34.75-15.56,34.75-34.75,34.75Z" style="fill: none; stroke: #1d1d1b; stroke-miterlimit: 10; stroke-width: .5px;"/>
  <path d="M301.67,34.75c-8.63,13.23-20.64,24.05-34.82,31.23-12.19,6.18-25.98,9.66-40.59,9.66-28.72,0-54.3-13.46-70.77-34.41l26.97-15.57,37.28-21.52c4.54-2.61,9.6-3.92,14.66-3.88h.08s.08.01.12,0c.06.01.13.01.18.01,4.79.09,9.57,1.39,13.88,3.87l1.72.99,7.92,4.58,43.37,25.04Z" style="fill: none; stroke: #1d1d1b; stroke-miterlimit: 10; stroke-width: .5px;"/>
  <path d="M94.79,160.5c0,19.19-15.56,34.75-34.75,34.75s-34.75-15.56-34.75-34.75,15.55-34.75,34.75-34.75,34.75,15.56,34.75,34.75Z" style="fill: none; stroke: #1d1d1b; stroke-miterlimit: 10; stroke-width: .5px;"/>
  <path d="M382.73,115.82c0,19.19-15.56,34.75-34.75,34.75s-34.75-15.56-34.75-34.75,15.55-34.75,34.75-34.75,34.75,15.56,34.75,34.75Z" style="fill: none; stroke: #1d1d1b; stroke-miterlimit: 10; stroke-width: .5px;"/>
  <path d="M152.09,391.06c0,19.19-15.56,34.75-34.75,34.75s-34.75-15.56-34.75-34.75,15.55-34.75,34.75-34.75,34.75,15.56,34.75,34.75Z" style="fill: none; stroke: #1d1d1b; stroke-miterlimit: 10; stroke-width: .5px;"/>
  <path id="uuid-0d974cda-e89c-43ff-b5bf-bc522f35a5df" data-name="&amp;lt;Centre&amp;gt;" d="M323.47,266.3c0,9.65-1.53,18.95-4.35,27.66-3.73,11.51-9.72,22.01-17.45,30.96-16.44,19.01-40.75,31.05-67.86,31.05-9.47,0-18.6-1.47-27.17-4.2t-.02-.01c-.66-.21-1.31-.43-1.96-.65-1.3-.44-2.59-.92-3.86-1.42-2.67-1.05-5.27-2.23-7.81-3.53-.45-.23-.91-.47-1.36-.71-1.35-.72-2.67-1.47-3.97-2.25h-.01c-.86-.53-1.72-1.06-2.57-1.61t-.01,0c-24.71-15.96-41.05-43.74-41.05-75.34,0-22.89,8.58-43.77,22.7-59.62,16.41-18.43,40.33-30.04,66.96-30.04,9.37,0,18.4,1.44,26.89,4.11.77.24,1.53.49,2.29.75.73.25,1.45.51,2.17.78.12.04.24.08.36.13.57.22,1.14.44,1.7.66.18.08.37.15.55.23.62.25,1.24.51,1.85.78.07.03.13.06.2.09.46.2.93.4,1.38.62.43.19.86.39,1.29.6.17.08.34.16.51.25.55.26,1.09.53,1.63.81.45.23.9.47,1.35.71.46.25.92.5,1.38.75.42.23.83.47,1.24.71.45.26.89.52,1.33.78,3.84,2.28,7.49,4.85,10.93,7.68.88.72,1.74,1.46,2.58,2.2,1.27,1.13,2.51,2.29,3.72,3.49.4.4.8.8,1.19,1.21,1.19,1.22,2.34,2.47,3.45,3.76,13.58,15.72,21.8,36.21,21.8,58.61Z" style="fill: none; stroke: #1d1d1b; stroke-miterlimit: 10; stroke-width: .5px;"/>
</svg>