<?xml version="1.0" encoding="UTF-8"?>
<svg id="uuid-ddf6961a-6c5f-44a6-afc0-a5783fef3dac" data-name="Pattern" xmlns="http://www.w3.org/2000/svg" width="165.24mm" height="187.62mm" viewBox="0 0 468.4 531.85">
  <path d="M468.04,145.02c-.82-9.34-6.14-17.77-14.35-22.5l-40.38-23.31-50-28.87-34.1-19.69-23.99,94.37,58.09,16.9,50,14.55,54.84,15.96v-44.87c0-.85-.04-1.7-.11-2.54ZM382.69,122.42c-2.3,6.99-8.22,12.32-15.54,13.76-1.13.23-2.29.36-3.47.38-.18.02-.36.02-.54.02-8.92,0-16.55-5.69-19.38-13.65-.39-1.07-.69-2.19-.89-3.34-.19-1.16-.31-2.35-.31-3.58,0-11.36,9.21-20.57,20.58-20.57.18,0,.36,0,.54.02,1.18.02,2.34.15,3.47.38,3.38.66,6.47,2.17,9.05,4.27,4.57,3.78,7.51,9.5,7.51,15.9,0,2.24-.37,4.4-1.02,6.41Z" style="fill: none; stroke: #1d1d1b; stroke-miterlimit: 10; stroke-width: .5px;"/>
  <path d="M468.15,290.02v94.29c0,2.49-.32,4.93-.93,7.28-15.89-13.05-34.09-23.39-53.91-30.29v-66.87c.11.01.23.01.35.01.18,0,.36,0,.53-.02,1.19-.02,2.35-.15,3.48-.38,3.25-.64,6.21-2.04,8.71-4.02h41.77Z" style="fill: none; stroke: #1d1d1b; stroke-miterlimit: 10; stroke-width: .5px;"/>
  <path d="M468.15,244.5v45.52h-41.77c3.14-2.47,5.55-5.85,6.82-9.74.66-2.01,1.02-4.17,1.02-6.41,0-6.4-2.93-12.12-7.51-15.9-.56-.45-1.13-.88-1.74-1.27l43.18-12.2Z" style="fill: none; stroke: #1d1d1b; stroke-miterlimit: 10; stroke-width: .5px;"/>
  <path d="M413.31,294.42v66.87c-18.21-6.35-37.78-9.8-58.16-9.8-11.77,0-23.27,1.15-34.4,3.35l-10.37-41.86c4.32-7.07,7.68-14.79,9.92-22.97.37-1.33.7-2.68,1-4.04l42.01-11.87,31.71-8.95c-1.25,2.64-1.94,5.6-1.94,8.71,0,1.23.11,2.42.31,3.58.2,1.15.5,2.27.89,3.34,2.79,7.86,10.25,13.5,19.03,13.64Z" style="fill: none; stroke: #1d1d1b; stroke-miterlimit: 10; stroke-width: .5px;"/>
  <path d="M226.02,407.61c-24.48,26.2-41.06,59.86-45.99,97.19l-.05-.03-92.53-53.42,72.62-69.69c2.83,7.96,10.45,13.65,19.38,13.65.18,0,.36,0,.53-.02,1.19-.02,2.35-.15,3.48-.38,7.31-1.44,13.24-6.77,15.53-13.76l27.03,26.46Z" style="fill: none; stroke: #1d1d1b; stroke-miterlimit: 10; stroke-width: .5px;"/>
  <path d="M47.67,314.2l-25.25,99.59-7.71-4.45c-3.01-1.74-5.64-3.98-7.8-6.58-4.24-5.11-6.66-11.61-6.66-18.46v-94.29h30.85c-.06.64-.09,1.29-.09,1.94,0,10.54,7.03,19.44,16.66,22.25Z" style="fill: none; stroke: #1d1d1b; stroke-miterlimit: 10; stroke-width: .5px;"/>
  <path d="M250.32,5.1l-70.34,67.73v51.36l-60.87-61.95,31.29-18.06,29.58-17.08,39.76-22.96c4.54-2.61,9.6-3.92,14.66-3.88h.08s.08.01.12,0c.06.01.13.01.18.01,4.79.09,9.57,1.39,13.88,3.87l1.66.96Z" style="fill: none; stroke: #1d1d1b; stroke-miterlimit: 10; stroke-width: .5px;"/>
  <path d="M179.45,165.3c.18,0,.36,0,.53-.02v29.15c-21.85,16.36-35.99,42.45-35.99,71.84,0,8.22,1.11,16.18,3.18,23.74h-69.87c-.98-11.9-10.95-21.25-23.1-21.25s-22.13,9.35-23.1,21.25H.25v-55.92c1.46.05,2.93.08,4.41.08,18.08,0,35.26-3.87,50.76-10.83,34.73-15.6,60.99-46.71,69.94-84.52,2.19-9.21,3.34-18.81,3.34-28.69,0-16.98-3.41-33.16-9.59-47.9l60.87,61.95c-.17-.02-.35-.02-.53-.02-11.37,0-20.58,9.21-20.58,20.57,0,1.23.11,2.42.31,3.58,1.69,9.66,10.13,16.99,20.27,16.99Z" style="fill: none; stroke: #1d1d1b; stroke-miterlimit: 10; stroke-width: .5px;"/>
  <path d="M329.21,50.65l-23.99,94.37h-105.22c.01-.09.01-.19.01-.28,0-6.4-2.93-12.12-7.51-15.9-2.57-2.1-5.66-3.61-9.04-4.27-1.13-.23-2.29-.36-3.48-.38v-51.36L250.32,5.1l7.98,4.61,70.91,40.94Z" style="fill: none; stroke: #1d1d1b; stroke-miterlimit: 10; stroke-width: .5px;"/>
  <path d="M179.98,338.1v16.08c-.17-.02-.35-.02-.53-.02-11.37,0-20.58,9.21-20.58,20.57,0,1.23.11,2.42.31,3.58.2,1.15.5,2.27.89,3.34l-72.62,69.69-65.03-37.55,25.25-99.59c2.07.61,4.26.94,6.53.94,12.8,0,23.19-10.38,23.19-23.19,0-.65-.03-1.3-.09-1.94h69.87c5.33,19.48,17.07,36.3,32.81,48.09Z" style="fill: none; stroke: #1d1d1b; stroke-miterlimit: 10; stroke-width: .5px;"/>
  <path d="M320.75,354.84c-37.05,7.31-69.94,26.21-94.73,52.76l-27.03-26.46c.66-2.01,1.02-4.17,1.02-6.41,0-6.4-2.93-12.12-7.51-15.9-2.57-2.1-5.66-3.61-9.04-4.27-1.13-.23-2.29-.36-3.48-.38v-16.08c8.43,6.31,18.02,11.17,28.39,14.21.57.17,1.15.33,1.73.49.54.15,1.07.29,1.61.42.05.02.09.03.14.04,1.32.33,2.65.63,3.99.9,1.44.3,2.9.56,4.36.77,4.44.69,8.99,1.04,13.61,1.04,32.42,0,60.82-17.21,76.57-42.99l10.37,41.86Z" style="fill: none; stroke: #1d1d1b; stroke-miterlimit: 10; stroke-width: .5px;"/>
  <path d="M468.15,192.43v52.07l-43.18,12.2c-2.18-1.44-4.65-2.48-7.3-3-1.13-.23-2.29-.36-3.48-.38-.17-.02-.35-.02-.53-.02-2.03,0-4,.29-5.85.84l-102.59-109.12,58.09,16.9,50,14.55,54.84,15.96Z" style="fill: none; stroke: #1d1d1b; stroke-miterlimit: 10; stroke-width: .5px;"/>
  <path d="M467.22,391.59c-1.93,7.4-6.74,13.84-13.53,17.76l-21.51,12.42c-21.29-14.84-47.17-23.54-75.08-23.54-72.6,0-131.45,58.85-131.45,131.44v.63c-2.04-.62-4.02-1.48-5.91-2.57l-39.71-22.93c4.93-37.33,21.51-70.99,45.99-97.19,24.79-26.55,57.68-45.45,94.73-52.76,11.13-2.2,22.63-3.35,34.4-3.35,20.38,0,39.95,3.45,58.16,9.8,19.82,6.9,38.02,17.24,53.91,30.29Z" style="fill: none; stroke: #1d1d1b; stroke-miterlimit: 10; stroke-width: .5px;"/>
  <path d="M407.81,254.13c-5.68,1.68-10.33,5.74-12.79,11.02l-31.71,8.95-42.01,11.87c1.42-6.33,2.17-12.91,2.17-19.66,0-36.17-21.41-67.32-52.24-81.49h0c-1-.47-2.02-.92-3.05-1.34-.51-.21-1.03-.42-1.55-.63-1.07-.42-2.16-.83-3.25-1.21-.55-.2-1.11-.39-1.67-.57-1.15-.38-2.32-.74-3.5-1.07-2.08-.59-4.19-1.1-6.32-1.54-5.89-1.22-11.98-1.86-18.23-1.86-20.13,0-38.71,6.64-53.67,17.83v-29.15c1.19-.02,2.35-.15,3.48-.38,9.34-1.84,16.42-10.02,16.54-19.89h105.22l102.59,109.12Z" style="fill: none; stroke: #1d1d1b; stroke-miterlimit: 10; stroke-width: .5px;"/>
  <path d="M128.7,110.14c0,9.88-1.15,19.48-3.34,28.69-8.95,37.81-35.21,68.92-69.94,84.52-15.5,6.96-32.68,10.83-50.76,10.83-1.48,0-2.95-.03-4.41-.08v-61.43c2.68.36,5.42.55,8.2.55,33.58,0,60.81-27.22,60.81-60.8,0-6.84-1.13-13.41-3.21-19.54l53.06-30.64c6.18,14.74,9.59,30.92,9.59,47.9Z" style="fill: none; stroke: #1d1d1b; stroke-miterlimit: 10; stroke-width: .5px;"/>
  <path d="M432.18,421.77l-18.87,10.9-50,28.86-14.1,8.15-37.6,21.71-53.68,30.99-9.27,5.35c-4.31,2.48-9.09,3.77-13.88,3.86-.05,0-.12,0-.18,0-.04,0-.08,0-.12,0h-.08c-2.95.02-5.9-.41-8.75-1.3v-.63c0-72.59,58.85-131.44,131.45-131.44,27.91,0,53.79,8.7,75.08,23.54Z" style="fill: none; stroke: #1d1d1b; stroke-miterlimit: 10; stroke-width: .5px;"/>
  <path d="M69.26,112.42c0,33.58-27.23,60.8-60.81,60.8-2.78,0-5.52-.19-8.2-.55v-25.11c0-.85.04-1.7.11-2.54.79-9.02,5.78-17.19,13.52-22,.22-.14.44-.27.67-.4l.16-.1,29.67-17.13,21.67-12.51c2.08,6.13,3.21,12.7,3.21,19.54Z" style="fill: none; stroke: #1d1d1b; stroke-miterlimit: 10; stroke-width: .5px;"/>
  <path d="M434.22,273.87c0,2.24-.36,4.4-1.02,6.41-1.27,3.89-3.68,7.27-6.82,9.74-2.5,1.98-5.46,3.38-8.71,4.02-1.13.23-2.29.36-3.48.38-.17.02-.35.02-.53.02-.12,0-.24,0-.35-.01-8.78-.14-16.24-5.78-19.03-13.64-.39-1.07-.69-2.19-.89-3.34-.2-1.16-.31-2.35-.31-3.58,0-3.11.69-6.07,1.94-8.71,2.46-5.28,7.11-9.34,12.79-11.02,1.85-.55,3.82-.84,5.85-.84.18,0,.36,0,.53.02,1.19.02,2.35.15,3.48.38,2.65.52,5.12,1.56,7.3,3,.61.39,1.18.82,1.74,1.27,4.58,3.78,7.51,9.5,7.51,15.9Z" style="fill: none; stroke: #1d1d1b; stroke-miterlimit: 10; stroke-width: .5px;"/>
  <path d="M200.01,144.74c0,.09,0,.19-.01.28-.12,9.87-7.2,18.05-16.54,19.89-1.13.23-2.29.36-3.48.38-.17.02-.35.02-.53.02-10.14,0-18.58-7.33-20.27-16.99-.2-1.16-.31-2.35-.31-3.58,0-11.36,9.21-20.57,20.58-20.57.18,0,.36,0,.53.02,1.19.02,2.35.15,3.48.38,3.38.66,6.47,2.17,9.04,4.27,4.58,3.78,7.51,9.5,7.51,15.9Z" style="fill: none; stroke: #1d1d1b; stroke-miterlimit: 10; stroke-width: .5px;"/>
  <path d="M200.01,374.74c0,2.24-.36,4.4-1.02,6.41-2.29,6.99-8.22,12.32-15.53,13.76-1.13.23-2.29.36-3.48.38-.17.02-.35.02-.53.02-8.93,0-16.55-5.69-19.38-13.65-.39-1.07-.69-2.19-.89-3.34-.2-1.16-.31-2.35-.31-3.58,0-11.36,9.21-20.57,20.58-20.57.18,0,.36,0,.53.02,1.19.02,2.35.15,3.48.38,3.38.66,6.47,2.17,9.04,4.27,4.58,3.78,7.51,9.5,7.51,15.9Z" style="fill: none; stroke: #1d1d1b; stroke-miterlimit: 10; stroke-width: .5px;"/>
  <path d="M383.71,116.01c0,2.24-.37,4.4-1.02,6.41-2.3,6.99-8.22,12.32-15.54,13.76-1.13.23-2.29.36-3.47.38-.18.02-.36.02-.54.02-8.92,0-16.55-5.69-19.38-13.65-.39-1.07-.69-2.19-.89-3.34-.19-1.16-.31-2.35-.31-3.58,0-11.36,9.21-20.57,20.58-20.57.18,0,.36,0,.54.02,1.18.02,2.34.15,3.47.38,3.38.66,6.47,2.17,9.05,4.27,4.57,3.78,7.51,9.5,7.51,15.9Z" style="fill: none; stroke: #1d1d1b; stroke-miterlimit: 10; stroke-width: .5px;"/>
  <path d="M77.39,291.95c0,12.81-10.39,23.19-23.19,23.19-2.27,0-4.46-.33-6.53-.94-9.63-2.81-16.66-11.71-16.66-22.25,0-.65.03-1.3.09-1.94.97-11.9,10.94-21.25,23.1-21.25s22.12,9.35,23.1,21.25c.06.64.09,1.29.09,1.94Z" style="fill: none; stroke: #1d1d1b; stroke-miterlimit: 10; stroke-width: .5px;"/>
  <path id="uuid-5f9d4168-1df4-4737-81cc-8fb303fdc1be" data-name="&amp;lt;Centre&amp;gt;" d="M323.47,266.31c0,6.75-.75,13.33-2.17,19.66-.3,1.36-.63,2.71-1,4.04-2.24,8.18-5.6,15.9-9.92,22.97-15.75,25.78-44.15,42.99-76.57,42.99-4.62,0-9.17-.35-13.61-1.04-1.46-.21-2.92-.47-4.36-.77-1.34-.27-2.67-.57-3.99-.9-.05-.01-.09-.02-.14-.04-.54-.13-1.07-.27-1.61-.42-.58-.16-1.16-.32-1.73-.49-10.37-3.04-19.96-7.9-28.39-14.21-15.74-11.79-27.48-28.61-32.81-48.09-2.07-7.56-3.18-15.52-3.18-23.74,0-29.39,14.14-55.48,35.99-71.84,14.96-11.19,33.54-17.83,53.67-17.83,6.25,0,12.34.64,18.23,1.86,2.13.44,4.24.95,6.32,1.54,1.18.33,2.35.69,3.5,1.07.56.18,1.12.37,1.67.57,1.09.38,2.18.79,3.25,1.21.52.21,1.04.42,1.55.63,1.03.43,2.05.88,3.05,1.34h0c30.83,14.17,52.24,45.32,52.24,81.49Z" style="fill: none; stroke: #1d1d1b; stroke-miterlimit: 10; stroke-width: .5px;"/>
</svg>