<?xml version="1.0" encoding="UTF-8"?>
<svg id="uuid-fe9c588c-60e4-4f6b-9d69-25db0b115b76" data-name="Pattern" xmlns="http://www.w3.org/2000/svg" width="165.24mm" height="187.63mm" viewBox="0 0 468.4 531.85">
  <path d="M.32,145.68c-.05.62-.07,1.24-.07,1.87v95.97c23.02,6.72,44.09,18.02,62.16,32.84l41.28-71.49,24.8-42.96,9.37-16.23H.32ZM46.53,232.03c-5.9,0-11.45-1.55-16.24-4.28-9.96-5.66-16.68-16.37-16.68-28.65s6.43-22.52,16.04-28.27c4.94-2.96,10.71-4.66,16.88-4.66s11.8,1.65,16.69,4.54c9.72,5.72,16.24,16.3,16.24,28.39,0,18.19-14.74,32.93-32.93,32.93Z" style="fill: none; stroke: #1d1d1b; stroke-miterlimit: 10; stroke-width: .5px;"/>
  <path d="M219.51,4.26l-48.64,28.08-87.89,50.75L14.71,122.51c-3.01,1.74-5.64,3.98-7.8,6.58-3.85,4.64-6.2,10.43-6.59,16.59h137.54l13.24-22.94c-9.83-5.69-16.45-16.33-16.45-28.52,0-18.18,14.74-32.92,32.92-32.92,5.99,0,11.62,1.6,16.46,4.4L219.51,4.26Z" style="fill: none; stroke: #1d1d1b; stroke-miterlimit: 10; stroke-width: .5px;"/>
  <path d="M233.48,495.36c-9.6-5.35-16.24-15.37-16.87-26.98h-98.76c-.05.14-.09.29-.14.43l98.32,56.77,17.45-30.22Z" style="fill: none; stroke: #1d1d1b; stroke-miterlimit: 10; stroke-width: .5px;"/>
  <path d="M329.58,145.68h-150.79c-.02-.07-.05-.14-.07-.21-.83-2.46-1.61-4.94-2.35-7.45-.61-2.06-1.19-4.14-1.73-6.22-.1-.32-.18-.65-.26-.97-.07-.25-.13-.5-.19-.74-.06-.21-.11-.42-.16-.63-.24-.93-.47-1.87-.7-2.81,15.44-2.73,27.17-16.21,27.17-32.43,0-12.19-6.62-22.83-16.47-28.52L219.51,4.26l.23-.13c4.54-2.61,9.6-3.91,14.66-3.87h.08s.08,0,.12,0c.06,0,.13,0,.18,0,4.36.08,8.72,1.16,12.71,3.23l82.09,142.18Z" style="fill: none; stroke: #1d1d1b; stroke-miterlimit: 10; stroke-width: .5px;"/>
  <path d="M366.36,265.2l-17.61,30.5c-9.61-1.93-19.01-4.47-28.15-7.57,1.87-7.21,2.87-14.78,2.87-22.58,0-49.52-40.14-89.66-89.66-89.66-13.55,0-26.4,3-37.91,8.39-1.3-2.32-2.57-4.67-3.78-7.04-.61-1.18-1.21-2.37-1.8-3.57-.59-1.18-1.16-2.37-1.72-3.57-2.2-4.65-4.23-9.38-6.1-14.2-.31-.78-.61-1.56-.91-2.35-.22-.57-.43-1.14-.63-1.72-.75-2.03-1.48-4.08-2.17-6.15h150.79l36.14,62.6c-9.61,5.75-16.04,16.26-16.04,28.27s6.72,22.99,16.68,28.65Z" style="fill: none; stroke: #1d1d1b; stroke-miterlimit: 10; stroke-width: .5px;"/>
  <path d="M348.75,295.7l-56.5,97.87H125.86c-5.05-47.13-28.69-88.69-63.45-117.21l41.28-71.49,24.8-42.96,9.37-16.23,13.24-22.94c4.85,2.8,10.47,4.41,16.47,4.41,1.96,0,3.89-.17,5.76-.5.23.94.46,1.88.7,2.81.05.21.1.42.16.63.06.24.12.49.19.74.08.32.16.65.26.97.54,2.08,1.12,4.16,1.73,6.22.74,2.51,1.52,4.99,2.35,7.45.02.07.05.14.07.21.69,2.07,1.42,4.12,2.17,6.15.2.58.41,1.15.63,1.72.3.79.6,1.57.91,2.35,1.87,4.82,3.9,9.55,6.1,14.2.56,1.2,1.13,2.39,1.72,3.57.59,1.2,1.19,2.39,1.8,3.57,1.21,2.37,2.48,4.72,3.78,7.04-30.57,14.28-51.75,45.3-51.75,81.27,0,49.51,40.14,89.66,89.66,89.66,41.72,0,76.78-28.49,86.79-67.08,9.14,3.1,18.54,5.64,28.15,7.57Z" style="fill: none; stroke: #1d1d1b; stroke-miterlimit: 10; stroke-width: .5px;"/>
  <path d="M125.86,393.57c.68,6.24,1.02,12.58,1.02,19,0,19.51-3.17,38.27-9.03,55.81h98.76c-.03-.59-.05-1.19-.05-1.8,0-18.18,14.74-32.93,32.93-32.93,6.19,0,11.98,1.71,16.92,4.68l25.84-44.76H125.86Z" style="fill: none; stroke: #1d1d1b; stroke-miterlimit: 10; stroke-width: .5px;"/>
  <path d="M351.43,468.38h-69.07c-.94,17.35-15.3,31.13-32.87,31.13-5.81,0-11.27-1.51-16.01-4.15l-17.45,30.22,3.71,2.14c4.54,2.61,9.6,3.92,14.66,3.88h.08s.08-.01.12,0c.06-.01.13-.01.18-.01,4.79-.09,9.57-1.39,13.88-3.87l9.64-5.57,93.13-53.77Z" style="fill: none; stroke: #1d1d1b; stroke-miterlimit: 10; stroke-width: .5px;"/>
  <path d="M468.15,147.55v236.75c0,.44-.01.89-.04,1.33-.12,2.74-.63,5.41-1.49,7.94h-174.37l56.5-97.87,17.61-30.5c4.79,2.73,10.34,4.28,16.24,4.28,18.19,0,32.93-14.74,32.93-32.93,0-12.09-6.52-22.67-16.24-28.39l36.08-62.48,14.61-25.31,3.71,2.14c8.41,4.85,13.78,13.57,14.4,23.17.04.62.06,1.24.06,1.87Z" style="fill: none; stroke: #1d1d1b; stroke-miterlimit: 10; stroke-width: .5px;"/>
  <path d="M126.88,412.57c0-6.42-.34-12.76-1.02-19-5.05-47.13-28.69-88.69-63.45-117.21-18.07-14.82-39.14-26.12-62.16-32.84v140.78c0,3.2.53,6.33,1.53,9.27,2.12,6.26,6.35,11.69,12.1,15.27.22.14.44.27.67.4l.16.1,96.59,55.77,5.67,3.27.74.43c.05-.14.09-.29.14-.43,5.86-17.54,9.03-36.3,9.03-55.81Z" style="fill: none; stroke: #1d1d1b; stroke-miterlimit: 10; stroke-width: .5px;"/>
  <path d="M466.62,393.57h-174.37l-25.84,44.76c3.64,2.18,6.82,5.05,9.37,8.43,4.16,5.52,6.63,12.38,6.63,19.82,0,.61-.02,1.21-.05,1.8h69.07l102.26-59.04c6.18-3.56,10.72-9.22,12.93-15.77Z" style="fill: none; stroke: #1d1d1b; stroke-miterlimit: 10; stroke-width: .5px;"/>
  <path d="M449.98,120.37l-14.61,25.31-36.08,62.48c-4.89-2.89-10.6-4.54-16.69-4.54s-11.94,1.7-16.88,4.66l-36.14-62.6L247.49,3.5c.4.2.78.41,1.17.63l9.27,5.35,192.05,110.89Z" style="fill: none; stroke: #1d1d1b; stroke-miterlimit: 10; stroke-width: .5px;"/>
  <path d="M415.53,236.55c0,18.19-14.74,32.93-32.93,32.93-5.9,0-11.45-1.55-16.24-4.28-9.96-5.66-16.68-16.37-16.68-28.65s6.43-22.52,16.04-28.27c4.94-2.96,10.71-4.66,16.88-4.66s11.8,1.65,16.69,4.54c9.72,5.72,16.24,16.3,16.24,28.39Z" style="fill: none; stroke: #1d1d1b; stroke-miterlimit: 10; stroke-width: .5px;"/>
  <path d="M200.5,94.22c0-12.19-6.62-22.83-16.47-28.52-4.84-2.8-10.47-4.4-16.46-4.4-18.18,0-32.92,14.74-32.92,32.92,0,12.19,6.62,22.83,16.45,28.52,4.85,2.8,10.47,4.41,16.47,4.41,1.96,0,3.89-.17,5.76-.5,15.44-2.73,27.17-16.21,27.17-32.43Z" style="fill: none; stroke: #1d1d1b; stroke-miterlimit: 10; stroke-width: .5px;"/>
  <path d="M282.41,466.58c0-7.44-2.47-14.3-6.63-19.82-2.55-3.38-5.73-6.25-9.37-8.43-4.94-2.97-10.73-4.68-16.92-4.68-18.19,0-32.93,14.75-32.93,32.93,0,.61.02,1.21.05,1.8.63,11.61,7.27,21.63,16.87,26.98,4.74,2.64,10.2,4.15,16.01,4.15,17.57,0,31.93-13.78,32.87-31.13.03-.59.05-1.19.05-1.8Z" style="fill: none; stroke: #1d1d1b; stroke-miterlimit: 10; stroke-width: .5px;"/>
  <path d="M79.46,199.1c0,18.19-14.74,32.93-32.93,32.93-5.9,0-11.45-1.55-16.24-4.28-9.96-5.66-16.68-16.37-16.68-28.65s6.43-22.52,16.04-28.27c4.94-2.96,10.71-4.66,16.88-4.66s11.8,1.65,16.69,4.54c9.72,5.72,16.24,16.3,16.24,28.39Z" style="fill: none; stroke: #1d1d1b; stroke-miterlimit: 10; stroke-width: .5px;"/>
  <path id="uuid-0091a5f4-7f66-4824-baf2-beb910ea2879" data-name="&amp;lt;Centre&amp;gt;" d="M323.47,265.55c0,7.8-1,15.37-2.87,22.58-10.01,38.59-45.07,67.08-86.79,67.08-49.52,0-89.66-40.15-89.66-89.66,0-35.97,21.18-66.99,51.75-81.27,11.51-5.39,24.36-8.39,37.91-8.39,49.52,0,89.66,40.14,89.66,89.66Z" style="fill: none; stroke: #1d1d1b; stroke-miterlimit: 10; stroke-width: .5px;"/>
</svg>