<?xml version="1.0" encoding="UTF-8"?>
<svg id="uuid-31a35eff-f59c-4766-b7bd-4e1a07e0f613" data-name="Layer 1" xmlns="http://www.w3.org/2000/svg" width="592.75" height="670.59" viewBox="0 0 592.75 670.59">
  <path d="M177.61,318.4c-.83,5.54-1.11,11.08-1.11,16.9s0,2.08,0,3.05v5.12c0,1.38.14,2.63.28,4.02v1.38c.28,1.94.42,4.02.83,5.96,0,.55.28,1.25.28,1.8,0,.42,0,.83.14,1.25,0,.42.14.83.28,1.25.28,1.11.42,2.22.69,3.32.42,1.8.83,3.46,1.25,5.12.28.83.42,1.66.69,2.49,0,.55.28,1.11.42,1.66.42,1.38.97,2.77,1.38,4.29.28.83.55,1.66.83,2.35v.28c.28.83.69,1.8,1.11,2.63.28.83.69,1.52.97,2.35.42,1.11.97,2.22,1.52,3.32.28.69.69,1.38.97,2.08l1.25,2.49c.69,1.52,1.52,2.91,2.35,4.43.14.28.28.55.55.97.83,1.52,1.8,3.05,2.77,4.57.42.69.97,1.52,1.52,2.22.55.69.97,1.52,1.52,2.22.55.83,1.25,1.66,1.8,2.49.55.69.97,1.25,1.52,1.94.28.28.42.55.69.83.55.69,1.11,1.38,1.66,1.94s.97,1.11,1.52,1.66c.55.69,1.11,1.25,1.66,1.8.42.55.97.97,1.38,1.52.28.28.55.55.83.97v34.93l-121.91-70.22v-102.65l120.91-70.63,1,40.86s-.14.14-.28.28c-.55.55-1.11,1.11-1.52,1.66-.42.42-.69.83-1.11,1.11-.69.69-1.25,1.38-1.8,2.08-.42.55-.97,1.11-1.38,1.66-.69.83-1.38,1.66-1.94,2.49-.55.69-1.11,1.38-1.52,2.08-.28.42-.55.83-.83,1.25-.28.42-.69.97-.97,1.38s-.69.97-.97,1.38v.14c-.42.55-.83,1.11-1.11,1.66-.14.14-.28.42-.42.55-.55.83-1.11,1.66-1.66,2.49-1.11,1.8-2.22,3.74-3.19,5.68-.28.42-.55.83-.69,1.38-.28.42-.42.83-.69,1.38-.28.42-.55.97-.69,1.52-.55.97-.97,2.08-1.52,3.05-.42.83-.83,1.8-1.25,2.77-.42,1.11-.83,2.08-1.25,3.05,0,0,0,.28-.14.42-.42.97-.83,2.08-1.11,3.05-.42,1.11-.83,2.22-1.11,3.32-.42,1.11-.69,2.22-1.11,3.46-.28,1.11-.69,2.22-.97,3.32h0c-.28,1.11-.55,2.22-.83,3.46-.28,1.25-.55,2.35-.69,3.6-.28,1.11-.42,2.35-.69,3.6-.14,1.25-.42,2.35-.55,3.6l.42.14Z" style="fill: none; stroke-width: 0px;"/>
  <polygon points="295.82 504.4 207.74 555.92 207.74 453.29 295.82 504.4" style="fill: none; stroke-width: 0px;"/>
  <path d="M207.74,453.29v102.62l-1.52.97c-26.31-38.09-69.8-63.57-119.24-65.23h-5.26c-25.76,0-49.86,6.37-71.19,17.73-6.65-8.03-10.53-18.28-10.53-29.08v-147.63l86.84,50.55,120.91,70.08h0Z" style="fill: none; stroke-width: 0px;"/>
  <path d="M445.54,591.37l-28.95,16.76-19.39,11.22-13.71,7.89-64.26,37.12c-7.06,4.02-14.96,6.09-22.85,6.09v-165.78l87.11,50.69,62.05,36.01h0Z" style="fill: none; stroke-width: 0px;"/>
  <path d="M503.98,279.34v103.32l-120.49,70.49v-32.27c.42-.42.83-.97,1.25-1.38s.83-.83,1.11-1.25l.83-.83c.42-.42.83-.97,1.25-1.38.28-.28.42-.55.69-.69.69-.83,1.38-1.52,1.94-2.35.83-.97,1.52-1.94,2.35-2.91.14-.14.28-.42.42-.55v-.14c.55-.69,1.11-1.52,1.66-2.35.83-1.11,1.52-2.08,2.22-3.19.28-.42.69-.97.97-1.38.42-.69.83-1.25,1.25-1.94.55-.97,1.25-1.94,1.8-2.91,10.8-18.14,16.9-39.33,16.9-61.91s-2.22-26.73-6.37-39.06c-.28-.83-.55-1.52-.83-2.35-.14-.55-.42-1.11-.69-1.66-.28-.69-.42-1.25-.69-1.8-.55-1.38-1.11-2.77-1.8-4.15-.42-1.11-.97-2.22-1.52-3.32-.42-.69-.69-1.52-1.11-2.22,0-.28-.28-.42-.42-.69-.42-.97-.97-1.8-1.38-2.77-.28-.42-.42-.83-.69-1.25-.42-.83-.97-1.66-1.52-2.49-.55-.83-.97-1.66-1.52-2.63-.55-.83-1.11-1.66-1.66-2.49-.42-.69-.97-1.52-1.52-2.22-.28-.42-.42-.69-.69-1.11-.42-.55-.69-1.11-1.11-1.66-.28-.28-.55-.69-.69-.97-.28-.42-.69-.97-1.11-1.38-.28-.42-.55-.83-.83-1.11-.83-1.11-1.8-2.22-2.77-3.32-.42-.55-.97-1.11-1.38-1.66-1.52-1.8-3.19-3.46-4.85-5.12v-41.44l120.49,69.94.55.58Z" style="fill: none; stroke-width: 0px;"/>
  <path d="M569.9,151.1l-55.95-32.27-9.97-5.68-37.67-21.74-.83-.55c-.42,46.12-36.42,83.79-81.99,86.84v31.85l120.49,69.94,88.64,51.52h.14v-140.29c0-16.34-8.73-31.3-22.85-39.47v-.14Z" style="fill: none; stroke-width: 0px;"/>
  <path d="M418.39,335.29c0,22.57-6.23,43.76-16.9,61.91-.55.97-1.11,1.94-1.8,2.91-.42.69-.83,1.38-1.25,1.94-.28.42-.69.97-.97,1.38-.69,1.11-1.52,2.22-2.22,3.19-.55.83-1.11,1.52-1.66,2.35v.14c0,.14-.28.42-.42.55-.69.97-1.52,1.94-2.35,2.91-.69.83-1.38,1.66-1.94,2.35-.28.28-.42.55-.69.69-.42.55-.83.97-1.25,1.38l-.83.83c-.42.42-.69.83-1.11,1.25s-.83.97-1.25,1.38l-2.49,2.49c-.69.69-1.38,1.38-2.22,2.08-21.74,19.8-50.69,31.99-82.4,31.99s-60.52-12.05-82.27-31.85c-2.22-2.08-4.29-4.15-6.37-6.23-.28-.28-.55-.69-.83-.97-.42-.55-.97-.97-1.38-1.52-.55-.55-1.11-1.25-1.66-1.8s-.97-1.11-1.52-1.66c-.55-.69-1.11-1.38-1.66-1.94-.28-.28-.42-.55-.69-.83-.55-.69-.97-1.25-1.52-1.94-.55-.83-1.25-1.66-1.8-2.49-.55-.69-1.11-1.52-1.52-2.22-.55-.69-.97-1.52-1.52-2.22-.97-1.52-1.94-3.05-2.77-4.57-.14-.28-.42-.55-.55-.97-.83-1.38-1.66-2.91-2.35-4.43l-1.25-2.49c-.42-.69-.69-1.38-.97-2.08-.55-1.11-.97-2.22-1.52-3.32-.28-.83-.69-1.52-.97-2.35-.42-.83-.69-1.8-1.11-2.63v-.28c-.28-.83-.55-1.66-.83-2.35-.55-1.38-.97-2.77-1.38-4.29-.14-.55-.28-1.11-.42-1.66-.28-.83-.42-1.66-.69-2.49-.42-1.66-.83-3.46-1.25-5.12-.28-1.11-.42-2.22-.69-3.32,0-.42-.14-.83-.28-1.25,0-.42-.14-.83-.14-1.25,0-.55-.28-1.25-.28-1.8-.28-1.94-.55-3.88-.83-5.96v-1.38c0-1.38-.28-2.63-.28-4.02v-8.17c0-5.82.42-11.36,1.11-16.9.14-1.25.42-2.35.55-3.6.28-1.25.42-2.35.69-3.6s.55-2.35.69-3.6c.28-1.11.55-2.22.83-3.46h0c.28-1.11.55-2.22.97-3.32.28-1.11.69-2.35,1.11-3.46s.69-2.22,1.11-3.32c.42-.97.69-2.08,1.11-3.05,0,0,0-.28.14-.42.42-1.11.83-2.08,1.25-3.05.42-.97.83-1.8,1.25-2.77.42-1.11.97-2.08,1.52-3.05.28-.55.42-.97.69-1.52.28-.42.42-.83.69-1.38.28-.42.42-.83.69-1.38.97-1.94,2.08-3.74,3.19-5.68.55-.83,1.11-1.66,1.66-2.49,0-.28.28-.42.42-.55.42-.55.69-1.11,1.11-1.66v-.14c.28-.55.69-.97.97-1.38s.55-.97.97-1.38c.28-.42.55-.83.83-1.25.55-.69,1.11-1.38,1.52-2.08.69-.83,1.25-1.66,1.94-2.49.42-.55.97-1.11,1.38-1.66.55-.69,1.25-1.38,1.8-2.08.28-.42.69-.83,1.11-1.11.55-.55.97-1.11,1.52-1.66,0,0,.14-.14.28-.28.42-.42.83-.83,1.25-1.25l.42-.42c1.52-1.52,3.05-3.05,4.71-4.57.55-.55,1.11-1.11,1.8-1.52.14,0,.28-.28.42-.28.28-.28.69-.55.97-.83h0c.69-.55,1.38-1.11,2.08-1.66.55-.42,1.11-.97,1.66-1.38,0,0,.28-.28.42-.28.55-.42,1.11-.83,1.66-1.25q.42-.28,0,0c.42-.28.69-.55,1.11-.83h.14c.42-.28.83-.55,1.25-.83h0c.69-.55,1.38-.97,1.94-1.38.97-.69,1.94-1.25,2.91-1.94.83-.55,1.66-1.11,2.49-1.52.28-.14.55-.42.97-.55.83-.55,1.66-.97,2.63-1.52,17.73-9.97,38.09-15.65,59.83-15.65s3.46,0,5.26,0c16.34.69,31.72,4.57,45.7,11.08.97.42,1.94.83,2.77,1.38.69.42,1.52.69,2.22,1.11.69.28,1.25.69,1.94.97.55.28,1.25.69,1.8.97,1.66.97,3.32,1.94,4.85,2.91.83.42,1.52.97,2.22,1.38.97.69,1.94,1.38,2.91,1.94.83.55,1.66,1.11,2.49,1.8.97.69,1.94,1.52,2.91,2.22.55.42,1.11.97,1.8,1.38.83.55,1.52,1.25,2.22,1.8.69.69,1.52,1.25,2.22,1.94.42.42.83.83,1.25,1.11.28.14.42.42.69.69.55.42.97.97,1.52,1.52l.28.28,1.8,1.8c1.66,1.66,3.19,3.46,4.85,5.12.42.55.97,1.11,1.38,1.66.97,1.11,1.8,2.22,2.77,3.32.28.42.55.69.83,1.11.42.42.69.97,1.11,1.38.28.28.55.69.69.97.42.55.69,1.11,1.11,1.66.28.28.55.69.69,1.11.55.69.97,1.38,1.52,2.22s1.11,1.66,1.66,2.49c.55.83,1.11,1.66,1.52,2.63.55.83.97,1.66,1.52,2.49.28.42.42.83.69,1.25.42.83.97,1.8,1.38,2.77,0,.28.28.42.42.69.42.69.69,1.52,1.11,2.22.55,1.11.97,2.22,1.52,3.32.69,1.38,1.25,2.77,1.8,4.15.28.69.55,1.25.69,1.8.28.55.42,1.11.69,1.66.28.83.55,1.52.83,2.35,4.15,12.19,6.37,25.34,6.37,39.06l-.69-.14Z" style="fill: none; stroke-width: 0px;"/>
  <path d="M178.66,367.56c-.42-1.66-.83-3.46-1.25-5.12.42,1.8.83,3.46,1.25,5.12Z" style="fill: none; stroke-width: 0px;"/>
  <path d="M193.89,401.49c-.97-1.52-1.94-3.05-2.77-4.57.97,1.52,1.8,3.05,2.77,4.57Z" style="fill: none; stroke-width: 0px;"/>
  <polygon points="592.62 330.86 503.98 382.66 503.98 279.34 592.62 330.86" style="fill: none; stroke-width: 0px;"/>
  <path d="M383.49,420.74v32.27l-87.11,50.97-.55.28-87.94-51.1v-33.93c2.08,2.08,4.15,4.15,6.37,6.23,21.74,19.8,50.55,31.85,82.27,31.85s60.66-12.19,82.4-31.99c.69-.69,1.52-1.38,2.22-2.08l2.49-2.49h-.14Z" style="fill: none; stroke-width: 0px;"/>
  <path d="M592.62,330.86l-88.64,51.8-120.49,70.49v102.35l62.05,36.01,58.44-33.79,65.92-38.09c14.13-8.17,22.85-23.27,22.85-39.61v-149.16h-.14Z" style="fill: none; stroke-width: 0px;"/>
  <polygon points="383.49 453.15 383.49 555.36 296.38 504.81 296.38 503.98 383.49 453.15" style="fill: none; stroke-width: 0px;"/>
  <path d="M99.16,107.06l-12.19,7.06-55.54,31.99h0l-8.59,4.99c-2.35,1.38-4.57,2.91-6.51,4.57h0C6.09,164.25.14,177,.14,190.57v141.54l86.84-50.83,120.91-70.63v-.28c-54.98-6.92-99.02-49.17-108.72-103.32h0Z" style="fill: none; stroke-width: 0px;"/>
  <polygon points="0 332.25 0 331.83 86.97 281.42 86.97 382.94 0 332.25" style="fill: none; stroke-width: 0px;"/>
  <path d="M207.74,107.47v102.9c-54.98-6.92-99.02-49.17-108.72-103.32l8.86-5.12h0l45.15-26.18,54.57,31.72h.14Z" style="fill: none; stroke-width: 0px;"/>
  <polygon points="207.74 44.32 207.74 107.47 153.31 75.76 159.96 71.88 207.74 44.32" style="fill: none; stroke-width: 0px;"/>
  <path d="M383.49,209.4v40.44l-1.8-1.8-.28-.28-1.52-1.52-.69-.69c-.42-.42-.83-.83-1.25-1.11-.69-.69-1.52-1.25-2.22-1.94s-1.52-1.25-2.22-1.8c-.55-.55-1.11-.97-1.8-1.38-.97-.83-1.94-1.52-2.91-2.22-.83-.55-1.66-1.11-2.49-1.8-.97-.69-1.94-1.38-2.91-1.94-.69-.55-1.52-.97-2.22-1.38-1.66-.97-3.19-1.94-4.85-2.91-.55-.28-1.25-.69-1.8-.97-.69-.42-1.25-.69-1.94-.97-.69-.42-1.52-.83-2.22-1.11-.97-.42-1.8-.97-2.77-1.38-13.99-6.51-29.5-10.39-45.7-11.08h-5.26c-21.74,0-42.1,5.68-59.83,15.65-.83.42-1.8.97-2.63,1.52-.28.14-.55.42-.97.55-.83.55-1.66.97-2.49,1.52-.97.69-1.94,1.25-2.91,1.94-.69.42-1.25.97-1.94,1.38h0c-.42.28-.83.55-1.25.83h-.14c-.42.28-.69.55-1.11.83q-.28.14,0,0c-.55.42-1.11.83-1.66,1.25,0,0-.28.28-.42.28-.55.42-1.11.83-1.66,1.38-.69.55-1.38,1.11-2.08,1.66h0c-.28.28-.69.55-.97.83,0,0-.28.28-.42.28-.55.55-1.11,1.11-1.8,1.52-1.66,1.52-3.19,3.05-4.71,4.57l-.42.42c-.42.42-.83.83-1.25,1.25V107.19l88.64,51.52h0l20.5,11.91,66.62,38.64-.28.14Z" style="fill: none; stroke-width: 0px;"/>
  <path d="M439.16,75.48l-55.54-32.13-50.55-29.22h0l-6.09-3.46-5.82-3.32-1.94-1.11c-7.06-4.02-14.96-6.09-22.85-6.09v158.71h0l20.5,11.91,66.62,38.64v-31.85c45.56-3.05,81.57-40.72,81.99-86.84l-26.31-15.23h0Z" style="fill: none; stroke-width: 0px;"/>
  <path d="M296.38,504.81v165.78c-7.89,0-15.79-2.08-22.85-6.09l-40.44-23.41-25.21-14.54-11.77-6.79-48.89-28.25,59.14-34.62,1.52-.97,87.94-51.52.55.42h0Z" style="fill: none; stroke-width: 0px;"/>
  <path d="M206.22,556.75l-59.14,34.62-60.11-34.76-64.12-36.98c-4.85-2.77-9-6.37-12.33-10.39,21.19-11.36,45.43-17.73,71.19-17.73s3.46,0,5.26,0c49.44,1.66,92.93,27.14,119.24,65.23Z" style="fill: none; stroke-width: 0px;"/>
  <path d="M296.38.14v158.71l-88.64-51.52v-63.15l2.08-1.25h0l62.18-35.87,1.66-.97c7.06-4.02,14.96-6.09,22.85-6.09l-.14.14Z" style="fill: none; stroke-width: 0px;"/>
  <circle cx="67.72" cy="216.33" r="28.81" style="fill: none; stroke-width: 0px;"/>
  <circle cx="365.49" cy="106.78" r="28.81" style="fill: none; stroke-width: 0px;"/>
  <circle cx="517.14" cy="211.06" r="28.81" style="fill: none; stroke-width: 0px;"/>
  <circle cx="466.72" cy="472.82" r="28.81" style="fill: none; stroke-width: 0px;"/>
</svg>