<?xml version="1.0" encoding="utf-8"?>
<!-- Generator: Adobe Illustrator 28.1.0, SVG Export Plug-In . SVG Version: 6.00 Build 0)  -->
<svg version="1.1" id="Layer_1" xmlns="http://www.w3.org/2000/svg" xmlns:xlink="http://www.w3.org/1999/xlink" x="0px" y="0px"
	 viewBox="0 0 1000 1000" enable-background="new 0 0 1000 1000" xml:space="preserve">
<path fill="none" stroke="#000000" stroke-miterlimit="10" d="M381.4,483.4c-0.8,5.5-1.1,11.1-1.1,16.9s0,2.1,0,3c0,0.6,0,1.1,0,1.7
	c0,0.6,0,1.1,0,1.5c0,0.7,0,1.2,0,1.9c0,1.4,0.1,2.6,0.3,4c0,0.4,0,1,0,1.4c0.3,1.9,0.4,4,0.8,6c0,0.6,0.3,1.2,0.3,1.8
	c0,0.4,0,0.8,0.1,1.2c0,0.4,0.1,0.8,0.3,1.2c0.3,1.1,0.4,2.2,0.7,3.3c0.4,1.8,0.8,3.5,1.2,5.1c0.3,0.8,0.4,1.7,0.7,2.5
	c0,0.6,0.3,1.1,0.4,1.7c0.4,1.4,1,2.8,1.4,4.3c0.3,0.8,0.6,1.7,0.8,2.4v0.3c0.3,0.8,0.7,1.8,1.1,2.6c0.3,0.8,0.7,1.5,1,2.4
	c0.4,1.1,1,2.2,1.5,3.3c0.3,0.7,0.7,1.4,1,2.1c0.4,0.8,0.8,1.7,1.2,2.5c0.7,1.5,1.5,2.9,2.4,4.4c0.1,0.3,0.3,0.6,0.6,1
	c0.8,1.5,1.8,3,2.8,4.6c0.4,0.7,1,1.5,1.5,2.2c0.6,0.7,1,1.5,1.5,2.2c0.6,0.8,1.2,1.7,1.8,2.5c0.6,0.7,1,1.2,1.5,1.9
	c0.3,0.3,0.4,0.6,0.7,0.8c0.6,0.7,1.1,1.4,1.7,1.9c0.6,0.6,1,1.1,1.5,1.7c0.6,0.7,1.1,1.2,1.7,1.8c0.4,0.6,1,1,1.4,1.5
	c0.3,0.3,0.6,0.6,0.8,1v34.9l-121.9-70.2V446.2L412,375.6l1,40.9c0,0-0.1,0.1-0.3,0.3c-0.6,0.6-1.1,1.1-1.5,1.7
	c-0.4,0.4-0.7,0.8-1.1,1.1c-0.7,0.7-1.2,1.4-1.8,2.1c-0.4,0.6-1,1.1-1.4,1.7c-0.7,0.8-1.4,1.7-1.9,2.5c-0.6,0.7-1.1,1.4-1.5,2.1
	c-0.3,0.4-0.6,0.8-0.8,1.2c-0.3,0.4-0.7,1-1,1.4s-0.7,1-1,1.4c0,0,0,0,0,0.1c-0.4,0.6-0.8,1.1-1.1,1.7c-0.1,0.1-0.3,0.4-0.4,0.6
	c-0.6,0.8-1.1,1.7-1.7,2.5c-1.1,1.8-2.2,3.7-3.2,5.7c-0.3,0.4-0.6,0.8-0.7,1.4c-0.3,0.4-0.4,0.8-0.7,1.4c-0.3,0.4-0.6,1-0.7,1.5
	c-0.6,1-1,2.1-1.5,3c-0.4,0.8-0.8,1.8-1.2,2.8c-0.4,1.1-0.8,2.1-1.2,3c0,0,0,0.3-0.1,0.4c-0.4,1-0.8,2.1-1.1,3
	c-0.4,1.1-0.8,2.2-1.1,3.3c-0.4,1.1-0.7,2.2-1.1,3.5c-0.3,1.1-0.7,2.2-1,3.3l0,0c-0.3,1.1-0.6,2.2-0.8,3.5c-0.3,1.2-0.6,2.4-0.7,3.6
	c-0.3,1.1-0.4,2.4-0.7,3.6c-0.1,1.2-0.4,2.4-0.6,3.6L381.4,483.4z"/>
<polygon fill="none" stroke="#000000" stroke-miterlimit="10" points="499.6,669.4 411.5,721 411.5,618.3 "/>
<path fill="none" stroke="#000000" stroke-miterlimit="10" d="M411.5,618.3V721l-1.5,1c-26.3-38.1-69.8-63.6-119.2-65.2
	c-1.8,0-3.5,0-5.3,0c-25.8,0-49.9,6.4-71.2,17.7c-6.6-8-10.5-18.3-10.5-29.1V497.7l86.8,50.6L411.5,618.3L411.5,618.3z"/>
<path fill="none" stroke="#000000" stroke-miterlimit="10" d="M649.3,756.4l-28.9,16.8L601,784.4l-13.7,7.9L523,829.4
	c-7.1,4-15,6.1-22.9,6.1V669.7l87.1,50.7L649.3,756.4L649.3,756.4z"/>
<path fill="none" stroke="#000000" stroke-miterlimit="10" d="M707.8,444.4v103.3l-120.5,70.5v-32.3c0.4-0.4,0.8-1,1.2-1.4
	s0.8-0.8,1.1-1.2c0.3-0.3,0.6-0.6,0.8-0.8c0.4-0.4,0.8-1,1.2-1.4c0.3-0.3,0.4-0.6,0.7-0.7c0.7-0.8,1.4-1.5,1.9-2.4
	c0.8-1,1.5-1.9,2.4-2.9c0.1-0.1,0.3-0.4,0.4-0.6c0,0,0,0,0-0.1c0.6-0.7,1.1-1.5,1.7-2.4c0.8-1.1,1.5-2.1,2.2-3.2
	c0.3-0.4,0.7-1,1-1.4c0.4-0.7,0.8-1.2,1.2-1.9c0.6-1,1.2-1.9,1.8-2.9c10.8-18.1,16.9-39.3,16.9-61.9c0-22.6-2.2-26.7-6.4-39.1
	c-0.3-0.8-0.6-1.5-0.8-2.4c-0.1-0.6-0.4-1.1-0.7-1.7c-0.3-0.7-0.4-1.2-0.7-1.8c-0.6-1.4-1.1-2.8-1.8-4.2c-0.4-1.1-1-2.2-1.5-3.3
	c-0.4-0.7-0.7-1.5-1.1-2.2c0-0.3-0.3-0.4-0.4-0.7c-0.4-1-1-1.8-1.4-2.8c-0.3-0.4-0.4-0.8-0.7-1.2c-0.4-0.8-1-1.7-1.5-2.5
	c-0.6-0.8-1-1.7-1.5-2.6c-0.6-0.8-1.1-1.7-1.7-2.5c-0.4-0.7-1-1.5-1.5-2.2c-0.3-0.4-0.4-0.7-0.7-1.1c-0.4-0.6-0.7-1.1-1.1-1.7
	c-0.3-0.3-0.6-0.7-0.7-1c-0.3-0.4-0.7-1-1.1-1.4c-0.3-0.4-0.6-0.8-0.8-1.1c-0.8-1.1-1.8-2.2-2.8-3.3c-0.4-0.6-1-1.1-1.4-1.7
	c-1.5-1.8-3.2-3.5-4.8-5.1v-41.4l120.5,69.9L707.8,444.4z"/>
<path fill="none" stroke="#000000" stroke-miterlimit="10" d="M773.7,316.1l-56-32.3l-10-5.7l-37.7-21.7l-0.8-0.6
	c-0.4,46.1-36.4,83.8-82,86.8v31.9l120.5,69.9l88.6,51.5h0.1V355.7c0-16.3-8.7-31.3-22.9-39.5L773.7,316.1z"/>
<path fill="none" stroke="#000000" stroke-miterlimit="10" d="M622.2,500.3c0,22.6-6.2,43.8-16.9,61.9c-0.6,1-1.1,1.9-1.8,2.9
	c-0.4,0.7-0.8,1.4-1.2,1.9c-0.3,0.4-0.7,1-1,1.4c-0.7,1.1-1.5,2.2-2.2,3.2c-0.6,0.8-1.1,1.5-1.7,2.4c0,0,0,0,0,0.1
	c0,0.1-0.3,0.4-0.4,0.6c-0.7,1-1.5,1.9-2.4,2.9c-0.7,0.8-1.4,1.7-1.9,2.4c-0.3,0.3-0.4,0.6-0.7,0.7c-0.4,0.6-0.8,1-1.2,1.4
	c-0.3,0.3-0.6,0.6-0.8,0.8c-0.4,0.4-0.7,0.8-1.1,1.2s-0.8,1-1.2,1.4c-0.8,0.8-1.7,1.7-2.5,2.5c-0.7,0.7-1.4,1.4-2.2,2.1
	c-21.7,19.8-50.7,32-82.4,32s-60.5-12-82.3-31.9c-2.2-2.1-4.3-4.2-6.4-6.2c-0.3-0.3-0.6-0.7-0.8-1c-0.4-0.6-1-1-1.4-1.5
	c-0.6-0.6-1.1-1.2-1.7-1.8c-0.6-0.6-1-1.1-1.5-1.7c-0.6-0.7-1.1-1.4-1.7-1.9c-0.3-0.3-0.4-0.6-0.7-0.8c-0.6-0.7-1-1.2-1.5-1.9
	c-0.6-0.8-1.2-1.7-1.8-2.5c-0.6-0.7-1.1-1.5-1.5-2.2c-0.6-0.7-1-1.5-1.5-2.2c-1-1.5-1.9-3-2.8-4.6c-0.1-0.3-0.4-0.6-0.6-1
	c-0.8-1.4-1.7-2.9-2.4-4.4c-0.4-0.8-0.8-1.7-1.2-2.5c-0.4-0.7-0.7-1.4-1-2.1c-0.6-1.1-1-2.2-1.5-3.3c-0.3-0.8-0.7-1.5-1-2.4
	c-0.4-0.8-0.7-1.8-1.1-2.6v-0.3c-0.3-0.8-0.6-1.7-0.8-2.4c-0.6-1.4-1-2.8-1.4-4.3c-0.1-0.6-0.3-1.1-0.4-1.7
	c-0.3-0.8-0.4-1.7-0.7-2.5c-0.4-1.7-0.8-3.5-1.2-5.1c-0.3-1.1-0.4-2.2-0.7-3.3c0-0.4-0.1-0.8-0.3-1.2c0-0.4-0.1-0.8-0.1-1.2
	c0-0.6-0.3-1.2-0.3-1.8c-0.3-1.9-0.6-3.9-0.8-6c0-0.4,0-1,0-1.4c0-1.4-0.3-2.6-0.3-4c0-0.7,0-1.2,0-1.9c0-0.6,0-1,0-1.5
	c0-0.6,0-1.1,0-1.7c0-1,0-2.1,0-3c0-5.8,0.4-11.4,1.1-16.9c0.1-1.2,0.4-2.4,0.6-3.6c0.3-1.2,0.4-2.4,0.7-3.6
	c0.3-1.2,0.6-2.4,0.7-3.6c0.3-1.1,0.6-2.2,0.8-3.5l0,0c0.3-1.1,0.6-2.2,1-3.3c0.3-1.1,0.7-2.4,1.1-3.5s0.7-2.2,1.1-3.3
	c0.4-1,0.7-2.1,1.1-3c0,0,0-0.3,0.1-0.4c0.4-1.1,0.8-2.1,1.2-3c0.4-1,0.8-1.8,1.2-2.8c0.4-1.1,1-2.1,1.5-3c0.3-0.6,0.4-1,0.7-1.5
	c0.3-0.4,0.4-0.8,0.7-1.4c0.3-0.4,0.4-0.8,0.7-1.4c1-1.9,2.1-3.7,3.2-5.7c0.6-0.8,1.1-1.7,1.7-2.5c0-0.3,0.3-0.4,0.4-0.6
	c0.4-0.6,0.7-1.1,1.1-1.7c0,0,0,0,0-0.1c0.3-0.6,0.7-1,1-1.4c0.3-0.4,0.6-1,1-1.4c0.3-0.4,0.6-0.8,0.8-1.2c0.6-0.7,1.1-1.4,1.5-2.1
	c0.7-0.8,1.2-1.7,1.9-2.5c0.4-0.6,1-1.1,1.4-1.7c0.6-0.7,1.2-1.4,1.8-2.1c0.3-0.4,0.7-0.8,1.1-1.1c0.6-0.6,1-1.1,1.5-1.7
	c0,0,0.1-0.1,0.3-0.3c0.4-0.4,0.8-0.8,1.2-1.2l0.4-0.4c1.5-1.5,3-3,4.7-4.6c0.6-0.6,1.1-1.1,1.8-1.5c0.1,0,0.3-0.3,0.4-0.3
	c0.3-0.3,0.7-0.6,1-0.8l0,0c0.7-0.6,1.4-1.1,2.1-1.7c0.6-0.4,1.1-1,1.7-1.4c0,0,0.3-0.3,0.4-0.3c0.6-0.4,1.1-0.8,1.7-1.2
	c0.4-0.3,0.4-0.3,0,0c0.4-0.3,0.7-0.6,1.1-0.8c0,0,0,0,0.1,0c0.4-0.3,0.8-0.6,1.2-0.8l0,0c0.7-0.6,1.4-1,1.9-1.4
	c1-0.7,1.9-1.2,2.9-1.9c0.8-0.6,1.7-1.1,2.5-1.5c0.3-0.1,0.6-0.4,1-0.6c0.8-0.6,1.7-1,2.6-1.5c17.7-10,38.1-15.6,59.8-15.6
	s3.5,0,5.3,0c16.3,0.7,31.7,4.6,45.7,11.1c1,0.4,1.9,0.8,2.8,1.4c0.7,0.4,1.5,0.7,2.2,1.1c0.7,0.3,1.2,0.7,1.9,1
	c0.6,0.3,1.2,0.7,1.8,1c1.7,1,3.3,1.9,4.8,2.9c0.8,0.4,1.5,1,2.2,1.4c1,0.7,1.9,1.4,2.9,1.9c0.8,0.6,1.7,1.1,2.5,1.8
	c1,0.7,1.9,1.5,2.9,2.2c0.6,0.4,1.1,1,1.8,1.4c0.8,0.6,1.5,1.2,2.2,1.8c0.7,0.7,1.5,1.2,2.2,1.9c0.4,0.4,0.8,0.8,1.2,1.1
	c0.3,0.1,0.4,0.4,0.7,0.7c0.6,0.4,1,1,1.5,1.5c0,0,0.1,0.1,0.3,0.3l1.8,1.8c1.7,1.7,3.2,3.5,4.8,5.1c0.4,0.6,1,1.1,1.4,1.7
	c1,1.1,1.8,2.2,2.8,3.3c0.3,0.4,0.6,0.7,0.8,1.1c0.4,0.4,0.7,1,1.1,1.4c0.3,0.3,0.6,0.7,0.7,1c0.4,0.6,0.7,1.1,1.1,1.7
	c0.3,0.3,0.6,0.7,0.7,1.1c0.6,0.7,1,1.4,1.5,2.2s1.1,1.7,1.7,2.5c0.6,0.8,1.1,1.7,1.5,2.6c0.6,0.8,1,1.7,1.5,2.5
	c0.3,0.4,0.4,0.8,0.7,1.2c0.4,0.8,1,1.8,1.4,2.8c0,0.3,0.3,0.4,0.4,0.7c0.4,0.7,0.7,1.5,1.1,2.2c0.6,1.1,1,2.2,1.5,3.3
	c0.7,1.4,1.2,2.8,1.8,4.2c0.3,0.7,0.6,1.2,0.7,1.8c0.3,0.6,0.4,1.1,0.7,1.7c0.3,0.8,0.6,1.5,0.8,2.4c4.2,12.2,6.4,25.3,6.4,39.1
	L622.2,500.3z"/>
<path fill="none" stroke="#000000" stroke-miterlimit="10" d="M382.4,532.6c-0.4-1.7-0.8-3.5-1.2-5.1
	C381.6,529.3,382,530.9,382.4,532.6z"/>
<path fill="none" stroke="#000000" stroke-miterlimit="10" d="M397.7,566.5c-1-1.5-1.9-3-2.8-4.6C395.9,563.5,396.7,565,397.7,566.5
	z"/>
<polygon fill="none" stroke="#000000" stroke-miterlimit="10" points="796.4,495.9 707.8,547.7 707.8,444.4 "/>
<path fill="none" stroke="#000000" stroke-miterlimit="10" d="M587.3,585.8v32.3l-87.1,51l-0.6,0.3l-87.9-51.1v-33.9
	c2.1,2.1,4.2,4.2,6.4,6.2c21.7,19.8,50.6,31.9,82.3,31.9s60.7-12.2,82.4-32c0.7-0.7,1.5-1.4,2.2-2.1c0.8-0.8,1.7-1.7,2.5-2.5H587.3z
	"/>
<path fill="none" stroke="#000000" stroke-miterlimit="10" d="M796.4,495.9l-88.6,51.8l-120.5,70.5v102.3l62,36l58.4-33.8l65.9-38.1
	c14.1-8.2,22.9-23.3,22.9-39.6V495.9H796.4z"/>
<polygon fill="none" stroke="#000000" stroke-miterlimit="10" points="587.3,618.2 587.3,720.4 500.2,669.9 500.2,669 "/>
<path fill="none" stroke="#000000" stroke-miterlimit="10" d="M302.9,272.1l-12.2,7.1l-55.5,32l0,0l-8.6,5c-2.4,1.4-4.6,2.9-6.5,4.6
	l0,0c-10.2,8.6-16.2,21.3-16.2,34.9v141.5l86.8-50.8l120.9-70.6v-0.3C356.7,368.5,312.6,326.2,302.9,272.1L302.9,272.1z"/>
<polygon fill="none" stroke="#000000" stroke-miterlimit="10" points="290.8,446.5 290.8,548 203.8,497.6 203.8,497.1 "/>
<path fill="none" stroke="#000000" stroke-miterlimit="10" d="M411.5,272.5v102.9c-55-6.9-99-49.2-108.7-103.3l8.9-5.1l0,0
	l45.1-26.2l54.6,31.7L411.5,272.5z"/>
<polygon fill="none" stroke="#000000" stroke-miterlimit="10" points="411.5,209.4 411.5,272.5 357.1,240.8 363.7,236.9 "/>
<path fill="none" stroke="#000000" stroke-miterlimit="10" d="M587.3,374.4v40.4l-1.8-1.8l-0.3-0.3c-0.6-0.6-1-1-1.5-1.5
	c-0.3-0.3-0.4-0.4-0.7-0.7c-0.4-0.4-0.8-0.8-1.2-1.1c-0.7-0.7-1.5-1.2-2.2-1.9s-1.5-1.2-2.2-1.8c-0.6-0.6-1.1-1-1.8-1.4
	c-1-0.8-1.9-1.5-2.9-2.2c-0.8-0.6-1.7-1.1-2.5-1.8c-1-0.7-1.9-1.4-2.9-1.9c-0.7-0.6-1.5-1-2.2-1.4c-1.7-1-3.2-1.9-4.8-2.9
	c-0.6-0.3-1.2-0.7-1.8-1c-0.7-0.4-1.2-0.7-1.9-1c-0.7-0.4-1.5-0.8-2.2-1.1c-1-0.4-1.8-1-2.8-1.4c-14-6.5-29.5-10.4-45.7-11.1
	c-1.8,0-3.5,0-5.3,0c-21.7,0-42.1,5.7-59.8,15.6c-0.8,0.4-1.8,1-2.6,1.5c-0.3,0.1-0.6,0.4-1,0.6c-0.8,0.6-1.7,1-2.5,1.5
	c-1,0.7-1.9,1.2-2.9,1.9c-0.7,0.4-1.2,1-1.9,1.4l0,0c-0.4,0.3-0.8,0.6-1.2,0.8c0,0,0,0-0.1,0c-0.4,0.3-0.7,0.6-1.1,0.8
	c-0.3,0.1-0.3,0.1,0,0c-0.6,0.4-1.1,0.8-1.7,1.2c0,0-0.3,0.3-0.4,0.3c-0.6,0.4-1.1,0.8-1.7,1.4c-0.7,0.6-1.4,1.1-2.1,1.7l0,0
	c-0.3,0.3-0.7,0.6-1,0.8c0,0-0.3,0.3-0.4,0.3c-0.6,0.6-1.1,1.1-1.8,1.5c-1.7,1.5-3.2,3-4.7,4.6L413,415c-0.4,0.4-0.8,0.8-1.2,1.2
	v-144l88.6,51.5l0,0l0,0l20.5,11.9l66.6,38.6L587.3,374.4z"/>
<path fill="none" stroke="#000000" stroke-miterlimit="10" d="M642.9,240.5l-55.5-32.1l-50.6-29.2l0,0l-6.1-3.5l-5.8-3.3l-1.9-1.1
	c-7.1-4-15-6.1-22.9-6.1v158.7l0,0l20.5,11.9l66.6,38.6v-31.9c45.6-3,81.6-40.7,82-86.8L642.9,240.5L642.9,240.5z"/>
<path fill="none" stroke="#000000" stroke-miterlimit="10" d="M500.2,323.9L500.2,323.9L500.2,323.9z"/>
<path fill="none" stroke="#000000" stroke-miterlimit="10" d="M500.2,669.9v165.8c-7.9,0-15.8-2.1-22.9-6.1l-40.4-23.4l-25.2-14.5
	l-11.8-6.8L351,756.5l59.1-34.6l1.5-1l87.9-51.5L500.2,669.9L500.2,669.9z"/>
<path fill="none" stroke="#000000" stroke-miterlimit="10" d="M410,721.8l-59.1,34.6l-60.1-34.8l-64.1-37c-4.8-2.8-9-6.4-12.3-10.4
	c21.2-11.4,45.4-17.7,71.2-17.7c25.8,0,3.5,0,5.3,0C340.2,658.2,383.7,683.7,410,721.8z"/>
<path fill="none" stroke="#000000" stroke-miterlimit="10" d="M500.2,165.2v158.7l-88.6-51.5v-63.2l2.1-1.2l0,0l62.2-35.9l1.7-1
	c7.1-4,15-6.1,22.9-6.1L500.2,165.2z"/>
<circle fill="none" stroke="#000000" stroke-miterlimit="10" cx="271.5" cy="381.4" r="28.8"/>
<circle fill="none" stroke="#000000" stroke-miterlimit="10" cx="569.3" cy="271.8" r="28.8"/>
<circle fill="none" stroke="#000000" stroke-miterlimit="10" cx="720.9" cy="376.1" r="28.8"/>
<circle fill="none" stroke="#000000" stroke-miterlimit="10" cx="670.5" cy="637.9" r="28.8"/>
</svg>
